<?xml version="1.0" encoding="utf-8"?>
<!-- Generated by Mocodo 4.3.2 -->
<svg width="1313" height="639" viewBox="0 0 1313 639" xmlns="http://www.w3.org/2000/svg">
<rect x="0" y="0" width="1313" height="639" fill="#f7f7f7" stroke="none" stroke-width="0"/>

<!-- Association CONTIENT_TRANSACTION -->
<g>
	<line x1="975" y1="121" x2="691" y2="35" stroke="#e08214" stroke-width="1"/>
	<line x1="691" y1="121" x2="691" y2="35" stroke="#e08214" stroke-width="1"/>
	<g>
		<path d="M750 9 a14 14 90 0 1 14 14 V35 h-146 V23 a14 14 90 0 1 14 -14" fill="#fdb863" stroke="#fdb863" stroke-width="0"/>
		<path d="M764 35 v12 a14 14 90 0 1 -14 14 H632 a14 14 90 0 1 -14 -14 V35 H146" fill="#fee0b6" stroke="#fee0b6" stroke-width="0"/>
		<rect x="618" y="9" width="146" height="52" fill="none" rx="14" stroke="#e08214" stroke-width="1.5"/>
		<line x1="618" y1="35" x2="764" y2="35" stroke="#e08214" stroke-width="1"/>
		<text x="625" y="27.6" fill="#000000" font-family="Trebuchet MS" font-size="14">contient transaction</text>
	</g>
	<text x="857" y="108.09" fill="#542788" font-family="Verdana" font-size="12">0,N</text>
	<text x="696" y="78" fill="#542788" font-family="Verdana" font-size="12">1,1</text>
</g>

<!-- Association EST_MEMBRE_DE -->
<g>
	<line x1="1207" y1="243" x2="1207" y2="121" stroke="#e08214" stroke-width="1"/>
	<line x1="975" y1="121" x2="1207" y2="121" stroke="#e08214" stroke-width="1"/>
	<g>
		<path d="M1249 95 a14 14 90 0 1 14 14 V121 h-112 V109 a14 14 90 0 1 14 -14" fill="#fdb863" stroke="#fdb863" stroke-width="0"/>
		<path d="M1263 121 v12 a14 14 90 0 1 -14 14 H1165 a14 14 90 0 1 -14 -14 V121 H112" fill="#fee0b6" stroke="#fee0b6" stroke-width="0"/>
		<rect x="1151" y="95" width="112" height="52" fill="none" rx="14" stroke="#e08214" stroke-width="1.5"/>
		<line x1="1151" y1="121" x2="1263" y2="121" stroke="#e08214" stroke-width="1"/>
		<text x="1158" y="113.6" fill="#000000" font-family="Trebuchet MS" font-size="14">est membre de</text>
		<text x="1158" y="139.6" fill="#000000" font-family="Trebuchet MS" font-size="14">Niveau Accès</text>
	</g>
	<text x="1212" y="182" fill="#542788" font-family="Verdana" font-size="12">0,N</text>
	<text x="1071" y="138" fill="#542788" font-family="Verdana" font-size="12">1,N</text>
</g>

<!-- Association EST_UN_ETF -->
<g>
	<line x1="691" y1="392" x2="304" y2="243" stroke="#e08214" stroke-width="1"/>
	<line x1="161" y1="243" x2="304" y2="243" stroke="#e08214" stroke-width="1"/>
	<g>
		<path d="M331 217 a14 14 90 0 1 14 14 V243 h-82 V231 a14 14 90 0 1 14 -14" fill="#fdb863" stroke="#fdb863" stroke-width="0"/>
		<path d="M345 243 v12 a14 14 90 0 1 -14 14 H277 a14 14 90 0 1 -14 -14 V243 H82" fill="#fee0b6" stroke="#fee0b6" stroke-width="0"/>
		<rect x="263" y="217" width="82" height="52" fill="none" rx="14" stroke="#e08214" stroke-width="1.5"/>
		<line x1="263" y1="243" x2="345" y2="243" stroke="#e08214" stroke-width="1"/>
		<text x="270" y="235.6" fill="#000000" font-family="Trebuchet MS" font-size="14">est un ETF</text>
	</g>
	<text x="592" y="377.88" fill="#542788" font-family="Verdana" font-size="12">0,1</text>
	<text x="186" y="260" fill="#542788" font-family="Verdana" font-size="12">1,1</text>
</g>

<!-- Association EST_UNE_DEVISE -->
<g>
	<line x1="691" y1="392" x2="456" y2="243" stroke="#e08214" stroke-width="1"/>
	<line x1="456" y1="121" x2="456" y2="243" stroke="#e08214" stroke-width="1"/>
	<g>
		<path d="M496 217 a14 14 90 0 1 14 14 V243 h-108 V231 a14 14 90 0 1 14 -14" fill="#fdb863" stroke="#fdb863" stroke-width="0"/>
		<path d="M510 243 v12 a14 14 90 0 1 -14 14 H416 a14 14 90 0 1 -14 -14 V243 H108" fill="#fee0b6" stroke="#fee0b6" stroke-width="0"/>
		<rect x="402" y="217" width="108" height="52" fill="none" rx="14" stroke="#e08214" stroke-width="1.5"/>
		<line x1="402" y1="243" x2="510" y2="243" stroke="#e08214" stroke-width="1"/>
		<text x="409" y="235.6" fill="#000000" font-family="Trebuchet MS" font-size="14">est une Devise</text>
	</g>
	<text x="635.91" y="349" fill="#542788" font-family="Verdana" font-size="12">0,1</text>
	<text x="461" y="155" fill="#542788" font-family="Verdana" font-size="12">1,1</text>
</g>

<!-- Association CONTIENT -->
<g>
	<line x1="691" y1="121" x2="691" y2="243" stroke="#e08214" stroke-width="1"/>
	<line x1="691" y1="392" x2="691" y2="243" stroke="#e08214" stroke-width="1"/>
	<g>
		<path d="M826 181 a14 14 90 0 1 14 14 V207 h-298 V195 a14 14 90 0 1 14 -14" fill="#fdb863" stroke="#fdb863" stroke-width="0"/>
		<path d="M840 207 v84 a14 14 90 0 1 -14 14 H556 a14 14 90 0 1 -14 -14 V207 H298" fill="#fee0b6" stroke="#fee0b6" stroke-width="0"/>
		<rect x="542" y="181" width="298" height="124" fill="none" rx="14" stroke="#e08214" stroke-width="1.5"/>
		<line x1="542" y1="207" x2="840" y2="207" stroke="#e08214" stroke-width="1"/>
		<text x="664" y="199.6" fill="#000000" font-family="Trebuchet MS" font-size="14">contient</text>
		<text x="549" y="225.6" fill="#000000" font-family="Trebuchet MS" font-size="14">Quantité</text>
		<text x="549" y="243.6" fill="#000000" font-family="Trebuchet MS" font-size="14">Prix dans devise du portfolio</text>
		<text x="549" y="261.6" fill="#000000" font-family="Trebuchet MS" font-size="14">Prix dans la devise de l’instrument financier</text>
		<text x="549" y="279.6" fill="#000000" font-family="Trebuchet MS" font-size="14">Frais Courtage</text>
		<text x="549" y="297.6" fill="#000000" font-family="Trebuchet MS" font-size="14">Taxes</text>
	</g>
	<text x="696" y="173" fill="#542788" font-family="Verdana" font-size="12">1,1</text>
	<text x="696" y="349" fill="#542788" font-family="Verdana" font-size="12">0,N</text>
</g>

<!-- Association CONTIENT_INSTRUMENT_FINANCIER -->
<g>
	<line x1="975" y1="121" x2="975" y2="243" stroke="#e08214" stroke-width="1"/>
	<line x1="691" y1="392" x2="975" y2="243" stroke="#e08214" stroke-width="1"/>
	<g>
		<path d="M1064 217 a14 14 90 0 1 14 14 V243 h-206 V231 a14 14 90 0 1 14 -14" fill="#fdb863" stroke="#fdb863" stroke-width="0"/>
		<path d="M1078 243 v12 a14 14 90 0 1 -14 14 H886 a14 14 90 0 1 -14 -14 V243 H206" fill="#fee0b6" stroke="#fee0b6" stroke-width="0"/>
		<rect x="872" y="217" width="206" height="52" fill="none" rx="14" stroke="#e08214" stroke-width="1.5"/>
		<line x1="872" y1="243" x2="1078" y2="243" stroke="#e08214" stroke-width="1"/>
		<text x="880" y="235.6" fill="#000000" font-family="Trebuchet MS" font-size="14">contient instrument financier</text>
		<text x="879" y="261.6" fill="#000000" font-family="Trebuchet MS" font-size="14">Quantité</text>
	</g>
	<text x="980" y="191" fill="#542788" font-family="Verdana" font-size="12">0,N</text>
	<text x="735.81" y="349" fill="#542788" font-family="Verdana" font-size="12">1,1</text>
</g>

<!-- Association GERE_ETF -->
<g>
	<line x1="161" y1="568" x2="45" y2="392" stroke="#e08214" stroke-width="1"/>
	<line x1="161" y1="243" x2="45" y2="392" stroke="#e08214" stroke-width="1"/>
	<g>
		<path d="M67 366 a14 14 90 0 1 14 14 V392 h-72 V380 a14 14 90 0 1 14 -14" fill="#fdb863" stroke="#fdb863" stroke-width="0"/>
		<path d="M81 392 v12 a14 14 90 0 1 -14 14 H23 a14 14 90 0 1 -14 -14 V392 H72" fill="#fee0b6" stroke="#fee0b6" stroke-width="0"/>
		<rect x="9" y="366" width="72" height="52" fill="none" rx="14" stroke="#e08214" stroke-width="1.5"/>
		<line x1="9" y1="392" x2="81" y2="392" stroke="#e08214" stroke-width="1"/>
		<text x="17" y="384.6" fill="#000000" font-family="Trebuchet MS" font-size="14">gère ETF</text>
	</g>
	<text x="120.08" y="498" fill="#542788" font-family="Verdana" font-size="12">0,N</text>
	<text x="115" y="266.52" fill="#542788" font-family="Verdana" font-size="12">1,1</text>
</g>

<!-- Association ECHANGE_ETF -->
<g>
	<line x1="304" y1="392" x2="161" y2="392" stroke="#e08214" stroke-width="1"/>
	<line x1="161" y1="243" x2="161" y2="392" stroke="#e08214" stroke-width="1"/>
	<g>
		<path d="M195 366 a14 14 90 0 1 14 14 V392 h-96 V380 a14 14 90 0 1 14 -14" fill="#fdb863" stroke="#fdb863" stroke-width="0"/>
		<path d="M209 392 v12 a14 14 90 0 1 -14 14 H127 a14 14 90 0 1 -14 -14 V392 H96" fill="#fee0b6" stroke="#fee0b6" stroke-width="0"/>
		<rect x="113" y="366" width="96" height="52" fill="none" rx="14" stroke="#e08214" stroke-width="1.5"/>
		<line x1="113" y1="392" x2="209" y2="392" stroke="#e08214" stroke-width="1"/>
		<text x="120" y="384.6" fill="#000000" font-family="Trebuchet MS" font-size="14">échange ETF</text>
	</g>
	<text x="214" y="409" fill="#542788" font-family="Verdana" font-size="12">0,N</text>
	<text x="166" y="295" fill="#542788" font-family="Verdana" font-size="12">1,1</text>
</g>

<!-- Association ECHANGE_ACTION -->
<g>
	<line x1="304" y1="392" x2="456" y2="392" stroke="#e08214" stroke-width="1"/>
	<line x1="456" y1="568" x2="456" y2="392" stroke="#e08214" stroke-width="1"/>
	<g>
		<path d="M499 366 a14 14 90 0 1 14 14 V392 h-114 V380 a14 14 90 0 1 14 -14" fill="#fdb863" stroke="#fdb863" stroke-width="0"/>
		<path d="M513 392 v12 a14 14 90 0 1 -14 14 H413 a14 14 90 0 1 -14 -14 V392 H114" fill="#fee0b6" stroke="#fee0b6" stroke-width="0"/>
		<rect x="399" y="366" width="114" height="52" fill="none" rx="14" stroke="#e08214" stroke-width="1.5"/>
		<line x1="399" y1="392" x2="513" y2="392" stroke="#e08214" stroke-width="1"/>
		<text x="406" y="384.6" fill="#000000" font-family="Trebuchet MS" font-size="14">échange Action</text>
	</g>
	<text x="372" y="409" fill="#542788" font-family="Verdana" font-size="12">0,N</text>
	<text x="461" y="525" fill="#542788" font-family="Verdana" font-size="12">1,1</text>
</g>

<!-- Association CONCERNE -->
<g>
	<line x1="691" y1="392" x2="975" y2="392" stroke="#e08214" stroke-width="1"/>
	<line x1="1207" y1="392" x2="975" y2="392" stroke="#e08214" stroke-width="1"/>
	<g>
		<path d="M998 366 a14 14 90 0 1 14 14 V392 h-74 V380 a14 14 90 0 1 14 -14" fill="#fdb863" stroke="#fdb863" stroke-width="0"/>
		<path d="M1012 392 v12 a14 14 90 0 1 -14 14 H952 a14 14 90 0 1 -14 -14 V392 H74" fill="#fee0b6" stroke="#fee0b6" stroke-width="0"/>
		<rect x="938" y="366" width="74" height="52" fill="none" rx="14" stroke="#e08214" stroke-width="1.5"/>
		<line x1="938" y1="392" x2="1012" y2="392" stroke="#e08214" stroke-width="1"/>
		<text x="945" y="384.6" fill="#000000" font-family="Trebuchet MS" font-size="14">concerne</text>
	</g>
	<text x="769" y="409" fill="#542788" font-family="Verdana" font-size="12">0,N</text>
	<text x="1144" y="409" fill="#542788" font-family="Verdana" font-size="12">1,1</text>
</g>

<!-- Association EMET -->
<g>
	<line x1="456" y1="568" x2="304" y2="568" stroke="#e08214" stroke-width="1"/>
	<line x1="161" y1="568" x2="304" y2="568" stroke="#e08214" stroke-width="1"/>
	<g>
		<path d="M314 542 a14 14 90 0 1 14 14 V568 h-48 V556 a14 14 90 0 1 14 -14" fill="#fdb863" stroke="#fdb863" stroke-width="0"/>
		<path d="M328 568 v12 a14 14 90 0 1 -14 14 H294 a14 14 90 0 1 -14 -14 V568 H48" fill="#fee0b6" stroke="#fee0b6" stroke-width="0"/>
		<rect x="280" y="542" width="48" height="52" fill="none" rx="14" stroke="#e08214" stroke-width="1.5"/>
		<line x1="280" y1="568" x2="328" y2="568" stroke="#e08214" stroke-width="1"/>
		<text x="287" y="560.6" fill="#000000" font-family="Trebuchet MS" font-size="14">émet</text>
	</g>
	<text x="397" y="585" fill="#542788" font-family="Verdana" font-size="12">1,1</text>
	<text x="234" y="585" fill="#542788" font-family="Verdana" font-size="12">0,N</text>
</g>

<!-- Association EST_UNE_ACTION -->
<g>
	<line x1="691" y1="392" x2="691" y2="568" stroke="#e08214" stroke-width="1"/>
	<line x1="456" y1="568" x2="691" y2="568" stroke="#e08214" stroke-width="1"/>
	<g>
		<path d="M731 542 a14 14 90 0 1 14 14 V568 h-108 V556 a14 14 90 0 1 14 -14" fill="#fdb863" stroke="#fdb863" stroke-width="0"/>
		<path d="M745 568 v12 a14 14 90 0 1 -14 14 H651 a14 14 90 0 1 -14 -14 V568 H108" fill="#fee0b6" stroke="#fee0b6" stroke-width="0"/>
		<rect x="637" y="542" width="108" height="52" fill="none" rx="14" stroke="#e08214" stroke-width="1.5"/>
		<line x1="637" y1="568" x2="745" y2="568" stroke="#e08214" stroke-width="1"/>
		<text x="645" y="560.6" fill="#000000" font-family="Trebuchet MS" font-size="14">est une Action</text>
	</g>
	<text x="665" y="444" fill="#542788" font-family="Verdana" font-size="12">0,1</text>
	<text x="494" y="585" fill="#542788" font-family="Verdana" font-size="12">1,1</text>
</g>

<!-- Association EST_UNE_OBLIGATION -->
<g>
	<line x1="691" y1="392" x2="975" y2="568" stroke="#e08214" stroke-width="1"/>
	<line x1="1207" y1="568" x2="975" y2="568" stroke="#e08214" stroke-width="1"/>
	<g>
		<path d="M1028 542 a14 14 90 0 1 14 14 V568 h-134 V556 a14 14 90 0 1 14 -14" fill="#fdb863" stroke="#fdb863" stroke-width="0"/>
		<path d="M1042 568 v12 a14 14 90 0 1 -14 14 H922 a14 14 90 0 1 -14 -14 V568 H134" fill="#fee0b6" stroke="#fee0b6" stroke-width="0"/>
		<rect x="908" y="542" width="134" height="52" fill="none" rx="14" stroke="#e08214" stroke-width="1.5"/>
		<line x1="908" y1="568" x2="1042" y2="568" stroke="#e08214" stroke-width="1"/>
		<text x="916" y="560.6" fill="#000000" font-family="Trebuchet MS" font-size="14">est une Obligation</text>
	</g>
	<text x="726.26" y="444" fill="#542788" font-family="Verdana" font-size="12">0,1</text>
	<text x="1142" y="585" fill="#542788" font-family="Verdana" font-size="12">1,1</text>
</g>

<!-- Entity DEVISE -->
<g>
	<g>
		<rect x="430" y="104" width="52" height="26" fill="#b2abd2" stroke="none" stroke-width="0" opacity="1"/>
		<rect x="430" y="130" width="52" height="8" fill="#d8daeb" stroke="none" stroke-width="0" opacity="1"/>
		<rect x="430" y="104" width="52" height="34" fill="none" stroke="#8073ac" stroke-width="1.5" opacity="1"/>
		<line x1="430" y1="130" x2="482" y2="130" stroke="#8073ac" stroke-width="1"/>
	</g>
	<text x="435" y="122.6" fill="#000000" font-family="Trebuchet MS" font-size="14">Devise</text>
</g>

<!-- Entity TRANSACTION -->
<g>
	<g>
		<rect x="611" y="86" width="160" height="26" fill="#b2abd2" stroke="none" stroke-width="0" opacity="1"/>
		<rect x="611" y="112" width="160" height="44" fill="#d8daeb" stroke="none" stroke-width="0" opacity="1"/>
		<rect x="611" y="86" width="160" height="70" fill="none" stroke="#8073ac" stroke-width="1.5" opacity="1"/>
		<line x1="611" y1="112" x2="771" y2="112" stroke="#8073ac" stroke-width="1"/>
	</g>
	<text x="653" y="104.6" fill="#000000" font-family="Trebuchet MS" font-size="14">Transaction</text>
	<text x="616" y="130.6" fill="#000000" font-family="Trebuchet MS" font-size="14">Identifiant Transaction</text>
	<line x1="616" y1="133" x2="765" y2="133" stroke="#000000" stroke-width="1"/>
	<text x="616" y="148.6" fill="#000000" font-family="Trebuchet MS" font-size="14">type (Vente/Achat)</text>
</g>

<!-- Entity PORTFOLIO -->
<g>
	<g>
		<rect x="884" y="68" width="182" height="26" fill="#b2abd2" stroke="none" stroke-width="0" opacity="1"/>
		<rect x="884" y="94" width="182" height="80" fill="#d8daeb" stroke="none" stroke-width="0" opacity="1"/>
		<rect x="884" y="68" width="182" height="106" fill="none" stroke="#8073ac" stroke-width="1.5" opacity="1"/>
		<line x1="884" y1="94" x2="1066" y2="94" stroke="#8073ac" stroke-width="1"/>
	</g>
	<text x="947" y="86.6" fill="#000000" font-family="Trebuchet MS" font-size="14">Portfolio</text>
	<text x="889" y="112.6" fill="#000000" font-family="Trebuchet MS" font-size="14">Identifiant Portfolio</text>
	<line x1="889" y1="115" x2="1018" y2="115" stroke="#000000" stroke-width="1"/>
	<text x="889" y="130.6" fill="#000000" font-family="Trebuchet MS" font-size="14">Nom Portfolio</text>
	<text x="889" y="148.6" fill="#000000" font-family="Trebuchet MS" font-size="14">Description</text>
	<text x="889" y="166.6" fill="#000000" font-family="Trebuchet MS" font-size="14">Date De Création Portfolio</text>
</g>

<!-- Entity ETF -->
<g>
	<g>
		<rect x="141" y="208" width="40" height="26" fill="#b2abd2" stroke="none" stroke-width="0" opacity="1"/>
		<rect x="141" y="234" width="40" height="44" fill="#d8daeb" stroke="none" stroke-width="0" opacity="1"/>
		<rect x="141" y="208" width="40" height="70" fill="none" stroke="#8073ac" stroke-width="1.5" opacity="1"/>
		<line x1="141" y1="234" x2="181" y2="234" stroke="#8073ac" stroke-width="1"/>
	</g>
	<text x="149" y="226.6" fill="#000000" font-family="Trebuchet MS" font-size="14">ETF</text>
	<text x="146" y="252.6" fill="#000000" font-family="Trebuchet MS" font-size="14">ISIN</text>
	<line x1="146" y1="255" x2="171" y2="255" stroke="#000000" stroke-width="1"/>
	<text x="146" y="270.6" fill="#000000" font-family="Trebuchet MS" font-size="14">Nom</text>
</g>

<!-- Entity UTILISATEUR -->
<g>
	<g>
		<rect x="1110" y="190" width="194" height="26" fill="#b2abd2" stroke="none" stroke-width="0" opacity="1"/>
		<rect x="1110" y="216" width="194" height="80" fill="#d8daeb" stroke="none" stroke-width="0" opacity="1"/>
		<rect x="1110" y="190" width="194" height="106" fill="none" stroke="#8073ac" stroke-width="1.5" opacity="1"/>
		<line x1="1110" y1="216" x2="1304" y2="216" stroke="#8073ac" stroke-width="1"/>
	</g>
	<text x="1173" y="208.6" fill="#000000" font-family="Trebuchet MS" font-size="14">Utilisateur</text>
	<text x="1115" y="234.6" fill="#000000" font-family="Trebuchet MS" font-size="14">Adresse Mail</text>
	<line x1="1115" y1="237" x2="1196" y2="237" stroke="#000000" stroke-width="1"/>
	<text x="1115" y="252.6" fill="#000000" font-family="Trebuchet MS" font-size="14">Nom</text>
	<text x="1115" y="270.6" fill="#000000" font-family="Trebuchet MS" font-size="14">Mot De Passe</text>
	<text x="1115" y="288.6" fill="#000000" font-family="Trebuchet MS" font-size="14">Date De Création Utilisateur</text>
</g>

<!-- Entity BOURSE -->
<g>
	<g>
		<rect x="241" y="303" width="126" height="26" fill="#b2abd2" stroke="none" stroke-width="0" opacity="1"/>
		<rect x="241" y="329" width="126" height="152" fill="#d8daeb" stroke="none" stroke-width="0" opacity="1"/>
		<rect x="241" y="303" width="126" height="178" fill="none" stroke="#8073ac" stroke-width="1.5" opacity="1"/>
		<line x1="241" y1="329" x2="367" y2="329" stroke="#8073ac" stroke-width="1"/>
	</g>
	<text x="282" y="321.6" fill="#000000" font-family="Trebuchet MS" font-size="14">Bourse</text>
	<text x="246" y="347.6" fill="#000000" font-family="Trebuchet MS" font-size="14">Identifiant Bourse</text>
	<line x1="246" y1="350" x2="362" y2="350" stroke="#000000" stroke-width="1"/>
	<text x="246" y="365.6" fill="#000000" font-family="Trebuchet MS" font-size="14">Nom</text>
	<text x="246" y="383.6" fill="#000000" font-family="Trebuchet MS" font-size="14">Pays</text>
	<text x="246" y="401.6" fill="#000000" font-family="Trebuchet MS" font-size="14">Ville</text>
	<text x="246" y="419.6" fill="#000000" font-family="Trebuchet MS" font-size="14">Fuseau horaire</text>
	<text x="246" y="437.6" fill="#000000" font-family="Trebuchet MS" font-size="14">Heure ouveture</text>
	<text x="246" y="455.6" fill="#000000" font-family="Trebuchet MS" font-size="14">Heure fermeture</text>
</g>

<!-- Entity INSTRUMENT_FINANCIER -->
<g>
	<g>
		<rect x="618" y="357" width="146" height="26" fill="#b2abd2" stroke="none" stroke-width="0" opacity="1"/>
		<rect x="618" y="383" width="146" height="44" fill="#d8daeb" stroke="none" stroke-width="0" opacity="1"/>
		<rect x="618" y="357" width="146" height="70" fill="none" stroke="#8073ac" stroke-width="1.5" opacity="1"/>
		<line x1="618" y1="383" x2="764" y2="383" stroke="#8073ac" stroke-width="1"/>
	</g>
	<text x="624" y="375.6" fill="#000000" font-family="Trebuchet MS" font-size="14">Instrument Financier</text>
	<text x="623" y="401.6" fill="#000000" font-family="Trebuchet MS" font-size="14">ISIN</text>
	<line x1="623" y1="404" x2="648" y2="404" stroke="#000000" stroke-width="1"/>
	<text x="623" y="419.6" fill="#000000" font-family="Trebuchet MS" font-size="14">Devise échange</text>
</g>

<!-- Entity COURS -->
<g>
	<g>
		<rect x="1170" y="321" width="74" height="26" fill="#b2abd2" stroke="none" stroke-width="0" opacity="1"/>
		<rect x="1170" y="347" width="74" height="116" fill="#d8daeb" stroke="none" stroke-width="0" opacity="1"/>
		<rect x="1170" y="321" width="74" height="142" fill="none" stroke="#8073ac" stroke-width="1.5" opacity="1"/>
		<line x1="1170" y1="347" x2="1244" y2="347" stroke="#8073ac" stroke-width="1"/>
	</g>
	<text x="1189" y="339.6" fill="#000000" font-family="Trebuchet MS" font-size="14">Cours</text>
	<text x="1175" y="365.6" fill="#000000" font-family="Trebuchet MS" font-size="14">DateTime</text>
	<line x1="1175" y1="368" x2="1238" y2="368" stroke="#000000" stroke-width="1"/>
	<text x="1175" y="383.6" fill="#000000" font-family="Trebuchet MS" font-size="14">Open</text>
	<text x="1175" y="401.6" fill="#000000" font-family="Trebuchet MS" font-size="14">Close</text>
	<text x="1175" y="419.6" fill="#000000" font-family="Trebuchet MS" font-size="14">High</text>
	<text x="1175" y="437.6" fill="#000000" font-family="Trebuchet MS" font-size="14">Low</text>
	<text x="1175" y="455.6" fill="#000000" font-family="Trebuchet MS" font-size="14">Volume</text>
</g>

<!-- Entity ENTREPRISE -->
<g>
	<g>
		<rect x="93" y="506" width="136" height="26" fill="#b2abd2" stroke="none" stroke-width="0" opacity="1"/>
		<rect x="93" y="532" width="136" height="98" fill="#d8daeb" stroke="none" stroke-width="0" opacity="1"/>
		<rect x="93" y="506" width="136" height="124" fill="none" stroke="#8073ac" stroke-width="1.5" opacity="1"/>
		<line x1="93" y1="532" x2="229" y2="532" stroke="#8073ac" stroke-width="1"/>
	</g>
	<text x="128" y="524.6" fill="#000000" font-family="Trebuchet MS" font-size="14">Entreprise</text>
	<text x="98" y="550.6" fill="#000000" font-family="Trebuchet MS" font-size="14">Pays</text>
	<line x1="98" y1="553" x2="127" y2="553" stroke="#000000" stroke-width="1"/>
	<text x="98" y="568.6" fill="#000000" font-family="Trebuchet MS" font-size="14">Numero_entreprise</text>
	<line x1="98" y1="571" x2="223" y2="571" stroke="#000000" stroke-width="1"/>
	<text x="98" y="586.6" fill="#000000" font-family="Trebuchet MS" font-size="14">Nom</text>
	<text x="98" y="604.6" fill="#000000" font-family="Trebuchet MS" font-size="14">Secteur d’activité</text>
	<text x="98" y="622.6" fill="#000000" font-family="Trebuchet MS" font-size="14">Emplacement</text>
</g>

<!-- Entity ACTION -->
<g>
	<g>
		<rect x="423" y="533" width="66" height="26" fill="#b2abd2" stroke="none" stroke-width="0" opacity="1"/>
		<rect x="423" y="559" width="66" height="44" fill="#d8daeb" stroke="none" stroke-width="0" opacity="1"/>
		<rect x="423" y="533" width="66" height="70" fill="none" stroke="#8073ac" stroke-width="1.5" opacity="1"/>
		<line x1="423" y1="559" x2="489" y2="559" stroke="#8073ac" stroke-width="1"/>
	</g>
	<text x="435" y="551.6" fill="#000000" font-family="Trebuchet MS" font-size="14">Action</text>
	<text x="428" y="577.6" fill="#000000" font-family="Trebuchet MS" font-size="14">Symbole</text>
	<line x1="428" y1="580" x2="483" y2="580" stroke="#000000" stroke-width="1"/>
	<text x="428" y="595.6" fill="#000000" font-family="Trebuchet MS" font-size="14">Devise</text>
</g>

<!-- Entity OBLIGATION -->
<g>
	<g>
		<rect x="1168" y="542" width="78" height="26" fill="#b2abd2" stroke="none" stroke-width="0" opacity="1"/>
		<rect x="1168" y="568" width="78" height="26" fill="#d8daeb" stroke="none" stroke-width="0" opacity="1"/>
		<rect x="1168" y="542" width="78" height="52" fill="none" stroke="#8073ac" stroke-width="1.5" opacity="1"/>
		<line x1="1168" y1="568" x2="1246" y2="568" stroke="#8073ac" stroke-width="1"/>
	</g>
	<text x="1174" y="560.6" fill="#000000" font-family="Trebuchet MS" font-size="14">Obligation</text>
	<text x="1173" y="586.6" fill="#000000" font-family="Trebuchet MS" font-size="14">Nom</text>
	<line x1="1173" y1="589" x2="1203" y2="589" stroke="#000000" stroke-width="1"/>
</g>
</svg>