<?xml version="1.0" encoding="utf-8"?>
<!-- Generated by Mocodo 4.3.2 -->
<svg width="1437" height="766" viewBox="0 0 1437 766" xmlns="http://www.w3.org/2000/svg">
<rect x="0" y="0" width="1437" height="766" fill="#f7f7f7" stroke="none" stroke-width="0"/>

<!-- Association CONCERNE -->
<g>
	<line x1="882" y1="375" x2="882" y2="224" stroke="#e08214" stroke-width="1"/>
	<line x1="613" y1="224" x2="882" y2="224" stroke="#e08214" stroke-width="1"/>
	<g>
		<path d="M919 195 a14 14 90 0 1 14 14 V223 h-102 V209 a14 14 90 0 1 14 -14" fill="#fdb863" stroke="#fdb863" stroke-width="0"/>
		<path d="M933 223 v16 a14 14 90 0 1 -14 14 H845 a14 14 90 0 1 -14 -14 V223 H102" fill="#fee0b6" stroke="#fee0b6" stroke-width="0"/>
		<rect x="831" y="195" width="102" height="58" fill="none" rx="14" stroke="#e08214" stroke-width="1.5"/>
		<line x1="831" y1="223" x2="933" y2="223" stroke="#e08214" stroke-width="1.5"/>
		<text x="839" y="216.3" fill="#000000" font-family="Copperplate" font-size="18">concerne</text>
	</g>
	<text x="858" y="269" fill="#542788" font-family="Futura" font-size="11">0,N</text>
	<text x="658" y="240" fill="#542788" font-family="Futura" font-size="11">1,1</text>
</g>

<!-- Association ECHANGE -->
<g>
	<line x1="882" y1="375" x2="1100" y2="224" stroke="#e08214" stroke-width="1"/>
	<line x1="1229" y1="90" x2="1100" y2="224" stroke="#e08214" stroke-width="1"/>
	<g>
		<path d="M1131 195 a14 14 90 0 1 14 14 V223 h-90 V209 a14 14 90 0 1 14 -14" fill="#fdb863" stroke="#fdb863" stroke-width="0"/>
		<path d="M1145 223 v16 a14 14 90 0 1 -14 14 H1069 a14 14 90 0 1 -14 -14 V223 H90" fill="#fee0b6" stroke="#fee0b6" stroke-width="0"/>
		<rect x="1055" y="195" width="90" height="58" fill="none" rx="14" stroke="#e08214" stroke-width="1.5"/>
		<line x1="1055" y1="223" x2="1145" y2="223" stroke="#e08214" stroke-width="1.5"/>
		<text x="1062" y="216.3" fill="#000000" font-family="Copperplate" font-size="18">échange</text>
	</g>
	<text x="1005.77" y="269" fill="#542788" font-family="Futura" font-size="11">0,1</text>
	<text x="1141" y="155.36" fill="#542788" font-family="Futura" font-size="11">0,N</text>
</g>

<!-- Association EST_SITUEE1 -->
<g>
	<line x1="1229" y1="90" x2="1229" y2="224" stroke="#e08214" stroke-width="1"/>
	<line x1="1229" y1="375" x2="1229" y2="224" stroke="#e08214" stroke-width="1"/>
	<g>
		<path d="M1269 195 a14 14 90 0 1 14 14 V223 h-108 V209 a14 14 90 0 1 14 -14" fill="#fdb863" stroke="#fdb863" stroke-width="0"/>
		<path d="M1283 223 v16 a14 14 90 0 1 -14 14 H1189 a14 14 90 0 1 -14 -14 V223 H108" fill="#fee0b6" stroke="#fee0b6" stroke-width="0"/>
		<rect x="1175" y="195" width="108" height="58" fill="none" rx="14" stroke="#e08214" stroke-width="1.5"/>
		<line x1="1175" y1="223" x2="1283" y2="223" stroke="#e08214" stroke-width="1.5"/>
		<text x="1182" y="216.3" fill="#000000" font-family="Copperplate" font-size="18">Est située</text>
	</g>
	<text x="1234" y="187" fill="#542788" font-family="Futura" font-size="11">1,1</text>
	<text x="1234" y="320" fill="#542788" font-family="Futura" font-size="11">0,N</text>
</g>

<!-- Association CONTIENT2 -->
<g>
	<line x1="613" y1="560" x2="613" y2="375" stroke="#e08214" stroke-width="1"/>
	<line x1="882" y1="375" x2="613" y2="375" stroke="#e08214" stroke-width="1"/>
	<g>
		<path d="M666 338 a14 14 90 0 1 14 14 V366 h-134 V352 a14 14 90 0 1 14 -14" fill="#fdb863" stroke="#fdb863" stroke-width="0"/>
		<path d="M680 366 v32 a14 14 90 0 1 -14 14 H560 a14 14 90 0 1 -14 -14 V366 H134" fill="#fee0b6" stroke="#fee0b6" stroke-width="0"/>
		<rect x="546" y="338" width="134" height="74" fill="none" rx="14" stroke="#e08214" stroke-width="1.5"/>
		<line x1="546" y1="366" x2="680" y2="366" stroke="#e08214" stroke-width="1.5"/>
		<text x="573" y="359.3" fill="#000000" font-family="Copperplate" font-size="18">contient</text>
		<text x="553" y="384.1" fill="#000000" font-family="Gill Sans" font-size="15">Quantité</text>
		<text x="553" y="401.1" fill="#000000" font-family="Gill Sans" font-size="15">Prix Moyen d’achat</text>
	</g>
	<text x="618" y="497" fill="#542788" font-family="Futura" font-size="11">0,N</text>
	<text x="699" y="391" fill="#542788" font-family="Futura" font-size="11">1,1</text>
</g>

<!-- Association EMET1 -->
<g>
	<line x1="1229" y1="375" x2="1100" y2="375" stroke="#e08214" stroke-width="1"/>
	<line x1="882" y1="375" x2="1100" y2="375" stroke="#e08214" stroke-width="1"/>
	<g>
		<path d="M1115 346 a14 14 90 0 1 14 14 V374 h-58 V360 a14 14 90 0 1 14 -14" fill="#fdb863" stroke="#fdb863" stroke-width="0"/>
		<path d="M1129 374 v16 a14 14 90 0 1 -14 14 H1085 a14 14 90 0 1 -14 -14 V374 H58" fill="#fee0b6" stroke="#fee0b6" stroke-width="0"/>
		<rect x="1071" y="346" width="58" height="58" fill="none" rx="14" stroke="#e08214" stroke-width="1.5"/>
		<line x1="1071" y1="374" x2="1129" y2="374" stroke="#e08214" stroke-width="1.5"/>
		<text x="1079" y="367.3" fill="#000000" font-family="Copperplate" font-size="18">émet</text>
	</g>
	<text x="1143" y="391" fill="#542788" font-family="Futura" font-size="11">0,N</text>
	<text x="1047" y="391" fill="#542788" font-family="Futura" font-size="11">0,1</text>
</g>

<!-- Association EST_SITUEE -->
<g>
	<line x1="1229" y1="560" x2="1374" y2="375" stroke="#e08214" stroke-width="1"/>
	<line x1="1229" y1="375" x2="1374" y2="375" stroke="#e08214" stroke-width="1"/>
	<g>
		<path d="M1414 346 a14 14 90 0 1 14 14 V374 h-108 V360 a14 14 90 0 1 14 -14" fill="#fdb863" stroke="#fdb863" stroke-width="0"/>
		<path d="M1428 374 v16 a14 14 90 0 1 -14 14 H1334 a14 14 90 0 1 -14 -14 V374 H108" fill="#fee0b6" stroke="#fee0b6" stroke-width="0"/>
		<rect x="1320" y="346" width="108" height="58" fill="none" rx="14" stroke="#e08214" stroke-width="1.5"/>
		<line x1="1320" y1="374" x2="1428" y2="374" stroke="#e08214" stroke-width="1.5"/>
		<text x="1327" y="367.3" fill="#000000" font-family="Copperplate" font-size="18">Est située</text>
	</g>
	<text x="1248.71" y="505" fill="#542788" font-family="Futura" font-size="11">1,1</text>
	<text x="1296" y="391" fill="#542788" font-family="Futura" font-size="11">0,N</text>
</g>

<!-- Association EST_MEMBRE_DE -->
<g>
	<line x1="216" y1="560" x2="417" y2="560" stroke="#e08214" stroke-width="1"/>
	<line x1="613" y1="560" x2="417" y2="560" stroke="#e08214" stroke-width="1"/>
	<g>
		<path d="M475 531 a14 14 90 0 1 14 14 V559 h-144 V545 a14 14 90 0 1 14 -14" fill="#fdb863" stroke="#fdb863" stroke-width="0"/>
		<path d="M489 559 v16 a14 14 90 0 1 -14 14 H359 a14 14 90 0 1 -14 -14 V559 H144" fill="#fee0b6" stroke="#fee0b6" stroke-width="0"/>
		<rect x="345" y="531" width="144" height="58" fill="none" rx="14" stroke="#e08214" stroke-width="1.5"/>
		<line x1="345" y1="559" x2="489" y2="559" stroke="#e08214" stroke-width="1.5"/>
		<text x="352" y="552.3" fill="#000000" font-family="Copperplate" font-size="18">est membre de</text>
		<text x="352" y="577.1" fill="#000000" font-family="Gill Sans" font-size="15">Niveau Accès</text>
	</g>
	<text x="321" y="576" fill="#542788" font-family="Futura" font-size="11">0,N</text>
	<text x="494" y="576" fill="#542788" font-family="Futura" font-size="11">1,N</text>
</g>

<!-- Association CONTIENT -->
<g>
	<line x1="882" y1="702" x2="882" y2="560" stroke="#e08214" stroke-width="1"/>
	<line x1="882" y1="375" x2="882" y2="560" stroke="#e08214" stroke-width="1"/>
	<g>
		<path d="M1013 497 a14 14 90 0 1 14 14 V525 h-290 V511 a14 14 90 0 1 14 -14" fill="#fdb863" stroke="#fdb863" stroke-width="0"/>
		<path d="M1027 525 v84 a14 14 90 0 1 -14 14 H751 a14 14 90 0 1 -14 -14 V525 H290" fill="#fee0b6" stroke="#fee0b6" stroke-width="0"/>
		<rect x="737" y="497" width="290" height="126" fill="none" rx="14" stroke="#e08214" stroke-width="1.5"/>
		<line x1="737" y1="525" x2="1027" y2="525" stroke="#e08214" stroke-width="1.5"/>
		<text x="842" y="518.3" fill="#000000" font-family="Copperplate" font-size="18">contient</text>
		<text x="744" y="543.1" fill="#000000" font-family="Gill Sans" font-size="15">Quantité</text>
		<text x="744" y="560.1" fill="#000000" font-family="Gill Sans" font-size="15">Prix dans la Devise du Portfolio</text>
		<text x="744" y="577.1" fill="#000000" font-family="Gill Sans" font-size="15">Prix dans la Devise de l’Instrument Financier</text>
		<text x="744" y="594" fill="#000000" font-family="Gill Sans" font-size="15">Frais Courtage</text>
		<text x="744" y="611" fill="#000000" font-family="Gill Sans" font-size="15">Taxes</text>
	</g>
	<text x="887" y="639" fill="#542788" font-family="Futura" font-size="11">1,1</text>
	<text x="858" y="489" fill="#542788" font-family="Futura" font-size="11">0,N</text>
</g>

<!-- Association EMET -->
<g>
	<line x1="882" y1="375" x2="1100" y2="560" stroke="#e08214" stroke-width="1"/>
	<line x1="1229" y1="560" x2="1100" y2="560" stroke="#e08214" stroke-width="1"/>
	<g>
		<path d="M1115 531 a14 14 90 0 1 14 14 V559 h-58 V545 a14 14 90 0 1 14 -14" fill="#fdb863" stroke="#fdb863" stroke-width="0"/>
		<path d="M1129 559 v16 a14 14 90 0 1 -14 14 H1085 a14 14 90 0 1 -14 -14 V559 H58" fill="#fee0b6" stroke="#fee0b6" stroke-width="0"/>
		<rect x="1071" y="531" width="58" height="58" fill="none" rx="14" stroke="#e08214" stroke-width="1.5"/>
		<line x1="1071" y1="559" x2="1129" y2="559" stroke="#e08214" stroke-width="1.5"/>
		<text x="1079" y="552.3" fill="#000000" font-family="Copperplate" font-size="18">émet</text>
	</g>
	<text x="980.74" y="489" fill="#542788" font-family="Futura" font-size="11">0,1</text>
	<text x="1134" y="576" fill="#542788" font-family="Futura" font-size="11">0,N</text>
</g>

<!-- Association GENERE -->
<g>
	<line x1="216" y1="560" x2="216" y2="702" stroke="#e08214" stroke-width="1"/>
	<line x1="78" y1="702" x2="216" y2="702" stroke="#e08214" stroke-width="1"/>
	<g>
		<path d="M242 673 a14 14 90 0 1 14 14 V701 h-80 V687 a14 14 90 0 1 14 -14" fill="#fdb863" stroke="#fdb863" stroke-width="0"/>
		<path d="M256 701 v16 a14 14 90 0 1 -14 14 H190 a14 14 90 0 1 -14 -14 V701 H80" fill="#fee0b6" stroke="#fee0b6" stroke-width="0"/>
		<rect x="176" y="673" width="80" height="58" fill="none" rx="14" stroke="#e08214" stroke-width="1.5"/>
		<line x1="176" y1="701" x2="256" y2="701" stroke="#e08214" stroke-width="1.5"/>
		<text x="184" y="694.3" fill="#000000" font-family="Copperplate" font-size="18">génère</text>
	</g>
	<text x="221" y="631" fill="#542788" font-family="Futura" font-size="11">0,N</text>
	<text x="152" y="718" fill="#542788" font-family="Futura" font-size="11">1,1</text>
</g>

<!-- Association HISTORIQUE_DE_TRANSACTIONS -->
<g>
	<line x1="613" y1="560" x2="613" y2="702" stroke="#e08214" stroke-width="1"/>
	<line x1="882" y1="702" x2="613" y2="702" stroke="#e08214" stroke-width="1"/>
	<g>
		<path d="M732 673 a14 14 90 0 1 14 14 V701 h-266 V687 a14 14 90 0 1 14 -14" fill="#fdb863" stroke="#fdb863" stroke-width="0"/>
		<path d="M746 701 v16 a14 14 90 0 1 -14 14 H494 a14 14 90 0 1 -14 -14 V701 H266" fill="#fee0b6" stroke="#fee0b6" stroke-width="0"/>
		<rect x="480" y="673" width="266" height="58" fill="none" rx="14" stroke="#e08214" stroke-width="1.5"/>
		<line x1="480" y1="701" x2="746" y2="701" stroke="#e08214" stroke-width="1.5"/>
		<text x="488" y="694.3" fill="#000000" font-family="Copperplate" font-size="18">historique de transactions</text>
	</g>
	<text x="618" y="631" fill="#542788" font-family="Futura" font-size="11">0,N</text>
	<text x="781" y="718" fill="#542788" font-family="Futura" font-size="11">1,1</text>
</g>

<!-- Entity BOURSE -->
<g>
	<g>
		<rect x="1165" y="9" width="128" height="30" fill="#b2abd2" stroke="none" stroke-width="0" opacity="1"/>
		<rect x="1165" y="39" width="128" height="132" fill="#d8daeb" stroke="none" stroke-width="0" opacity="1"/>
		<rect x="1165" y="9" width="128" height="162" fill="none" stroke="#8073ac" stroke-width="1.5" opacity="1"/>
		<line x1="1165" y1="39" x2="1293" y2="39" stroke="#8073ac" stroke-width="1.5"/>
	</g>
	<text x="1195" y="30.3" fill="#000000" font-family="Copperplate" font-size="18">Bourse</text>
	<text x="1173" y="56" fill="#000000" font-family="Gill Sans" font-size="15">Identifiant Bourse</text>
	<line x1="1173" y1="59" x2="1284" y2="59" stroke="#000000" stroke-width="1"/>
	<text x="1173" y="73.1" fill="#000000" font-family="Gill Sans" font-size="15">Nom</text>
	<text x="1173" y="90.1" fill="#000000" font-family="Gill Sans" font-size="15">Ville</text>
	<text x="1173" y="107.1" fill="#000000" font-family="Gill Sans" font-size="15">Fuseau Horaire</text>
	<text x="1173" y="124" fill="#000000" font-family="Gill Sans" font-size="15">Heure Ouveture</text>
	<text x="1173" y="141" fill="#000000" font-family="Gill Sans" font-size="15">Heure Fermeture</text>
</g>

<!-- Entity COURS -->
<g>
	<g>
		<rect x="573" y="152" width="80" height="30" fill="#b2abd2" stroke="none" stroke-width="0" opacity="1"/>
		<rect x="573" y="182" width="80" height="114" fill="#d8daeb" stroke="none" stroke-width="0" opacity="1"/>
		<rect x="573" y="152" width="80" height="144" fill="none" stroke="#8073ac" stroke-width="1.5" opacity="1"/>
		<line x1="573" y1="182" x2="653" y2="182" stroke="#8073ac" stroke-width="1.5"/>
	</g>
	<text x="584" y="173.3" fill="#000000" font-family="Copperplate" font-size="18">Cours</text>
	<text x="581" y="199.1" fill="#000000" font-family="Gill Sans" font-size="15">DateTime</text>
	<line x1="581" y1="202" x2="644" y2="202" stroke="#000000" stroke-width="1"/>
	<text x="581" y="216.1" fill="#000000" font-family="Gill Sans" font-size="15">Open</text>
	<text x="581" y="233.1" fill="#000000" font-family="Gill Sans" font-size="15">Close</text>
	<text x="581" y="250.1" fill="#000000" font-family="Gill Sans" font-size="15">High</text>
	<text x="581" y="267" fill="#000000" font-family="Gill Sans" font-size="15">Low</text>
	<text x="581" y="284" fill="#000000" font-family="Gill Sans" font-size="15">Volume</text>
</g>

<!-- Entity INSTRUMENT_FINANCIER -->
<g>
	<g>
		<rect x="722" y="277" width="320" height="30" fill="#b2abd2" stroke="none" stroke-width="0" opacity="1"/>
		<rect x="722" y="307" width="320" height="166" fill="#d8daeb" stroke="none" stroke-width="0" opacity="1"/>
		<rect x="722" y="277" width="320" height="196" fill="none" stroke="#8073ac" stroke-width="1.5" opacity="1"/>
		<line x1="722" y1="307" x2="1042" y2="307" stroke="#8073ac" stroke-width="1.5"/>
	</g>
	<text x="783" y="298.3" fill="#000000" font-family="Copperplate" font-size="18">Instrument Financier</text>
	<text x="730" y="324" fill="#000000" font-family="Gill Sans" font-size="15">ISIN</text>
	<line x1="730" y1="327" x2="758" y2="327" stroke="#000000" stroke-width="1"/>
	<text x="730" y="341" fill="#000000" font-family="Gill Sans" font-size="15">Nom</text>
	<text x="730" y="358.1" fill="#000000" font-family="Gill Sans" font-size="15">Type Instrument (Action/ETF/Obligation/Devise)</text>
	<text x="730" y="375.1" fill="#000000" font-family="Gill Sans" font-size="15">Devise</text>
	<text x="730" y="392.1" fill="#000000" font-family="Gill Sans" font-size="15">Symbole (Action/ETF)</text>
	<text x="730" y="409" fill="#000000" font-family="Gill Sans" font-size="15">Taux (Obligation)</text>
	<text x="730" y="426" fill="#000000" font-family="Gill Sans" font-size="15">Date Emission (Obligation)</text>
	<text x="730" y="443" fill="#000000" font-family="Gill Sans" font-size="15">Date Echeance (Obligation)</text>
	<text x="730" y="460" fill="#000000" font-family="Gill Sans" font-size="15">Couple Devise (Devise)</text>
</g>

<!-- Entity PAYS -->
<g>
	<g>
		<rect x="1167" y="328" width="124" height="30" fill="#b2abd2" stroke="none" stroke-width="0" opacity="1"/>
		<rect x="1167" y="358" width="124" height="64" fill="#d8daeb" stroke="none" stroke-width="0" opacity="1"/>
		<rect x="1167" y="328" width="124" height="94" fill="none" stroke="#8073ac" stroke-width="1.5" opacity="1"/>
		<line x1="1167" y1="358" x2="1291" y2="358" stroke="#8073ac" stroke-width="1.5"/>
	</g>
	<text x="1208" y="349.3" fill="#000000" font-family="Copperplate" font-size="18">Pays</text>
	<text x="1175" y="375.1" fill="#000000" font-family="Gill Sans" font-size="15">Code ISO3166&#45;1</text>
	<line x1="1175" y1="378" x2="1281" y2="378" stroke="#000000" stroke-width="1"/>
	<text x="1175" y="392.1" fill="#000000" font-family="Gill Sans" font-size="15">Nom</text>
	<text x="1175" y="409" fill="#000000" font-family="Gill Sans" font-size="15">Devise Principale</text>
</g>

<!-- Entity UTILISATEUR -->
<g>
	<g>
		<rect x="116" y="505" width="200" height="30" fill="#b2abd2" stroke="none" stroke-width="0" opacity="1"/>
		<rect x="116" y="535" width="200" height="80" fill="#d8daeb" stroke="none" stroke-width="0" opacity="1"/>
		<rect x="116" y="505" width="200" height="110" fill="none" stroke="#8073ac" stroke-width="1.5" opacity="1"/>
		<line x1="116" y1="535" x2="316" y2="535" stroke="#8073ac" stroke-width="1.5"/>
	</g>
	<text x="163" y="526.3" fill="#000000" font-family="Copperplate" font-size="18">Utilisateur</text>
	<text x="124" y="552.1" fill="#000000" font-family="Gill Sans" font-size="15">Adresse Mail</text>
	<line x1="124" y1="555" x2="205" y2="555" stroke="#000000" stroke-width="1"/>
	<text x="124" y="569.1" fill="#000000" font-family="Gill Sans" font-size="15">Nom</text>
	<text x="124" y="586.1" fill="#000000" font-family="Gill Sans" font-size="15">Mot De Passe</text>
	<text x="124" y="603" fill="#000000" font-family="Gill Sans" font-size="15">Date De Création Utilisateur</text>
</g>

<!-- Entity PORTFOLIO -->
<g>
	<g>
		<rect x="518" y="505" width="190" height="30" fill="#b2abd2" stroke="none" stroke-width="0" opacity="1"/>
		<rect x="518" y="535" width="190" height="80" fill="#d8daeb" stroke="none" stroke-width="0" opacity="1"/>
		<rect x="518" y="505" width="190" height="110" fill="none" stroke="#8073ac" stroke-width="1.5" opacity="1"/>
		<line x1="518" y1="535" x2="708" y2="535" stroke="#8073ac" stroke-width="1.5"/>
	</g>
	<text x="567" y="526.3" fill="#000000" font-family="Copperplate" font-size="18">Portfolio</text>
	<text x="526" y="552.1" fill="#000000" font-family="Gill Sans" font-size="15">Identifiant Portfolio</text>
	<line x1="526" y1="555" x2="647" y2="555" stroke="#000000" stroke-width="1"/>
	<text x="526" y="569.1" fill="#000000" font-family="Gill Sans" font-size="15">Nom</text>
	<text x="526" y="586.1" fill="#000000" font-family="Gill Sans" font-size="15">Description</text>
	<text x="526" y="603" fill="#000000" font-family="Gill Sans" font-size="15">Date De Création Portfolio</text>
</g>

<!-- Entity ENTREPRISE -->
<g>
	<g>
		<rect x="1158" y="513" width="142" height="30" fill="#b2abd2" stroke="none" stroke-width="0" opacity="1"/>
		<rect x="1158" y="543" width="142" height="64" fill="#d8daeb" stroke="none" stroke-width="0" opacity="1"/>
		<rect x="1158" y="513" width="142" height="94" fill="none" stroke="#8073ac" stroke-width="1.5" opacity="1"/>
		<line x1="1158" y1="543" x2="1300" y2="543" stroke="#8073ac" stroke-width="1.5"/>
	</g>
	<text x="1178" y="534.3" fill="#000000" font-family="Copperplate" font-size="18">Entreprise</text>
	<text x="1166" y="560.1" fill="#000000" font-family="Gill Sans" font-size="15">Numero_entreprise</text>
	<line x1="1166" y1="563" x2="1292" y2="563" stroke="#000000" stroke-width="1"/>
	<text x="1166" y="577.1" fill="#000000" font-family="Gill Sans" font-size="15">Nom</text>
	<text x="1166" y="594" fill="#000000" font-family="Gill Sans" font-size="15">Secteur d’activité</text>
</g>

<!-- Entity AUDIT -->
<g>
	<g>
		<rect x="9" y="647" width="138" height="30" fill="#b2abd2" stroke="none" stroke-width="0" opacity="1"/>
		<rect x="9" y="677" width="138" height="80" fill="#d8daeb" stroke="none" stroke-width="0" opacity="1"/>
		<rect x="9" y="647" width="138" height="110" fill="none" stroke="#8073ac" stroke-width="1.5" opacity="1"/>
		<line x1="9" y1="677" x2="147" y2="677" stroke="#8073ac" stroke-width="1.5"/>
	</g>
	<text x="53" y="668.3" fill="#000000" font-family="Copperplate" font-size="18">Audit</text>
	<text x="17" y="694.1" fill="#000000" font-family="Gill Sans" font-size="15">Adresse Mail</text>
	<line x1="17" y1="697" x2="98" y2="697" stroke="#000000" stroke-width="1"/>
	<text x="17" y="711.1" fill="#000000" font-family="Gill Sans" font-size="15">Identifiant Portfolio</text>
	<line x1="17" y1="714" x2="138" y2="714" stroke="#000000" stroke-width="1"/>
	<text x="17" y="728.1" fill="#000000" font-family="Gill Sans" font-size="15">Date</text>
	<line x1="17" y1="731" x2="48" y2="731" stroke="#000000" stroke-width="1"/>
	<text x="17" y="745" fill="#000000" font-family="Gill Sans" font-size="15">Action</text>
</g>

<!-- Entity TRANSACTION -->
<g>
	<g>
		<rect x="804" y="647" width="156" height="30" fill="#b2abd2" stroke="none" stroke-width="0" opacity="1"/>
		<rect x="804" y="677" width="156" height="80" fill="#d8daeb" stroke="none" stroke-width="0" opacity="1"/>
		<rect x="804" y="647" width="156" height="110" fill="none" stroke="#8073ac" stroke-width="1.5" opacity="1"/>
		<line x1="804" y1="677" x2="960" y2="677" stroke="#8073ac" stroke-width="1.5"/>
	</g>
	<text x="826" y="668.3" fill="#000000" font-family="Copperplate" font-size="18">Transaction</text>
	<text x="812" y="694.1" fill="#000000" font-family="Gill Sans" font-size="15">Identifiant Transaction</text>
	<line x1="812" y1="697" x2="952" y2="697" stroke="#000000" stroke-width="1"/>
	<text x="812" y="711.1" fill="#000000" font-family="Gill Sans" font-size="15">Type (Vente/Achat)</text>
	<text x="812" y="728.1" fill="#000000" font-family="Gill Sans" font-size="15">Date</text>
	<text x="812" y="745" fill="#000000" font-family="Gill Sans" font-size="15">Heure</text>
</g>
</svg>