<?xml version="1.0" encoding="utf-8"?>
<!-- Generated by Mocodo 4.3.2 -->
<svg width="1733" height="716" viewBox="0 0 1733 716" xmlns="http://www.w3.org/2000/svg">
<rect x="0" y="0" width="1733" height="716" fill="none" stroke="none" stroke-width="0"/>

<!-- Association ECHANGE_ACTION -->
<g>
	<line x1="72" y1="202" x2="359" y2="80" stroke="#726f83" stroke-width="1"/>
	<line x1="487" y1="202" x2="359" y2="80" stroke="#726f83" stroke-width="1"/>
	<g>
		<path d="M402 54 a14 14 90 0 1 14 14 V80 h-114 V68 a14 14 90 0 1 14 -14" fill="#b2bba4" stroke="#b2bba4" stroke-width="0"/>
		<path d="M416 80 v12 a14 14 90 0 1 -14 14 H316 a14 14 90 0 1 -14 -14 V80 H114" fill="#ccd6ba" stroke="#ccd6ba" stroke-width="0"/>
		<rect x="302" y="54" width="114" height="52" fill="none" rx="14" stroke="#85956b" stroke-width="1.5"/>
		<line x1="302" y1="80" x2="416" y2="80" stroke="#85956b" stroke-width="1"/>
		<text x="309" y="72.6" fill="#27360c" font-family="Trebuchet MS" font-size="14">échange Action</text>
	</g>
	<text x="140" y="188.89" fill="#726f83" font-family="Verdana" font-size="12">0,N</text>
	<text x="428" y="180.72" fill="#726f83" font-family="Verdana" font-size="12">1,1</text>
</g>

<!-- Association EST_UNE_OBLIGATION -->
<g>
	<line x1="847" y1="202" x2="625" y2="80" stroke="#726f83" stroke-width="1"/>
	<line x1="487" y1="80" x2="625" y2="80" stroke="#726f83" stroke-width="1"/>
	<g>
		<path d="M678 54 a14 14 90 0 1 14 14 V80 h-134 V68 a14 14 90 0 1 14 -14" fill="#b2bba4" stroke="#b2bba4" stroke-width="0"/>
		<path d="M692 80 v12 a14 14 90 0 1 -14 14 H572 a14 14 90 0 1 -14 -14 V80 H134" fill="#ccd6ba" stroke="#ccd6ba" stroke-width="0"/>
		<rect x="558" y="54" width="134" height="52" fill="none" rx="14" stroke="#85956b" stroke-width="1.5"/>
		<line x1="558" y1="80" x2="692" y2="80" stroke="#85956b" stroke-width="1"/>
		<text x="566" y="72.6" fill="#27360c" font-family="Trebuchet MS" font-size="14">est une Obligation</text>
	</g>
	<text x="784.03" y="159" fill="#726f83" font-family="Verdana" font-size="12">0,1</text>
	<text x="531" y="97" fill="#726f83" font-family="Verdana" font-size="12">1,1</text>
</g>

<!-- Association CONCERNE -->
<g>
	<line x1="847" y1="202" x2="847" y2="80" stroke="#726f83" stroke-width="1"/>
	<line x1="1131" y1="80" x2="847" y2="80" stroke="#726f83" stroke-width="1"/>
	<g>
		<path d="M870 54 a14 14 90 0 1 14 14 V80 h-74 V68 a14 14 90 0 1 14 -14" fill="#b2bba4" stroke="#b2bba4" stroke-width="0"/>
		<path d="M884 80 v12 a14 14 90 0 1 -14 14 H824 a14 14 90 0 1 -14 -14 V80 H74" fill="#ccd6ba" stroke="#ccd6ba" stroke-width="0"/>
		<rect x="810" y="54" width="74" height="52" fill="none" rx="14" stroke="#85956b" stroke-width="1.5"/>
		<line x1="810" y1="80" x2="884" y2="80" stroke="#85956b" stroke-width="1"/>
		<text x="817" y="72.6" fill="#27360c" font-family="Trebuchet MS" font-size="14">concerne</text>
	</g>
	<text x="852" y="159" fill="#726f83" font-family="Verdana" font-size="12">0,N</text>
	<text x="1068" y="97" fill="#726f83" font-family="Verdana" font-size="12">1,1</text>
</g>

<!-- Association EMET -->
<g>
	<line x1="487" y1="202" x2="359" y2="202" stroke="#726f83" stroke-width="1"/>
	<line x1="235" y1="202" x2="359" y2="202" stroke="#726f83" stroke-width="1"/>
	<g>
		<path d="M369 176 a14 14 90 0 1 14 14 V202 h-48 V190 a14 14 90 0 1 14 -14" fill="#b2bba4" stroke="#b2bba4" stroke-width="0"/>
		<path d="M383 202 v12 a14 14 90 0 1 -14 14 H349 a14 14 90 0 1 -14 -14 V202 H48" fill="#ccd6ba" stroke="#ccd6ba" stroke-width="0"/>
		<rect x="335" y="176" width="48" height="52" fill="none" rx="14" stroke="#85956b" stroke-width="1.5"/>
		<line x1="335" y1="202" x2="383" y2="202" stroke="#85956b" stroke-width="1"/>
		<text x="342" y="194.6" fill="#27360c" font-family="Trebuchet MS" font-size="14">émet</text>
	</g>
	<text x="428" y="219" fill="#726f83" font-family="Verdana" font-size="12">1,1</text>
	<text x="308" y="194" fill="#726f83" font-family="Verdana" font-size="12">0,N</text>
</g>

<!-- Association EST_UNE_ACTION -->
<g>
	<line x1="847" y1="202" x2="625" y2="202" stroke="#726f83" stroke-width="1"/>
	<line x1="487" y1="202" x2="625" y2="202" stroke="#726f83" stroke-width="1"/>
	<g>
		<path d="M665 176 a14 14 90 0 1 14 14 V202 h-108 V190 a14 14 90 0 1 14 -14" fill="#b2bba4" stroke="#b2bba4" stroke-width="0"/>
		<path d="M679 202 v12 a14 14 90 0 1 -14 14 H585 a14 14 90 0 1 -14 -14 V202 H108" fill="#ccd6ba" stroke="#ccd6ba" stroke-width="0"/>
		<rect x="571" y="176" width="108" height="52" fill="none" rx="14" stroke="#85956b" stroke-width="1.5"/>
		<line x1="571" y1="202" x2="679" y2="202" stroke="#85956b" stroke-width="1"/>
		<text x="579" y="194.6" fill="#27360c" font-family="Trebuchet MS" font-size="14">est une Action</text>
	</g>
	<text x="748" y="219" fill="#726f83" font-family="Verdana" font-size="12">0,1</text>
	<text x="525" y="219" fill="#726f83" font-family="Verdana" font-size="12">1,1</text>
</g>

<!-- Association EST_UNE_DEVISE -->
<g>
	<line x1="847" y1="202" x2="1131" y2="202" stroke="#726f83" stroke-width="1"/>
	<line x1="1363" y1="202" x2="1131" y2="202" stroke="#726f83" stroke-width="1"/>
	<g>
		<path d="M1171 176 a14 14 90 0 1 14 14 V202 h-108 V190 a14 14 90 0 1 14 -14" fill="#b2bba4" stroke="#b2bba4" stroke-width="0"/>
		<path d="M1185 202 v12 a14 14 90 0 1 -14 14 H1091 a14 14 90 0 1 -14 -14 V202 H108" fill="#ccd6ba" stroke="#ccd6ba" stroke-width="0"/>
		<rect x="1077" y="176" width="108" height="52" fill="none" rx="14" stroke="#85956b" stroke-width="1.5"/>
		<line x1="1077" y1="202" x2="1185" y2="202" stroke="#85956b" stroke-width="1"/>
		<text x="1084" y="194.6" fill="#27360c" font-family="Trebuchet MS" font-size="14">est une Devise</text>
	</g>
	<text x="925" y="194" fill="#726f83" font-family="Verdana" font-size="12">0,1</text>
	<text x="1288" y="219" fill="#726f83" font-family="Verdana" font-size="12">1,1</text>
</g>

<!-- Association GERE_ETF -->
<g>
	<line x1="235" y1="202" x2="359" y2="324" stroke="#726f83" stroke-width="1"/>
	<line x1="487" y1="324" x2="359" y2="324" stroke="#726f83" stroke-width="1"/>
	<g>
		<path d="M381 298 a14 14 90 0 1 14 14 V324 h-72 V312 a14 14 90 0 1 14 -14" fill="#b2bba4" stroke="#b2bba4" stroke-width="0"/>
		<path d="M395 324 v12 a14 14 90 0 1 -14 14 H337 a14 14 90 0 1 -14 -14 V324 H72" fill="#ccd6ba" stroke="#ccd6ba" stroke-width="0"/>
		<rect x="323" y="298" width="72" height="52" fill="none" rx="14" stroke="#85956b" stroke-width="1.5"/>
		<line x1="323" y1="324" x2="395" y2="324" stroke="#85956b" stroke-width="1"/>
		<text x="331" y="316.6" fill="#27360c" font-family="Trebuchet MS" font-size="14">gère ETF</text>
	</g>
	<text x="278.01" y="281" fill="#726f83" font-family="Verdana" font-size="12">0,N</text>
	<text x="441" y="316" fill="#726f83" font-family="Verdana" font-size="12">1,1</text>
</g>

<!-- Association EST_UN_ETF -->
<g>
	<line x1="847" y1="202" x2="625" y2="324" stroke="#726f83" stroke-width="1"/>
	<line x1="487" y1="324" x2="625" y2="324" stroke="#726f83" stroke-width="1"/>
	<g>
		<path d="M652 298 a14 14 90 0 1 14 14 V324 h-82 V312 a14 14 90 0 1 14 -14" fill="#b2bba4" stroke="#b2bba4" stroke-width="0"/>
		<path d="M666 324 v12 a14 14 90 0 1 -14 14 H598 a14 14 90 0 1 -14 -14 V324 H82" fill="#ccd6ba" stroke="#ccd6ba" stroke-width="0"/>
		<rect x="584" y="298" width="82" height="52" fill="none" rx="14" stroke="#85956b" stroke-width="1.5"/>
		<line x1="584" y1="324" x2="666" y2="324" stroke="#85956b" stroke-width="1"/>
		<text x="591" y="316.6" fill="#27360c" font-family="Trebuchet MS" font-size="14">est un ETF</text>
	</g>
	<text x="784.03" y="254" fill="#726f83" font-family="Verdana" font-size="12">0,1</text>
	<text x="512" y="341" fill="#726f83" font-family="Verdana" font-size="12">1,1</text>
</g>

<!-- Association CONTIENT -->
<g>
	<line x1="847" y1="464" x2="847" y2="324" stroke="#726f83" stroke-width="1"/>
	<line x1="847" y1="202" x2="847" y2="324" stroke="#726f83" stroke-width="1"/>
	<g>
		<path d="M982 262 a14 14 90 0 1 14 14 V288 h-298 V276 a14 14 90 0 1 14 -14" fill="#b2bba4" stroke="#b2bba4" stroke-width="0"/>
		<path d="M996 288 v84 a14 14 90 0 1 -14 14 H712 a14 14 90 0 1 -14 -14 V288 H298" fill="#ccd6ba" stroke="#ccd6ba" stroke-width="0"/>
		<rect x="698" y="262" width="298" height="124" fill="none" rx="14" stroke="#85956b" stroke-width="1.5"/>
		<line x1="698" y1="288" x2="996" y2="288" stroke="#85956b" stroke-width="1"/>
		<text x="820" y="280.6" fill="#27360c" font-family="Trebuchet MS" font-size="14">contient</text>
		<text x="705" y="306.6" fill="#607734" font-family="Trebuchet MS" font-size="14">Quantité</text>
		<text x="705" y="324.6" fill="#607734" font-family="Trebuchet MS" font-size="14">Prix dans devise du portfolio</text>
		<text x="705" y="342.6" fill="#607734" font-family="Trebuchet MS" font-size="14">Prix dans la devise de l’instrument financier</text>
		<text x="705" y="360.6" fill="#607734" font-family="Trebuchet MS" font-size="14">Frais Courtage</text>
		<text x="705" y="378.6" fill="#607734" font-family="Trebuchet MS" font-size="14">Taxes</text>
	</g>
	<text x="852" y="403" fill="#726f83" font-family="Verdana" font-size="12">1,1</text>
	<text x="852" y="254" fill="#726f83" font-family="Verdana" font-size="12">0,N</text>
</g>

<!-- Association CONTIENT_INSTRUMENT_FINANCIER -->
<g>
	<line x1="1131" y1="464" x2="1131" y2="324" stroke="#726f83" stroke-width="1"/>
	<line x1="847" y1="202" x2="1131" y2="324" stroke="#726f83" stroke-width="1"/>
	<g>
		<path d="M1220 289 a14 14 90 0 1 14 14 V315 h-206 V303 a14 14 90 0 1 14 -14" fill="#b2bba4" stroke="#b2bba4" stroke-width="0"/>
		<path d="M1234 315 v30 a14 14 90 0 1 -14 14 H1042 a14 14 90 0 1 -14 -14 V315 H206" fill="#ccd6ba" stroke="#ccd6ba" stroke-width="0"/>
		<rect x="1028" y="289" width="206" height="70" fill="none" rx="14" stroke="#85956b" stroke-width="1.5"/>
		<line x1="1028" y1="315" x2="1234" y2="315" stroke="#85956b" stroke-width="1"/>
		<text x="1036" y="307.6" fill="#27360c" font-family="Trebuchet MS" font-size="14">contient instrument financier</text>
		<text x="1035" y="333.6" fill="#607734" font-family="Trebuchet MS" font-size="14">Quantité</text>
		<text x="1035" y="351.6" fill="#607734" font-family="Trebuchet MS" font-size="14">Prix Moyen d’achat</text>
	</g>
	<text x="1136" y="403" fill="#726f83" font-family="Verdana" font-size="12">0,N</text>
	<text x="925" y="228.72" fill="#726f83" font-family="Verdana" font-size="12">1,1</text>
</g>

<!-- Association GENERE -->
<g>
	<line x1="1363" y1="324" x2="1522" y2="324" stroke="#726f83" stroke-width="1"/>
	<line x1="1654" y1="324" x2="1522" y2="324" stroke="#726f83" stroke-width="1"/>
	<g>
		<path d="M1538 298 a14 14 90 0 1 14 14 V324 h-60 V312 a14 14 90 0 1 14 -14" fill="#b2bba4" stroke="#b2bba4" stroke-width="0"/>
		<path d="M1552 324 v12 a14 14 90 0 1 -14 14 H1506 a14 14 90 0 1 -14 -14 V324 H60" fill="#ccd6ba" stroke="#ccd6ba" stroke-width="0"/>
		<rect x="1492" y="298" width="60" height="52" fill="none" rx="14" stroke="#85956b" stroke-width="1.5"/>
		<line x1="1492" y1="324" x2="1552" y2="324" stroke="#85956b" stroke-width="1"/>
		<text x="1500" y="316.6" fill="#27360c" font-family="Trebuchet MS" font-size="14">génère</text>
	</g>
	<text x="1465" y="341" fill="#726f83" font-family="Verdana" font-size="12">0,N</text>
	<text x="1558" y="341" fill="#726f83" font-family="Verdana" font-size="12">1,1</text>
</g>

<!-- Association ECHANGE_ETF -->
<g>
	<line x1="72" y1="202" x2="235" y2="464" stroke="#726f83" stroke-width="1"/>
	<line x1="487" y1="324" x2="235" y2="464" stroke="#726f83" stroke-width="1"/>
	<g>
		<path d="M269 438 a14 14 90 0 1 14 14 V464 h-96 V452 a14 14 90 0 1 14 -14" fill="#b2bba4" stroke="#b2bba4" stroke-width="0"/>
		<path d="M283 464 v12 a14 14 90 0 1 -14 14 H201 a14 14 90 0 1 -14 -14 V464 H96" fill="#ccd6ba" stroke="#ccd6ba" stroke-width="0"/>
		<rect x="187" y="438" width="96" height="52" fill="none" rx="14" stroke="#85956b" stroke-width="1.5"/>
		<line x1="187" y1="464" x2="283" y2="464" stroke="#85956b" stroke-width="1"/>
		<text x="194" y="456.6" fill="#27360c" font-family="Trebuchet MS" font-size="14">échange ETF</text>
	</g>
	<text x="105.17" y="308" fill="#726f83" font-family="Verdana" font-size="12">0,N</text>
	<text x="441" y="331.43" fill="#726f83" font-family="Verdana" font-size="12">1,1</text>
</g>

<!-- Association EST_MEMBRE_DE -->
<g>
	<line x1="1363" y1="324" x2="1363" y2="464" stroke="#726f83" stroke-width="1"/>
	<line x1="1131" y1="464" x2="1363" y2="464" stroke="#726f83" stroke-width="1"/>
	<g>
		<path d="M1405 438 a14 14 90 0 1 14 14 V464 h-112 V452 a14 14 90 0 1 14 -14" fill="#b2bba4" stroke="#b2bba4" stroke-width="0"/>
		<path d="M1419 464 v12 a14 14 90 0 1 -14 14 H1321 a14 14 90 0 1 -14 -14 V464 H112" fill="#ccd6ba" stroke="#ccd6ba" stroke-width="0"/>
		<rect x="1307" y="438" width="112" height="52" fill="none" rx="14" stroke="#85956b" stroke-width="1.5"/>
		<line x1="1307" y1="464" x2="1419" y2="464" stroke="#85956b" stroke-width="1"/>
		<text x="1314" y="456.6" fill="#27360c" font-family="Trebuchet MS" font-size="14">est membre de</text>
		<text x="1314" y="482.6" fill="#607734" font-family="Trebuchet MS" font-size="14">Niveau Accès</text>
	</g>
	<text x="1368" y="394" fill="#726f83" font-family="Verdana" font-size="12">0,N</text>
	<text x="1227" y="456" fill="#726f83" font-family="Verdana" font-size="12">1,N</text>
</g>

<!-- Association HISTORIQUE_DE_TRANSACTIONS -->
<g>
	<line x1="1131" y1="464" x2="1131" y2="568" stroke="#726f83" stroke-width="1"/>
	<line x1="847" y1="464" x2="1131" y2="568" stroke="#726f83" stroke-width="1"/>
	<g>
		<path d="M1208 542 a14 14 90 0 1 14 14 V568 h-182 V556 a14 14 90 0 1 14 -14" fill="#b2bba4" stroke="#b2bba4" stroke-width="0"/>
		<path d="M1222 568 v12 a14 14 90 0 1 -14 14 H1054 a14 14 90 0 1 -14 -14 V568 H182" fill="#ccd6ba" stroke="#ccd6ba" stroke-width="0"/>
		<rect x="1040" y="542" width="182" height="52" fill="none" rx="14" stroke="#85956b" stroke-width="1.5"/>
		<line x1="1040" y1="568" x2="1222" y2="568" stroke="#85956b" stroke-width="1"/>
		<text x="1047" y="560.6" fill="#27360c" font-family="Trebuchet MS" font-size="14">historique de transactions</text>
	</g>
	<text x="1104" y="534" fill="#726f83" font-family="Verdana" font-size="12">0,N</text>
	<text x="932" y="488.16" fill="#726f83" font-family="Verdana" font-size="12">1,1</text>
</g>

<!-- Association SNAPSHOT -->
<g>
	<line x1="1131" y1="464" x2="1363" y2="568" stroke="#726f83" stroke-width="1"/>
	<line x1="1363" y1="663" x2="1363" y2="568" stroke="#726f83" stroke-width="1"/>
	<g>
		<path d="M1385 542 a14 14 90 0 1 14 14 V568 h-72 V556 a14 14 90 0 1 14 -14" fill="#b2bba4" stroke="#b2bba4" stroke-width="0"/>
		<path d="M1399 568 v12 a14 14 90 0 1 -14 14 H1341 a14 14 90 0 1 -14 -14 V568 H72" fill="#ccd6ba" stroke="#ccd6ba" stroke-width="0"/>
		<rect x="1327" y="542" width="72" height="52" fill="none" rx="14" stroke="#85956b" stroke-width="1.5"/>
		<line x1="1327" y1="568" x2="1399" y2="568" stroke="#85956b" stroke-width="1"/>
		<text x="1335" y="560.6" fill="#27360c" font-family="Trebuchet MS" font-size="14">snapshot</text>
	</g>
	<text x="1227" y="500.3" fill="#726f83" font-family="Verdana" font-size="12">0,N</text>
	<text x="1368" y="611" fill="#726f83" font-family="Verdana" font-size="12">1,1</text>
</g>

<!-- Entity OBLIGATION -->
<g>
	<g>
		<rect x="448" y="54" width="78" height="26" fill="#97b8ff" stroke="none" stroke-width="0" opacity="1"/>
		<rect x="448" y="80" width="78" height="26" fill="#c0d4ff" stroke="none" stroke-width="0" opacity="1"/>
		<rect x="448" y="54" width="78" height="52" fill="none" stroke="#578dff" stroke-width="1.5" opacity="1"/>
		<line x1="448" y1="80" x2="526" y2="80" stroke="#578dff" stroke-width="1"/>
	</g>
	<text x="454" y="72.6" fill="#131114" font-family="Trebuchet MS" font-size="14">Obligation</text>
	<text x="453" y="98.6" fill="#3e3c42" font-family="Trebuchet MS" font-size="14">Nom</text>
	<line x1="453" y1="101" x2="483" y2="101" stroke="#3e3c42" stroke-width="1"/>
</g>

<!-- Entity COURS -->
<g>
	<g>
		<rect x="1094" y="9" width="74" height="26" fill="#97b8ff" stroke="none" stroke-width="0" opacity="1"/>
		<rect x="1094" y="35" width="74" height="116" fill="#c0d4ff" stroke="none" stroke-width="0" opacity="1"/>
		<rect x="1094" y="9" width="74" height="142" fill="none" stroke="#578dff" stroke-width="1.5" opacity="1"/>
		<line x1="1094" y1="35" x2="1168" y2="35" stroke="#578dff" stroke-width="1"/>
	</g>
	<text x="1113" y="27.6" fill="#131114" font-family="Trebuchet MS" font-size="14">Cours</text>
	<text x="1099" y="53.6" fill="#3e3c42" font-family="Trebuchet MS" font-size="14">DateTime</text>
	<line x1="1099" y1="56" x2="1162" y2="56" stroke="#3e3c42" stroke-width="1"/>
	<text x="1099" y="71.6" fill="#3e3c42" font-family="Trebuchet MS" font-size="14">Open</text>
	<text x="1099" y="89.6" fill="#3e3c42" font-family="Trebuchet MS" font-size="14">Close</text>
	<text x="1099" y="107.6" fill="#3e3c42" font-family="Trebuchet MS" font-size="14">High</text>
	<text x="1099" y="125.6" fill="#3e3c42" font-family="Trebuchet MS" font-size="14">Low</text>
	<text x="1099" y="143.6" fill="#3e3c42" font-family="Trebuchet MS" font-size="14">Volume</text>
</g>

<!-- Entity BOURSE -->
<g>
	<g>
		<rect x="9" y="113" width="126" height="26" fill="#97b8ff" stroke="none" stroke-width="0" opacity="1"/>
		<rect x="9" y="139" width="126" height="152" fill="#c0d4ff" stroke="none" stroke-width="0" opacity="1"/>
		<rect x="9" y="113" width="126" height="178" fill="none" stroke="#578dff" stroke-width="1.5" opacity="1"/>
		<line x1="9" y1="139" x2="135" y2="139" stroke="#578dff" stroke-width="1"/>
	</g>
	<text x="50" y="131.6" fill="#131114" font-family="Trebuchet MS" font-size="14">Bourse</text>
	<text x="14" y="157.6" fill="#3e3c42" font-family="Trebuchet MS" font-size="14">Identifiant Bourse</text>
	<line x1="14" y1="160" x2="130" y2="160" stroke="#3e3c42" stroke-width="1"/>
	<text x="14" y="175.6" fill="#3e3c42" font-family="Trebuchet MS" font-size="14">Nom</text>
	<text x="14" y="193.6" fill="#3e3c42" font-family="Trebuchet MS" font-size="14">Pays</text>
	<text x="14" y="211.6" fill="#3e3c42" font-family="Trebuchet MS" font-size="14">Ville</text>
	<text x="14" y="229.6" fill="#3e3c42" font-family="Trebuchet MS" font-size="14">Fuseau horaire</text>
	<text x="14" y="247.6" fill="#3e3c42" font-family="Trebuchet MS" font-size="14">Heure ouveture</text>
	<text x="14" y="265.6" fill="#3e3c42" font-family="Trebuchet MS" font-size="14">Heure fermeture</text>
</g>

<!-- Entity ENTREPRISE -->
<g>
	<g>
		<rect x="167" y="140" width="136" height="26" fill="#97b8ff" stroke="none" stroke-width="0" opacity="1"/>
		<rect x="167" y="166" width="136" height="98" fill="#c0d4ff" stroke="none" stroke-width="0" opacity="1"/>
		<rect x="167" y="140" width="136" height="124" fill="none" stroke="#578dff" stroke-width="1.5" opacity="1"/>
		<line x1="167" y1="166" x2="303" y2="166" stroke="#578dff" stroke-width="1"/>
	</g>
	<text x="202" y="158.6" fill="#131114" font-family="Trebuchet MS" font-size="14">Entreprise</text>
	<text x="172" y="184.6" fill="#3e3c42" font-family="Trebuchet MS" font-size="14">Pays</text>
	<line x1="172" y1="187" x2="201" y2="187" stroke="#3e3c42" stroke-width="1"/>
	<text x="172" y="202.6" fill="#3e3c42" font-family="Trebuchet MS" font-size="14">Numero_entreprise</text>
	<line x1="172" y1="205" x2="297" y2="205" stroke="#3e3c42" stroke-width="1"/>
	<text x="172" y="220.6" fill="#3e3c42" font-family="Trebuchet MS" font-size="14">Nom</text>
	<text x="172" y="238.6" fill="#3e3c42" font-family="Trebuchet MS" font-size="14">Secteur d’activité</text>
	<text x="172" y="256.6" fill="#3e3c42" font-family="Trebuchet MS" font-size="14">Emplacement</text>
</g>

<!-- Entity ACTION -->
<g>
	<g>
		<rect x="454" y="167" width="66" height="26" fill="#97b8ff" stroke="none" stroke-width="0" opacity="1"/>
		<rect x="454" y="193" width="66" height="44" fill="#c0d4ff" stroke="none" stroke-width="0" opacity="1"/>
		<rect x="454" y="167" width="66" height="70" fill="none" stroke="#578dff" stroke-width="1.5" opacity="1"/>
		<line x1="454" y1="193" x2="520" y2="193" stroke="#578dff" stroke-width="1"/>
	</g>
	<text x="466" y="185.6" fill="#131114" font-family="Trebuchet MS" font-size="14">Action</text>
	<text x="459" y="211.6" fill="#3e3c42" font-family="Trebuchet MS" font-size="14">Symbole</text>
	<line x1="459" y1="214" x2="514" y2="214" stroke="#3e3c42" stroke-width="1"/>
	<text x="459" y="229.6" fill="#3e3c42" font-family="Trebuchet MS" font-size="14">Devise</text>
</g>

<!-- Entity INSTRUMENT_FINANCIER -->
<g>
	<g>
		<rect x="774" y="167" width="146" height="26" fill="#97b8ff" stroke="none" stroke-width="0" opacity="1"/>
		<rect x="774" y="193" width="146" height="44" fill="#c0d4ff" stroke="none" stroke-width="0" opacity="1"/>
		<rect x="774" y="167" width="146" height="70" fill="none" stroke="#578dff" stroke-width="1.5" opacity="1"/>
		<line x1="774" y1="193" x2="920" y2="193" stroke="#578dff" stroke-width="1"/>
	</g>
	<text x="780" y="185.6" fill="#131114" font-family="Trebuchet MS" font-size="14">Instrument Financier</text>
	<text x="779" y="211.6" fill="#3e3c42" font-family="Trebuchet MS" font-size="14">ISIN</text>
	<line x1="779" y1="214" x2="804" y2="214" stroke="#3e3c42" stroke-width="1"/>
	<text x="779" y="229.6" fill="#3e3c42" font-family="Trebuchet MS" font-size="14">Devise échange</text>
</g>

<!-- Entity DEVISE -->
<g>
	<g>
		<rect x="1314" y="176" width="98" height="26" fill="#97b8ff" stroke="none" stroke-width="0" opacity="1"/>
		<rect x="1314" y="202" width="98" height="26" fill="#c0d4ff" stroke="none" stroke-width="0" opacity="1"/>
		<rect x="1314" y="176" width="98" height="52" fill="none" stroke="#578dff" stroke-width="1.5" opacity="1"/>
		<line x1="1314" y1="202" x2="1412" y2="202" stroke="#578dff" stroke-width="1"/>
	</g>
	<text x="1342" y="194.6" fill="#131114" font-family="Trebuchet MS" font-size="14">Devise</text>
	<text x="1319" y="220.6" fill="#3e3c42" font-family="Trebuchet MS" font-size="14">CoupleDevise</text>
	<line x1="1319" y1="223" x2="1406" y2="223" stroke="#3e3c42" stroke-width="1"/>
</g>

<!-- Entity ETF -->
<g>
	<g>
		<rect x="467" y="289" width="40" height="26" fill="#97b8ff" stroke="none" stroke-width="0" opacity="1"/>
		<rect x="467" y="315" width="40" height="44" fill="#c0d4ff" stroke="none" stroke-width="0" opacity="1"/>
		<rect x="467" y="289" width="40" height="70" fill="none" stroke="#578dff" stroke-width="1.5" opacity="1"/>
		<line x1="467" y1="315" x2="507" y2="315" stroke="#578dff" stroke-width="1"/>
	</g>
	<text x="475" y="307.6" fill="#131114" font-family="Trebuchet MS" font-size="14">ETF</text>
	<text x="472" y="333.6" fill="#3e3c42" font-family="Trebuchet MS" font-size="14">ISIN</text>
	<line x1="472" y1="336" x2="497" y2="336" stroke="#3e3c42" stroke-width="1"/>
	<text x="472" y="351.6" fill="#3e3c42" font-family="Trebuchet MS" font-size="14">Nom</text>
</g>

<!-- Entity UTILISATEUR -->
<g>
	<g>
		<rect x="1266" y="271" width="194" height="26" fill="#97b8ff" stroke="none" stroke-width="0" opacity="1"/>
		<rect x="1266" y="297" width="194" height="80" fill="#c0d4ff" stroke="none" stroke-width="0" opacity="1"/>
		<rect x="1266" y="271" width="194" height="106" fill="none" stroke="#578dff" stroke-width="1.5" opacity="1"/>
		<line x1="1266" y1="297" x2="1460" y2="297" stroke="#578dff" stroke-width="1"/>
	</g>
	<text x="1329" y="289.6" fill="#131114" font-family="Trebuchet MS" font-size="14">Utilisateur</text>
	<text x="1271" y="315.6" fill="#3e3c42" font-family="Trebuchet MS" font-size="14">Adresse Mail</text>
	<line x1="1271" y1="318" x2="1352" y2="318" stroke="#3e3c42" stroke-width="1"/>
	<text x="1271" y="333.6" fill="#3e3c42" font-family="Trebuchet MS" font-size="14">Nom</text>
	<text x="1271" y="351.6" fill="#3e3c42" font-family="Trebuchet MS" font-size="14">Mot De Passe</text>
	<text x="1271" y="369.6" fill="#3e3c42" font-family="Trebuchet MS" font-size="14">Date De Création Utilisateur</text>
</g>

<!-- Entity AUDIT -->
<g>
	<g>
		<rect x="1584" y="271" width="140" height="26" fill="#97b8ff" stroke="none" stroke-width="0" opacity="1"/>
		<rect x="1584" y="297" width="140" height="80" fill="#c0d4ff" stroke="none" stroke-width="0" opacity="1"/>
		<rect x="1584" y="271" width="140" height="106" fill="none" stroke="#578dff" stroke-width="1.5" opacity="1"/>
		<line x1="1584" y1="297" x2="1724" y2="297" stroke="#578dff" stroke-width="1"/>
	</g>
	<text x="1637" y="289.6" fill="#131114" font-family="Trebuchet MS" font-size="14">Audit</text>
	<text x="1589" y="315.6" fill="#3e3c42" font-family="Trebuchet MS" font-size="14">Adresse Mail</text>
	<line x1="1589" y1="318" x2="1670" y2="318" stroke="#3e3c42" stroke-width="1"/>
	<text x="1589" y="333.6" fill="#3e3c42" font-family="Trebuchet MS" font-size="14">Identifiant Portfolio</text>
	<line x1="1589" y1="336" x2="1718" y2="336" stroke="#3e3c42" stroke-width="1"/>
	<text x="1589" y="351.6" fill="#3e3c42" font-family="Trebuchet MS" font-size="14">Date</text>
	<line x1="1589" y1="354" x2="1620" y2="354" stroke="#3e3c42" stroke-width="1"/>
	<text x="1589" y="369.6" fill="#3e3c42" font-family="Trebuchet MS" font-size="14">Action</text>
</g>

<!-- Entity TRANSACTION -->
<g>
	<g>
		<rect x="767" y="411" width="160" height="26" fill="#97b8ff" stroke="none" stroke-width="0" opacity="1"/>
		<rect x="767" y="437" width="160" height="80" fill="#c0d4ff" stroke="none" stroke-width="0" opacity="1"/>
		<rect x="767" y="411" width="160" height="106" fill="none" stroke="#578dff" stroke-width="1.5" opacity="1"/>
		<line x1="767" y1="437" x2="927" y2="437" stroke="#578dff" stroke-width="1"/>
	</g>
	<text x="809" y="429.6" fill="#131114" font-family="Trebuchet MS" font-size="14">Transaction</text>
	<text x="772" y="455.6" fill="#3e3c42" font-family="Trebuchet MS" font-size="14">Identifiant Transaction</text>
	<line x1="772" y1="458" x2="921" y2="458" stroke="#3e3c42" stroke-width="1"/>
	<text x="772" y="473.6" fill="#3e3c42" font-family="Trebuchet MS" font-size="14">type (Vente/Achat)</text>
	<text x="772" y="491.6" fill="#3e3c42" font-family="Trebuchet MS" font-size="14">date</text>
	<text x="772" y="509.6" fill="#3e3c42" font-family="Trebuchet MS" font-size="14">heure</text>
</g>

<!-- Entity PORTFOLIO -->
<g>
	<g>
		<rect x="1040" y="411" width="182" height="26" fill="#97b8ff" stroke="none" stroke-width="0" opacity="1"/>
		<rect x="1040" y="437" width="182" height="80" fill="#c0d4ff" stroke="none" stroke-width="0" opacity="1"/>
		<rect x="1040" y="411" width="182" height="106" fill="none" stroke="#578dff" stroke-width="1.5" opacity="1"/>
		<line x1="1040" y1="437" x2="1222" y2="437" stroke="#578dff" stroke-width="1"/>
	</g>
	<text x="1103" y="429.6" fill="#131114" font-family="Trebuchet MS" font-size="14">Portfolio</text>
	<text x="1045" y="455.6" fill="#3e3c42" font-family="Trebuchet MS" font-size="14">Identifiant Portfolio</text>
	<line x1="1045" y1="458" x2="1174" y2="458" stroke="#3e3c42" stroke-width="1"/>
	<text x="1045" y="473.6" fill="#3e3c42" font-family="Trebuchet MS" font-size="14">Nom Portfolio</text>
	<text x="1045" y="491.6" fill="#3e3c42" font-family="Trebuchet MS" font-size="14">Description</text>
	<text x="1045" y="509.6" fill="#3e3c42" font-family="Trebuchet MS" font-size="14">Date De Création Portfolio</text>
</g>

<!-- Entity INSTANTANE_PORTFOLIO -->
<g>
	<g>
		<rect x="1293" y="619" width="140" height="26" fill="#97b8ff" stroke="none" stroke-width="0" opacity="1"/>
		<rect x="1293" y="645" width="140" height="62" fill="#c0d4ff" stroke="none" stroke-width="0" opacity="1"/>
		<rect x="1293" y="619" width="140" height="88" fill="none" stroke="#578dff" stroke-width="1.5" opacity="1"/>
		<line x1="1293" y1="645" x2="1433" y2="645" stroke="#578dff" stroke-width="1"/>
	</g>
	<text x="1299" y="637.6" fill="#131114" font-family="Trebuchet MS" font-size="14">Instantané Portfolio</text>
	<text x="1298" y="663.6" fill="#3e3c42" font-family="Trebuchet MS" font-size="14">date</text>
	<line x1="1298" y1="666" x2="1328" y2="666" stroke="#3e3c42" stroke-width="1"/>
	<text x="1298" y="681.6" fill="#3e3c42" font-family="Trebuchet MS" font-size="14">valeur du portfolio</text>
	<text x="1298" y="699.6" fill="#3e3c42" font-family="Trebuchet MS" font-size="14">Profit and Loss</text>
</g>
</svg>