<?xml version="1.0" encoding="utf-8"?>
<!-- Generated by Mocodo 4.3.2 -->
<svg width="1545" height="837" viewBox="0 0 1545 837" xmlns="http://www.w3.org/2000/svg">
<rect x="0" y="0" width="1545" height="837" fill="#f7f7f7" stroke="none" stroke-width="0"/>

<!-- Association CONTIENT -->
<g>
	<line x1="577" y1="268" x2="577" y2="126" stroke="#e08214" stroke-width="1"/>
	<line x1="843" y1="268" x2="577" y2="126" stroke="#e08214" stroke-width="1"/>
	<g>
		<path d="M705 63 a14 14 90 0 1 14 14 V91 h-284 V77 a14 14 90 0 1 14 -14" fill="#fdb863" stroke="#fdb863" stroke-width="0"/>
		<path d="M719 91 v84 a14 14 90 0 1 -14 14 H449 a14 14 90 0 1 -14 -14 V91 H284" fill="#fee0b6" stroke="#fee0b6" stroke-width="0"/>
		<rect x="435" y="63" width="284" height="126" fill="none" rx="14" stroke="#e08214" stroke-width="1.5"/>
		<line x1="435" y1="91" x2="719" y2="91" stroke="#e08214" stroke-width="1.5"/>
		<text x="537" y="84.3" fill="#000000" font-family="Copperplate" font-size="18">contient</text>
		<text x="442" y="109.1" fill="#000000" font-family="Gill Sans" font-size="15">Quantité</text>
		<text x="442" y="126.1" fill="#000000" font-family="Gill Sans" font-size="15">Prix dans devise du portfolio</text>
		<text x="442" y="143.1" fill="#000000" font-family="Gill Sans" font-size="15">Prix dans la devise de l’instrument financier</text>
		<text x="442" y="160" fill="#000000" font-family="Gill Sans" font-size="15">Frais Courtage</text>
		<text x="442" y="177" fill="#000000" font-family="Gill Sans" font-size="15">Taxes</text>
	</g>
	<text x="582" y="205" fill="#542788" font-family="Futura" font-size="11">1,1</text>
	<text x="772.65" y="222" fill="#542788" font-family="Futura" font-size="11">0,N</text>
</g>

<!-- Association EST_UNE_OBLIGATION -->
<g>
	<line x1="843" y1="268" x2="843" y2="126" stroke="#e08214" stroke-width="1"/>
	<line x1="843" y1="39" x2="843" y2="126" stroke="#e08214" stroke-width="1"/>
	<g>
		<path d="M924 97 a14 14 90 0 1 14 14 V125 h-190 V111 a14 14 90 0 1 14 -14" fill="#fdb863" stroke="#fdb863" stroke-width="0"/>
		<path d="M938 125 v16 a14 14 90 0 1 -14 14 H762 a14 14 90 0 1 -14 -14 V125 H190" fill="#fee0b6" stroke="#fee0b6" stroke-width="0"/>
		<rect x="748" y="97" width="190" height="58" fill="none" rx="14" stroke="#e08214" stroke-width="1.5"/>
		<line x1="748" y1="125" x2="938" y2="125" stroke="#e08214" stroke-width="1.5"/>
		<text x="756" y="118.3" fill="#000000" font-family="Copperplate" font-size="18">est une Obligation</text>
	</g>
	<text x="848" y="222" fill="#542788" font-family="Futura" font-size="11">0,1</text>
	<text x="848" y="85" fill="#542788" font-family="Futura" font-size="11">1,1</text>
</g>

<!-- Association EST_UNE_DEVISE -->
<g>
	<line x1="843" y1="268" x2="1041" y2="126" stroke="#e08214" stroke-width="1"/>
	<line x1="1212" y1="126" x2="1041" y2="126" stroke="#e08214" stroke-width="1"/>
	<g>
		<path d="M1101 97 a14 14 90 0 1 14 14 V125 h-148 V111 a14 14 90 0 1 14 -14" fill="#fdb863" stroke="#fdb863" stroke-width="0"/>
		<path d="M1115 125 v16 a14 14 90 0 1 -14 14 H981 a14 14 90 0 1 -14 -14 V125 H148" fill="#fee0b6" stroke="#fee0b6" stroke-width="0"/>
		<rect x="967" y="97" width="148" height="58" fill="none" rx="14" stroke="#e08214" stroke-width="1.5"/>
		<line x1="967" y1="125" x2="1115" y2="125" stroke="#e08214" stroke-width="1.5"/>
		<text x="974" y="118.3" fill="#000000" font-family="Copperplate" font-size="18">est une Devise</text>
	</g>
	<text x="878.43" y="222" fill="#542788" font-family="Futura" font-size="11">0,1</text>
	<text x="1137" y="142" fill="#542788" font-family="Futura" font-size="11">1,1</text>
</g>

<!-- Association HISTORIQUE_DE_TRANSACTIONS -->
<g>
	<line x1="305" y1="402" x2="305" y2="268" stroke="#e08214" stroke-width="1"/>
	<line x1="577" y1="268" x2="305" y2="268" stroke="#e08214" stroke-width="1"/>
	<g>
		<path d="M424 239 a14 14 90 0 1 14 14 V267 h-266 V253 a14 14 90 0 1 14 -14" fill="#fdb863" stroke="#fdb863" stroke-width="0"/>
		<path d="M438 267 v16 a14 14 90 0 1 -14 14 H186 a14 14 90 0 1 -14 -14 V267 H266" fill="#fee0b6" stroke="#fee0b6" stroke-width="0"/>
		<rect x="172" y="239" width="266" height="58" fill="none" rx="14" stroke="#e08214" stroke-width="1.5"/>
		<line x1="172" y1="267" x2="438" y2="267" stroke="#e08214" stroke-width="1.5"/>
		<text x="180" y="260.3" fill="#000000" font-family="Copperplate" font-size="18">historique de transactions</text>
	</g>
	<text x="310" y="339" fill="#542788" font-family="Futura" font-size="11">0,N</text>
	<text x="476" y="284" fill="#542788" font-family="Futura" font-size="11">1,1</text>
</g>

<!-- Association EST_UN_ETF -->
<g>
	<line x1="843" y1="268" x2="1041" y2="268" stroke="#e08214" stroke-width="1"/>
	<line x1="1212" y1="268" x2="1041" y2="268" stroke="#e08214" stroke-width="1"/>
	<g>
		<path d="M1084 239 a14 14 90 0 1 14 14 V267 h-114 V253 a14 14 90 0 1 14 -14" fill="#fdb863" stroke="#fdb863" stroke-width="0"/>
		<path d="M1098 267 v16 a14 14 90 0 1 -14 14 H998 a14 14 90 0 1 -14 -14 V267 H114" fill="#fee0b6" stroke="#fee0b6" stroke-width="0"/>
		<rect x="984" y="239" width="114" height="58" fill="none" rx="14" stroke="#e08214" stroke-width="1.5"/>
		<line x1="984" y1="267" x2="1098" y2="267" stroke="#e08214" stroke-width="1.5"/>
		<text x="992" y="260.3" fill="#000000" font-family="Copperplate" font-size="18">est un ETF</text>
	</g>
	<text x="955" y="284" fill="#542788" font-family="Futura" font-size="11">0,1</text>
	<text x="1163" y="284" fill="#542788" font-family="Futura" font-size="11">1,1</text>
</g>

<!-- Association EST_MEMBRE_DE -->
<g>
	<line x1="109" y1="587" x2="109" y2="402" stroke="#e08214" stroke-width="1"/>
	<line x1="305" y1="402" x2="109" y2="402" stroke="#e08214" stroke-width="1"/>
	<g>
		<path d="M167 373 a14 14 90 0 1 14 14 V401 h-144 V387 a14 14 90 0 1 14 -14" fill="#fdb863" stroke="#fdb863" stroke-width="0"/>
		<path d="M181 401 v16 a14 14 90 0 1 -14 14 H51 a14 14 90 0 1 -14 -14 V401 H144" fill="#fee0b6" stroke="#fee0b6" stroke-width="0"/>
		<rect x="37" y="373" width="144" height="58" fill="none" rx="14" stroke="#e08214" stroke-width="1.5"/>
		<line x1="37" y1="401" x2="181" y2="401" stroke="#e08214" stroke-width="1.5"/>
		<text x="44" y="394.3" fill="#000000" font-family="Copperplate" font-size="18">est membre de</text>
		<text x="44" y="419.1" fill="#000000" font-family="Gill Sans" font-size="15">Niveau Accès</text>
	</g>
	<text x="114" y="524" fill="#542788" font-family="Futura" font-size="11">0,N</text>
	<text x="186" y="418" fill="#542788" font-family="Futura" font-size="11">1,N</text>
</g>

<!-- Association CONTIENT_INSTRUMENT_FINANCIER -->
<g>
	<line x1="305" y1="402" x2="577" y2="402" stroke="#e08214" stroke-width="1"/>
	<line x1="843" y1="268" x2="577" y2="402" stroke="#e08214" stroke-width="1"/>
	<g>
		<path d="M711 365 a14 14 90 0 1 14 14 V393 h-296 V379 a14 14 90 0 1 14 -14" fill="#fdb863" stroke="#fdb863" stroke-width="0"/>
		<path d="M725 393 v32 a14 14 90 0 1 -14 14 H443 a14 14 90 0 1 -14 -14 V393 H296" fill="#fee0b6" stroke="#fee0b6" stroke-width="0"/>
		<rect x="429" y="365" width="296" height="74" fill="none" rx="14" stroke="#e08214" stroke-width="1.5"/>
		<line x1="429" y1="393" x2="725" y2="393" stroke="#e08214" stroke-width="1.5"/>
		<text x="436" y="386.3" fill="#000000" font-family="Copperplate" font-size="18">contient instrument financier</text>
		<text x="436" y="411.1" fill="#000000" font-family="Gill Sans" font-size="15">Quantité</text>
		<text x="436" y="428.1" fill="#000000" font-family="Gill Sans" font-size="15">Prix Moyen d’achat</text>
	</g>
	<text x="405" y="418" fill="#542788" font-family="Futura" font-size="11">0,N</text>
	<text x="768.63" y="322" fill="#542788" font-family="Futura" font-size="11">1,1</text>
</g>

<!-- Association EST_UNE_ACTION -->
<g>
	<line x1="843" y1="268" x2="843" y2="402" stroke="#e08214" stroke-width="1"/>
	<line x1="843" y1="587" x2="843" y2="402" stroke="#e08214" stroke-width="1"/>
	<g>
		<path d="M904 373 a14 14 90 0 1 14 14 V401 h-150 V387 a14 14 90 0 1 14 -14" fill="#fdb863" stroke="#fdb863" stroke-width="0"/>
		<path d="M918 401 v16 a14 14 90 0 1 -14 14 H782 a14 14 90 0 1 -14 -14 V401 H150" fill="#fee0b6" stroke="#fee0b6" stroke-width="0"/>
		<rect x="768" y="373" width="150" height="58" fill="none" rx="14" stroke="#e08214" stroke-width="1.5"/>
		<line x1="768" y1="401" x2="918" y2="401" stroke="#e08214" stroke-width="1.5"/>
		<text x="776" y="394.3" fill="#000000" font-family="Copperplate" font-size="18">est une Action</text>
	</g>
	<text x="848" y="322" fill="#542788" font-family="Futura" font-size="11">0,1</text>
	<text x="848" y="541" fill="#542788" font-family="Futura" font-size="11">1,1</text>
</g>

<!-- Association CONCERNE -->
<g>
	<line x1="843" y1="268" x2="1041" y2="402" stroke="#e08214" stroke-width="1"/>
	<line x1="1212" y1="402" x2="1041" y2="402" stroke="#e08214" stroke-width="1"/>
	<g>
		<path d="M1078 373 a14 14 90 0 1 14 14 V401 h-102 V387 a14 14 90 0 1 14 -14" fill="#fdb863" stroke="#fdb863" stroke-width="0"/>
		<path d="M1092 401 v16 a14 14 90 0 1 -14 14 H1004 a14 14 90 0 1 -14 -14 V401 H102" fill="#fee0b6" stroke="#fee0b6" stroke-width="0"/>
		<rect x="990" y="373" width="102" height="58" fill="none" rx="14" stroke="#e08214" stroke-width="1.5"/>
		<line x1="990" y1="401" x2="1092" y2="401" stroke="#e08214" stroke-width="1.5"/>
		<text x="998" y="394.3" fill="#000000" font-family="Copperplate" font-size="18">concerne</text>
	</g>
	<text x="880.33" y="322" fill="#542788" font-family="Futura" font-size="11">0,N</text>
	<text x="1149" y="418" fill="#542788" font-family="Futura" font-size="11">1,1</text>
</g>

<!-- Association ECHANGE_ETF -->
<g>
	<line x1="1212" y1="587" x2="1346" y2="402" stroke="#e08214" stroke-width="1"/>
	<line x1="1212" y1="268" x2="1346" y2="402" stroke="#e08214" stroke-width="1"/>
	<g>
		<path d="M1397 373 a14 14 90 0 1 14 14 V401 h-130 V387 a14 14 90 0 1 14 -14" fill="#fdb863" stroke="#fdb863" stroke-width="0"/>
		<path d="M1411 401 v16 a14 14 90 0 1 -14 14 H1295 a14 14 90 0 1 -14 -14 V401 H130" fill="#fee0b6" stroke="#fee0b6" stroke-width="0"/>
		<rect x="1281" y="373" width="130" height="58" fill="none" rx="14" stroke="#e08214" stroke-width="1.5"/>
		<line x1="1281" y1="401" x2="1411" y2="401" stroke="#e08214" stroke-width="1.5"/>
		<text x="1289" y="394.3" fill="#000000" font-family="Copperplate" font-size="18">échange ETF</text>
	</g>
	<text x="1281" y="509.15" fill="#542788" font-family="Futura" font-size="11">0,N</text>
	<text x="1243" y="293.07" fill="#542788" font-family="Futura" font-size="11">1,1</text>
</g>

<!-- Association GERE_ETF -->
<g>
	<line x1="1346" y1="764" x2="1488" y2="402" stroke="#e08214" stroke-width="1"/>
	<line x1="1212" y1="268" x2="1488" y2="402" stroke="#e08214" stroke-width="1"/>
	<g>
		<path d="M1522 373 a14 14 90 0 1 14 14 V401 h-96 V387 a14 14 90 0 1 14 -14" fill="#fdb863" stroke="#fdb863" stroke-width="0"/>
		<path d="M1536 401 v16 a14 14 90 0 1 -14 14 H1454 a14 14 90 0 1 -14 -14 V401 H96" fill="#fee0b6" stroke="#fee0b6" stroke-width="0"/>
		<rect x="1440" y="373" width="96" height="58" fill="none" rx="14" stroke="#e08214" stroke-width="1.5"/>
		<line x1="1440" y1="401" x2="1536" y2="401" stroke="#e08214" stroke-width="1.5"/>
		<text x="1447" y="394.3" fill="#000000" font-family="Copperplate" font-size="18">gère ETF</text>
	</g>
	<text x="1350.18" y="692" fill="#542788" font-family="Futura" font-size="11">0,N</text>
	<text x="1243" y="276.42" fill="#542788" font-family="Futura" font-size="11">1,1</text>
</g>

<!-- Association SNAPSHOT -->
<g>
	<line x1="305" y1="402" x2="305" y2="587" stroke="#e08214" stroke-width="1"/>
	<line x1="577" y1="587" x2="305" y2="587" stroke="#e08214" stroke-width="1"/>
	<g>
		<path d="M341 558 a14 14 90 0 1 14 14 V586 h-100 V572 a14 14 90 0 1 14 -14" fill="#fdb863" stroke="#fdb863" stroke-width="0"/>
		<path d="M355 586 v16 a14 14 90 0 1 -14 14 H269 a14 14 90 0 1 -14 -14 V586 H100" fill="#fee0b6" stroke="#fee0b6" stroke-width="0"/>
		<rect x="255" y="558" width="100" height="58" fill="none" rx="14" stroke="#e08214" stroke-width="1.5"/>
		<line x1="255" y1="586" x2="355" y2="586" stroke="#e08214" stroke-width="1.5"/>
		<text x="263" y="579.3" fill="#000000" font-family="Copperplate" font-size="18">snapshot</text>
	</g>
	<text x="310" y="473" fill="#542788" font-family="Futura" font-size="11">0,N</text>
	<text x="447" y="603" fill="#542788" font-family="Futura" font-size="11">1,1</text>
</g>

<!-- Association ECHANGE_ACTION -->
<g>
	<line x1="1212" y1="587" x2="1041" y2="587" stroke="#e08214" stroke-width="1"/>
	<line x1="843" y1="587" x2="1041" y2="587" stroke="#e08214" stroke-width="1"/>
	<g>
		<path d="M1105 558 a14 14 90 0 1 14 14 V586 h-156 V572 a14 14 90 0 1 14 -14" fill="#fdb863" stroke="#fdb863" stroke-width="0"/>
		<path d="M1119 586 v16 a14 14 90 0 1 -14 14 H977 a14 14 90 0 1 -14 -14 V586 H156" fill="#fee0b6" stroke="#fee0b6" stroke-width="0"/>
		<rect x="963" y="558" width="156" height="58" fill="none" rx="14" stroke="#e08214" stroke-width="1.5"/>
		<line x1="963" y1="586" x2="1119" y2="586" stroke="#e08214" stroke-width="1.5"/>
		<text x="971" y="579.3" fill="#000000" font-family="Copperplate" font-size="18">échange Action</text>
	</g>
	<text x="1124" y="603" fill="#542788" font-family="Futura" font-size="11">0,N</text>
	<text x="887" y="603" fill="#542788" font-family="Futura" font-size="11">1,1</text>
</g>

<!-- Association EMET -->
<g>
	<line x1="843" y1="587" x2="843" y2="764" stroke="#e08214" stroke-width="1"/>
	<line x1="1346" y1="764" x2="843" y2="764" stroke="#e08214" stroke-width="1"/>
	<g>
		<path d="M858 735 a14 14 90 0 1 14 14 V763 h-58 V749 a14 14 90 0 1 14 -14" fill="#fdb863" stroke="#fdb863" stroke-width="0"/>
		<path d="M872 763 v16 a14 14 90 0 1 -14 14 H828 a14 14 90 0 1 -14 -14 V763 H58" fill="#fee0b6" stroke="#fee0b6" stroke-width="0"/>
		<rect x="814" y="735" width="58" height="58" fill="none" rx="14" stroke="#e08214" stroke-width="1.5"/>
		<line x1="814" y1="763" x2="872" y2="763" stroke="#e08214" stroke-width="1.5"/>
		<text x="822" y="756.3" fill="#000000" font-family="Copperplate" font-size="18">émet</text>
	</g>
	<text x="848" y="641" fill="#542788" font-family="Futura" font-size="11">1,1</text>
	<text x="1251" y="780" fill="#542788" font-family="Futura" font-size="11">0,N</text>
</g>

<!-- Entity OBLIGATION -->
<g>
	<g>
		<rect x="784" y="9" width="118" height="30" fill="#b2abd2" stroke="none" stroke-width="0" opacity="1"/>
		<rect x="784" y="39" width="118" height="30" fill="#d8daeb" stroke="none" stroke-width="0" opacity="1"/>
		<rect x="784" y="9" width="118" height="60" fill="none" stroke="#8073ac" stroke-width="1.5" opacity="1"/>
		<line x1="784" y1="39" x2="902" y2="39" stroke="#8073ac" stroke-width="1.5"/>
	</g>
	<text x="793" y="30.3" fill="#000000" font-family="Copperplate" font-size="18">Obligation</text>
	<text x="792" y="56.1" fill="#000000" font-family="Gill Sans" font-size="15">Nom</text>
	<line x1="792" y1="59" x2="825" y2="59" stroke="#000000" stroke-width="1"/>
</g>

<!-- Entity DEVISE -->
<g>
	<g>
		<rect x="1160" y="96" width="104" height="30" fill="#b2abd2" stroke="none" stroke-width="0" opacity="1"/>
		<rect x="1160" y="126" width="104" height="30" fill="#d8daeb" stroke="none" stroke-width="0" opacity="1"/>
		<rect x="1160" y="96" width="104" height="60" fill="none" stroke="#8073ac" stroke-width="1.5" opacity="1"/>
		<line x1="1160" y1="126" x2="1264" y2="126" stroke="#8073ac" stroke-width="1.5"/>
	</g>
	<text x="1182" y="117.3" fill="#000000" font-family="Copperplate" font-size="18">Devise</text>
	<text x="1168" y="143.1" fill="#000000" font-family="Gill Sans" font-size="15">CoupleDevise</text>
	<line x1="1168" y1="146" x2="1256" y2="146" stroke="#000000" stroke-width="1"/>
</g>

<!-- Entity TRANSACTION -->
<g>
	<g>
		<rect x="499" y="213" width="156" height="30" fill="#b2abd2" stroke="none" stroke-width="0" opacity="1"/>
		<rect x="499" y="243" width="156" height="80" fill="#d8daeb" stroke="none" stroke-width="0" opacity="1"/>
		<rect x="499" y="213" width="156" height="110" fill="none" stroke="#8073ac" stroke-width="1.5" opacity="1"/>
		<line x1="499" y1="243" x2="655" y2="243" stroke="#8073ac" stroke-width="1.5"/>
	</g>
	<text x="521" y="234.3" fill="#000000" font-family="Copperplate" font-size="18">Transaction</text>
	<text x="507" y="260.1" fill="#000000" font-family="Gill Sans" font-size="15">Identifiant Transaction</text>
	<line x1="507" y1="263" x2="647" y2="263" stroke="#000000" stroke-width="1"/>
	<text x="507" y="277.1" fill="#000000" font-family="Gill Sans" font-size="15">type (Vente/Achat)</text>
	<text x="507" y="294.1" fill="#000000" font-family="Gill Sans" font-size="15">date</text>
	<text x="507" y="311" fill="#000000" font-family="Gill Sans" font-size="15">heure</text>
</g>

<!-- Entity INSTRUMENT_FINANCIER -->
<g>
	<g>
		<rect x="736" y="230" width="214" height="30" fill="#b2abd2" stroke="none" stroke-width="0" opacity="1"/>
		<rect x="736" y="260" width="214" height="46" fill="#d8daeb" stroke="none" stroke-width="0" opacity="1"/>
		<rect x="736" y="230" width="214" height="76" fill="none" stroke="#8073ac" stroke-width="1.5" opacity="1"/>
		<line x1="736" y1="260" x2="950" y2="260" stroke="#8073ac" stroke-width="1.5"/>
	</g>
	<text x="744" y="251.3" fill="#000000" font-family="Copperplate" font-size="18">Instrument Financier</text>
	<text x="744" y="277.1" fill="#000000" font-family="Gill Sans" font-size="15">ISIN</text>
	<line x1="744" y1="280" x2="772" y2="280" stroke="#000000" stroke-width="1"/>
	<text x="744" y="294.1" fill="#000000" font-family="Gill Sans" font-size="15">Devise échange</text>
</g>

<!-- Entity ETF -->
<g>
	<g>
		<rect x="1186" y="230" width="52" height="30" fill="#b2abd2" stroke="none" stroke-width="0" opacity="1"/>
		<rect x="1186" y="260" width="52" height="46" fill="#d8daeb" stroke="none" stroke-width="0" opacity="1"/>
		<rect x="1186" y="230" width="52" height="76" fill="none" stroke="#8073ac" stroke-width="1.5" opacity="1"/>
		<line x1="1186" y1="260" x2="1238" y2="260" stroke="#8073ac" stroke-width="1.5"/>
	</g>
	<text x="1195" y="251.3" fill="#000000" font-family="Copperplate" font-size="18">ETF</text>
	<text x="1194" y="277.1" fill="#000000" font-family="Gill Sans" font-size="15">ISIN</text>
	<line x1="1194" y1="280" x2="1222" y2="280" stroke="#000000" stroke-width="1"/>
	<text x="1194" y="294.1" fill="#000000" font-family="Gill Sans" font-size="15">Nom</text>
</g>

<!-- Entity PORTFOLIO -->
<g>
	<g>
		<rect x="210" y="347" width="190" height="30" fill="#b2abd2" stroke="none" stroke-width="0" opacity="1"/>
		<rect x="210" y="377" width="190" height="80" fill="#d8daeb" stroke="none" stroke-width="0" opacity="1"/>
		<rect x="210" y="347" width="190" height="110" fill="none" stroke="#8073ac" stroke-width="1.5" opacity="1"/>
		<line x1="210" y1="377" x2="400" y2="377" stroke="#8073ac" stroke-width="1.5"/>
	</g>
	<text x="259" y="368.3" fill="#000000" font-family="Copperplate" font-size="18">Portfolio</text>
	<text x="218" y="394.1" fill="#000000" font-family="Gill Sans" font-size="15">Identifiant Portfolio</text>
	<line x1="218" y1="397" x2="339" y2="397" stroke="#000000" stroke-width="1"/>
	<text x="218" y="411.1" fill="#000000" font-family="Gill Sans" font-size="15">Nom Portfolio</text>
	<text x="218" y="428.1" fill="#000000" font-family="Gill Sans" font-size="15">Description</text>
	<text x="218" y="445" fill="#000000" font-family="Gill Sans" font-size="15">Date De Création Portfolio</text>
</g>

<!-- Entity COURS -->
<g>
	<g>
		<rect x="1172" y="330" width="80" height="30" fill="#b2abd2" stroke="none" stroke-width="0" opacity="1"/>
		<rect x="1172" y="360" width="80" height="114" fill="#d8daeb" stroke="none" stroke-width="0" opacity="1"/>
		<rect x="1172" y="330" width="80" height="144" fill="none" stroke="#8073ac" stroke-width="1.5" opacity="1"/>
		<line x1="1172" y1="360" x2="1252" y2="360" stroke="#8073ac" stroke-width="1.5"/>
	</g>
	<text x="1183" y="351.3" fill="#000000" font-family="Copperplate" font-size="18">Cours</text>
	<text x="1180" y="377.1" fill="#000000" font-family="Gill Sans" font-size="15">DateTime</text>
	<line x1="1180" y1="380" x2="1243" y2="380" stroke="#000000" stroke-width="1"/>
	<text x="1180" y="394.1" fill="#000000" font-family="Gill Sans" font-size="15">Open</text>
	<text x="1180" y="411.1" fill="#000000" font-family="Gill Sans" font-size="15">Close</text>
	<text x="1180" y="428.1" fill="#000000" font-family="Gill Sans" font-size="15">High</text>
	<text x="1180" y="445" fill="#000000" font-family="Gill Sans" font-size="15">Low</text>
	<text x="1180" y="462" fill="#000000" font-family="Gill Sans" font-size="15">Volume</text>
</g>

<!-- Entity UTILISATEUR -->
<g>
	<g>
		<rect x="9" y="532" width="200" height="30" fill="#b2abd2" stroke="none" stroke-width="0" opacity="1"/>
		<rect x="9" y="562" width="200" height="80" fill="#d8daeb" stroke="none" stroke-width="0" opacity="1"/>
		<rect x="9" y="532" width="200" height="110" fill="none" stroke="#8073ac" stroke-width="1.5" opacity="1"/>
		<line x1="9" y1="562" x2="209" y2="562" stroke="#8073ac" stroke-width="1.5"/>
	</g>
	<text x="56" y="553.3" fill="#000000" font-family="Copperplate" font-size="18">Utilisateur</text>
	<text x="17" y="579.1" fill="#000000" font-family="Gill Sans" font-size="15">Adresse Mail</text>
	<line x1="17" y1="582" x2="98" y2="582" stroke="#000000" stroke-width="1"/>
	<text x="17" y="596.1" fill="#000000" font-family="Gill Sans" font-size="15">Nom</text>
	<text x="17" y="613.1" fill="#000000" font-family="Gill Sans" font-size="15">Mot De Passe</text>
	<text x="17" y="630" fill="#000000" font-family="Gill Sans" font-size="15">Date De Création Utilisateur</text>
</g>

<!-- Entity INSTANTANE_PORTFOLIO -->
<g>
	<g>
		<rect x="470" y="540" width="214" height="30" fill="#b2abd2" stroke="none" stroke-width="0" opacity="1"/>
		<rect x="470" y="570" width="214" height="64" fill="#d8daeb" stroke="none" stroke-width="0" opacity="1"/>
		<rect x="470" y="540" width="214" height="94" fill="none" stroke="#8073ac" stroke-width="1.5" opacity="1"/>
		<line x1="470" y1="570" x2="684" y2="570" stroke="#8073ac" stroke-width="1.5"/>
	</g>
	<text x="479" y="561.3" fill="#000000" font-family="Copperplate" font-size="18">Instantané Portfolio</text>
	<text x="478" y="587.1" fill="#000000" font-family="Gill Sans" font-size="15">date</text>
	<line x1="478" y1="590" x2="506" y2="590" stroke="#000000" stroke-width="1"/>
	<text x="478" y="604.1" fill="#000000" font-family="Gill Sans" font-size="15">valeur du portfolio</text>
	<text x="478" y="621" fill="#000000" font-family="Gill Sans" font-size="15">Profit and Loss</text>
</g>

<!-- Entity ACTION -->
<g>
	<g>
		<rect x="804" y="549" width="78" height="30" fill="#b2abd2" stroke="none" stroke-width="0" opacity="1"/>
		<rect x="804" y="579" width="78" height="46" fill="#d8daeb" stroke="none" stroke-width="0" opacity="1"/>
		<rect x="804" y="549" width="78" height="76" fill="none" stroke="#8073ac" stroke-width="1.5" opacity="1"/>
		<line x1="804" y1="579" x2="882" y2="579" stroke="#8073ac" stroke-width="1.5"/>
	</g>
	<text x="813" y="570.3" fill="#000000" font-family="Copperplate" font-size="18">Action</text>
	<text x="812" y="596.1" fill="#000000" font-family="Gill Sans" font-size="15">Symbole</text>
	<line x1="812" y1="599" x2="865" y2="599" stroke="#000000" stroke-width="1"/>
	<text x="812" y="613.1" fill="#000000" font-family="Gill Sans" font-size="15">Devise</text>
</g>

<!-- Entity BOURSE -->
<g>
	<g>
		<rect x="1148" y="498" width="128" height="30" fill="#b2abd2" stroke="none" stroke-width="0" opacity="1"/>
		<rect x="1148" y="528" width="128" height="148" fill="#d8daeb" stroke="none" stroke-width="0" opacity="1"/>
		<rect x="1148" y="498" width="128" height="178" fill="none" stroke="#8073ac" stroke-width="1.5" opacity="1"/>
		<line x1="1148" y1="528" x2="1276" y2="528" stroke="#8073ac" stroke-width="1.5"/>
	</g>
	<text x="1178" y="519.3" fill="#000000" font-family="Copperplate" font-size="18">Bourse</text>
	<text x="1156" y="545" fill="#000000" font-family="Gill Sans" font-size="15">Identifiant Bourse</text>
	<line x1="1156" y1="548" x2="1267" y2="548" stroke="#000000" stroke-width="1"/>
	<text x="1156" y="562.1" fill="#000000" font-family="Gill Sans" font-size="15">Nom</text>
	<text x="1156" y="579.1" fill="#000000" font-family="Gill Sans" font-size="15">Pays</text>
	<text x="1156" y="596.1" fill="#000000" font-family="Gill Sans" font-size="15">Ville</text>
	<text x="1156" y="613.1" fill="#000000" font-family="Gill Sans" font-size="15">Fuseau horaire</text>
	<text x="1156" y="630" fill="#000000" font-family="Gill Sans" font-size="15">Heure ouveture</text>
	<text x="1156" y="647" fill="#000000" font-family="Gill Sans" font-size="15">Heure fermeture</text>
</g>

<!-- Entity ENTREPRISE -->
<g>
	<g>
		<rect x="1275" y="700" width="142" height="30" fill="#b2abd2" stroke="none" stroke-width="0" opacity="1"/>
		<rect x="1275" y="730" width="142" height="98" fill="#d8daeb" stroke="none" stroke-width="0" opacity="1"/>
		<rect x="1275" y="700" width="142" height="128" fill="none" stroke="#8073ac" stroke-width="1.5" opacity="1"/>
		<line x1="1275" y1="730" x2="1417" y2="730" stroke="#8073ac" stroke-width="1.5"/>
	</g>
	<text x="1295" y="721.3" fill="#000000" font-family="Copperplate" font-size="18">Entreprise</text>
	<text x="1283" y="747.1" fill="#000000" font-family="Gill Sans" font-size="15">Pays</text>
	<line x1="1283" y1="750" x2="1311" y2="750" stroke="#000000" stroke-width="1"/>
	<text x="1283" y="764.1" fill="#000000" font-family="Gill Sans" font-size="15">Numero_entreprise</text>
	<line x1="1283" y1="767" x2="1409" y2="767" stroke="#000000" stroke-width="1"/>
	<text x="1283" y="781.1" fill="#000000" font-family="Gill Sans" font-size="15">Nom</text>
	<text x="1283" y="798" fill="#000000" font-family="Gill Sans" font-size="15">Secteur d’activité</text>
	<text x="1283" y="815" fill="#000000" font-family="Gill Sans" font-size="15">Emplacement</text>
</g>
</svg>