<?xml version="1.0" encoding="utf-8"?>
<!-- Generated by Mocodo 4.3.2 -->
<svg width="1478" height="689" viewBox="0 0 1478 689" xmlns="http://www.w3.org/2000/svg">
<rect x="0" y="0" width="1478" height="689" fill="#f7f7f7" stroke="none" stroke-width="0"/>

<!-- Association HISTORIQUE_DE_TRANSACTIONS -->
<g>
	<line x1="1092" y1="146" x2="773" y2="38" stroke="#e08214" stroke-width="1"/>
	<line x1="773" y1="146" x2="773" y2="38" stroke="#e08214" stroke-width="1"/>
	<g>
		<path d="M892 9 a14 14 90 0 1 14 14 V37 h-266 V23 a14 14 90 0 1 14 -14" fill="#fdb863" stroke="#fdb863" stroke-width="0"/>
		<path d="M906 37 v16 a14 14 90 0 1 -14 14 H654 a14 14 90 0 1 -14 -14 V37 H266" fill="#fee0b6" stroke="#fee0b6" stroke-width="0"/>
		<rect x="640" y="9" width="266" height="58" fill="none" rx="14" stroke="#e08214" stroke-width="1.5"/>
		<line x1="640" y1="37" x2="906" y2="37" stroke="#e08214" stroke-width="1.5"/>
		<text x="648" y="30.3" fill="#000000" font-family="Copperplate" font-size="18">historique de transactions</text>
	</g>
	<text x="973" y="127.2" fill="#542788" font-family="Futura" font-size="11">0,N</text>
	<text x="778" y="83" fill="#542788" font-family="Futura" font-size="11">1,1</text>
</g>

<!-- Association EST_MEMBRE_DE -->
<g>
	<line x1="1369" y1="288" x2="1369" y2="146" stroke="#e08214" stroke-width="1"/>
	<line x1="1092" y1="146" x2="1369" y2="146" stroke="#e08214" stroke-width="1"/>
	<g>
		<path d="M1427 117 a14 14 90 0 1 14 14 V145 h-144 V131 a14 14 90 0 1 14 -14" fill="#fdb863" stroke="#fdb863" stroke-width="0"/>
		<path d="M1441 145 v16 a14 14 90 0 1 -14 14 H1311 a14 14 90 0 1 -14 -14 V145 H144" fill="#fee0b6" stroke="#fee0b6" stroke-width="0"/>
		<rect x="1297" y="117" width="144" height="58" fill="none" rx="14" stroke="#e08214" stroke-width="1.5"/>
		<line x1="1297" y1="145" x2="1441" y2="145" stroke="#e08214" stroke-width="1.5"/>
		<text x="1304" y="138.3" fill="#000000" font-family="Copperplate" font-size="18">est membre de</text>
		<text x="1304" y="163.1" fill="#000000" font-family="Gill Sans" font-size="15">Niveau Accès</text>
	</g>
	<text x="1374" y="225" fill="#542788" font-family="Futura" font-size="11">0,N</text>
	<text x="1192" y="162" fill="#542788" font-family="Futura" font-size="11">1,N</text>
</g>

<!-- Association EST_UN_ETF -->
<g>
	<line x1="773" y1="439" x2="357" y2="288" stroke="#e08214" stroke-width="1"/>
	<line x1="199" y1="288" x2="357" y2="288" stroke="#e08214" stroke-width="1"/>
	<g>
		<path d="M400 259 a14 14 90 0 1 14 14 V287 h-114 V273 a14 14 90 0 1 14 -14" fill="#fdb863" stroke="#fdb863" stroke-width="0"/>
		<path d="M414 287 v16 a14 14 90 0 1 -14 14 H314 a14 14 90 0 1 -14 -14 V287 H114" fill="#fee0b6" stroke="#fee0b6" stroke-width="0"/>
		<rect x="300" y="259" width="114" height="58" fill="none" rx="14" stroke="#e08214" stroke-width="1.5"/>
		<line x1="300" y1="287" x2="414" y2="287" stroke="#e08214" stroke-width="1.5"/>
		<text x="308" y="280.3" fill="#000000" font-family="Copperplate" font-size="18">est un ETF</text>
	</g>
	<text x="670.47" y="393" fill="#542788" font-family="Futura" font-size="11">0,1</text>
	<text x="230" y="304" fill="#542788" font-family="Futura" font-size="11">1,1</text>
</g>

<!-- Association EST_UNE_DEVISE -->
<g>
	<line x1="773" y1="439" x2="528" y2="288" stroke="#e08214" stroke-width="1"/>
	<line x1="528" y1="146" x2="528" y2="288" stroke="#e08214" stroke-width="1"/>
	<g>
		<path d="M588 259 a14 14 90 0 1 14 14 V287 h-148 V273 a14 14 90 0 1 14 -14" fill="#fdb863" stroke="#fdb863" stroke-width="0"/>
		<path d="M602 287 v16 a14 14 90 0 1 -14 14 H468 a14 14 90 0 1 -14 -14 V287 H148" fill="#fee0b6" stroke="#fee0b6" stroke-width="0"/>
		<rect x="454" y="259" width="148" height="58" fill="none" rx="14" stroke="#e08214" stroke-width="1.5"/>
		<line x1="454" y1="287" x2="602" y2="287" stroke="#e08214" stroke-width="1.5"/>
		<text x="461" y="280.3" fill="#000000" font-family="Copperplate" font-size="18">est une Devise</text>
	</g>
	<text x="711.58" y="393" fill="#542788" font-family="Futura" font-size="11">0,1</text>
	<text x="533" y="192" fill="#542788" font-family="Futura" font-size="11">1,1</text>
</g>

<!-- Association CONTIENT -->
<g>
	<line x1="773" y1="146" x2="773" y2="288" stroke="#e08214" stroke-width="1"/>
	<line x1="773" y1="439" x2="773" y2="288" stroke="#e08214" stroke-width="1"/>
	<g>
		<path d="M901 225 a14 14 90 0 1 14 14 V253 h-284 V239 a14 14 90 0 1 14 -14" fill="#fdb863" stroke="#fdb863" stroke-width="0"/>
		<path d="M915 253 v84 a14 14 90 0 1 -14 14 H645 a14 14 90 0 1 -14 -14 V253 H284" fill="#fee0b6" stroke="#fee0b6" stroke-width="0"/>
		<rect x="631" y="225" width="284" height="126" fill="none" rx="14" stroke="#e08214" stroke-width="1.5"/>
		<line x1="631" y1="253" x2="915" y2="253" stroke="#e08214" stroke-width="1.5"/>
		<text x="733" y="246.3" fill="#000000" font-family="Copperplate" font-size="18">contient</text>
		<text x="638" y="271.1" fill="#000000" font-family="Gill Sans" font-size="15">Quantité</text>
		<text x="638" y="288.1" fill="#000000" font-family="Gill Sans" font-size="15">Prix dans devise du portfolio</text>
		<text x="638" y="305.1" fill="#000000" font-family="Gill Sans" font-size="15">Prix dans la devise de l’instrument financier</text>
		<text x="638" y="322" fill="#000000" font-family="Gill Sans" font-size="15">Frais Courtage</text>
		<text x="638" y="339" fill="#000000" font-family="Gill Sans" font-size="15">Taxes</text>
	</g>
	<text x="778" y="217" fill="#542788" font-family="Futura" font-size="11">1,1</text>
	<text x="778" y="393" fill="#542788" font-family="Futura" font-size="11">0,N</text>
</g>

<!-- Association CONTIENT_INSTRUMENT_FINANCIER -->
<g>
	<line x1="1092" y1="146" x2="1092" y2="288" stroke="#e08214" stroke-width="1"/>
	<line x1="773" y1="439" x2="1092" y2="288" stroke="#e08214" stroke-width="1"/>
	<g>
		<path d="M1226 259 a14 14 90 0 1 14 14 V287 h-296 V273 a14 14 90 0 1 14 -14" fill="#fdb863" stroke="#fdb863" stroke-width="0"/>
		<path d="M1240 287 v16 a14 14 90 0 1 -14 14 H958 a14 14 90 0 1 -14 -14 V287 H296" fill="#fee0b6" stroke="#fee0b6" stroke-width="0"/>
		<rect x="944" y="259" width="296" height="58" fill="none" rx="14" stroke="#e08214" stroke-width="1.5"/>
		<line x1="944" y1="287" x2="1240" y2="287" stroke="#e08214" stroke-width="1.5"/>
		<text x="951" y="280.3" fill="#000000" font-family="Copperplate" font-size="18">contient instrument financier</text>
		<text x="951" y="305.1" fill="#000000" font-family="Gill Sans" font-size="15">Quantité</text>
	</g>
	<text x="1097" y="217" fill="#542788" font-family="Futura" font-size="11">0,N</text>
	<text x="833.98" y="393" fill="#542788" font-family="Futura" font-size="11">1,1</text>
</g>

<!-- Association GERE_ETF -->
<g>
	<line x1="199" y1="616" x2="57" y2="439" stroke="#e08214" stroke-width="1"/>
	<line x1="199" y1="288" x2="57" y2="439" stroke="#e08214" stroke-width="1"/>
	<g>
		<path d="M91 410 a14 14 90 0 1 14 14 V438 h-96 V424 a14 14 90 0 1 14 -14" fill="#fdb863" stroke="#fdb863" stroke-width="0"/>
		<path d="M105 438 v16 a14 14 90 0 1 -14 14 H23 a14 14 90 0 1 -14 -14 V438 H96" fill="#fee0b6" stroke="#fee0b6" stroke-width="0"/>
		<rect x="9" y="410" width="96" height="58" fill="none" rx="14" stroke="#e08214" stroke-width="1.5"/>
		<line x1="9" y1="438" x2="105" y2="438" stroke="#e08214" stroke-width="1.5"/>
		<text x="16" y="431.3" fill="#000000" font-family="Copperplate" font-size="18">gère ETF</text>
	</g>
	<text x="146.67" y="544" fill="#542788" font-family="Futura" font-size="11">0,N</text>
	<text x="150" y="314.41" fill="#542788" font-family="Futura" font-size="11">1,1</text>
</g>

<!-- Association ECHANGE_ETF -->
<g>
	<line x1="357" y1="439" x2="199" y2="439" stroke="#e08214" stroke-width="1"/>
	<line x1="199" y1="288" x2="199" y2="439" stroke="#e08214" stroke-width="1"/>
	<g>
		<path d="M250 410 a14 14 90 0 1 14 14 V438 h-130 V424 a14 14 90 0 1 14 -14" fill="#fdb863" stroke="#fdb863" stroke-width="0"/>
		<path d="M264 438 v16 a14 14 90 0 1 -14 14 H148 a14 14 90 0 1 -14 -14 V438 H130" fill="#fee0b6" stroke="#fee0b6" stroke-width="0"/>
		<rect x="134" y="410" width="130" height="58" fill="none" rx="14" stroke="#e08214" stroke-width="1.5"/>
		<line x1="134" y1="438" x2="264" y2="438" stroke="#e08214" stroke-width="1.5"/>
		<text x="142" y="431.3" fill="#000000" font-family="Copperplate" font-size="18">échange ETF</text>
	</g>
	<text x="269" y="455" fill="#542788" font-family="Futura" font-size="11">0,N</text>
	<text x="204" y="342" fill="#542788" font-family="Futura" font-size="11">1,1</text>
</g>

<!-- Association ECHANGE_ACTION -->
<g>
	<line x1="357" y1="439" x2="528" y2="439" stroke="#e08214" stroke-width="1"/>
	<line x1="528" y1="616" x2="528" y2="439" stroke="#e08214" stroke-width="1"/>
	<g>
		<path d="M592 410 a14 14 90 0 1 14 14 V438 h-156 V424 a14 14 90 0 1 14 -14" fill="#fdb863" stroke="#fdb863" stroke-width="0"/>
		<path d="M606 438 v16 a14 14 90 0 1 -14 14 H464 a14 14 90 0 1 -14 -14 V438 H156" fill="#fee0b6" stroke="#fee0b6" stroke-width="0"/>
		<rect x="450" y="410" width="156" height="58" fill="none" rx="14" stroke="#e08214" stroke-width="1.5"/>
		<line x1="450" y1="438" x2="606" y2="438" stroke="#e08214" stroke-width="1.5"/>
		<text x="458" y="431.3" fill="#000000" font-family="Copperplate" font-size="18">échange Action</text>
	</g>
	<text x="426" y="455" fill="#542788" font-family="Futura" font-size="11">0,N</text>
	<text x="533" y="570" fill="#542788" font-family="Futura" font-size="11">1,1</text>
</g>

<!-- Association CONCERNE -->
<g>
	<line x1="773" y1="439" x2="1092" y2="439" stroke="#e08214" stroke-width="1"/>
	<line x1="1369" y1="439" x2="1092" y2="439" stroke="#e08214" stroke-width="1"/>
	<g>
		<path d="M1129 410 a14 14 90 0 1 14 14 V438 h-102 V424 a14 14 90 0 1 14 -14" fill="#fdb863" stroke="#fdb863" stroke-width="0"/>
		<path d="M1143 438 v16 a14 14 90 0 1 -14 14 H1055 a14 14 90 0 1 -14 -14 V438 H102" fill="#fee0b6" stroke="#fee0b6" stroke-width="0"/>
		<rect x="1041" y="410" width="102" height="58" fill="none" rx="14" stroke="#e08214" stroke-width="1.5"/>
		<line x1="1041" y1="438" x2="1143" y2="438" stroke="#e08214" stroke-width="1.5"/>
		<text x="1049" y="431.3" fill="#000000" font-family="Copperplate" font-size="18">concerne</text>
	</g>
	<text x="885" y="455" fill="#542788" font-family="Futura" font-size="11">0,N</text>
	<text x="1306" y="455" fill="#542788" font-family="Futura" font-size="11">1,1</text>
</g>

<!-- Association EMET -->
<g>
	<line x1="528" y1="616" x2="357" y2="616" stroke="#e08214" stroke-width="1"/>
	<line x1="199" y1="616" x2="357" y2="616" stroke="#e08214" stroke-width="1"/>
	<g>
		<path d="M372 587 a14 14 90 0 1 14 14 V615 h-58 V601 a14 14 90 0 1 14 -14" fill="#fdb863" stroke="#fdb863" stroke-width="0"/>
		<path d="M386 615 v16 a14 14 90 0 1 -14 14 H342 a14 14 90 0 1 -14 -14 V615 H58" fill="#fee0b6" stroke="#fee0b6" stroke-width="0"/>
		<rect x="328" y="587" width="58" height="58" fill="none" rx="14" stroke="#e08214" stroke-width="1.5"/>
		<line x1="328" y1="615" x2="386" y2="615" stroke="#e08214" stroke-width="1.5"/>
		<text x="336" y="608.3" fill="#000000" font-family="Copperplate" font-size="18">émet</text>
	</g>
	<text x="466" y="632" fill="#542788" font-family="Futura" font-size="11">1,1</text>
	<text x="275" y="632" fill="#542788" font-family="Futura" font-size="11">0,N</text>
</g>

<!-- Association EST_UNE_ACTION -->
<g>
	<line x1="773" y1="439" x2="773" y2="616" stroke="#e08214" stroke-width="1"/>
	<line x1="528" y1="616" x2="773" y2="616" stroke="#e08214" stroke-width="1"/>
	<g>
		<path d="M834 587 a14 14 90 0 1 14 14 V615 h-150 V601 a14 14 90 0 1 14 -14" fill="#fdb863" stroke="#fdb863" stroke-width="0"/>
		<path d="M848 615 v16 a14 14 90 0 1 -14 14 H712 a14 14 90 0 1 -14 -14 V615 H150" fill="#fee0b6" stroke="#fee0b6" stroke-width="0"/>
		<rect x="698" y="587" width="150" height="58" fill="none" rx="14" stroke="#e08214" stroke-width="1.5"/>
		<line x1="698" y1="615" x2="848" y2="615" stroke="#e08214" stroke-width="1.5"/>
		<text x="706" y="608.3" fill="#000000" font-family="Copperplate" font-size="18">est une Action</text>
	</g>
	<text x="750" y="493" fill="#542788" font-family="Futura" font-size="11">0,1</text>
	<text x="572" y="632" fill="#542788" font-family="Futura" font-size="11">1,1</text>
</g>

<!-- Association EST_UNE_OBLIGATION -->
<g>
	<line x1="773" y1="439" x2="1092" y2="616" stroke="#e08214" stroke-width="1"/>
	<line x1="1369" y1="616" x2="1092" y2="616" stroke="#e08214" stroke-width="1"/>
	<g>
		<path d="M1173 587 a14 14 90 0 1 14 14 V615 h-190 V601 a14 14 90 0 1 14 -14" fill="#fdb863" stroke="#fdb863" stroke-width="0"/>
		<path d="M1187 615 v16 a14 14 90 0 1 -14 14 H1011 a14 14 90 0 1 -14 -14 V615 H190" fill="#fee0b6" stroke="#fee0b6" stroke-width="0"/>
		<rect x="997" y="587" width="190" height="58" fill="none" rx="14" stroke="#e08214" stroke-width="1.5"/>
		<line x1="997" y1="615" x2="1187" y2="615" stroke="#e08214" stroke-width="1.5"/>
		<text x="1005" y="608.3" fill="#000000" font-family="Copperplate" font-size="18">est une Obligation</text>
	</g>
	<text x="822.8" y="493" fill="#542788" font-family="Futura" font-size="11">0,1</text>
	<text x="1287" y="632" fill="#542788" font-family="Futura" font-size="11">1,1</text>
</g>

<!-- Entity DEVISE -->
<g>
	<g>
		<rect x="476" y="116" width="104" height="30" fill="#b2abd2" stroke="none" stroke-width="0" opacity="1"/>
		<rect x="476" y="146" width="104" height="30" fill="#d8daeb" stroke="none" stroke-width="0" opacity="1"/>
		<rect x="476" y="116" width="104" height="60" fill="none" stroke="#8073ac" stroke-width="1.5" opacity="1"/>
		<line x1="476" y1="146" x2="580" y2="146" stroke="#8073ac" stroke-width="1.5"/>
	</g>
	<text x="498" y="137.3" fill="#000000" font-family="Copperplate" font-size="18">Devise</text>
	<text x="484" y="163.1" fill="#000000" font-family="Gill Sans" font-size="15">CoupleDevise</text>
	<line x1="484" y1="166" x2="572" y2="166" stroke="#000000" stroke-width="1"/>
</g>

<!-- Entity TRANSACTION -->
<g>
	<g>
		<rect x="695" y="91" width="156" height="30" fill="#b2abd2" stroke="none" stroke-width="0" opacity="1"/>
		<rect x="695" y="121" width="156" height="80" fill="#d8daeb" stroke="none" stroke-width="0" opacity="1"/>
		<rect x="695" y="91" width="156" height="110" fill="none" stroke="#8073ac" stroke-width="1.5" opacity="1"/>
		<line x1="695" y1="121" x2="851" y2="121" stroke="#8073ac" stroke-width="1.5"/>
	</g>
	<text x="717" y="112.3" fill="#000000" font-family="Copperplate" font-size="18">Transaction</text>
	<text x="703" y="138.1" fill="#000000" font-family="Gill Sans" font-size="15">Identifiant Transaction</text>
	<line x1="703" y1="141" x2="843" y2="141" stroke="#000000" stroke-width="1"/>
	<text x="703" y="155.1" fill="#000000" font-family="Gill Sans" font-size="15">type (Vente/Achat)</text>
	<text x="703" y="172.1" fill="#000000" font-family="Gill Sans" font-size="15">date</text>
	<text x="703" y="189" fill="#000000" font-family="Gill Sans" font-size="15">heure</text>
</g>

<!-- Entity PORTFOLIO -->
<g>
	<g>
		<rect x="997" y="91" width="190" height="30" fill="#b2abd2" stroke="none" stroke-width="0" opacity="1"/>
		<rect x="997" y="121" width="190" height="80" fill="#d8daeb" stroke="none" stroke-width="0" opacity="1"/>
		<rect x="997" y="91" width="190" height="110" fill="none" stroke="#8073ac" stroke-width="1.5" opacity="1"/>
		<line x1="997" y1="121" x2="1187" y2="121" stroke="#8073ac" stroke-width="1.5"/>
	</g>
	<text x="1046" y="112.3" fill="#000000" font-family="Copperplate" font-size="18">Portfolio</text>
	<text x="1005" y="138.1" fill="#000000" font-family="Gill Sans" font-size="15">Identifiant Portfolio</text>
	<line x1="1005" y1="141" x2="1126" y2="141" stroke="#000000" stroke-width="1"/>
	<text x="1005" y="155.1" fill="#000000" font-family="Gill Sans" font-size="15">Nom Portfolio</text>
	<text x="1005" y="172.1" fill="#000000" font-family="Gill Sans" font-size="15">Description</text>
	<text x="1005" y="189" fill="#000000" font-family="Gill Sans" font-size="15">Date De Création Portfolio</text>
</g>

<!-- Entity ETF -->
<g>
	<g>
		<rect x="173" y="250" width="52" height="30" fill="#b2abd2" stroke="none" stroke-width="0" opacity="1"/>
		<rect x="173" y="280" width="52" height="46" fill="#d8daeb" stroke="none" stroke-width="0" opacity="1"/>
		<rect x="173" y="250" width="52" height="76" fill="none" stroke="#8073ac" stroke-width="1.5" opacity="1"/>
		<line x1="173" y1="280" x2="225" y2="280" stroke="#8073ac" stroke-width="1.5"/>
	</g>
	<text x="182" y="271.3" fill="#000000" font-family="Copperplate" font-size="18">ETF</text>
	<text x="181" y="297.1" fill="#000000" font-family="Gill Sans" font-size="15">ISIN</text>
	<line x1="181" y1="300" x2="209" y2="300" stroke="#000000" stroke-width="1"/>
	<text x="181" y="314.1" fill="#000000" font-family="Gill Sans" font-size="15">Nom</text>
</g>

<!-- Entity UTILISATEUR -->
<g>
	<g>
		<rect x="1269" y="233" width="200" height="30" fill="#b2abd2" stroke="none" stroke-width="0" opacity="1"/>
		<rect x="1269" y="263" width="200" height="80" fill="#d8daeb" stroke="none" stroke-width="0" opacity="1"/>
		<rect x="1269" y="233" width="200" height="110" fill="none" stroke="#8073ac" stroke-width="1.5" opacity="1"/>
		<line x1="1269" y1="263" x2="1469" y2="263" stroke="#8073ac" stroke-width="1.5"/>
	</g>
	<text x="1316" y="254.3" fill="#000000" font-family="Copperplate" font-size="18">Utilisateur</text>
	<text x="1277" y="280.1" fill="#000000" font-family="Gill Sans" font-size="15">Adresse Mail</text>
	<line x1="1277" y1="283" x2="1358" y2="283" stroke="#000000" stroke-width="1"/>
	<text x="1277" y="297.1" fill="#000000" font-family="Gill Sans" font-size="15">Nom</text>
	<text x="1277" y="314.1" fill="#000000" font-family="Gill Sans" font-size="15">Mot De Passe</text>
	<text x="1277" y="331" fill="#000000" font-family="Gill Sans" font-size="15">Date De Création Utilisateur</text>
</g>

<!-- Entity BOURSE -->
<g>
	<g>
		<rect x="293" y="350" width="128" height="30" fill="#b2abd2" stroke="none" stroke-width="0" opacity="1"/>
		<rect x="293" y="380" width="128" height="148" fill="#d8daeb" stroke="none" stroke-width="0" opacity="1"/>
		<rect x="293" y="350" width="128" height="178" fill="none" stroke="#8073ac" stroke-width="1.5" opacity="1"/>
		<line x1="293" y1="380" x2="421" y2="380" stroke="#8073ac" stroke-width="1.5"/>
	</g>
	<text x="323" y="371.3" fill="#000000" font-family="Copperplate" font-size="18">Bourse</text>
	<text x="301" y="397" fill="#000000" font-family="Gill Sans" font-size="15">Identifiant Bourse</text>
	<line x1="301" y1="400" x2="412" y2="400" stroke="#000000" stroke-width="1"/>
	<text x="301" y="414.1" fill="#000000" font-family="Gill Sans" font-size="15">Nom</text>
	<text x="301" y="431.1" fill="#000000" font-family="Gill Sans" font-size="15">Pays</text>
	<text x="301" y="448.1" fill="#000000" font-family="Gill Sans" font-size="15">Ville</text>
	<text x="301" y="465.1" fill="#000000" font-family="Gill Sans" font-size="15">Fuseau horaire</text>
	<text x="301" y="482" fill="#000000" font-family="Gill Sans" font-size="15">Heure ouveture</text>
	<text x="301" y="499" fill="#000000" font-family="Gill Sans" font-size="15">Heure fermeture</text>
</g>

<!-- Entity INSTRUMENT_FINANCIER -->
<g>
	<g>
		<rect x="666" y="401" width="214" height="30" fill="#b2abd2" stroke="none" stroke-width="0" opacity="1"/>
		<rect x="666" y="431" width="214" height="46" fill="#d8daeb" stroke="none" stroke-width="0" opacity="1"/>
		<rect x="666" y="401" width="214" height="76" fill="none" stroke="#8073ac" stroke-width="1.5" opacity="1"/>
		<line x1="666" y1="431" x2="880" y2="431" stroke="#8073ac" stroke-width="1.5"/>
	</g>
	<text x="674" y="422.3" fill="#000000" font-family="Copperplate" font-size="18">Instrument Financier</text>
	<text x="674" y="448.1" fill="#000000" font-family="Gill Sans" font-size="15">ISIN</text>
	<line x1="674" y1="451" x2="702" y2="451" stroke="#000000" stroke-width="1"/>
	<text x="674" y="465.1" fill="#000000" font-family="Gill Sans" font-size="15">Devise échange</text>
</g>

<!-- Entity COURS -->
<g>
	<g>
		<rect x="1329" y="367" width="80" height="30" fill="#b2abd2" stroke="none" stroke-width="0" opacity="1"/>
		<rect x="1329" y="397" width="80" height="114" fill="#d8daeb" stroke="none" stroke-width="0" opacity="1"/>
		<rect x="1329" y="367" width="80" height="144" fill="none" stroke="#8073ac" stroke-width="1.5" opacity="1"/>
		<line x1="1329" y1="397" x2="1409" y2="397" stroke="#8073ac" stroke-width="1.5"/>
	</g>
	<text x="1340" y="388.3" fill="#000000" font-family="Copperplate" font-size="18">Cours</text>
	<text x="1337" y="414.1" fill="#000000" font-family="Gill Sans" font-size="15">DateTime</text>
	<line x1="1337" y1="417" x2="1400" y2="417" stroke="#000000" stroke-width="1"/>
	<text x="1337" y="431.1" fill="#000000" font-family="Gill Sans" font-size="15">Open</text>
	<text x="1337" y="448.1" fill="#000000" font-family="Gill Sans" font-size="15">Close</text>
	<text x="1337" y="465.1" fill="#000000" font-family="Gill Sans" font-size="15">High</text>
	<text x="1337" y="482" fill="#000000" font-family="Gill Sans" font-size="15">Low</text>
	<text x="1337" y="499" fill="#000000" font-family="Gill Sans" font-size="15">Volume</text>
</g>

<!-- Entity ENTREPRISE -->
<g>
	<g>
		<rect x="128" y="552" width="142" height="30" fill="#b2abd2" stroke="none" stroke-width="0" opacity="1"/>
		<rect x="128" y="582" width="142" height="98" fill="#d8daeb" stroke="none" stroke-width="0" opacity="1"/>
		<rect x="128" y="552" width="142" height="128" fill="none" stroke="#8073ac" stroke-width="1.5" opacity="1"/>
		<line x1="128" y1="582" x2="270" y2="582" stroke="#8073ac" stroke-width="1.5"/>
	</g>
	<text x="148" y="573.3" fill="#000000" font-family="Copperplate" font-size="18">Entreprise</text>
	<text x="136" y="599.1" fill="#000000" font-family="Gill Sans" font-size="15">Pays</text>
	<line x1="136" y1="602" x2="164" y2="602" stroke="#000000" stroke-width="1"/>
	<text x="136" y="616.1" fill="#000000" font-family="Gill Sans" font-size="15">Numero_entreprise</text>
	<line x1="136" y1="619" x2="262" y2="619" stroke="#000000" stroke-width="1"/>
	<text x="136" y="633.1" fill="#000000" font-family="Gill Sans" font-size="15">Nom</text>
	<text x="136" y="650" fill="#000000" font-family="Gill Sans" font-size="15">Secteur d’activité</text>
	<text x="136" y="667" fill="#000000" font-family="Gill Sans" font-size="15">Emplacement</text>
</g>

<!-- Entity ACTION -->
<g>
	<g>
		<rect x="489" y="578" width="78" height="30" fill="#b2abd2" stroke="none" stroke-width="0" opacity="1"/>
		<rect x="489" y="608" width="78" height="46" fill="#d8daeb" stroke="none" stroke-width="0" opacity="1"/>
		<rect x="489" y="578" width="78" height="76" fill="none" stroke="#8073ac" stroke-width="1.5" opacity="1"/>
		<line x1="489" y1="608" x2="567" y2="608" stroke="#8073ac" stroke-width="1.5"/>
	</g>
	<text x="498" y="599.3" fill="#000000" font-family="Copperplate" font-size="18">Action</text>
	<text x="497" y="625.1" fill="#000000" font-family="Gill Sans" font-size="15">Symbole</text>
	<line x1="497" y1="628" x2="550" y2="628" stroke="#000000" stroke-width="1"/>
	<text x="497" y="642.1" fill="#000000" font-family="Gill Sans" font-size="15">Devise</text>
</g>

<!-- Entity OBLIGATION -->
<g>
	<g>
		<rect x="1310" y="586" width="118" height="30" fill="#b2abd2" stroke="none" stroke-width="0" opacity="1"/>
		<rect x="1310" y="616" width="118" height="30" fill="#d8daeb" stroke="none" stroke-width="0" opacity="1"/>
		<rect x="1310" y="586" width="118" height="60" fill="none" stroke="#8073ac" stroke-width="1.5" opacity="1"/>
		<line x1="1310" y1="616" x2="1428" y2="616" stroke="#8073ac" stroke-width="1.5"/>
	</g>
	<text x="1319" y="607.3" fill="#000000" font-family="Copperplate" font-size="18">Obligation</text>
	<text x="1318" y="633.1" fill="#000000" font-family="Gill Sans" font-size="15">Nom</text>
	<line x1="1318" y1="636" x2="1351" y2="636" stroke="#000000" stroke-width="1"/>
</g>
</svg>