<?xml version="1.0" encoding="utf-8"?>
<!-- Generated by Mocodo 4.3.2 -->
<svg width="376" height="160" viewBox="0 0 376 160" xmlns="http://www.w3.org/2000/svg">
<rect x="0" y="0" width="376" height="160" fill="#f7f7f7" stroke="none" stroke-width="0"/>

<!-- Association CONCERNE -->
<g>
	<line x1="294" y1="80" x2="152" y2="80" stroke="#4393c3" stroke-width="1"/>
	<line x1="46" y1="80" x2="152" y2="80" stroke="#4393c3" stroke-width="1"/>
	<g>
		<path d="M175 54 a14 14 90 0 1 14 14 V80 h-74 V68 a14 14 90 0 1 14 -14" fill="#92c5de" stroke="#92c5de" stroke-width="0"/>
		<path d="M189 80 v12 a14 14 90 0 1 -14 14 H129 a14 14 90 0 1 -14 -14 V80 H74" fill="#d1e5f0" stroke="#d1e5f0" stroke-width="0"/>
		<rect x="115" y="54" width="74" height="52" fill="none" rx="14" stroke="#4393c3" stroke-width="1.5"/>
		<line x1="115" y1="80" x2="189" y2="80" stroke="#4393c3" stroke-width="1"/>
		<text x="122" y="72.6" fill="#000000" font-family="Trebuchet MS" font-size="14">concerne</text>
	</g>
	<text x="194" y="97" fill="#b2182b" font-family="Verdana" font-size="12">0,N</text>
	<text x="88" y="97" fill="#b2182b" font-family="Verdana" font-size="12">1,1</text>
</g>

<!-- Entity COURS -->
<g>
	<g>
		<rect x="9" y="9" width="74" height="26" fill="#f4a582" stroke="none" stroke-width="0" opacity="1"/>
		<rect x="9" y="35" width="74" height="116" fill="#fddbc7" stroke="none" stroke-width="0" opacity="1"/>
		<rect x="9" y="9" width="74" height="142" fill="none" stroke="#d6604d" stroke-width="1.5" opacity="1"/>
		<line x1="9" y1="35" x2="83" y2="35" stroke="#d6604d" stroke-width="1"/>
	</g>
	<text x="28" y="27.6" fill="#000000" font-family="Trebuchet MS" font-size="14">Cours</text>
	<text x="14" y="53.6" fill="#000000" font-family="Trebuchet MS" font-size="14">DateTime</text>
	<line x1="14" y1="56" x2="77" y2="56" stroke="#000000" stroke-width="1"/>
	<text x="14" y="71.6" fill="#000000" font-family="Trebuchet MS" font-size="14">Open</text>
	<text x="14" y="89.6" fill="#000000" font-family="Trebuchet MS" font-size="14">Close</text>
	<text x="14" y="107.6" fill="#000000" font-family="Trebuchet MS" font-size="14">High</text>
	<text x="14" y="125.6" fill="#000000" font-family="Trebuchet MS" font-size="14">Low</text>
	<text x="14" y="143.6" fill="#000000" font-family="Trebuchet MS" font-size="14">Volume</text>
</g>

<!-- Entity INSTRUMENT_FINANCIER -->
<g>
	<g>
		<rect x="221" y="54" width="146" height="26" fill="#f4a582" stroke="none" stroke-width="0" opacity="1"/>
		<rect x="221" y="80" width="146" height="26" fill="#fddbc7" stroke="none" stroke-width="0" opacity="1"/>
		<rect x="221" y="54" width="146" height="52" fill="none" stroke="#d6604d" stroke-width="1.5" opacity="1"/>
		<line x1="221" y1="80" x2="367" y2="80" stroke="#d6604d" stroke-width="1"/>
	</g>
	<text x="227" y="72.6" fill="#000000" font-family="Trebuchet MS" font-size="14">Instrument Financier</text>
	<text x="226" y="98.6" fill="#000000" font-family="Trebuchet MS" font-size="14">ISIN</text>
	<line x1="226" y1="101" x2="251" y2="101" stroke="#000000" stroke-width="1"/>
</g>
</svg>