<?xml version="1.0" encoding="utf-8"?>
<!-- Generated by Mocodo 4.3.2 -->
<svg width="1011" height="437" viewBox="0 0 1011 437" xmlns="http://www.w3.org/2000/svg">
<rect x="0" y="0" width="1011" height="437" fill="#f7f7f7" stroke="none" stroke-width="0"/>

<!-- Association HISTORIQUE_DE_TRANSACTIONS -->
<g>
	<line x1="385" y1="330" x2="385" y2="208" stroke="#e08214" stroke-width="1"/>
	<line x1="385" y1="73" x2="385" y2="208" stroke="#e08214" stroke-width="1"/>
	<g>
		<path d="M504 179 a14 14 90 0 1 14 14 V207 h-266 V193 a14 14 90 0 1 14 -14" fill="#fdb863" stroke="#fdb863" stroke-width="0"/>
		<path d="M518 207 v16 a14 14 90 0 1 -14 14 H266 a14 14 90 0 1 -14 -14 V207 H266" fill="#fee0b6" stroke="#fee0b6" stroke-width="0"/>
		<rect x="252" y="179" width="266" height="58" fill="none" rx="14" stroke="#e08214" stroke-width="1.5"/>
		<line x1="252" y1="207" x2="518" y2="207" stroke="#e08214" stroke-width="1.5"/>
		<text x="260" y="200.3" fill="#000000" font-family="Copperplate" font-size="18">historique de transactions</text>
	</g>
	<text x="390" y="267" fill="#542788" font-family="Futura" font-size="11">0,N</text>
	<text x="390" y="153" fill="#542788" font-family="Futura" font-size="11">1,1</text>
</g>

<!-- Association INSTANTANES -->
<g>
	<line x1="385" y1="330" x2="116" y2="330" stroke="#e08214" stroke-width="1"/>
	<line x1="116" y1="208" x2="116" y2="330" stroke="#e08214" stroke-width="1"/>
	<g>
		<path d="M165 301 a14 14 90 0 1 14 14 V329 h-126 V315 a14 14 90 0 1 14 -14" fill="#fdb863" stroke="#fdb863" stroke-width="0"/>
		<path d="M179 329 v16 a14 14 90 0 1 -14 14 H67 a14 14 90 0 1 -14 -14 V329 H126" fill="#fee0b6" stroke="#fee0b6" stroke-width="0"/>
		<rect x="53" y="301" width="126" height="58" fill="none" rx="14" stroke="#e08214" stroke-width="1.5"/>
		<line x1="53" y1="329" x2="179" y2="329" stroke="#e08214" stroke-width="1.5"/>
		<text x="61" y="322.3" fill="#000000" font-family="Copperplate" font-size="18">Instantanés</text>
	</g>
	<text x="266" y="346" fill="#542788" font-family="Futura" font-size="11">0,N</text>
	<text x="121" y="271" fill="#542788" font-family="Futura" font-size="11">1,1</text>
</g>

<!-- Association CONTIENT -->
<g>
	<line x1="385" y1="330" x2="586" y2="330" stroke="#e08214" stroke-width="1"/>
	<line x1="842" y1="330" x2="586" y2="330" stroke="#e08214" stroke-width="1"/>
	<g>
		<path d="M639 293 a14 14 90 0 1 14 14 V321 h-134 V307 a14 14 90 0 1 14 -14" fill="#fdb863" stroke="#fdb863" stroke-width="0"/>
		<path d="M653 321 v32 a14 14 90 0 1 -14 14 H533 a14 14 90 0 1 -14 -14 V321 H134" fill="#fee0b6" stroke="#fee0b6" stroke-width="0"/>
		<rect x="519" y="293" width="134" height="74" fill="none" rx="14" stroke="#e08214" stroke-width="1.5"/>
		<line x1="519" y1="321" x2="653" y2="321" stroke="#e08214" stroke-width="1.5"/>
		<text x="546" y="314.3" fill="#000000" font-family="Copperplate" font-size="18">contient</text>
		<text x="526" y="339.1" fill="#000000" font-family="Gill Sans" font-size="15">Quantité</text>
		<text x="526" y="356.1" fill="#000000" font-family="Gill Sans" font-size="15">Prix Moyen d’achat</text>
	</g>
	<text x="485" y="346" fill="#542788" font-family="Futura" font-size="11">0,N</text>
	<text x="659" y="346" fill="#542788" font-family="Futura" font-size="11">1,1</text>
</g>

<!-- Entity TRANSACTION -->
<g>
	<g>
		<rect x="213" y="9" width="344" height="30" fill="#b2abd2" stroke="none" stroke-width="0" opacity="1"/>
		<rect x="213" y="39" width="344" height="98" fill="#d8daeb" stroke="none" stroke-width="0" opacity="1"/>
		<rect x="213" y="9" width="344" height="128" fill="none" stroke="#8073ac" stroke-width="1.5" opacity="1"/>
		<line x1="213" y1="39" x2="557" y2="39" stroke="#8073ac" stroke-width="1.5"/>
	</g>
	<text x="329" y="30.3" fill="#000000" font-family="Copperplate" font-size="18">Transaction</text>
	<text x="221" y="56.1" fill="#000000" font-family="Gill Sans" font-size="15">Identifiant Transaction</text>
	<line x1="221" y1="59" x2="361" y2="59" stroke="#000000" stroke-width="1"/>
	<text x="221" y="73.1" fill="#000000" font-family="Gill Sans" font-size="15">Identifiant de l’utilisateur ayant encodé la transaction</text>
	<text x="221" y="90.1" fill="#000000" font-family="Gill Sans" font-size="15">type (Vente/Achat)</text>
	<text x="221" y="107" fill="#000000" font-family="Gill Sans" font-size="15">date</text>
	<text x="221" y="124" fill="#000000" font-family="Gill Sans" font-size="15">heure</text>
</g>

<!-- Entity INSTANTANE_PORTFOLIO -->
<g>
	<g>
		<rect x="9" y="161" width="214" height="30" fill="#b2abd2" stroke="none" stroke-width="0" opacity="1"/>
		<rect x="9" y="191" width="214" height="64" fill="#d8daeb" stroke="none" stroke-width="0" opacity="1"/>
		<rect x="9" y="161" width="214" height="94" fill="none" stroke="#8073ac" stroke-width="1.5" opacity="1"/>
		<line x1="9" y1="191" x2="223" y2="191" stroke="#8073ac" stroke-width="1.5"/>
	</g>
	<text x="18" y="182.3" fill="#000000" font-family="Copperplate" font-size="18">Instantané Portfolio</text>
	<text x="17" y="208.1" fill="#000000" font-family="Gill Sans" font-size="15">date</text>
	<line x1="17" y1="211" x2="45" y2="211" stroke="#000000" stroke-width="1"/>
	<text x="17" y="225.1" fill="#000000" font-family="Gill Sans" font-size="15">valeur du portfolio</text>
	<text x="17" y="242" fill="#000000" font-family="Gill Sans" font-size="15">Profit and Loss</text>
</g>

<!-- Entity PORTFOLIO -->
<g>
	<g>
		<rect x="290" y="275" width="190" height="30" fill="#b2abd2" stroke="none" stroke-width="0" opacity="1"/>
		<rect x="290" y="305" width="190" height="80" fill="#d8daeb" stroke="none" stroke-width="0" opacity="1"/>
		<rect x="290" y="275" width="190" height="110" fill="none" stroke="#8073ac" stroke-width="1.5" opacity="1"/>
		<line x1="290" y1="305" x2="480" y2="305" stroke="#8073ac" stroke-width="1.5"/>
	</g>
	<text x="339" y="296.3" fill="#000000" font-family="Copperplate" font-size="18">Portfolio</text>
	<text x="298" y="322.1" fill="#000000" font-family="Gill Sans" font-size="15">Identifiant Portfolio</text>
	<line x1="298" y1="325" x2="419" y2="325" stroke="#000000" stroke-width="1"/>
	<text x="298" y="339.1" fill="#000000" font-family="Gill Sans" font-size="15">Nom Portfolio</text>
	<text x="298" y="356.1" fill="#000000" font-family="Gill Sans" font-size="15">Description</text>
	<text x="298" y="373" fill="#000000" font-family="Gill Sans" font-size="15">Date De Création Portfolio</text>
</g>

<!-- Entity INSTRUMENT_FINANCIER -->
<g>
	<g>
		<rect x="682" y="232" width="320" height="30" fill="#b2abd2" stroke="none" stroke-width="0" opacity="1"/>
		<rect x="682" y="262" width="320" height="166" fill="#d8daeb" stroke="none" stroke-width="0" opacity="1"/>
		<rect x="682" y="232" width="320" height="196" fill="none" stroke="#8073ac" stroke-width="1.5" opacity="1"/>
		<line x1="682" y1="262" x2="1002" y2="262" stroke="#8073ac" stroke-width="1.5"/>
	</g>
	<text x="743" y="253.3" fill="#000000" font-family="Copperplate" font-size="18">Instrument Financier</text>
	<text x="690" y="279" fill="#000000" font-family="Gill Sans" font-size="15">ISIN</text>
	<line x1="690" y1="282" x2="718" y2="282" stroke="#000000" stroke-width="1"/>
	<text x="690" y="296" fill="#000000" font-family="Gill Sans" font-size="15">Nom</text>
	<text x="690" y="313.1" fill="#000000" font-family="Gill Sans" font-size="15">Type Instrument (Action/ETF/Obligation/Devise)</text>
	<text x="690" y="330.1" fill="#000000" font-family="Gill Sans" font-size="15">Devise</text>
	<text x="690" y="347.1" fill="#000000" font-family="Gill Sans" font-size="15">Symbole (Action/ETF)</text>
	<text x="690" y="364" fill="#000000" font-family="Gill Sans" font-size="15">Taux (Obligation)</text>
	<text x="690" y="381" fill="#000000" font-family="Gill Sans" font-size="15">Date Emission (Obligation)</text>
	<text x="690" y="398" fill="#000000" font-family="Gill Sans" font-size="15">Date Echeance (Obligation)</text>
	<text x="690" y="415" fill="#000000" font-family="Gill Sans" font-size="15">Couple Devise (Devise)</text>
</g>
</svg>