<?xml version="1.0" encoding="utf-8"?>
<!-- Generated by Mocodo 4.3.2 -->
<svg width="921" height="650" viewBox="0 0 921 650" xmlns="http://www.w3.org/2000/svg">
<rect x="0" y="0" width="921" height="650" fill="#f7f7f7" stroke="none" stroke-width="0"/>

<!-- Association CONTIENT -->
<g>
	<line x1="651" y1="98" x2="308" y2="98" stroke="#e08214" stroke-width="1"/>
	<line x1="308" y1="309" x2="308" y2="98" stroke="#e08214" stroke-width="1"/>
	<g>
		<path d="M436 35 a14 14 90 0 1 14 14 V63 h-284 V49 a14 14 90 0 1 14 -14" fill="#fdb863" stroke="#fdb863" stroke-width="0"/>
		<path d="M450 63 v84 a14 14 90 0 1 -14 14 H180 a14 14 90 0 1 -14 -14 V63 H284" fill="#fee0b6" stroke="#fee0b6" stroke-width="0"/>
		<rect x="166" y="35" width="284" height="126" fill="none" rx="14" stroke="#e08214" stroke-width="1.5"/>
		<line x1="166" y1="63" x2="450" y2="63" stroke="#e08214" stroke-width="1.5"/>
		<text x="268" y="56.3" fill="#000000" font-family="Copperplate" font-size="18">contient</text>
		<text x="173" y="81.1" fill="#000000" font-family="Gill Sans" font-size="15">Quantité</text>
		<text x="173" y="98.1" fill="#000000" font-family="Gill Sans" font-size="15">Prix dans devise du portfolio</text>
		<text x="173" y="115.1" fill="#000000" font-family="Gill Sans" font-size="15">Prix dans la devise de l’instrument financier</text>
		<text x="173" y="132" fill="#000000" font-family="Gill Sans" font-size="15">Frais Courtage</text>
		<text x="173" y="149" fill="#000000" font-family="Gill Sans" font-size="15">Taxes</text>
	</g>
	<text x="456" y="114" fill="#542788" font-family="Futura" font-size="11">1,1</text>
	<text x="313" y="203" fill="#542788" font-family="Futura" font-size="11">0,N</text>
</g>

<!-- Association ECHANGE -->
<g>
	<line x1="308" y1="309" x2="73" y2="309" stroke="#e08214" stroke-width="1"/>
	<line x1="73" y1="98" x2="73" y2="309" stroke="#e08214" stroke-width="1"/>
	<g>
		<path d="M104 280 a14 14 90 0 1 14 14 V308 h-90 V294 a14 14 90 0 1 14 -14" fill="#fdb863" stroke="#fdb863" stroke-width="0"/>
		<path d="M118 308 v16 a14 14 90 0 1 -14 14 H42 a14 14 90 0 1 -14 -14 V308 H90" fill="#fee0b6" stroke="#fee0b6" stroke-width="0"/>
		<rect x="28" y="280" width="90" height="58" fill="none" rx="14" stroke="#e08214" stroke-width="1.5"/>
		<line x1="28" y1="308" x2="118" y2="308" stroke="#e08214" stroke-width="1.5"/>
		<text x="35" y="301.3" fill="#000000" font-family="Copperplate" font-size="18">échange</text>
	</g>
	<text x="125" y="325" fill="#542788" font-family="Futura" font-size="11">0,1</text>
	<text x="78" y="203" fill="#542788" font-family="Futura" font-size="11">0,N</text>
</g>

<!-- Association EMET1 -->
<g>
	<line x1="852" y1="309" x2="651" y2="309" stroke="#e08214" stroke-width="1"/>
	<line x1="308" y1="309" x2="651" y2="309" stroke="#e08214" stroke-width="1"/>
	<g>
		<path d="M666 280 a14 14 90 0 1 14 14 V308 h-58 V294 a14 14 90 0 1 14 -14" fill="#fdb863" stroke="#fdb863" stroke-width="0"/>
		<path d="M680 308 v16 a14 14 90 0 1 -14 14 H636 a14 14 90 0 1 -14 -14 V308 H58" fill="#fee0b6" stroke="#fee0b6" stroke-width="0"/>
		<rect x="622" y="280" width="58" height="58" fill="none" rx="14" stroke="#e08214" stroke-width="1.5"/>
		<line x1="622" y1="308" x2="680" y2="308" stroke="#e08214" stroke-width="1.5"/>
		<text x="630" y="301.3" fill="#000000" font-family="Copperplate" font-size="18">émet</text>
	</g>
	<text x="768" y="325" fill="#542788" font-family="Futura" font-size="11">0,N</text>
	<text x="473" y="325" fill="#542788" font-family="Futura" font-size="11">0,1</text>
</g>

<!-- Association EMET -->
<g>
	<line x1="308" y1="309" x2="308" y2="460" stroke="#e08214" stroke-width="1"/>
	<line x1="308" y1="577" x2="308" y2="460" stroke="#e08214" stroke-width="1"/>
	<g>
		<path d="M323 431 a14 14 90 0 1 14 14 V459 h-58 V445 a14 14 90 0 1 14 -14" fill="#fdb863" stroke="#fdb863" stroke-width="0"/>
		<path d="M337 459 v16 a14 14 90 0 1 -14 14 H293 a14 14 90 0 1 -14 -14 V459 H58" fill="#fee0b6" stroke="#fee0b6" stroke-width="0"/>
		<rect x="279" y="431" width="58" height="58" fill="none" rx="14" stroke="#e08214" stroke-width="1.5"/>
		<line x1="279" y1="459" x2="337" y2="459" stroke="#e08214" stroke-width="1.5"/>
		<text x="287" y="452.3" fill="#000000" font-family="Copperplate" font-size="18">émet</text>
	</g>
	<text x="313" y="423" fill="#542788" font-family="Futura" font-size="11">0,1</text>
	<text x="313" y="505" fill="#542788" font-family="Futura" font-size="11">0,N</text>
</g>

<!-- Entity BOURSE -->
<g>
	<g>
		<rect x="9" y="9" width="128" height="30" fill="#b2abd2" stroke="none" stroke-width="0" opacity="1"/>
		<rect x="9" y="39" width="128" height="148" fill="#d8daeb" stroke="none" stroke-width="0" opacity="1"/>
		<rect x="9" y="9" width="128" height="178" fill="none" stroke="#8073ac" stroke-width="1.5" opacity="1"/>
		<line x1="9" y1="39" x2="137" y2="39" stroke="#8073ac" stroke-width="1.5"/>
	</g>
	<text x="39" y="30.3" fill="#000000" font-family="Copperplate" font-size="18">Bourse</text>
	<text x="17" y="56" fill="#000000" font-family="Gill Sans" font-size="15">Identifiant Bourse</text>
	<line x1="17" y1="59" x2="128" y2="59" stroke="#000000" stroke-width="1"/>
	<text x="17" y="73.1" fill="#000000" font-family="Gill Sans" font-size="15">Nom</text>
	<text x="17" y="90.1" fill="#000000" font-family="Gill Sans" font-size="15">Pays</text>
	<text x="17" y="107.1" fill="#000000" font-family="Gill Sans" font-size="15">Ville</text>
	<text x="17" y="124.1" fill="#000000" font-family="Gill Sans" font-size="15">Fuseau horaire</text>
	<text x="17" y="141" fill="#000000" font-family="Gill Sans" font-size="15">Heure ouveture</text>
	<text x="17" y="158" fill="#000000" font-family="Gill Sans" font-size="15">Heure fermeture</text>
</g>

<!-- Entity TRANSACTION -->
<g>
	<g>
		<rect x="479" y="34" width="344" height="30" fill="#b2abd2" stroke="none" stroke-width="0" opacity="1"/>
		<rect x="479" y="64" width="344" height="98" fill="#d8daeb" stroke="none" stroke-width="0" opacity="1"/>
		<rect x="479" y="34" width="344" height="128" fill="none" stroke="#8073ac" stroke-width="1.5" opacity="1"/>
		<line x1="479" y1="64" x2="823" y2="64" stroke="#8073ac" stroke-width="1.5"/>
	</g>
	<text x="595" y="55.3" fill="#000000" font-family="Copperplate" font-size="18">Transaction</text>
	<text x="487" y="81.1" fill="#000000" font-family="Gill Sans" font-size="15">Identifiant Transaction</text>
	<line x1="487" y1="84" x2="627" y2="84" stroke="#000000" stroke-width="1"/>
	<text x="487" y="98.1" fill="#000000" font-family="Gill Sans" font-size="15">Identifiant de l’utilisateur ayant encodé la transaction</text>
	<text x="487" y="115.1" fill="#000000" font-family="Gill Sans" font-size="15">type (Vente/Achat)</text>
	<text x="487" y="132" fill="#000000" font-family="Gill Sans" font-size="15">date</text>
	<text x="487" y="149" fill="#000000" font-family="Gill Sans" font-size="15">heure</text>
</g>

<!-- Entity INSTRUMENT_FINANCIER -->
<g>
	<g>
		<rect x="148" y="211" width="320" height="30" fill="#b2abd2" stroke="none" stroke-width="0" opacity="1"/>
		<rect x="148" y="241" width="320" height="166" fill="#d8daeb" stroke="none" stroke-width="0" opacity="1"/>
		<rect x="148" y="211" width="320" height="196" fill="none" stroke="#8073ac" stroke-width="1.5" opacity="1"/>
		<line x1="148" y1="241" x2="468" y2="241" stroke="#8073ac" stroke-width="1.5"/>
	</g>
	<text x="209" y="232.3" fill="#000000" font-family="Copperplate" font-size="18">Instrument Financier</text>
	<text x="156" y="258" fill="#000000" font-family="Gill Sans" font-size="15">ISIN</text>
	<line x1="156" y1="261" x2="184" y2="261" stroke="#000000" stroke-width="1"/>
	<text x="156" y="275" fill="#000000" font-family="Gill Sans" font-size="15">Nom</text>
	<text x="156" y="292.1" fill="#000000" font-family="Gill Sans" font-size="15">Type Instrument (Action/ETF/Obligation/Devise)</text>
	<text x="156" y="309.1" fill="#000000" font-family="Gill Sans" font-size="15">Devise</text>
	<text x="156" y="326.1" fill="#000000" font-family="Gill Sans" font-size="15">Symbole (Action/ETF)</text>
	<text x="156" y="343" fill="#000000" font-family="Gill Sans" font-size="15">Taux (Obligation)</text>
	<text x="156" y="360" fill="#000000" font-family="Gill Sans" font-size="15">Date Emission (Obligation)</text>
	<text x="156" y="377" fill="#000000" font-family="Gill Sans" font-size="15">Date Echeance (Obligation)</text>
	<text x="156" y="394" fill="#000000" font-family="Gill Sans" font-size="15">Couple Devise (Devise)</text>
</g>

<!-- Entity PAYS -->
<g>
	<g>
		<rect x="792" y="254" width="120" height="30" fill="#b2abd2" stroke="none" stroke-width="0" opacity="1"/>
		<rect x="792" y="284" width="120" height="80" fill="#d8daeb" stroke="none" stroke-width="0" opacity="1"/>
		<rect x="792" y="254" width="120" height="110" fill="none" stroke="#8073ac" stroke-width="1.5" opacity="1"/>
		<line x1="792" y1="284" x2="912" y2="284" stroke="#8073ac" stroke-width="1.5"/>
	</g>
	<text x="831" y="275.3" fill="#000000" font-family="Copperplate" font-size="18">Pays</text>
	<text x="800" y="301.1" fill="#000000" font-family="Gill Sans" font-size="15">CodeISO3166&#45;1</text>
	<line x1="800" y1="304" x2="902" y2="304" stroke="#000000" stroke-width="1"/>
	<text x="800" y="318.1" fill="#000000" font-family="Gill Sans" font-size="15">Nom</text>
	<text x="800" y="335.1" fill="#000000" font-family="Gill Sans" font-size="15">DevisePrincipale</text>
	<text x="800" y="352" fill="#000000" font-family="Gill Sans" font-size="15">ZoneGeo</text>
</g>

<!-- Entity ENTREPRISE -->
<g>
	<g>
		<rect x="237" y="513" width="142" height="30" fill="#b2abd2" stroke="none" stroke-width="0" opacity="1"/>
		<rect x="237" y="543" width="142" height="98" fill="#d8daeb" stroke="none" stroke-width="0" opacity="1"/>
		<rect x="237" y="513" width="142" height="128" fill="none" stroke="#8073ac" stroke-width="1.5" opacity="1"/>
		<line x1="237" y1="543" x2="379" y2="543" stroke="#8073ac" stroke-width="1.5"/>
	</g>
	<text x="257" y="534.3" fill="#000000" font-family="Copperplate" font-size="18">Entreprise</text>
	<text x="245" y="560.1" fill="#000000" font-family="Gill Sans" font-size="15">Pays</text>
	<line x1="245" y1="563" x2="273" y2="563" stroke="#000000" stroke-width="1"/>
	<text x="245" y="577.1" fill="#000000" font-family="Gill Sans" font-size="15">Numero_entreprise</text>
	<line x1="245" y1="580" x2="371" y2="580" stroke="#000000" stroke-width="1"/>
	<text x="245" y="594.1" fill="#000000" font-family="Gill Sans" font-size="15">Nom</text>
	<text x="245" y="611" fill="#000000" font-family="Gill Sans" font-size="15">Secteur d’activité</text>
	<text x="245" y="628" fill="#000000" font-family="Gill Sans" font-size="15">Emplacement</text>
</g>
</svg>