<?xml version="1.0" encoding="utf-8"?>
<!-- Generated by Mocodo 4.3.2 -->
<svg width="765" height="635" viewBox="0 0 765 635" xmlns="http://www.w3.org/2000/svg">
<rect x="0" y="0" width="765" height="635" fill="#FFFFFF" stroke="none" stroke-width="0"/>

<!-- Association EMET -->
<g>
	<line x1="218" y1="216" x2="218" y2="73" stroke="#000000" stroke-width="1"/>
	<line x1="80" y1="73" x2="218" y2="73" stroke="#000000" stroke-width="1"/>
	<g>
		<path d="M233 44 a14 14 90 0 1 14 14 V72 h-58 V58 a14 14 90 0 1 14 -14" fill="#FFFFFF" stroke="#FFFFFF" stroke-width="0"/>
		<path d="M247 72 v16 a14 14 90 0 1 -14 14 H203 a14 14 90 0 1 -14 -14 V72 H58" fill="#FFFFFF" stroke="#FFFFFF" stroke-width="0"/>
		<rect x="189" y="44" width="58" height="58" fill="none" rx="14" stroke="#000000" stroke-width="1.5"/>
		<line x1="189" y1="72" x2="247" y2="72" stroke="#000000" stroke-width="1.5"/>
		<text x="197" y="65.3" fill="#000000" font-family="Copperplate" font-size="18">émet</text>
	</g>
	<text x="223" y="153" fill="#000000" font-family="Futura" font-size="11">1,1</text>
	<text x="156" y="89" fill="#000000" font-family="Futura" font-size="11">0,N</text>
</g>

<!-- Association EST_UNE_ACTION -->
<g>
	<line x1="395" y1="384" x2="395" y2="216" stroke="#000000" stroke-width="1"/>
	<line x1="218" y1="216" x2="395" y2="216" stroke="#000000" stroke-width="1"/>
	<g>
		<path d="M455 187 a14 14 90 0 1 14 14 V215 h-148 V201 a14 14 90 0 1 14 -14" fill="#FFFFFF" stroke="#FFFFFF" stroke-width="0"/>
		<path d="M469 215 v16 a14 14 90 0 1 -14 14 H335 a14 14 90 0 1 -14 -14 V215 H148" fill="#FFFFFF" stroke="#FFFFFF" stroke-width="0"/>
		<rect x="321" y="187" width="148" height="58" fill="none" rx="14" stroke="#000000" stroke-width="1.5"/>
		<line x1="321" y1="215" x2="469" y2="215" stroke="#000000" stroke-width="1.5"/>
		<text x="329" y="208.3" fill="#000000" font-family="Copperplate" font-size="18">est une action</text>
	</g>
	<text x="400" y="346" fill="#000000" font-family="Futura" font-size="11">0,1</text>
	<text x="297" y="232" fill="#000000" font-family="Futura" font-size="11">1,1</text>
</g>

<!-- Association ECHANGE -->
<g>
	<line x1="80" y1="384" x2="218" y2="384" stroke="#000000" stroke-width="1"/>
	<line x1="218" y1="216" x2="218" y2="384" stroke="#000000" stroke-width="1"/>
	<g>
		<path d="M249 355 a14 14 90 0 1 14 14 V383 h-90 V369 a14 14 90 0 1 14 -14" fill="#FFFFFF" stroke="#FFFFFF" stroke-width="0"/>
		<path d="M263 383 v16 a14 14 90 0 1 -14 14 H187 a14 14 90 0 1 -14 -14 V383 H90" fill="#FFFFFF" stroke="#FFFFFF" stroke-width="0"/>
		<rect x="173" y="355" width="90" height="58" fill="none" rx="14" stroke="#000000" stroke-width="1.5"/>
		<line x1="173" y1="383" x2="263" y2="383" stroke="#000000" stroke-width="1.5"/>
		<text x="180" y="376.3" fill="#000000" font-family="Copperplate" font-size="18">échange</text>
	</g>
	<text x="149" y="400" fill="#000000" font-family="Futura" font-size="11">0,N</text>
	<text x="223" y="287" fill="#000000" font-family="Futura" font-size="11">1,1</text>
</g>

<!-- Association CONTIENT -->
<g>
	<line x1="678" y1="384" x2="517" y2="384" stroke="#000000" stroke-width="1"/>
	<line x1="395" y1="384" x2="517" y2="384" stroke="#000000" stroke-width="1"/>
	<g>
		<path d="M557 330 a14 14 90 0 1 14 14 V358 h-108 V344 a14 14 90 0 1 14 -14" fill="#FFFFFF" stroke="#FFFFFF" stroke-width="0"/>
		<path d="M571 358 v66 a14 14 90 0 1 -14 14 H477 a14 14 90 0 1 -14 -14 V358 H108" fill="#FFFFFF" stroke="#FFFFFF" stroke-width="0"/>
		<rect x="463" y="330" width="108" height="108" fill="none" rx="14" stroke="#000000" stroke-width="1.5"/>
		<line x1="463" y1="358" x2="571" y2="358" stroke="#000000" stroke-width="1.5"/>
		<text x="477" y="351.3" fill="#000000" font-family="Copperplate" font-size="18">contient</text>
		<text x="470" y="376.1" fill="#000000" font-family="Gill Sans" font-size="15">quantité</text>
		<text x="470" y="393.1" fill="#000000" font-family="Gill Sans" font-size="15">prix</text>
		<text x="470" y="410.1" fill="#000000" font-family="Gill Sans" font-size="15">Frais Courtage</text>
		<text x="470" y="427" fill="#000000" font-family="Gill Sans" font-size="15">taxes</text>
	</g>
	<text x="577" y="400" fill="#000000" font-family="Futura" font-size="11">1,1</text>
	<text x="432" y="400" fill="#000000" font-family="Futura" font-size="11">0,N</text>
</g>

<!-- Association EST_UNE_OBLIGATION -->
<g>
	<line x1="395" y1="588" x2="395" y2="497" stroke="#000000" stroke-width="1"/>
	<line x1="395" y1="384" x2="395" y2="497" stroke="#000000" stroke-width="1"/>
	<g>
		<path d="M474 468 a14 14 90 0 1 14 14 V496 h-186 V482 a14 14 90 0 1 14 -14" fill="#FFFFFF" stroke="#FFFFFF" stroke-width="0"/>
		<path d="M488 496 v16 a14 14 90 0 1 -14 14 H316 a14 14 90 0 1 -14 -14 V496 H186" fill="#FFFFFF" stroke="#FFFFFF" stroke-width="0"/>
		<rect x="302" y="468" width="186" height="58" fill="none" rx="14" stroke="#000000" stroke-width="1.5"/>
		<line x1="302" y1="496" x2="488" y2="496" stroke="#000000" stroke-width="1.5"/>
		<text x="309" y="489.3" fill="#000000" font-family="Copperplate" font-size="18">est une obligation</text>
	</g>
	<text x="400" y="542" fill="#000000" font-family="Futura" font-size="11">1,1</text>
	<text x="400" y="430" fill="#000000" font-family="Futura" font-size="11">0,1</text>
</g>

<!-- Entity ENTREPRISE -->
<g>
	<g>
		<rect x="9" y="9" width="142" height="30" fill="#FFFFFF" stroke="none" stroke-width="0" opacity="1"/>
		<rect x="9" y="39" width="142" height="98" fill="#FFFFFF" stroke="none" stroke-width="0" opacity="1"/>
		<rect x="9" y="9" width="142" height="128" fill="none" stroke="#000000" stroke-width="1.5" opacity="1"/>
		<line x1="9" y1="39" x2="151" y2="39" stroke="#000000" stroke-width="1.5"/>
	</g>
	<text x="29" y="30.3" fill="#000000" font-family="Copperplate" font-size="18">Entreprise</text>
	<text x="17" y="56.1" fill="#000000" font-family="Gill Sans" font-size="15">Pays</text>
	<line x1="17" y1="59" x2="45" y2="59" stroke="#000000" stroke-width="1"/>
	<text x="17" y="73.1" fill="#000000" font-family="Gill Sans" font-size="15">Numero_entreprise</text>
	<line x1="17" y1="76" x2="143" y2="76" stroke="#000000" stroke-width="1"/>
	<text x="17" y="90.1" fill="#000000" font-family="Gill Sans" font-size="15">Nom</text>
	<text x="17" y="107" fill="#000000" font-family="Gill Sans" font-size="15">Secteur d’activité</text>
	<text x="17" y="124" fill="#000000" font-family="Gill Sans" font-size="15">Emplacement</text>
</g>

<!-- Entity ACTION -->
<g>
	<g>
		<rect x="144" y="161" width="148" height="30" fill="#FFFFFF" stroke="none" stroke-width="0" opacity="1"/>
		<rect x="144" y="191" width="148" height="80" fill="#FFFFFF" stroke="none" stroke-width="0" opacity="1"/>
		<rect x="144" y="161" width="148" height="110" fill="none" stroke="#000000" stroke-width="1.5" opacity="1"/>
		<line x1="144" y1="191" x2="292" y2="191" stroke="#000000" stroke-width="1.5"/>
	</g>
	<text x="188" y="182.3" fill="#000000" font-family="Copperplate" font-size="18">Action</text>
	<text x="152" y="208.1" fill="#000000" font-family="Gill Sans" font-size="15">ISIN</text>
	<line x1="152" y1="211" x2="180" y2="211" stroke="#000000" stroke-width="1"/>
	<text x="152" y="225.1" fill="#000000" font-family="Gill Sans" font-size="15">Identifiant Bourse</text>
	<line x1="152" y1="228" x2="263" y2="228" stroke="#000000" stroke-width="1"/>
	<text x="152" y="242.1" fill="#000000" font-family="Gill Sans" font-size="15">Identifiant Entreprise</text>
	<line x1="152" y1="245" x2="283" y2="245" stroke="#000000" stroke-width="1"/>
	<text x="152" y="259" fill="#000000" font-family="Gill Sans" font-size="15">Devise</text>
</g>

<!-- Entity BOURSE -->
<g>
	<g>
		<rect x="16" y="295" width="128" height="30" fill="#FFFFFF" stroke="none" stroke-width="0" opacity="1"/>
		<rect x="16" y="325" width="128" height="148" fill="#FFFFFF" stroke="none" stroke-width="0" opacity="1"/>
		<rect x="16" y="295" width="128" height="178" fill="none" stroke="#000000" stroke-width="1.5" opacity="1"/>
		<line x1="16" y1="325" x2="144" y2="325" stroke="#000000" stroke-width="1.5"/>
	</g>
	<text x="46" y="316.3" fill="#000000" font-family="Copperplate" font-size="18">Bourse</text>
	<text x="24" y="342" fill="#000000" font-family="Gill Sans" font-size="15">Identifiant Bourse</text>
	<line x1="24" y1="345" x2="135" y2="345" stroke="#000000" stroke-width="1"/>
	<text x="24" y="359.1" fill="#000000" font-family="Gill Sans" font-size="15">Nom</text>
	<text x="24" y="376.1" fill="#000000" font-family="Gill Sans" font-size="15">Pays</text>
	<text x="24" y="393.1" fill="#000000" font-family="Gill Sans" font-size="15">Ville</text>
	<text x="24" y="410.1" fill="#000000" font-family="Gill Sans" font-size="15">Fuseau Horaire</text>
	<text x="24" y="427" fill="#000000" font-family="Gill Sans" font-size="15">Heure ouveture</text>
	<text x="24" y="444" fill="#000000" font-family="Gill Sans" font-size="15">Heure fermeture</text>
</g>

<!-- Entity TITRE -->
<g>
	<g>
		<rect x="363" y="354" width="64" height="30" fill="#FFFFFF" stroke="none" stroke-width="0" opacity="1"/>
		<rect x="363" y="384" width="64" height="30" fill="#FFFFFF" stroke="none" stroke-width="0" opacity="1"/>
		<rect x="363" y="354" width="64" height="60" fill="none" stroke="#000000" stroke-width="1.5" opacity="1"/>
		<line x1="363" y1="384" x2="427" y2="384" stroke="#000000" stroke-width="1.5"/>
	</g>
	<text x="371" y="375.3" fill="#000000" font-family="Copperplate" font-size="18">Titre</text>
	<text x="371" y="401.1" fill="#000000" font-family="Gill Sans" font-size="15">ISIN</text>
	<line x1="371" y1="404" x2="399" y2="404" stroke="#000000" stroke-width="1"/>
</g>

<!-- Entity TRANSACTION -->
<g>
	<g>
		<rect x="600" y="354" width="156" height="30" fill="#FFFFFF" stroke="none" stroke-width="0" opacity="1"/>
		<rect x="600" y="384" width="156" height="30" fill="#FFFFFF" stroke="none" stroke-width="0" opacity="1"/>
		<rect x="600" y="354" width="156" height="60" fill="none" stroke="#000000" stroke-width="1.5" opacity="1"/>
		<line x1="600" y1="384" x2="756" y2="384" stroke="#000000" stroke-width="1.5"/>
	</g>
	<text x="622" y="375.3" fill="#000000" font-family="Copperplate" font-size="18">Transaction</text>
	<text x="608" y="401.1" fill="#000000" font-family="Gill Sans" font-size="15">Identifiant Transaction</text>
	<line x1="608" y1="404" x2="748" y2="404" stroke="#000000" stroke-width="1"/>
</g>

<!-- Entity OBLIGATION -->
<g>
	<g>
		<rect x="336" y="550" width="118" height="30" fill="#FFFFFF" stroke="none" stroke-width="0" opacity="1"/>
		<rect x="336" y="580" width="118" height="46" fill="#FFFFFF" stroke="none" stroke-width="0" opacity="1"/>
		<rect x="336" y="550" width="118" height="76" fill="none" stroke="#000000" stroke-width="1.5" opacity="1"/>
		<line x1="336" y1="580" x2="454" y2="580" stroke="#000000" stroke-width="1.5"/>
	</g>
	<text x="345" y="571.3" fill="#000000" font-family="Copperplate" font-size="18">Obligation</text>
	<text x="344" y="597.1" fill="#000000" font-family="Gill Sans" font-size="15">ISIN</text>
	<line x1="344" y1="600" x2="372" y2="600" stroke="#000000" stroke-width="1"/>
	<text x="344" y="614.1" fill="#000000" font-family="Gill Sans" font-size="15">Nom</text>
</g>
</svg>