<?xml version="1.0" encoding="utf-8"?>
<!-- Generated by Mocodo 4.3.2 -->
<svg width="1173" height="469" viewBox="0 0 1173 469" xmlns="http://www.w3.org/2000/svg">
<rect x="0" y="0" width="1173" height="469" fill="#FFFFFF" stroke="none" stroke-width="0"/>

<!-- Association GERE_ETF -->
<g>
	<line x1="80" y1="189" x2="80" y2="47" stroke="#000000" stroke-width="1"/>
	<line x1="245" y1="47" x2="80" y2="47" stroke="#000000" stroke-width="1"/>
	<g>
		<path d="M114 18 a14 14 90 0 1 14 14 V46 h-96 V32 a14 14 90 0 1 14 -14" fill="#FFFFFF" stroke="#FFFFFF" stroke-width="0"/>
		<path d="M128 46 v16 a14 14 90 0 1 -14 14 H46 a14 14 90 0 1 -14 -14 V46 H96" fill="#FFFFFF" stroke="#FFFFFF" stroke-width="0"/>
		<rect x="32" y="18" width="96" height="58" fill="none" rx="14" stroke="#000000" stroke-width="1.5"/>
		<line x1="32" y1="46" x2="128" y2="46" stroke="#000000" stroke-width="1.5"/>
		<text x="39" y="39.3" fill="#000000" font-family="Copperplate" font-size="18">gère ETF</text>
	</g>
	<text x="85" y="117" fill="#000000" font-family="Futura" font-size="11">0,N</text>
	<text x="196" y="63" fill="#000000" font-family="Futura" font-size="11">1,1</text>
</g>

<!-- Association EST_UN_ETF -->
<g>
	<line x1="673" y1="189" x2="427" y2="47" stroke="#000000" stroke-width="1"/>
	<line x1="245" y1="47" x2="427" y2="47" stroke="#000000" stroke-width="1"/>
	<g>
		<path d="M470 18 a14 14 90 0 1 14 14 V46 h-114 V32 a14 14 90 0 1 14 -14" fill="#FFFFFF" stroke="#FFFFFF" stroke-width="0"/>
		<path d="M484 46 v16 a14 14 90 0 1 -14 14 H384 a14 14 90 0 1 -14 -14 V46 H114" fill="#FFFFFF" stroke="#FFFFFF" stroke-width="0"/>
		<rect x="370" y="18" width="114" height="58" fill="none" rx="14" stroke="#000000" stroke-width="1.5"/>
		<line x1="370" y1="46" x2="484" y2="46" stroke="#000000" stroke-width="1.5"/>
		<text x="378" y="39.3" fill="#000000" font-family="Copperplate" font-size="18">est un ETF</text>
	</g>
	<text x="607.69" y="143" fill="#000000" font-family="Futura" font-size="11">0,1</text>
	<text x="276" y="63" fill="#000000" font-family="Futura" font-size="11">1,1</text>
</g>

<!-- Association EST_UNE_DEVISE -->
<g>
	<line x1="673" y1="189" x2="673" y2="47" stroke="#000000" stroke-width="1"/>
	<line x1="922" y1="47" x2="673" y2="47" stroke="#000000" stroke-width="1"/>
	<g>
		<path d="M733 18 a14 14 90 0 1 14 14 V46 h-148 V32 a14 14 90 0 1 14 -14" fill="#FFFFFF" stroke="#FFFFFF" stroke-width="0"/>
		<path d="M747 46 v16 a14 14 90 0 1 -14 14 H613 a14 14 90 0 1 -14 -14 V46 H148" fill="#FFFFFF" stroke="#FFFFFF" stroke-width="0"/>
		<rect x="599" y="18" width="148" height="58" fill="none" rx="14" stroke="#000000" stroke-width="1.5"/>
		<line x1="599" y1="46" x2="747" y2="46" stroke="#000000" stroke-width="1.5"/>
		<text x="606" y="39.3" fill="#000000" font-family="Copperplate" font-size="18">est une Devise</text>
	</g>
	<text x="678" y="143" fill="#000000" font-family="Futura" font-size="11">0,1</text>
	<text x="861" y="63" fill="#000000" font-family="Futura" font-size="11">1,1</text>
</g>

<!-- Association ECHANGE_ETF -->
<g>
	<line x1="427" y1="189" x2="245" y2="189" stroke="#000000" stroke-width="1"/>
	<line x1="245" y1="47" x2="245" y2="189" stroke="#000000" stroke-width="1"/>
	<g>
		<path d="M296 160 a14 14 90 0 1 14 14 V188 h-130 V174 a14 14 90 0 1 14 -14" fill="#FFFFFF" stroke="#FFFFFF" stroke-width="0"/>
		<path d="M310 188 v16 a14 14 90 0 1 -14 14 H194 a14 14 90 0 1 -14 -14 V188 H130" fill="#FFFFFF" stroke="#FFFFFF" stroke-width="0"/>
		<rect x="180" y="160" width="130" height="58" fill="none" rx="14" stroke="#000000" stroke-width="1.5"/>
		<line x1="180" y1="188" x2="310" y2="188" stroke="#000000" stroke-width="1.5"/>
		<text x="188" y="181.3" fill="#000000" font-family="Copperplate" font-size="18">échange ETF</text>
	</g>
	<text x="339" y="181" fill="#000000" font-family="Futura" font-size="11">0,N</text>
	<text x="250" y="101" fill="#000000" font-family="Futura" font-size="11">1,1</text>
</g>

<!-- Association EST_UNE_OBLIGATION -->
<g>
	<line x1="673" y1="189" x2="922" y2="189" stroke="#000000" stroke-width="1"/>
	<line x1="1105" y1="189" x2="922" y2="189" stroke="#000000" stroke-width="1"/>
	<g>
		<path d="M1003 160 a14 14 90 0 1 14 14 V188 h-190 V174 a14 14 90 0 1 14 -14" fill="#FFFFFF" stroke="#FFFFFF" stroke-width="0"/>
		<path d="M1017 188 v16 a14 14 90 0 1 -14 14 H841 a14 14 90 0 1 -14 -14 V188 H190" fill="#FFFFFF" stroke="#FFFFFF" stroke-width="0"/>
		<rect x="827" y="160" width="190" height="58" fill="none" rx="14" stroke="#000000" stroke-width="1.5"/>
		<line x1="827" y1="188" x2="1017" y2="188" stroke="#000000" stroke-width="1.5"/>
		<text x="835" y="181.3" fill="#000000" font-family="Copperplate" font-size="18">est une Obligation</text>
	</g>
	<text x="785" y="205" fill="#000000" font-family="Futura" font-size="11">0,1</text>
	<text x="1023" y="205" fill="#000000" font-family="Futura" font-size="11">1,1</text>
</g>

<!-- Association EMET -->
<g>
	<line x1="80" y1="422" x2="80" y2="331" stroke="#000000" stroke-width="1"/>
	<line x1="80" y1="189" x2="80" y2="331" stroke="#000000" stroke-width="1"/>
	<g>
		<path d="M95 302 a14 14 90 0 1 14 14 V330 h-58 V316 a14 14 90 0 1 14 -14" fill="#FFFFFF" stroke="#FFFFFF" stroke-width="0"/>
		<path d="M109 330 v16 a14 14 90 0 1 -14 14 H65 a14 14 90 0 1 -14 -14 V330 H58" fill="#FFFFFF" stroke="#FFFFFF" stroke-width="0"/>
		<rect x="51" y="302" width="58" height="58" fill="none" rx="14" stroke="#000000" stroke-width="1.5"/>
		<line x1="51" y1="330" x2="109" y2="330" stroke="#000000" stroke-width="1.5"/>
		<text x="59" y="323.3" fill="#000000" font-family="Copperplate" font-size="18">émet</text>
	</g>
	<text x="57" y="376" fill="#000000" font-family="Futura" font-size="11">1,1</text>
	<text x="85" y="269" fill="#000000" font-family="Futura" font-size="11">0,N</text>
</g>

<!-- Association ECHANGE_ACTION -->
<g>
	<line x1="427" y1="189" x2="245" y2="331" stroke="#000000" stroke-width="1"/>
	<line x1="80" y1="422" x2="245" y2="331" stroke="#000000" stroke-width="1"/>
	<g>
		<path d="M309 302 a14 14 90 0 1 14 14 V330 h-156 V316 a14 14 90 0 1 14 -14" fill="#FFFFFF" stroke="#FFFFFF" stroke-width="0"/>
		<path d="M323 330 v16 a14 14 90 0 1 -14 14 H181 a14 14 90 0 1 -14 -14 V330 H156" fill="#FFFFFF" stroke="#FFFFFF" stroke-width="0"/>
		<rect x="167" y="302" width="156" height="58" fill="none" rx="14" stroke="#000000" stroke-width="1.5"/>
		<line x1="167" y1="330" x2="323" y2="330" stroke="#000000" stroke-width="1.5"/>
		<text x="175" y="323.3" fill="#000000" font-family="Copperplate" font-size="18">échange Action</text>
	</g>
	<text x="339" y="236.78" fill="#000000" font-family="Futura" font-size="11">0,N</text>
	<text x="124" y="412.2" fill="#000000" font-family="Futura" font-size="11">1,1</text>
</g>

<!-- Association EST_UNE_ACTION -->
<g>
	<line x1="673" y1="189" x2="427" y2="331" stroke="#000000" stroke-width="1"/>
	<line x1="80" y1="422" x2="427" y2="331" stroke="#000000" stroke-width="1"/>
	<g>
		<path d="M488 302 a14 14 90 0 1 14 14 V330 h-150 V316 a14 14 90 0 1 14 -14" fill="#FFFFFF" stroke="#FFFFFF" stroke-width="0"/>
		<path d="M502 330 v16 a14 14 90 0 1 -14 14 H366 a14 14 90 0 1 -14 -14 V330 H150" fill="#FFFFFF" stroke="#FFFFFF" stroke-width="0"/>
		<rect x="352" y="302" width="150" height="58" fill="none" rx="14" stroke="#000000" stroke-width="1.5"/>
		<line x1="352" y1="330" x2="502" y2="330" stroke="#000000" stroke-width="1.5"/>
		<text x="360" y="323.3" fill="#000000" font-family="Copperplate" font-size="18">est une Action</text>
	</g>
	<text x="607.69" y="243" fill="#000000" font-family="Futura" font-size="11">0,1</text>
	<text x="124" y="425.75" fill="#000000" font-family="Futura" font-size="11">1,1</text>
</g>

<!-- Association CONTIENT -->
<g>
	<line x1="922" y1="331" x2="673" y2="331" stroke="#000000" stroke-width="1"/>
	<line x1="673" y1="189" x2="673" y2="331" stroke="#000000" stroke-width="1"/>
	<g>
		<path d="M801 268 a14 14 90 0 1 14 14 V296 h-284 V282 a14 14 90 0 1 14 -14" fill="#FFFFFF" stroke="#FFFFFF" stroke-width="0"/>
		<path d="M815 296 v84 a14 14 90 0 1 -14 14 H545 a14 14 90 0 1 -14 -14 V296 H284" fill="#FFFFFF" stroke="#FFFFFF" stroke-width="0"/>
		<rect x="531" y="268" width="284" height="126" fill="none" rx="14" stroke="#000000" stroke-width="1.5"/>
		<line x1="531" y1="296" x2="815" y2="296" stroke="#000000" stroke-width="1.5"/>
		<text x="633" y="289.3" fill="#000000" font-family="Copperplate" font-size="18">contient</text>
		<text x="538" y="314.1" fill="#000000" font-family="Gill Sans" font-size="15">Quantité</text>
		<text x="538" y="331.1" fill="#000000" font-family="Gill Sans" font-size="15">Prix dans devise du portfolio</text>
		<text x="538" y="348.1" fill="#000000" font-family="Gill Sans" font-size="15">Prix dans la devise de l’instrument financier</text>
		<text x="538" y="365" fill="#000000" font-family="Gill Sans" font-size="15">Frais Courtage</text>
		<text x="538" y="382" fill="#000000" font-family="Gill Sans" font-size="15">Taxes</text>
	</g>
	<text x="821" y="347" fill="#000000" font-family="Futura" font-size="11">1,1</text>
	<text x="678" y="243" fill="#000000" font-family="Futura" font-size="11">0,N</text>
</g>

<!-- Entity ETF -->
<g>
	<g>
		<rect x="219" y="9" width="52" height="30" fill="#FFFFFF" stroke="none" stroke-width="0" opacity="1"/>
		<rect x="219" y="39" width="52" height="46" fill="#FFFFFF" stroke="none" stroke-width="0" opacity="1"/>
		<rect x="219" y="9" width="52" height="76" fill="none" stroke="#000000" stroke-width="1.5" opacity="1"/>
		<line x1="219" y1="39" x2="271" y2="39" stroke="#000000" stroke-width="1.5"/>
	</g>
	<text x="228" y="30.3" fill="#000000" font-family="Copperplate" font-size="18">ETF</text>
	<text x="227" y="56.1" fill="#000000" font-family="Gill Sans" font-size="15">ISIN</text>
	<line x1="227" y1="59" x2="255" y2="59" stroke="#000000" stroke-width="1"/>
	<text x="227" y="73.1" fill="#000000" font-family="Gill Sans" font-size="15">Nom</text>
</g>

<!-- Entity DEVISE -->
<g>
	<g>
		<rect x="884" y="26" width="76" height="30" fill="#FFFFFF" stroke="none" stroke-width="0" opacity="1"/>
		<rect x="884" y="56" width="76" height="12" fill="#FFFFFF" stroke="none" stroke-width="0" opacity="1"/>
		<rect x="884" y="26" width="76" height="42" fill="none" stroke="#000000" stroke-width="1.5" opacity="1"/>
		<line x1="884" y1="56" x2="960" y2="56" stroke="#000000" stroke-width="1.5"/>
	</g>
	<text x="892" y="47.3" fill="#000000" font-family="Copperplate" font-size="18">Devise</text>
</g>

<!-- Entity ENTREPRISE -->
<g>
	<g>
		<rect x="9" y="125" width="142" height="30" fill="#FFFFFF" stroke="none" stroke-width="0" opacity="1"/>
		<rect x="9" y="155" width="142" height="98" fill="#FFFFFF" stroke="none" stroke-width="0" opacity="1"/>
		<rect x="9" y="125" width="142" height="128" fill="none" stroke="#000000" stroke-width="1.5" opacity="1"/>
		<line x1="9" y1="155" x2="151" y2="155" stroke="#000000" stroke-width="1.5"/>
	</g>
	<text x="29" y="146.3" fill="#000000" font-family="Copperplate" font-size="18">Entreprise</text>
	<text x="17" y="172.1" fill="#000000" font-family="Gill Sans" font-size="15">Pays</text>
	<line x1="17" y1="175" x2="45" y2="175" stroke="#000000" stroke-width="1"/>
	<text x="17" y="189.1" fill="#000000" font-family="Gill Sans" font-size="15">Numero_entreprise</text>
	<line x1="17" y1="192" x2="143" y2="192" stroke="#000000" stroke-width="1"/>
	<text x="17" y="206.1" fill="#000000" font-family="Gill Sans" font-size="15">Nom</text>
	<text x="17" y="223" fill="#000000" font-family="Gill Sans" font-size="15">Secteur d’activité</text>
	<text x="17" y="240" fill="#000000" font-family="Gill Sans" font-size="15">Emplacement</text>
</g>

<!-- Entity BOURSE -->
<g>
	<g>
		<rect x="363" y="100" width="128" height="30" fill="#FFFFFF" stroke="none" stroke-width="0" opacity="1"/>
		<rect x="363" y="130" width="128" height="148" fill="#FFFFFF" stroke="none" stroke-width="0" opacity="1"/>
		<rect x="363" y="100" width="128" height="178" fill="none" stroke="#000000" stroke-width="1.5" opacity="1"/>
		<line x1="363" y1="130" x2="491" y2="130" stroke="#000000" stroke-width="1.5"/>
	</g>
	<text x="393" y="121.3" fill="#000000" font-family="Copperplate" font-size="18">Bourse</text>
	<text x="371" y="147" fill="#000000" font-family="Gill Sans" font-size="15">Identifiant Bourse</text>
	<line x1="371" y1="150" x2="482" y2="150" stroke="#000000" stroke-width="1"/>
	<text x="371" y="164.1" fill="#000000" font-family="Gill Sans" font-size="15">Nom</text>
	<text x="371" y="181.1" fill="#000000" font-family="Gill Sans" font-size="15">Pays</text>
	<text x="371" y="198.1" fill="#000000" font-family="Gill Sans" font-size="15">Ville</text>
	<text x="371" y="215.1" fill="#000000" font-family="Gill Sans" font-size="15">Fuseau horaire</text>
	<text x="371" y="232" fill="#000000" font-family="Gill Sans" font-size="15">Heure ouveture</text>
	<text x="371" y="249" fill="#000000" font-family="Gill Sans" font-size="15">Heure fermeture</text>
</g>

<!-- Entity INSTRUMENT_FINANCIER -->
<g>
	<g>
		<rect x="566" y="151" width="214" height="30" fill="#FFFFFF" stroke="none" stroke-width="0" opacity="1"/>
		<rect x="566" y="181" width="214" height="46" fill="#FFFFFF" stroke="none" stroke-width="0" opacity="1"/>
		<rect x="566" y="151" width="214" height="76" fill="none" stroke="#000000" stroke-width="1.5" opacity="1"/>
		<line x1="566" y1="181" x2="780" y2="181" stroke="#000000" stroke-width="1.5"/>
	</g>
	<text x="574" y="172.3" fill="#000000" font-family="Copperplate" font-size="18">Instrument Financier</text>
	<text x="574" y="198.1" fill="#000000" font-family="Gill Sans" font-size="15">ISIN</text>
	<line x1="574" y1="201" x2="602" y2="201" stroke="#000000" stroke-width="1"/>
	<text x="574" y="215.1" fill="#000000" font-family="Gill Sans" font-size="15">Devise échange</text>
</g>

<!-- Entity OBLIGATION -->
<g>
	<g>
		<rect x="1046" y="159" width="118" height="30" fill="#FFFFFF" stroke="none" stroke-width="0" opacity="1"/>
		<rect x="1046" y="189" width="118" height="30" fill="#FFFFFF" stroke="none" stroke-width="0" opacity="1"/>
		<rect x="1046" y="159" width="118" height="60" fill="none" stroke="#000000" stroke-width="1.5" opacity="1"/>
		<line x1="1046" y1="189" x2="1164" y2="189" stroke="#000000" stroke-width="1.5"/>
	</g>
	<text x="1055" y="180.3" fill="#000000" font-family="Copperplate" font-size="18">Obligation</text>
	<text x="1054" y="206.1" fill="#000000" font-family="Gill Sans" font-size="15">Nom</text>
	<line x1="1054" y1="209" x2="1087" y2="209" stroke="#000000" stroke-width="1"/>
</g>

<!-- Entity TRANSACTION -->
<g>
	<g>
		<rect x="844" y="293" width="156" height="30" fill="#FFFFFF" stroke="none" stroke-width="0" opacity="1"/>
		<rect x="844" y="323" width="156" height="46" fill="#FFFFFF" stroke="none" stroke-width="0" opacity="1"/>
		<rect x="844" y="293" width="156" height="76" fill="none" stroke="#000000" stroke-width="1.5" opacity="1"/>
		<line x1="844" y1="323" x2="1000" y2="323" stroke="#000000" stroke-width="1.5"/>
	</g>
	<text x="866" y="314.3" fill="#000000" font-family="Copperplate" font-size="18">Transaction</text>
	<text x="852" y="340.1" fill="#000000" font-family="Gill Sans" font-size="15">Identifiant Transaction</text>
	<line x1="852" y1="343" x2="992" y2="343" stroke="#000000" stroke-width="1"/>
	<text x="852" y="357.1" fill="#000000" font-family="Gill Sans" font-size="15">type (Vente/Achat)</text>
</g>

<!-- Entity ACTION -->
<g>
	<g>
		<rect x="41" y="384" width="78" height="30" fill="#FFFFFF" stroke="none" stroke-width="0" opacity="1"/>
		<rect x="41" y="414" width="78" height="46" fill="#FFFFFF" stroke="none" stroke-width="0" opacity="1"/>
		<rect x="41" y="384" width="78" height="76" fill="none" stroke="#000000" stroke-width="1.5" opacity="1"/>
		<line x1="41" y1="414" x2="119" y2="414" stroke="#000000" stroke-width="1.5"/>
	</g>
	<text x="50" y="405.3" fill="#000000" font-family="Copperplate" font-size="18">Action</text>
	<text x="49" y="431.1" fill="#000000" font-family="Gill Sans" font-size="15">Symbole</text>
	<line x1="49" y1="434" x2="102" y2="434" stroke="#000000" stroke-width="1"/>
	<text x="49" y="448.1" fill="#000000" font-family="Gill Sans" font-size="15">Devise</text>
</g>
</svg>