<?xml version="1.0" encoding="utf-8"?>
<!-- Generated by Mocodo 4.3.2 -->
<svg width="1169" height="730" viewBox="0 0 1169 730" xmlns="http://www.w3.org/2000/svg">
<rect x="0" y="0" width="1169" height="730" fill="#FFFFFF" stroke="none" stroke-width="0"/>

<!-- Association EST_UNE_OBLIGATION -->
<g>
	<line x1="555" y1="213" x2="555" y2="122" stroke="#000000" stroke-width="1"/>
	<line x1="555" y1="39" x2="555" y2="122" stroke="#000000" stroke-width="1"/>
	<g>
		<path d="M636 93 a14 14 90 0 1 14 14 V121 h-190 V107 a14 14 90 0 1 14 -14" fill="#FFFFFF" stroke="#FFFFFF" stroke-width="0"/>
		<path d="M650 121 v16 a14 14 90 0 1 -14 14 H474 a14 14 90 0 1 -14 -14 V121 H190" fill="#FFFFFF" stroke="#FFFFFF" stroke-width="0"/>
		<rect x="460" y="93" width="190" height="58" fill="none" rx="14" stroke="#000000" stroke-width="1.5"/>
		<line x1="460" y1="121" x2="650" y2="121" stroke="#000000" stroke-width="1.5"/>
		<text x="468" y="114.3" fill="#000000" font-family="Copperplate" font-size="18">est une Obligation</text>
	</g>
	<text x="560" y="167" fill="#000000" font-family="Futura" font-size="11">0,1</text>
	<text x="560" y="85" fill="#000000" font-family="Futura" font-size="11">1,1</text>
</g>

<!-- Association EST_UNE_DEVISE -->
<g>
	<line x1="555" y1="213" x2="345" y2="213" stroke="#000000" stroke-width="1"/>
	<line x1="345" y1="122" x2="345" y2="213" stroke="#000000" stroke-width="1"/>
	<g>
		<path d="M405 184 a14 14 90 0 1 14 14 V212 h-148 V198 a14 14 90 0 1 14 -14" fill="#FFFFFF" stroke="#FFFFFF" stroke-width="0"/>
		<path d="M419 212 v16 a14 14 90 0 1 -14 14 H285 a14 14 90 0 1 -14 -14 V212 H148" fill="#FFFFFF" stroke="#FFFFFF" stroke-width="0"/>
		<rect x="271" y="184" width="148" height="58" fill="none" rx="14" stroke="#000000" stroke-width="1.5"/>
		<line x1="271" y1="212" x2="419" y2="212" stroke="#000000" stroke-width="1.5"/>
		<text x="278" y="205.3" fill="#000000" font-family="Copperplate" font-size="18">est une Devise</text>
	</g>
	<text x="425" y="205" fill="#000000" font-family="Futura" font-size="11">0,1</text>
	<text x="350" y="159" fill="#000000" font-family="Futura" font-size="11">1,1</text>
</g>

<!-- Association CONTIENT -->
<g>
	<line x1="1082" y1="213" x2="833" y2="213" stroke="#000000" stroke-width="1"/>
	<line x1="555" y1="213" x2="833" y2="213" stroke="#000000" stroke-width="1"/>
	<g>
		<path d="M961 150 a14 14 90 0 1 14 14 V178 h-284 V164 a14 14 90 0 1 14 -14" fill="#FFFFFF" stroke="#FFFFFF" stroke-width="0"/>
		<path d="M975 178 v84 a14 14 90 0 1 -14 14 H705 a14 14 90 0 1 -14 -14 V178 H284" fill="#FFFFFF" stroke="#FFFFFF" stroke-width="0"/>
		<rect x="691" y="150" width="284" height="126" fill="none" rx="14" stroke="#000000" stroke-width="1.5"/>
		<line x1="691" y1="178" x2="975" y2="178" stroke="#000000" stroke-width="1.5"/>
		<text x="793" y="171.3" fill="#000000" font-family="Copperplate" font-size="18">contient</text>
		<text x="698" y="196.1" fill="#000000" font-family="Gill Sans" font-size="15">Quantité</text>
		<text x="698" y="213.1" fill="#000000" font-family="Gill Sans" font-size="15">Prix dans devise du portfolio</text>
		<text x="698" y="230.1" fill="#000000" font-family="Gill Sans" font-size="15">Prix dans la devise de l’instrument financier</text>
		<text x="698" y="247" fill="#000000" font-family="Gill Sans" font-size="15">Frais Courtage</text>
		<text x="698" y="264" fill="#000000" font-family="Gill Sans" font-size="15">Taxes</text>
	</g>
	<text x="981" y="229" fill="#000000" font-family="Futura" font-size="11">1,1</text>
	<text x="667" y="229" fill="#000000" font-family="Futura" font-size="11">0,N</text>
</g>

<!-- Association EST_UNE_ACTION -->
<g>
	<line x1="555" y1="213" x2="345" y2="338" stroke="#000000" stroke-width="1"/>
	<line x1="174" y1="338" x2="345" y2="338" stroke="#000000" stroke-width="1"/>
	<g>
		<path d="M406 309 a14 14 90 0 1 14 14 V337 h-150 V323 a14 14 90 0 1 14 -14" fill="#FFFFFF" stroke="#FFFFFF" stroke-width="0"/>
		<path d="M420 337 v16 a14 14 90 0 1 -14 14 H284 a14 14 90 0 1 -14 -14 V337 H150" fill="#FFFFFF" stroke="#FFFFFF" stroke-width="0"/>
		<rect x="270" y="309" width="150" height="58" fill="none" rx="14" stroke="#000000" stroke-width="1.5"/>
		<line x1="270" y1="337" x2="420" y2="337" stroke="#000000" stroke-width="1.5"/>
		<text x="278" y="330.3" fill="#000000" font-family="Copperplate" font-size="18">est une Action</text>
	</g>
	<text x="491.55" y="267" fill="#000000" font-family="Futura" font-size="11">0,1</text>
	<text x="218" y="354" fill="#000000" font-family="Futura" font-size="11">1,1</text>
</g>

<!-- Association EST_UN_ETF -->
<g>
	<line x1="555" y1="213" x2="555" y2="338" stroke="#000000" stroke-width="1"/>
	<line x1="833" y1="338" x2="555" y2="338" stroke="#000000" stroke-width="1"/>
	<g>
		<path d="M598 309 a14 14 90 0 1 14 14 V337 h-114 V323 a14 14 90 0 1 14 -14" fill="#FFFFFF" stroke="#FFFFFF" stroke-width="0"/>
		<path d="M612 337 v16 a14 14 90 0 1 -14 14 H512 a14 14 90 0 1 -14 -14 V337 H114" fill="#FFFFFF" stroke="#FFFFFF" stroke-width="0"/>
		<rect x="498" y="309" width="114" height="58" fill="none" rx="14" stroke="#000000" stroke-width="1.5"/>
		<line x1="498" y1="337" x2="612" y2="337" stroke="#000000" stroke-width="1.5"/>
		<text x="506" y="330.3" fill="#000000" font-family="Copperplate" font-size="18">est un ETF</text>
	</g>
	<text x="560" y="267" fill="#000000" font-family="Futura" font-size="11">0,1</text>
	<text x="784" y="330" fill="#000000" font-family="Futura" font-size="11">1,1</text>
</g>

<!-- Association EMET -->
<g>
	<line x1="174" y1="338" x2="38" y2="480" stroke="#000000" stroke-width="1"/>
	<line x1="345" y1="657" x2="38" y2="480" stroke="#000000" stroke-width="1"/>
	<g>
		<path d="M53 451 a14 14 90 0 1 14 14 V479 h-58 V465 a14 14 90 0 1 14 -14" fill="#FFFFFF" stroke="#FFFFFF" stroke-width="0"/>
		<path d="M67 479 v16 a14 14 90 0 1 -14 14 H23 a14 14 90 0 1 -14 -14 V479 H58" fill="#FFFFFF" stroke="#FFFFFF" stroke-width="0"/>
		<rect x="9" y="451" width="58" height="58" fill="none" rx="14" stroke="#000000" stroke-width="1.5"/>
		<line x1="9" y1="479" x2="67" y2="479" stroke="#000000" stroke-width="1.5"/>
		<text x="17" y="472.3" fill="#000000" font-family="Copperplate" font-size="18">émet</text>
	</g>
	<text x="135.75" y="392" fill="#000000" font-family="Futura" font-size="11">1,1</text>
	<text x="250" y="627.59" fill="#000000" font-family="Futura" font-size="11">0,N</text>
</g>

<!-- Association ECHANGE_ACTION -->
<g>
	<line x1="345" y1="480" x2="174" y2="480" stroke="#000000" stroke-width="1"/>
	<line x1="174" y1="338" x2="174" y2="480" stroke="#000000" stroke-width="1"/>
	<g>
		<path d="M238 451 a14 14 90 0 1 14 14 V479 h-156 V465 a14 14 90 0 1 14 -14" fill="#FFFFFF" stroke="#FFFFFF" stroke-width="0"/>
		<path d="M252 479 v16 a14 14 90 0 1 -14 14 H110 a14 14 90 0 1 -14 -14 V479 H156" fill="#FFFFFF" stroke="#FFFFFF" stroke-width="0"/>
		<rect x="96" y="451" width="156" height="58" fill="none" rx="14" stroke="#000000" stroke-width="1.5"/>
		<line x1="96" y1="479" x2="252" y2="479" stroke="#000000" stroke-width="1.5"/>
		<text x="104" y="472.3" fill="#000000" font-family="Copperplate" font-size="18">échange Action</text>
	</g>
	<text x="257" y="496" fill="#000000" font-family="Futura" font-size="11">0,N</text>
	<text x="179" y="392" fill="#000000" font-family="Futura" font-size="11">1,1</text>
</g>

<!-- Association ECHANGE_ETF -->
<g>
	<line x1="345" y1="480" x2="555" y2="480" stroke="#000000" stroke-width="1"/>
	<line x1="833" y1="338" x2="555" y2="480" stroke="#000000" stroke-width="1"/>
	<g>
		<path d="M606 451 a14 14 90 0 1 14 14 V479 h-130 V465 a14 14 90 0 1 14 -14" fill="#FFFFFF" stroke="#FFFFFF" stroke-width="0"/>
		<path d="M620 479 v16 a14 14 90 0 1 -14 14 H504 a14 14 90 0 1 -14 -14 V479 H130" fill="#FFFFFF" stroke="#FFFFFF" stroke-width="0"/>
		<rect x="490" y="451" width="130" height="58" fill="none" rx="14" stroke="#000000" stroke-width="1.5"/>
		<line x1="490" y1="479" x2="620" y2="479" stroke="#000000" stroke-width="1.5"/>
		<text x="498" y="472.3" fill="#000000" font-family="Copperplate" font-size="18">échange ETF</text>
	</g>
	<text x="414" y="496" fill="#000000" font-family="Futura" font-size="11">0,N</text>
	<text x="784" y="347.27" fill="#000000" font-family="Futura" font-size="11">1,1</text>
</g>

<!-- Association GERE_ETF -->
<g>
	<line x1="345" y1="657" x2="833" y2="480" stroke="#000000" stroke-width="1"/>
	<line x1="833" y1="338" x2="833" y2="480" stroke="#000000" stroke-width="1"/>
	<g>
		<path d="M867 451 a14 14 90 0 1 14 14 V479 h-96 V465 a14 14 90 0 1 14 -14" fill="#FFFFFF" stroke="#FFFFFF" stroke-width="0"/>
		<path d="M881 479 v16 a14 14 90 0 1 -14 14 H799 a14 14 90 0 1 -14 -14 V479 H96" fill="#FFFFFF" stroke="#FFFFFF" stroke-width="0"/>
		<rect x="785" y="451" width="96" height="58" fill="none" rx="14" stroke="#000000" stroke-width="1.5"/>
		<line x1="785" y1="479" x2="881" y2="479" stroke="#000000" stroke-width="1.5"/>
		<text x="792" y="472.3" fill="#000000" font-family="Copperplate" font-size="18">gère ETF</text>
	</g>
	<text x="421" y="644.41" fill="#000000" font-family="Futura" font-size="11">0,N</text>
	<text x="838" y="392" fill="#000000" font-family="Futura" font-size="11">1,1</text>
</g>

<!-- Entity OBLIGATION -->
<g>
	<g>
		<rect x="496" y="9" width="118" height="30" fill="#FFFFFF" stroke="none" stroke-width="0" opacity="1"/>
		<rect x="496" y="39" width="118" height="30" fill="#FFFFFF" stroke="none" stroke-width="0" opacity="1"/>
		<rect x="496" y="9" width="118" height="60" fill="none" stroke="#000000" stroke-width="1.5" opacity="1"/>
		<line x1="496" y1="39" x2="614" y2="39" stroke="#000000" stroke-width="1.5"/>
	</g>
	<text x="505" y="30.3" fill="#000000" font-family="Copperplate" font-size="18">Obligation</text>
	<text x="504" y="56.1" fill="#000000" font-family="Gill Sans" font-size="15">Nom</text>
	<line x1="504" y1="59" x2="537" y2="59" stroke="#000000" stroke-width="1"/>
</g>

<!-- Entity DEVISE -->
<g>
	<g>
		<rect x="307" y="101" width="76" height="30" fill="#FFFFFF" stroke="none" stroke-width="0" opacity="1"/>
		<rect x="307" y="131" width="76" height="12" fill="#FFFFFF" stroke="none" stroke-width="0" opacity="1"/>
		<rect x="307" y="101" width="76" height="42" fill="none" stroke="#000000" stroke-width="1.5" opacity="1"/>
		<line x1="307" y1="131" x2="383" y2="131" stroke="#000000" stroke-width="1.5"/>
	</g>
	<text x="315" y="122.3" fill="#000000" font-family="Copperplate" font-size="18">Devise</text>
</g>

<!-- Entity INSTRUMENT_FINANCIER -->
<g>
	<g>
		<rect x="448" y="175" width="214" height="30" fill="#FFFFFF" stroke="none" stroke-width="0" opacity="1"/>
		<rect x="448" y="205" width="214" height="46" fill="#FFFFFF" stroke="none" stroke-width="0" opacity="1"/>
		<rect x="448" y="175" width="214" height="76" fill="none" stroke="#000000" stroke-width="1.5" opacity="1"/>
		<line x1="448" y1="205" x2="662" y2="205" stroke="#000000" stroke-width="1.5"/>
	</g>
	<text x="456" y="196.3" fill="#000000" font-family="Copperplate" font-size="18">Instrument Financier</text>
	<text x="456" y="222.1" fill="#000000" font-family="Gill Sans" font-size="15">ISIN</text>
	<line x1="456" y1="225" x2="484" y2="225" stroke="#000000" stroke-width="1"/>
	<text x="456" y="239.1" fill="#000000" font-family="Gill Sans" font-size="15">Devise échange</text>
</g>

<!-- Entity TRANSACTION -->
<g>
	<g>
		<rect x="1004" y="175" width="156" height="30" fill="#FFFFFF" stroke="none" stroke-width="0" opacity="1"/>
		<rect x="1004" y="205" width="156" height="46" fill="#FFFFFF" stroke="none" stroke-width="0" opacity="1"/>
		<rect x="1004" y="175" width="156" height="76" fill="none" stroke="#000000" stroke-width="1.5" opacity="1"/>
		<line x1="1004" y1="205" x2="1160" y2="205" stroke="#000000" stroke-width="1.5"/>
	</g>
	<text x="1026" y="196.3" fill="#000000" font-family="Copperplate" font-size="18">Transaction</text>
	<text x="1012" y="222.1" fill="#000000" font-family="Gill Sans" font-size="15">Identifiant Transaction</text>
	<line x1="1012" y1="225" x2="1152" y2="225" stroke="#000000" stroke-width="1"/>
	<text x="1012" y="239.1" fill="#000000" font-family="Gill Sans" font-size="15">type (Vente/Achat)</text>
</g>

<!-- Entity ACTION -->
<g>
	<g>
		<rect x="135" y="300" width="78" height="30" fill="#FFFFFF" stroke="none" stroke-width="0" opacity="1"/>
		<rect x="135" y="330" width="78" height="46" fill="#FFFFFF" stroke="none" stroke-width="0" opacity="1"/>
		<rect x="135" y="300" width="78" height="76" fill="none" stroke="#000000" stroke-width="1.5" opacity="1"/>
		<line x1="135" y1="330" x2="213" y2="330" stroke="#000000" stroke-width="1.5"/>
	</g>
	<text x="144" y="321.3" fill="#000000" font-family="Copperplate" font-size="18">Action</text>
	<text x="143" y="347.1" fill="#000000" font-family="Gill Sans" font-size="15">Symbole</text>
	<line x1="143" y1="350" x2="196" y2="350" stroke="#000000" stroke-width="1"/>
	<text x="143" y="364.1" fill="#000000" font-family="Gill Sans" font-size="15">Devise</text>
</g>

<!-- Entity ETF -->
<g>
	<g>
		<rect x="807" y="300" width="52" height="30" fill="#FFFFFF" stroke="none" stroke-width="0" opacity="1"/>
		<rect x="807" y="330" width="52" height="46" fill="#FFFFFF" stroke="none" stroke-width="0" opacity="1"/>
		<rect x="807" y="300" width="52" height="76" fill="none" stroke="#000000" stroke-width="1.5" opacity="1"/>
		<line x1="807" y1="330" x2="859" y2="330" stroke="#000000" stroke-width="1.5"/>
	</g>
	<text x="816" y="321.3" fill="#000000" font-family="Copperplate" font-size="18">ETF</text>
	<text x="815" y="347.1" fill="#000000" font-family="Gill Sans" font-size="15">ISIN</text>
	<line x1="815" y1="350" x2="843" y2="350" stroke="#000000" stroke-width="1"/>
	<text x="815" y="364.1" fill="#000000" font-family="Gill Sans" font-size="15">Nom</text>
</g>

<!-- Entity BOURSE -->
<g>
	<g>
		<rect x="281" y="391" width="128" height="30" fill="#FFFFFF" stroke="none" stroke-width="0" opacity="1"/>
		<rect x="281" y="421" width="128" height="148" fill="#FFFFFF" stroke="none" stroke-width="0" opacity="1"/>
		<rect x="281" y="391" width="128" height="178" fill="none" stroke="#000000" stroke-width="1.5" opacity="1"/>
		<line x1="281" y1="421" x2="409" y2="421" stroke="#000000" stroke-width="1.5"/>
	</g>
	<text x="311" y="412.3" fill="#000000" font-family="Copperplate" font-size="18">Bourse</text>
	<text x="289" y="438" fill="#000000" font-family="Gill Sans" font-size="15">Identifiant Bourse</text>
	<line x1="289" y1="441" x2="400" y2="441" stroke="#000000" stroke-width="1"/>
	<text x="289" y="455.1" fill="#000000" font-family="Gill Sans" font-size="15">Nom</text>
	<text x="289" y="472.1" fill="#000000" font-family="Gill Sans" font-size="15">Pays</text>
	<text x="289" y="489.1" fill="#000000" font-family="Gill Sans" font-size="15">Ville</text>
	<text x="289" y="506.1" fill="#000000" font-family="Gill Sans" font-size="15">Fuseau horaire</text>
	<text x="289" y="523" fill="#000000" font-family="Gill Sans" font-size="15">Heure ouveture</text>
	<text x="289" y="540" fill="#000000" font-family="Gill Sans" font-size="15">Heure fermeture</text>
</g>

<!-- Entity ENTREPRISE -->
<g>
	<g>
		<rect x="274" y="593" width="142" height="30" fill="#FFFFFF" stroke="none" stroke-width="0" opacity="1"/>
		<rect x="274" y="623" width="142" height="98" fill="#FFFFFF" stroke="none" stroke-width="0" opacity="1"/>
		<rect x="274" y="593" width="142" height="128" fill="none" stroke="#000000" stroke-width="1.5" opacity="1"/>
		<line x1="274" y1="623" x2="416" y2="623" stroke="#000000" stroke-width="1.5"/>
	</g>
	<text x="294" y="614.3" fill="#000000" font-family="Copperplate" font-size="18">Entreprise</text>
	<text x="282" y="640.1" fill="#000000" font-family="Gill Sans" font-size="15">Pays</text>
	<line x1="282" y1="643" x2="310" y2="643" stroke="#000000" stroke-width="1"/>
	<text x="282" y="657.1" fill="#000000" font-family="Gill Sans" font-size="15">Numero_entreprise</text>
	<line x1="282" y1="660" x2="408" y2="660" stroke="#000000" stroke-width="1"/>
	<text x="282" y="674.1" fill="#000000" font-family="Gill Sans" font-size="15">Nom</text>
	<text x="282" y="691" fill="#000000" font-family="Gill Sans" font-size="15">Secteur d’activité</text>
	<text x="282" y="708" fill="#000000" font-family="Gill Sans" font-size="15">Emplacement</text>
</g>
</svg>