<?xml version="1.0" encoding="utf-8"?>
<!-- Generated by Mocodo 4.3.2 -->
<svg width="268" height="212" viewBox="0 0 268 212" xmlns="http://www.w3.org/2000/svg">
<rect x="0" y="0" width="268" height="212" fill="#FFFFFF" stroke="none" stroke-width="0"/>

<!-- Association EMET -->
<g>
	<line x1="59" y1="47" x2="59" y2="156" stroke="#000000" stroke-width="1"/>
	<line x1="188" y1="156" x2="59" y2="156" stroke="#000000" stroke-width="1"/>
	<g>
		<path d="M74 127 a14 14 90 0 1 14 14 V155 h-58 V141 a14 14 90 0 1 14 -14" fill="#FFFFFF" stroke="#FFFFFF" stroke-width="0"/>
		<path d="M88 155 v16 a14 14 90 0 1 -14 14 H44 a14 14 90 0 1 -14 -14 V155 H58" fill="#FFFFFF" stroke="#FFFFFF" stroke-width="0"/>
		<rect x="30" y="127" width="58" height="58" fill="none" rx="14" stroke="#000000" stroke-width="1.5"/>
		<line x1="30" y1="155" x2="88" y2="155" stroke="#000000" stroke-width="1.5"/>
		<text x="38" y="148.3" fill="#000000" font-family="Copperplate" font-size="18">émet</text>
	</g>
	<text x="64" y="101" fill="#000000" font-family="Futura" font-size="11">1,1</text>
	<text x="93" y="172" fill="#000000" font-family="Futura" font-size="11">0,N</text>
</g>

<!-- Entity ACTION -->
<g>
	<g>
		<rect x="9" y="9" width="100" height="30" fill="#FFFFFF" stroke="none" stroke-width="0" opacity="1"/>
		<rect x="9" y="39" width="100" height="46" fill="#FFFFFF" stroke="none" stroke-width="0" opacity="1"/>
		<rect x="9" y="9" width="100" height="76" fill="none" stroke="#000000" stroke-width="1.5" opacity="1"/>
		<line x1="9" y1="39" x2="109" y2="39" stroke="#000000" stroke-width="1.5"/>
	</g>
	<text x="29" y="30.3" fill="#000000" font-family="Copperplate" font-size="18">Action</text>
	<text x="17" y="56.1" fill="#000000" font-family="Gill Sans" font-size="15">bourse_id</text>
	<line x1="17" y1="59" x2="81" y2="59" stroke="#000000" stroke-width="1"/>
	<text x="17" y="73.1" fill="#000000" font-family="Gill Sans" font-size="15">entreprise_id</text>
</g>

<!-- Entity ENTREPRISE -->
<g>
	<g>
		<rect x="117" y="109" width="142" height="30" fill="#FFFFFF" stroke="none" stroke-width="0" opacity="1"/>
		<rect x="117" y="139" width="142" height="64" fill="#FFFFFF" stroke="none" stroke-width="0" opacity="1"/>
		<rect x="117" y="109" width="142" height="94" fill="none" stroke="#000000" stroke-width="1.5" opacity="1"/>
		<line x1="117" y1="139" x2="259" y2="139" stroke="#000000" stroke-width="1.5"/>
	</g>
	<text x="137" y="130.3" fill="#000000" font-family="Copperplate" font-size="18">Entreprise</text>
	<text x="125" y="156.1" fill="#000000" font-family="Gill Sans" font-size="15">Pays</text>
	<line x1="125" y1="159" x2="153" y2="159" stroke="#000000" stroke-width="1"/>
	<text x="125" y="173.1" fill="#000000" font-family="Gill Sans" font-size="15">Numero_entreprise</text>
	<text x="125" y="190" fill="#000000" font-family="Gill Sans" font-size="15">Nom</text>
</g>
</svg>