<?xml version="1.0" encoding="utf-8"?>
<!-- Generated by Mocodo 4.3.2 -->
<svg width="804" height="523" viewBox="0 0 804 523" xmlns="http://www.w3.org/2000/svg">
<rect x="0" y="0" width="804" height="523" fill="#FFFFFF" stroke="none" stroke-width="0"/>

<!-- Inheritance INSTRUMENT_FINANCIER_PARENT_#1 -->
<g>
	<line x1="438" y1="157" x2="599" y2="157" stroke="#000000" stroke-width="1"/>
	<polygon points="545 157 557 151 553 157 557 163" fill="#000000" stroke-width="0"/>
	<line x1="599" y1="283" x2="599" y2="157" stroke="#000000" stroke-width="1"/>
	<line x1="599" y1="39" x2="599" y2="157" stroke="#000000" stroke-width="1"/>
	<g>
		<polygon points="599 128.13 574 171.43 624 171.43" stroke="#000000" stroke-width="1.5" fill="#FFFFFF"/>
		<text x="587" y="163" fill="#000000" font-family="Copperplate" font-size="18">XT</text>
	</g>
</g>

<!-- Association CONTIENT -->
<g>
	<line x1="87" y1="157" x2="248" y2="157" stroke="#000000" stroke-width="1"/>
	<line x1="438" y1="157" x2="248" y2="157" stroke="#000000" stroke-width="1"/>
	<g>
		<path d="M288 103 a14 14 90 0 1 14 14 V131 h-108 V117 a14 14 90 0 1 14 -14" fill="#FFFFFF" stroke="#FFFFFF" stroke-width="0"/>
		<path d="M302 131 v66 a14 14 90 0 1 -14 14 H208 a14 14 90 0 1 -14 -14 V131 H108" fill="#FFFFFF" stroke="#FFFFFF" stroke-width="0"/>
		<rect x="194" y="103" width="108" height="108" fill="none" rx="14" stroke="#000000" stroke-width="1.5"/>
		<line x1="194" y1="131" x2="302" y2="131" stroke="#000000" stroke-width="1.5"/>
		<text x="208" y="124.3" fill="#000000" font-family="Copperplate" font-size="18">contient</text>
		<text x="201" y="149.1" fill="#000000" font-family="Gill Sans" font-size="15">Quantité</text>
		<text x="201" y="166.1" fill="#000000" font-family="Gill Sans" font-size="15">Prix</text>
		<text x="201" y="183.1" fill="#000000" font-family="Gill Sans" font-size="15">Frais Courtage</text>
		<text x="201" y="200" fill="#000000" font-family="Gill Sans" font-size="15">Taxes</text>
	</g>
	<text x="170" y="173" fill="#000000" font-family="Futura" font-size="11">1,1</text>
	<text x="307" y="173" fill="#000000" font-family="Futura" font-size="11">0,N</text>
</g>

<!-- Association ECHANGE -->
<g>
	<line x1="438" y1="425" x2="438" y2="283" stroke="#000000" stroke-width="1"/>
	<line x1="599" y1="283" x2="438" y2="283" stroke="#000000" stroke-width="1"/>
	<g>
		<path d="M469 254 a14 14 90 0 1 14 14 V282 h-90 V268 a14 14 90 0 1 14 -14" fill="#FFFFFF" stroke="#FFFFFF" stroke-width="0"/>
		<path d="M483 282 v16 a14 14 90 0 1 -14 14 H407 a14 14 90 0 1 -14 -14 V282 H90" fill="#FFFFFF" stroke="#FFFFFF" stroke-width="0"/>
		<rect x="393" y="254" width="90" height="58" fill="none" rx="14" stroke="#000000" stroke-width="1.5"/>
		<line x1="393" y1="282" x2="483" y2="282" stroke="#000000" stroke-width="1.5"/>
		<text x="400" y="275.3" fill="#000000" font-family="Copperplate" font-size="18">échange</text>
	</g>
	<text x="443" y="328" fill="#000000" font-family="Futura" font-size="11">0,N</text>
	<text x="537" y="299" fill="#000000" font-family="Futura" font-size="11">1,1</text>
</g>

<!-- Association EMET -->
<g>
	<line x1="599" y1="283" x2="724" y2="283" stroke="#000000" stroke-width="1"/>
	<line x1="724" y1="157" x2="724" y2="283" stroke="#000000" stroke-width="1"/>
	<g>
		<path d="M739 254 a14 14 90 0 1 14 14 V282 h-58 V268 a14 14 90 0 1 14 -14" fill="#FFFFFF" stroke="#FFFFFF" stroke-width="0"/>
		<path d="M753 282 v16 a14 14 90 0 1 -14 14 H709 a14 14 90 0 1 -14 -14 V282 H58" fill="#FFFFFF" stroke="#FFFFFF" stroke-width="0"/>
		<rect x="695" y="254" width="58" height="58" fill="none" rx="14" stroke="#000000" stroke-width="1.5"/>
		<line x1="695" y1="282" x2="753" y2="282" stroke="#000000" stroke-width="1.5"/>
		<text x="703" y="275.3" fill="#000000" font-family="Copperplate" font-size="18">émet</text>
	</g>
	<text x="643" y="299" fill="#000000" font-family="Futura" font-size="11">1,1</text>
	<text x="729" y="237" fill="#000000" font-family="Futura" font-size="11">0,N</text>
</g>

<!-- Entity OBLIGATION -->
<g>
	<g>
		<rect x="540" y="9" width="118" height="30" fill="#FFFFFF" stroke="none" stroke-width="0" opacity="1"/>
		<rect x="540" y="39" width="118" height="30" fill="#FFFFFF" stroke="none" stroke-width="0" opacity="1"/>
		<rect x="540" y="9" width="118" height="60" fill="none" stroke="#000000" stroke-width="1.5" opacity="1"/>
		<line x1="540" y1="39" x2="658" y2="39" stroke="#000000" stroke-width="1.5"/>
	</g>
	<text x="549" y="30.3" fill="#000000" font-family="Copperplate" font-size="18">Obligation</text>
	<text x="548" y="56.1" fill="#000000" font-family="Gill Sans" font-size="15">Nom</text>
</g>

<!-- Entity TRANSACTION -->
<g>
	<g>
		<rect x="9" y="127" width="156" height="30" fill="#FFFFFF" stroke="none" stroke-width="0" opacity="1"/>
		<rect x="9" y="157" width="156" height="30" fill="#FFFFFF" stroke="none" stroke-width="0" opacity="1"/>
		<rect x="9" y="127" width="156" height="60" fill="none" stroke="#000000" stroke-width="1.5" opacity="1"/>
		<line x1="9" y1="157" x2="165" y2="157" stroke="#000000" stroke-width="1.5"/>
	</g>
	<text x="31" y="148.3" fill="#000000" font-family="Copperplate" font-size="18">Transaction</text>
	<text x="17" y="174.1" fill="#000000" font-family="Gill Sans" font-size="15">Identifiant Transaction</text>
	<line x1="17" y1="177" x2="157" y2="177" stroke="#000000" stroke-width="1"/>
</g>

<!-- Entity INSTRUMENT_FINANCIER -->
<g>
	<g>
		<rect x="331" y="127" width="214" height="30" fill="#FFFFFF" stroke="none" stroke-width="0" opacity="1"/>
		<rect x="331" y="157" width="214" height="30" fill="#FFFFFF" stroke="none" stroke-width="0" opacity="1"/>
		<rect x="331" y="127" width="214" height="60" fill="none" stroke="#000000" stroke-width="1.5" opacity="1"/>
		<line x1="331" y1="157" x2="545" y2="157" stroke="#000000" stroke-width="1.5"/>
	</g>
	<text x="339" y="148.3" fill="#000000" font-family="Copperplate" font-size="18">Instrument Financier</text>
	<text x="339" y="174.1" fill="#000000" font-family="Gill Sans" font-size="15">ISIN</text>
	<line x1="339" y1="177" x2="367" y2="177" stroke="#000000" stroke-width="1"/>
</g>

<!-- Entity ENTREPRISE -->
<g>
	<g>
		<rect x="653" y="93" width="142" height="30" fill="#FFFFFF" stroke="none" stroke-width="0" opacity="1"/>
		<rect x="653" y="123" width="142" height="98" fill="#FFFFFF" stroke="none" stroke-width="0" opacity="1"/>
		<rect x="653" y="93" width="142" height="128" fill="none" stroke="#000000" stroke-width="1.5" opacity="1"/>
		<line x1="653" y1="123" x2="795" y2="123" stroke="#000000" stroke-width="1.5"/>
	</g>
	<text x="673" y="114.3" fill="#000000" font-family="Copperplate" font-size="18">Entreprise</text>
	<text x="661" y="140.1" fill="#000000" font-family="Gill Sans" font-size="15">Pays</text>
	<line x1="661" y1="143" x2="689" y2="143" stroke="#000000" stroke-width="1"/>
	<text x="661" y="157.1" fill="#000000" font-family="Gill Sans" font-size="15">Numero_entreprise</text>
	<line x1="661" y1="160" x2="787" y2="160" stroke="#000000" stroke-width="1"/>
	<text x="661" y="174.1" fill="#000000" font-family="Gill Sans" font-size="15">Nom</text>
	<text x="661" y="191" fill="#000000" font-family="Gill Sans" font-size="15">Secteur d’activité</text>
	<text x="661" y="208" fill="#000000" font-family="Gill Sans" font-size="15">Emplacement</text>
</g>

<!-- Entity ACTION -->
<g>
	<g>
		<rect x="560" y="245" width="78" height="30" fill="#FFFFFF" stroke="none" stroke-width="0" opacity="1"/>
		<rect x="560" y="275" width="78" height="46" fill="#FFFFFF" stroke="none" stroke-width="0" opacity="1"/>
		<rect x="560" y="245" width="78" height="76" fill="none" stroke="#000000" stroke-width="1.5" opacity="1"/>
		<line x1="560" y1="275" x2="638" y2="275" stroke="#000000" stroke-width="1.5"/>
	</g>
	<text x="569" y="266.3" fill="#000000" font-family="Copperplate" font-size="18">Action</text>
	<text x="568" y="292.1" fill="#000000" font-family="Gill Sans" font-size="15">Symbole</text>
	<text x="568" y="309.1" fill="#000000" font-family="Gill Sans" font-size="15">Devise</text>
</g>

<!-- Entity BOURSE -->
<g>
	<g>
		<rect x="374" y="336" width="128" height="30" fill="#FFFFFF" stroke="none" stroke-width="0" opacity="1"/>
		<rect x="374" y="366" width="128" height="148" fill="#FFFFFF" stroke="none" stroke-width="0" opacity="1"/>
		<rect x="374" y="336" width="128" height="178" fill="none" stroke="#000000" stroke-width="1.5" opacity="1"/>
		<line x1="374" y1="366" x2="502" y2="366" stroke="#000000" stroke-width="1.5"/>
	</g>
	<text x="404" y="357.3" fill="#000000" font-family="Copperplate" font-size="18">Bourse</text>
	<text x="382" y="383" fill="#000000" font-family="Gill Sans" font-size="15">Identifiant Bourse</text>
	<line x1="382" y1="386" x2="493" y2="386" stroke="#000000" stroke-width="1"/>
	<text x="382" y="400.1" fill="#000000" font-family="Gill Sans" font-size="15">Nom</text>
	<text x="382" y="417.1" fill="#000000" font-family="Gill Sans" font-size="15">Pays</text>
	<text x="382" y="434.1" fill="#000000" font-family="Gill Sans" font-size="15">Ville</text>
	<text x="382" y="451.1" fill="#000000" font-family="Gill Sans" font-size="15">Fuseau horaire</text>
	<text x="382" y="468" fill="#000000" font-family="Gill Sans" font-size="15">Heure ouveture</text>
	<text x="382" y="485" fill="#000000" font-family="Gill Sans" font-size="15">Heure fermeture</text>
</g>
</svg>