<?xml version="1.0" encoding="utf-8"?>
<!-- Generated by Mocodo 4.3.2 -->
<svg width="436" height="314" viewBox="0 0 436 314" xmlns="http://www.w3.org/2000/svg">
<rect x="0" y="0" width="436" height="314" fill="#FFFFFF" stroke="none" stroke-width="0"/>

<!-- Association EMET -->
<g>
	<line x1="211" y1="56" x2="356" y2="56" stroke="#000000" stroke-width="1"/>
	<line x1="356" y1="216" x2="356" y2="56" stroke="#000000" stroke-width="1"/>
	<g>
		<path d="M371 27 a14 14 90 0 1 14 14 V55 h-58 V41 a14 14 90 0 1 14 -14" fill="#FFFFFF" stroke="#FFFFFF" stroke-width="0"/>
		<path d="M385 55 v16 a14 14 90 0 1 -14 14 H341 a14 14 90 0 1 -14 -14 V55 H58" fill="#FFFFFF" stroke="#FFFFFF" stroke-width="0"/>
		<rect x="327" y="27" width="58" height="58" fill="none" rx="14" stroke="#000000" stroke-width="1.5"/>
		<line x1="327" y1="55" x2="385" y2="55" stroke="#000000" stroke-width="1.5"/>
		<text x="335" y="48.3" fill="#000000" font-family="Copperplate" font-size="18">émet</text>
	</g>
	<text x="290" y="72" fill="#000000" font-family="Futura" font-size="11">1,1</text>
	<text x="361" y="144" fill="#000000" font-family="Futura" font-size="11">0,N</text>
</g>

<!-- Association ECHANGE -->
<g>
	<line x1="73" y1="216" x2="211" y2="216" stroke="#000000" stroke-width="1"/>
	<line x1="211" y1="56" x2="211" y2="216" stroke="#000000" stroke-width="1"/>
	<g>
		<path d="M242 187 a14 14 90 0 1 14 14 V215 h-90 V201 a14 14 90 0 1 14 -14" fill="#FFFFFF" stroke="#FFFFFF" stroke-width="0"/>
		<path d="M256 215 v16 a14 14 90 0 1 -14 14 H180 a14 14 90 0 1 -14 -14 V215 H90" fill="#FFFFFF" stroke="#FFFFFF" stroke-width="0"/>
		<rect x="166" y="187" width="90" height="58" fill="none" rx="14" stroke="#000000" stroke-width="1.5"/>
		<line x1="166" y1="215" x2="256" y2="215" stroke="#000000" stroke-width="1.5"/>
		<text x="173" y="208.3" fill="#000000" font-family="Copperplate" font-size="18">échange</text>
	</g>
	<text x="142" y="232" fill="#000000" font-family="Futura" font-size="11">0,N</text>
	<text x="216" y="119" fill="#000000" font-family="Futura" font-size="11">1,1</text>
</g>

<!-- Entity ACTION -->
<g>
	<g>
		<rect x="137" y="9" width="148" height="30" fill="#FFFFFF" stroke="none" stroke-width="0" opacity="1"/>
		<rect x="137" y="39" width="148" height="64" fill="#FFFFFF" stroke="none" stroke-width="0" opacity="1"/>
		<rect x="137" y="9" width="148" height="94" fill="none" stroke="#000000" stroke-width="1.5" opacity="1"/>
		<line x1="137" y1="39" x2="285" y2="39" stroke="#000000" stroke-width="1.5"/>
	</g>
	<text x="181" y="30.3" fill="#000000" font-family="Copperplate" font-size="18">Action</text>
	<text x="145" y="56.1" fill="#000000" font-family="Gill Sans" font-size="15">ISIN</text>
	<line x1="145" y1="59" x2="173" y2="59" stroke="#000000" stroke-width="1"/>
	<text x="145" y="73.1" fill="#000000" font-family="Gill Sans" font-size="15">Identifiant Bourse</text>
	<line x1="145" y1="76" x2="256" y2="76" stroke="#000000" stroke-width="1"/>
	<text x="145" y="90" fill="#000000" font-family="Gill Sans" font-size="15">Identifiant Entreprise</text>
	<line x1="145" y1="93" x2="276" y2="93" stroke="#000000" stroke-width="1"/>
</g>

<!-- Entity BOURSE -->
<g>
	<g>
		<rect x="9" y="127" width="128" height="30" fill="#FFFFFF" stroke="none" stroke-width="0" opacity="1"/>
		<rect x="9" y="157" width="128" height="148" fill="#FFFFFF" stroke="none" stroke-width="0" opacity="1"/>
		<rect x="9" y="127" width="128" height="178" fill="none" stroke="#000000" stroke-width="1.5" opacity="1"/>
		<line x1="9" y1="157" x2="137" y2="157" stroke="#000000" stroke-width="1.5"/>
	</g>
	<text x="39" y="148.3" fill="#000000" font-family="Copperplate" font-size="18">Bourse</text>
	<text x="17" y="174" fill="#000000" font-family="Gill Sans" font-size="15">Identifiant Bourse</text>
	<line x1="17" y1="177" x2="128" y2="177" stroke="#000000" stroke-width="1"/>
	<text x="17" y="191.1" fill="#000000" font-family="Gill Sans" font-size="15">Nom</text>
	<text x="17" y="208.1" fill="#000000" font-family="Gill Sans" font-size="15">Pays</text>
	<text x="17" y="225.1" fill="#000000" font-family="Gill Sans" font-size="15">Ville</text>
	<text x="17" y="242.1" fill="#000000" font-family="Gill Sans" font-size="15">Fuseau Horaire</text>
	<text x="17" y="259" fill="#000000" font-family="Gill Sans" font-size="15">Heure ouveture</text>
	<text x="17" y="276" fill="#000000" font-family="Gill Sans" font-size="15">Heure fermeture</text>
</g>

<!-- Entity ENTREPRISE -->
<g>
	<g>
		<rect x="285" y="152" width="142" height="30" fill="#FFFFFF" stroke="none" stroke-width="0" opacity="1"/>
		<rect x="285" y="182" width="142" height="98" fill="#FFFFFF" stroke="none" stroke-width="0" opacity="1"/>
		<rect x="285" y="152" width="142" height="128" fill="none" stroke="#000000" stroke-width="1.5" opacity="1"/>
		<line x1="285" y1="182" x2="427" y2="182" stroke="#000000" stroke-width="1.5"/>
	</g>
	<text x="305" y="173.3" fill="#000000" font-family="Copperplate" font-size="18">Entreprise</text>
	<text x="293" y="199.1" fill="#000000" font-family="Gill Sans" font-size="15">Pays</text>
	<line x1="293" y1="202" x2="321" y2="202" stroke="#000000" stroke-width="1"/>
	<text x="293" y="216.1" fill="#000000" font-family="Gill Sans" font-size="15">Numero_entreprise</text>
	<line x1="293" y1="219" x2="419" y2="219" stroke="#000000" stroke-width="1"/>
	<text x="293" y="233.1" fill="#000000" font-family="Gill Sans" font-size="15">Nom</text>
	<text x="293" y="250" fill="#000000" font-family="Gill Sans" font-size="15">Secteur d’activité</text>
	<text x="293" y="267" fill="#000000" font-family="Gill Sans" font-size="15">Emplacement</text>
</g>
</svg>