<?xml version="1.0" encoding="utf-8"?>
<!-- Generated by Mocodo 4.3.2 -->
<svg width="570" height="124" viewBox="0 0 570 124" xmlns="http://www.w3.org/2000/svg">
<rect x="0" y="0" width="570" height="124" fill="#fefeec" stroke="none" stroke-width="0"/>

<!-- Association EST_MEMBRE_DE -->
<g>
	<line x1="106" y1="62" x2="291" y2="62" stroke="#060100" stroke-width="1"/>
	<line x1="470" y1="62" x2="291" y2="62" stroke="#060100" stroke-width="1"/>
	<g>
		<path d="M333 36 a14 14 90 0 1 14 14 V62 h-112 V50 a14 14 90 0 1 14 -14" fill="#081a84" stroke="#081a84" stroke-width="0"/>
		<path d="M347 62 v12 a14 14 90 0 1 -14 14 H249 a14 14 90 0 1 -14 -14 V62 H112" fill="#fefeec" stroke="#fefeec" stroke-width="0"/>
		<rect x="235" y="36" width="112" height="52" fill="none" rx="14" stroke="#060100" stroke-width="1.5"/>
		<line x1="235" y1="62" x2="347" y2="62" stroke="#060100" stroke-width="1"/>
		<text x="242" y="54.6" fill="#fefeec" font-family="Trebuchet MS" font-size="14">est membre de</text>
		<text x="242" y="80.6" fill="#060100" font-family="Trebuchet MS" font-size="14">Niveau Accès</text>
	</g>
	<text x="208" y="79" fill="#060100" font-family="Verdana" font-size="12">0,N</text>
	<text x="352" y="79" fill="#060100" font-family="Verdana" font-size="12">1,N</text>
</g>

<!-- Entity UTILISATEUR -->
<g>
	<g>
		<rect x="9" y="9" width="194" height="26" fill="#c6281b" stroke="none" stroke-width="0" opacity="1"/>
		<rect x="9" y="35" width="194" height="80" fill="#fced5f" stroke="none" stroke-width="0" opacity="1"/>
		<rect x="9" y="9" width="194" height="106" fill="none" stroke="#060100" stroke-width="1.5" opacity="1"/>
		<line x1="9" y1="35" x2="203" y2="35" stroke="#060100" stroke-width="1"/>
	</g>
	<text x="72" y="27.6" fill="#fefeec" font-family="Trebuchet MS" font-size="14">Utilisateur</text>
	<text x="14" y="53.6" fill="#060100" font-family="Trebuchet MS" font-size="14">Adresse Mail</text>
	<line x1="14" y1="56" x2="95" y2="56" stroke="#060100" stroke-width="1"/>
	<text x="14" y="71.6" fill="#060100" font-family="Trebuchet MS" font-size="14">Nom</text>
	<text x="14" y="89.6" fill="#060100" font-family="Trebuchet MS" font-size="14">Mot De Passe</text>
	<text x="14" y="107.6" fill="#060100" font-family="Trebuchet MS" font-size="14">Date De Création Utilisateur</text>
</g>

<!-- Entity PORTFOLIO -->
<g>
	<g>
		<rect x="379" y="9" width="182" height="26" fill="#c6281b" stroke="none" stroke-width="0" opacity="1"/>
		<rect x="379" y="35" width="182" height="80" fill="#fced5f" stroke="none" stroke-width="0" opacity="1"/>
		<rect x="379" y="9" width="182" height="106" fill="none" stroke="#060100" stroke-width="1.5" opacity="1"/>
		<line x1="379" y1="35" x2="561" y2="35" stroke="#060100" stroke-width="1"/>
	</g>
	<text x="442" y="27.6" fill="#fefeec" font-family="Trebuchet MS" font-size="14">Portfolio</text>
	<text x="384" y="53.6" fill="#060100" font-family="Trebuchet MS" font-size="14">Identifiant Portfolio</text>
	<line x1="384" y1="56" x2="513" y2="56" stroke="#060100" stroke-width="1"/>
	<text x="384" y="71.6" fill="#060100" font-family="Trebuchet MS" font-size="14">Nom Portfolio</text>
	<text x="384" y="89.6" fill="#060100" font-family="Trebuchet MS" font-size="14">Description</text>
	<text x="384" y="107.6" fill="#060100" font-family="Trebuchet MS" font-size="14">Date De Création Portfolio</text>
</g>
</svg>