<?xml version="1.0" encoding="utf-8"?>
<!-- Generated by Mocodo 4.3.2 -->
<svg width="418" height="124" viewBox="0 0 418 124" xmlns="http://www.w3.org/2000/svg">
<rect x="0" y="0" width="418" height="124" fill="#fefeec" stroke="none" stroke-width="0"/>

<!-- Association A_ACCES_A -->
<g>
	<line x1="57" y1="62" x2="187" y2="62" stroke="#060100" stroke-width="1"/>
	<line x1="339" y1="62" x2="187" y2="62" stroke="#060100" stroke-width="1"/>
	<g>
		<path d="M223 36 a14 14 90 0 1 14 14 V62 h-100 V50 a14 14 90 0 1 14 -14" fill="#081a84" stroke="#081a84" stroke-width="0"/>
		<path d="M237 62 v12 a14 14 90 0 1 -14 14 H151 a14 14 90 0 1 -14 -14 V62 H100" fill="#fefeec" stroke="#fefeec" stroke-width="0"/>
		<rect x="137" y="36" width="100" height="52" fill="none" rx="14" stroke="#060100" stroke-width="1.5"/>
		<line x1="137" y1="62" x2="237" y2="62" stroke="#060100" stroke-width="1"/>
		<text x="157" y="54.6" fill="#fefeec" font-family="Trebuchet MS" font-size="14">a accès à</text>
		<text x="144" y="80.6" fill="#060100" font-family="Trebuchet MS" font-size="14">Niveau Accès</text>
	</g>
	<text x="110" y="79" fill="#060100" font-family="Verdana" font-size="12">0,N</text>
	<text x="242" y="79" fill="#060100" font-family="Verdana" font-size="12">1,N</text>
</g>

<!-- Entity UTILISATEUR -->
<g>
	<g>
		<rect x="9" y="18" width="96" height="26" fill="#c6281b" stroke="none" stroke-width="0" opacity="1"/>
		<rect x="9" y="44" width="96" height="62" fill="#fced5f" stroke="none" stroke-width="0" opacity="1"/>
		<rect x="9" y="18" width="96" height="88" fill="none" stroke="#060100" stroke-width="1.5" opacity="1"/>
		<line x1="9" y1="44" x2="105" y2="44" stroke="#060100" stroke-width="1"/>
	</g>
	<text x="23" y="36.6" fill="#fefeec" font-family="Trebuchet MS" font-size="14">Utilisateur</text>
	<text x="14" y="62.6" fill="#060100" font-family="Trebuchet MS" font-size="14">Adresse Mail</text>
	<line x1="14" y1="65" x2="95" y2="65" stroke="#060100" stroke-width="1"/>
	<text x="14" y="80.6" fill="#060100" font-family="Trebuchet MS" font-size="14">Nom</text>
	<text x="14" y="98.6" fill="#060100" font-family="Trebuchet MS" font-size="14">Mot De Passe</text>
</g>

<!-- Entity PORTFOLIO -->
<g>
	<g>
		<rect x="269" y="9" width="140" height="26" fill="#c6281b" stroke="none" stroke-width="0" opacity="1"/>
		<rect x="269" y="35" width="140" height="80" fill="#fced5f" stroke="none" stroke-width="0" opacity="1"/>
		<rect x="269" y="9" width="140" height="106" fill="none" stroke="#060100" stroke-width="1.5" opacity="1"/>
		<line x1="269" y1="35" x2="409" y2="35" stroke="#060100" stroke-width="1"/>
	</g>
	<text x="311" y="27.6" fill="#fefeec" font-family="Trebuchet MS" font-size="14">Portfolio</text>
	<text x="274" y="53.6" fill="#060100" font-family="Trebuchet MS" font-size="14">Identifiant Portfolio</text>
	<line x1="274" y1="56" x2="403" y2="56" stroke="#060100" stroke-width="1"/>
	<text x="274" y="71.6" fill="#060100" font-family="Trebuchet MS" font-size="14">Nom Portfolio</text>
	<text x="274" y="89.6" fill="#060100" font-family="Trebuchet MS" font-size="14">Date De Création</text>
	<text x="274" y="107.6" fill="#060100" font-family="Trebuchet MS" font-size="14">Créateur</text>
</g>
</svg>