<?xml version="1.0" encoding="utf-8"?>
<!-- Generated by Mocodo 4.3.2 -->
<svg width="1324" height="679" viewBox="0 0 1324 679" xmlns="http://www.w3.org/2000/svg">
<rect x="0" y="0" width="1324" height="679" fill="#f7f7f7" stroke="none" stroke-width="0"/>

<!-- Association EST_SITUEE -->
<g>
	<line x1="75" y1="220" x2="75" y2="89" stroke="#e08214" stroke-width="1"/>
	<line x1="294" y1="89" x2="75" y2="89" stroke="#e08214" stroke-width="1"/>
	<g>
		<path d="M100 63 a14 14 90 0 1 14 14 V89 h-78 V77 a14 14 90 0 1 14 -14" fill="#fdb863" stroke="#fdb863" stroke-width="0"/>
		<path d="M114 89 v12 a14 14 90 0 1 -14 14 H50 a14 14 90 0 1 -14 -14 V89 H78" fill="#fee0b6" stroke="#fee0b6" stroke-width="0"/>
		<rect x="36" y="63" width="78" height="52" fill="none" rx="14" stroke="#e08214" stroke-width="1.5"/>
		<line x1="36" y1="89" x2="114" y2="89" stroke="#e08214" stroke-width="1"/>
		<text x="43" y="81.6" fill="#000000" font-family="Trebuchet MS" font-size="14">Est située</text>
	</g>
	<text x="80" y="168" fill="#542788" font-family="Verdana" font-size="12">1,1</text>
	<text x="211" y="106" fill="#542788" font-family="Verdana" font-size="12">0,N</text>
</g>

<!-- Association EST_SITUEE1 -->
<g>
	<line x1="739" y1="89" x2="524" y2="89" stroke="#e08214" stroke-width="1"/>
	<line x1="294" y1="89" x2="524" y2="89" stroke="#e08214" stroke-width="1"/>
	<g>
		<path d="M549 63 a14 14 90 0 1 14 14 V89 h-78 V77 a14 14 90 0 1 14 -14" fill="#fdb863" stroke="#fdb863" stroke-width="0"/>
		<path d="M563 89 v12 a14 14 90 0 1 -14 14 H499 a14 14 90 0 1 -14 -14 V89 H78" fill="#fee0b6" stroke="#fee0b6" stroke-width="0"/>
		<rect x="485" y="63" width="78" height="52" fill="none" rx="14" stroke="#e08214" stroke-width="1.5"/>
		<line x1="485" y1="89" x2="563" y2="89" stroke="#e08214" stroke-width="1"/>
		<text x="492" y="81.6" fill="#000000" font-family="Trebuchet MS" font-size="14">Est située</text>
	</g>
	<text x="650" y="81" fill="#542788" font-family="Verdana" font-size="12">1,1</text>
	<text x="355" y="106" fill="#542788" font-family="Verdana" font-size="12">0,N</text>
</g>

<!-- Association EMET1 -->
<g>
	<line x1="294" y1="89" x2="294" y2="220" stroke="#e08214" stroke-width="1"/>
	<line x1="294" y1="396" x2="294" y2="220" stroke="#e08214" stroke-width="1"/>
	<g>
		<path d="M304 194 a14 14 90 0 1 14 14 V220 h-48 V208 a14 14 90 0 1 14 -14" fill="#fdb863" stroke="#fdb863" stroke-width="0"/>
		<path d="M318 220 v12 a14 14 90 0 1 -14 14 H284 a14 14 90 0 1 -14 -14 V220 H48" fill="#fee0b6" stroke="#fee0b6" stroke-width="0"/>
		<rect x="270" y="194" width="48" height="52" fill="none" rx="14" stroke="#e08214" stroke-width="1.5"/>
		<line x1="270" y1="220" x2="318" y2="220" stroke="#e08214" stroke-width="1"/>
		<text x="277" y="212.6" fill="#000000" font-family="Trebuchet MS" font-size="14">émet</text>
	</g>
	<text x="299" y="141" fill="#542788" font-family="Verdana" font-size="12">0,N</text>
	<text x="268" y="299" fill="#542788" font-family="Verdana" font-size="12">0,1</text>
</g>

<!-- Association ECHANGE -->
<g>
	<line x1="294" y1="396" x2="524" y2="220" stroke="#e08214" stroke-width="1"/>
	<line x1="739" y1="89" x2="524" y2="220" stroke="#e08214" stroke-width="1"/>
	<g>
		<path d="M544 194 a14 14 90 0 1 14 14 V220 h-68 V208 a14 14 90 0 1 14 -14" fill="#fdb863" stroke="#fdb863" stroke-width="0"/>
		<path d="M558 220 v12 a14 14 90 0 1 -14 14 H504 a14 14 90 0 1 -14 -14 V220 H68" fill="#fee0b6" stroke="#fee0b6" stroke-width="0"/>
		<rect x="490" y="194" width="68" height="52" fill="none" rx="14" stroke="#e08214" stroke-width="1.5"/>
		<line x1="490" y1="220" x2="558" y2="220" stroke="#e08214" stroke-width="1"/>
		<text x="497" y="212.6" fill="#000000" font-family="Trebuchet MS" font-size="14">échange</text>
	</g>
	<text x="390.06" y="299" fill="#542788" font-family="Verdana" font-size="12">0,1</text>
	<text x="649" y="124.1" fill="#542788" font-family="Verdana" font-size="12">0,N</text>
</g>

<!-- Association ENCODE -->
<g>
	<line x1="1010" y1="220" x2="739" y2="220" stroke="#e08214" stroke-width="1"/>
	<line x1="739" y1="396" x2="739" y2="220" stroke="#e08214" stroke-width="1"/>
	<g>
		<path d="M756 194 a14 14 90 0 1 14 14 V220 h-62 V208 a14 14 90 0 1 14 -14" fill="#fdb863" stroke="#fdb863" stroke-width="0"/>
		<path d="M770 220 v12 a14 14 90 0 1 -14 14 H722 a14 14 90 0 1 -14 -14 V220 H62" fill="#fee0b6" stroke="#fee0b6" stroke-width="0"/>
		<rect x="708" y="194" width="62" height="52" fill="none" rx="14" stroke="#e08214" stroke-width="1.5"/>
		<line x1="708" y1="220" x2="770" y2="220" stroke="#e08214" stroke-width="1"/>
		<text x="716" y="212.6" fill="#000000" font-family="Trebuchet MS" font-size="14">encode</text>
	</g>
	<text x="886" y="237" fill="#542788" font-family="Verdana" font-size="12">0,N</text>
	<text x="744" y="290" fill="#542788" font-family="Verdana" font-size="12">1,1</text>
</g>

<!-- Association EST_MEMBRE_DE -->
<g>
	<line x1="1010" y1="220" x2="1224" y2="220" stroke="#e08214" stroke-width="1"/>
	<line x1="1224" y1="396" x2="1224" y2="220" stroke="#e08214" stroke-width="1"/>
	<g>
		<path d="M1266 194 a14 14 90 0 1 14 14 V220 h-112 V208 a14 14 90 0 1 14 -14" fill="#fdb863" stroke="#fdb863" stroke-width="0"/>
		<path d="M1280 220 v12 a14 14 90 0 1 -14 14 H1182 a14 14 90 0 1 -14 -14 V220 H112" fill="#fee0b6" stroke="#fee0b6" stroke-width="0"/>
		<rect x="1168" y="194" width="112" height="52" fill="none" rx="14" stroke="#e08214" stroke-width="1.5"/>
		<line x1="1168" y1="220" x2="1280" y2="220" stroke="#e08214" stroke-width="1"/>
		<text x="1175" y="212.6" fill="#000000" font-family="Trebuchet MS" font-size="14">est membre de</text>
		<text x="1175" y="238.6" fill="#000000" font-family="Trebuchet MS" font-size="14">Niveau Accès</text>
	</g>
	<text x="1112" y="237" fill="#542788" font-family="Verdana" font-size="12">0,N</text>
	<text x="1229" y="335" fill="#542788" font-family="Verdana" font-size="12">1,N</text>
</g>

<!-- Association EMET -->
<g>
	<line x1="294" y1="396" x2="75" y2="396" stroke="#e08214" stroke-width="1"/>
	<line x1="75" y1="220" x2="75" y2="396" stroke="#e08214" stroke-width="1"/>
	<g>
		<path d="M85 370 a14 14 90 0 1 14 14 V396 h-48 V384 a14 14 90 0 1 14 -14" fill="#fdb863" stroke="#fdb863" stroke-width="0"/>
		<path d="M99 396 v12 a14 14 90 0 1 -14 14 H65 a14 14 90 0 1 -14 -14 V396 H48" fill="#fee0b6" stroke="#fee0b6" stroke-width="0"/>
		<rect x="51" y="370" width="48" height="52" fill="none" rx="14" stroke="#e08214" stroke-width="1.5"/>
		<line x1="51" y1="396" x2="99" y2="396" stroke="#e08214" stroke-width="1"/>
		<text x="58" y="388.6" fill="#000000" font-family="Trebuchet MS" font-size="14">émet</text>
	</g>
	<text x="105" y="413" fill="#542788" font-family="Verdana" font-size="12">0,1</text>
	<text x="80" y="281" fill="#542788" font-family="Verdana" font-size="12">0,N</text>
</g>

<!-- Association CONTIENT -->
<g>
	<line x1="739" y1="396" x2="524" y2="396" stroke="#e08214" stroke-width="1"/>
	<line x1="294" y1="396" x2="524" y2="396" stroke="#e08214" stroke-width="1"/>
	<g>
		<path d="M545 370 a14 14 90 0 1 14 14 V396 h-70 V384 a14 14 90 0 1 14 -14" fill="#fdb863" stroke="#fdb863" stroke-width="0"/>
		<path d="M559 396 v12 a14 14 90 0 1 -14 14 H503 a14 14 90 0 1 -14 -14 V396 H70" fill="#fee0b6" stroke="#fee0b6" stroke-width="0"/>
		<rect x="489" y="370" width="70" height="52" fill="none" rx="14" stroke="#e08214" stroke-width="1.5"/>
		<line x1="489" y1="396" x2="559" y2="396" stroke="#e08214" stroke-width="1"/>
		<text x="497" y="388.6" fill="#000000" font-family="Trebuchet MS" font-size="14">contient</text>
	</g>
	<text x="565" y="413" fill="#542788" font-family="Verdana" font-size="12">1,1</text>
	<text x="462" y="413" fill="#542788" font-family="Verdana" font-size="12">0,N</text>
</g>

<!-- Association HISTORIQUE_DE_TRANSACTIONS -->
<g>
	<line x1="1224" y1="396" x2="1010" y2="396" stroke="#e08214" stroke-width="1"/>
	<line x1="739" y1="396" x2="1010" y2="396" stroke="#e08214" stroke-width="1"/>
	<g>
		<path d="M1087 370 a14 14 90 0 1 14 14 V396 h-182 V384 a14 14 90 0 1 14 -14" fill="#fdb863" stroke="#fdb863" stroke-width="0"/>
		<path d="M1101 396 v12 a14 14 90 0 1 -14 14 H933 a14 14 90 0 1 -14 -14 V396 H182" fill="#fee0b6" stroke="#fee0b6" stroke-width="0"/>
		<rect x="919" y="370" width="182" height="52" fill="none" rx="14" stroke="#e08214" stroke-width="1.5"/>
		<line x1="919" y1="396" x2="1101" y2="396" stroke="#e08214" stroke-width="1"/>
		<text x="926" y="388.6" fill="#000000" font-family="Trebuchet MS" font-size="14">historique de transactions</text>
	</g>
	<text x="1106" y="388" fill="#542788" font-family="Verdana" font-size="12">0,N</text>
	<text x="892" y="413" fill="#542788" font-family="Verdana" font-size="12">1,1</text>
</g>

<!-- Association CONCERNE -->
<g>
	<line x1="294" y1="396" x2="294" y2="590" stroke="#e08214" stroke-width="1"/>
	<line x1="75" y1="590" x2="294" y2="590" stroke="#e08214" stroke-width="1"/>
	<g>
		<path d="M317 564 a14 14 90 0 1 14 14 V590 h-74 V578 a14 14 90 0 1 14 -14" fill="#fdb863" stroke="#fdb863" stroke-width="0"/>
		<path d="M331 590 v12 a14 14 90 0 1 -14 14 H271 a14 14 90 0 1 -14 -14 V590 H74" fill="#fee0b6" stroke="#fee0b6" stroke-width="0"/>
		<rect x="257" y="564" width="74" height="52" fill="none" rx="14" stroke="#e08214" stroke-width="1.5"/>
		<line x1="257" y1="590" x2="331" y2="590" stroke="#e08214" stroke-width="1"/>
		<text x="264" y="582.6" fill="#000000" font-family="Trebuchet MS" font-size="14">concerne</text>
	</g>
	<text x="267" y="502" fill="#542788" font-family="Verdana" font-size="12">0,N</text>
	<text x="143" y="607" fill="#542788" font-family="Verdana" font-size="12">1,1</text>
</g>

<!-- Association DEVISE2 -->
<g>
	<line x1="739" y1="590" x2="524" y2="590" stroke="#e08214" stroke-width="1"/>
	<line x1="294" y1="396" x2="524" y2="590" stroke="#e08214" stroke-width="1"/>
	<g>
		<path d="M538 564 a14 14 90 0 1 14 14 V590 h-56 V578 a14 14 90 0 1 14 -14" fill="#fdb863" stroke="#fdb863" stroke-width="0"/>
		<path d="M552 590 v12 a14 14 90 0 1 -14 14 H510 a14 14 90 0 1 -14 -14 V590 H56" fill="#fee0b6" stroke="#fee0b6" stroke-width="0"/>
		<rect x="496" y="564" width="56" height="52" fill="none" rx="14" stroke="#e08214" stroke-width="1.5"/>
		<line x1="496" y1="590" x2="552" y2="590" stroke="#e08214" stroke-width="1"/>
		<text x="503" y="582.6" fill="#000000" font-family="Trebuchet MS" font-size="14">devise</text>
	</g>
	<text x="663" y="607" fill="#542788" font-family="Verdana" font-size="12">0,N</text>
	<text x="379.74" y="502" fill="#542788" font-family="Verdana" font-size="12">1,1</text>
</g>

<!-- Association DEVISE1 -->
<g>
	<line x1="739" y1="590" x2="1010" y2="590" stroke="#e08214" stroke-width="1"/>
	<line x1="1224" y1="396" x2="1010" y2="590" stroke="#e08214" stroke-width="1"/>
	<g>
		<path d="M1024 564 a14 14 90 0 1 14 14 V590 h-56 V578 a14 14 90 0 1 14 -14" fill="#fdb863" stroke="#fdb863" stroke-width="0"/>
		<path d="M1038 590 v12 a14 14 90 0 1 -14 14 H996 a14 14 90 0 1 -14 -14 V590 H56" fill="#fee0b6" stroke="#fee0b6" stroke-width="0"/>
		<rect x="982" y="564" width="56" height="52" fill="none" rx="14" stroke="#e08214" stroke-width="1.5"/>
		<line x1="982" y1="590" x2="1038" y2="590" stroke="#e08214" stroke-width="1"/>
		<text x="989" y="582.6" fill="#000000" font-family="Trebuchet MS" font-size="14">devise</text>
	</g>
	<text x="793" y="607" fill="#542788" font-family="Verdana" font-size="12">0,N</text>
	<text x="1163.95" y="466" fill="#542788" font-family="Verdana" font-size="12">1,1</text>
</g>

<!-- Entity PAYS -->
<g>
	<g>
		<rect x="238" y="54" width="112" height="26" fill="#b2abd2" stroke="none" stroke-width="0" opacity="1"/>
		<rect x="238" y="80" width="112" height="44" fill="#d8daeb" stroke="none" stroke-width="0" opacity="1"/>
		<rect x="238" y="54" width="112" height="70" fill="none" stroke="#8073ac" stroke-width="1.5" opacity="1"/>
		<line x1="238" y1="80" x2="350" y2="80" stroke="#8073ac" stroke-width="1"/>
	</g>
	<text x="280" y="72.6" fill="#000000" font-family="Trebuchet MS" font-size="14">Pays</text>
	<text x="243" y="98.6" fill="#000000" font-family="Trebuchet MS" font-size="14">Code ISO3166&#45;1</text>
	<line x1="243" y1="101" x2="344" y2="101" stroke="#000000" stroke-width="1"/>
	<text x="243" y="116.6" fill="#000000" font-family="Trebuchet MS" font-size="14">Nom</text>
</g>

<!-- Entity BOURSE -->
<g>
	<g>
		<rect x="676" y="9" width="126" height="26" fill="#b2abd2" stroke="none" stroke-width="0" opacity="1"/>
		<rect x="676" y="35" width="126" height="134" fill="#d8daeb" stroke="none" stroke-width="0" opacity="1"/>
		<rect x="676" y="9" width="126" height="160" fill="none" stroke="#8073ac" stroke-width="1.5" opacity="1"/>
		<line x1="676" y1="35" x2="802" y2="35" stroke="#8073ac" stroke-width="1"/>
	</g>
	<text x="717" y="27.6" fill="#000000" font-family="Trebuchet MS" font-size="14">Bourse</text>
	<text x="681" y="53.6" fill="#000000" font-family="Trebuchet MS" font-size="14">Identifiant Bourse</text>
	<line x1="681" y1="56" x2="797" y2="56" stroke="#000000" stroke-width="1"/>
	<text x="681" y="71.6" fill="#000000" font-family="Trebuchet MS" font-size="14">Nom</text>
	<text x="681" y="89.6" fill="#000000" font-family="Trebuchet MS" font-size="14">Ville</text>
	<text x="681" y="107.6" fill="#000000" font-family="Trebuchet MS" font-size="14">Fuseau Horaire</text>
	<text x="681" y="125.6" fill="#000000" font-family="Trebuchet MS" font-size="14">Heure Ouveture</text>
	<text x="681" y="143.6" fill="#000000" font-family="Trebuchet MS" font-size="14">Heure Fermeture</text>
</g>

<!-- Entity ENTREPRISE -->
<g>
	<g>
		<rect x="9" y="176" width="132" height="26" fill="#b2abd2" stroke="none" stroke-width="0" opacity="1"/>
		<rect x="9" y="202" width="132" height="62" fill="#d8daeb" stroke="none" stroke-width="0" opacity="1"/>
		<rect x="9" y="176" width="132" height="88" fill="none" stroke="#8073ac" stroke-width="1.5" opacity="1"/>
		<line x1="9" y1="202" x2="141" y2="202" stroke="#8073ac" stroke-width="1"/>
	</g>
	<text x="42" y="194.6" fill="#000000" font-family="Trebuchet MS" font-size="14">Entreprise</text>
	<text x="14" y="220.6" fill="#000000" font-family="Trebuchet MS" font-size="14">Numero entreprise</text>
	<line x1="14" y1="223" x2="136" y2="223" stroke="#000000" stroke-width="1"/>
	<text x="14" y="238.6" fill="#000000" font-family="Trebuchet MS" font-size="14">Nom</text>
	<text x="14" y="256.6" fill="#000000" font-family="Trebuchet MS" font-size="14">Secteur d’activité</text>
</g>

<!-- Entity UTILISATEUR -->
<g>
	<g>
		<rect x="913" y="167" width="194" height="26" fill="#b2abd2" stroke="none" stroke-width="0" opacity="1"/>
		<rect x="913" y="193" width="194" height="80" fill="#d8daeb" stroke="none" stroke-width="0" opacity="1"/>
		<rect x="913" y="167" width="194" height="106" fill="none" stroke="#8073ac" stroke-width="1.5" opacity="1"/>
		<line x1="913" y1="193" x2="1107" y2="193" stroke="#8073ac" stroke-width="1"/>
	</g>
	<text x="976" y="185.6" fill="#000000" font-family="Trebuchet MS" font-size="14">Utilisateur</text>
	<text x="918" y="211.6" fill="#000000" font-family="Trebuchet MS" font-size="14">Adresse Mail</text>
	<line x1="918" y1="214" x2="999" y2="214" stroke="#000000" stroke-width="1"/>
	<text x="918" y="229.6" fill="#000000" font-family="Trebuchet MS" font-size="14">Nom</text>
	<text x="918" y="247.6" fill="#000000" font-family="Trebuchet MS" font-size="14">Mot De Passe</text>
	<text x="918" y="265.6" fill="#000000" font-family="Trebuchet MS" font-size="14">Date De Création Utilisateur</text>
</g>

<!-- Entity INSTRUMENT_FINANCIER -->
<g>
	<g>
		<rect x="131" y="307" width="326" height="26" fill="#b2abd2" stroke="none" stroke-width="0" opacity="1"/>
		<rect x="131" y="333" width="326" height="152" fill="#d8daeb" stroke="none" stroke-width="0" opacity="1"/>
		<rect x="131" y="307" width="326" height="178" fill="none" stroke="#8073ac" stroke-width="1.5" opacity="1"/>
		<line x1="131" y1="333" x2="457" y2="333" stroke="#8073ac" stroke-width="1"/>
	</g>
	<text x="227" y="325.6" fill="#000000" font-family="Trebuchet MS" font-size="14">Instrument Financier</text>
	<text x="136" y="351.6" fill="#000000" font-family="Trebuchet MS" font-size="14">ISIN</text>
	<line x1="136" y1="354" x2="161" y2="354" stroke="#000000" stroke-width="1"/>
	<text x="136" y="369.6" fill="#000000" font-family="Trebuchet MS" font-size="14">Nom</text>
	<text x="136" y="387.6" fill="#000000" font-family="Trebuchet MS" font-size="14">Type Instrument (Action/ETF/Obligation/Devise)</text>
	<text x="136" y="405.6" fill="#000000" font-family="Trebuchet MS" font-size="14">Symbole (Action/ETF)</text>
	<text x="136" y="423.6" fill="#000000" font-family="Trebuchet MS" font-size="14">Taux (Obligation)</text>
	<text x="136" y="441.6" fill="#000000" font-family="Trebuchet MS" font-size="14">Date Emission (Obligation)</text>
	<text x="136" y="459.6" fill="#000000" font-family="Trebuchet MS" font-size="14">Date Echeance (Obligation)</text>
	<text x="136" y="477.6" fill="#000000" font-family="Trebuchet MS" font-size="14">Couple Devise (Devise)</text>
</g>

<!-- Entity TRANSACTION -->
<g>
	<g>
		<rect x="591" y="298" width="296" height="26" fill="#b2abd2" stroke="none" stroke-width="0" opacity="1"/>
		<rect x="591" y="324" width="296" height="170" fill="#d8daeb" stroke="none" stroke-width="0" opacity="1"/>
		<rect x="591" y="298" width="296" height="196" fill="none" stroke="#8073ac" stroke-width="1.5" opacity="1"/>
		<line x1="591" y1="324" x2="887" y2="324" stroke="#8073ac" stroke-width="1"/>
	</g>
	<text x="701" y="316.6" fill="#000000" font-family="Trebuchet MS" font-size="14">Transaction</text>
	<text x="596" y="342.6" fill="#000000" font-family="Trebuchet MS" font-size="14">Identifiant Transaction</text>
	<line x1="596" y1="345" x2="745" y2="345" stroke="#000000" stroke-width="1"/>
	<text x="596" y="360.6" fill="#000000" font-family="Trebuchet MS" font-size="14">Type (Vente/Achat)</text>
	<text x="596" y="378.6" fill="#000000" font-family="Trebuchet MS" font-size="14">Date</text>
	<text x="596" y="396.6" fill="#000000" font-family="Trebuchet MS" font-size="14">Heure</text>
	<text x="596" y="414.6" fill="#000000" font-family="Trebuchet MS" font-size="14">Quantité</text>
	<text x="596" y="432.6" fill="#000000" font-family="Trebuchet MS" font-size="14">Prix dans la Devise du Portfolio</text>
	<text x="596" y="450.6" fill="#000000" font-family="Trebuchet MS" font-size="14">Prix dans la Devise de l’Instrument Financier</text>
	<text x="596" y="468.6" fill="#000000" font-family="Trebuchet MS" font-size="14">Frais</text>
	<text x="596" y="486.6" fill="#000000" font-family="Trebuchet MS" font-size="14">Taxes</text>
</g>

<!-- Entity PORTFOLIO -->
<g>
	<g>
		<rect x="1133" y="343" width="182" height="26" fill="#b2abd2" stroke="none" stroke-width="0" opacity="1"/>
		<rect x="1133" y="369" width="182" height="80" fill="#d8daeb" stroke="none" stroke-width="0" opacity="1"/>
		<rect x="1133" y="343" width="182" height="106" fill="none" stroke="#8073ac" stroke-width="1.5" opacity="1"/>
		<line x1="1133" y1="369" x2="1315" y2="369" stroke="#8073ac" stroke-width="1"/>
	</g>
	<text x="1196" y="361.6" fill="#000000" font-family="Trebuchet MS" font-size="14">Portfolio</text>
	<text x="1138" y="387.6" fill="#000000" font-family="Trebuchet MS" font-size="14">Identifiant Portfolio</text>
	<line x1="1138" y1="390" x2="1267" y2="390" stroke="#000000" stroke-width="1"/>
	<text x="1138" y="405.6" fill="#000000" font-family="Trebuchet MS" font-size="14">Nom</text>
	<text x="1138" y="423.6" fill="#000000" font-family="Trebuchet MS" font-size="14">Description</text>
	<text x="1138" y="441.6" fill="#000000" font-family="Trebuchet MS" font-size="14">Date De Création Portfolio</text>
</g>

<!-- Entity COURS -->
<g>
	<g>
		<rect x="12" y="510" width="126" height="26" fill="#b2abd2" stroke="none" stroke-width="0" opacity="1"/>
		<rect x="12" y="536" width="126" height="134" fill="#d8daeb" stroke="none" stroke-width="0" opacity="1"/>
		<rect x="12" y="510" width="126" height="160" fill="none" stroke="#8073ac" stroke-width="1.5" opacity="1"/>
		<line x1="12" y1="536" x2="138" y2="536" stroke="#8073ac" stroke-width="1"/>
	</g>
	<text x="57" y="528.6" fill="#000000" font-family="Trebuchet MS" font-size="14">Cours</text>
	<text x="17" y="554.6" fill="#000000" font-family="Trebuchet MS" font-size="14">Date</text>
	<line x1="17" y1="557" x2="48" y2="557" stroke="#000000" stroke-width="1"/>
	<text x="17" y="572.6" fill="#000000" font-family="Trebuchet MS" font-size="14">Heure</text>
	<line x1="17" y1="575" x2="57" y2="575" stroke="#000000" stroke-width="1"/>
	<text x="17" y="590.6" fill="#000000" font-family="Trebuchet MS" font-size="14">Valeur Ouverture</text>
	<text x="17" y="608.6" fill="#000000" font-family="Trebuchet MS" font-size="14">Valeur Fermeture</text>
	<text x="17" y="626.6" fill="#000000" font-family="Trebuchet MS" font-size="14">Valeur Maximale</text>
	<text x="17" y="644.6" fill="#000000" font-family="Trebuchet MS" font-size="14">Valeur Minimale</text>
	<text x="17" y="662.6" fill="#000000" font-family="Trebuchet MS" font-size="14">Volume</text>
</g>

<!-- Entity DEVISE -->
<g>
	<g>
		<rect x="690" y="546" width="98" height="26" fill="#b2abd2" stroke="none" stroke-width="0" opacity="1"/>
		<rect x="690" y="572" width="98" height="62" fill="#d8daeb" stroke="none" stroke-width="0" opacity="1"/>
		<rect x="690" y="546" width="98" height="88" fill="none" stroke="#8073ac" stroke-width="1.5" opacity="1"/>
		<line x1="690" y1="572" x2="788" y2="572" stroke="#8073ac" stroke-width="1"/>
	</g>
	<text x="718" y="564.6" fill="#000000" font-family="Trebuchet MS" font-size="14">Devise</text>
	<text x="695" y="590.6" fill="#000000" font-family="Trebuchet MS" font-size="14">Code ISO4217</text>
	<line x1="695" y1="593" x2="783" y2="593" stroke="#000000" stroke-width="1"/>
	<text x="695" y="608.6" fill="#000000" font-family="Trebuchet MS" font-size="14">Nom</text>
	<text x="695" y="626.6" fill="#000000" font-family="Trebuchet MS" font-size="14">Symbole</text>
</g>
</svg>