<?xml version="1.0" encoding="utf-8"?>
<!-- Generated by Mocodo 4.3.2 -->
<svg width="1248" height="688" viewBox="0 0 1248 688" xmlns="http://www.w3.org/2000/svg">
<rect x="0" y="0" width="1248" height="688" fill="#f7f7f7" stroke="none" stroke-width="0"/>

<!-- Association GENERE -->
<g>
	<line x1="238" y1="62" x2="79" y2="62" stroke="#e08214" stroke-width="1"/>
	<line x1="79" y1="193" x2="79" y2="62" stroke="#e08214" stroke-width="1"/>
	<g>
		<path d="M95 36 a14 14 90 0 1 14 14 V62 h-60 V50 a14 14 90 0 1 14 -14" fill="#fdb863" stroke="#fdb863" stroke-width="0"/>
		<path d="M109 62 v12 a14 14 90 0 1 -14 14 H63 a14 14 90 0 1 -14 -14 V62 H60" fill="#fee0b6" stroke="#fee0b6" stroke-width="0"/>
		<rect x="49" y="36" width="60" height="52" fill="none" rx="14" stroke="#e08214" stroke-width="1.5"/>
		<line x1="49" y1="62" x2="109" y2="62" stroke="#e08214" stroke-width="1"/>
		<text x="57" y="54.6" fill="#000000" font-family="Trebuchet MS" font-size="14">génère</text>
	</g>
	<text x="114" y="79" fill="#542788" font-family="Verdana" font-size="12">0,N</text>
	<text x="84" y="132" fill="#542788" font-family="Verdana" font-size="12">1,1</text>
</g>

<!-- Association EST_SITUEE -->
<g>
	<line x1="509" y1="62" x2="724" y2="62" stroke="#e08214" stroke-width="1"/>
	<line x1="947" y1="62" x2="724" y2="62" stroke="#e08214" stroke-width="1"/>
	<g>
		<path d="M749 36 a14 14 90 0 1 14 14 V62 h-78 V50 a14 14 90 0 1 14 -14" fill="#fdb863" stroke="#fdb863" stroke-width="0"/>
		<path d="M763 62 v12 a14 14 90 0 1 -14 14 H699 a14 14 90 0 1 -14 -14 V62 H78" fill="#fee0b6" stroke="#fee0b6" stroke-width="0"/>
		<rect x="685" y="36" width="78" height="52" fill="none" rx="14" stroke="#e08214" stroke-width="1.5"/>
		<line x1="685" y1="62" x2="763" y2="62" stroke="#e08214" stroke-width="1"/>
		<text x="692" y="54.6" fill="#000000" font-family="Trebuchet MS" font-size="14">Est située</text>
	</g>
	<text x="582" y="54" fill="#542788" font-family="Verdana" font-size="12">1,1</text>
	<text x="864" y="79" fill="#542788" font-family="Verdana" font-size="12">0,N</text>
</g>

<!-- Association EST_SITUEE1 -->
<g>
	<line x1="1176" y1="193" x2="1176" y2="62" stroke="#e08214" stroke-width="1"/>
	<line x1="947" y1="62" x2="1176" y2="62" stroke="#e08214" stroke-width="1"/>
	<g>
		<path d="M1201 36 a14 14 90 0 1 14 14 V62 h-78 V50 a14 14 90 0 1 14 -14" fill="#fdb863" stroke="#fdb863" stroke-width="0"/>
		<path d="M1215 62 v12 a14 14 90 0 1 -14 14 H1151 a14 14 90 0 1 -14 -14 V62 H78" fill="#fee0b6" stroke="#fee0b6" stroke-width="0"/>
		<rect x="1137" y="36" width="78" height="52" fill="none" rx="14" stroke="#e08214" stroke-width="1.5"/>
		<line x1="1137" y1="62" x2="1215" y2="62" stroke="#e08214" stroke-width="1"/>
		<text x="1144" y="54.6" fill="#000000" font-family="Trebuchet MS" font-size="14">Est située</text>
	</g>
	<text x="1181" y="105" fill="#542788" font-family="Verdana" font-size="12">1,1</text>
	<text x="1008" y="79" fill="#542788" font-family="Verdana" font-size="12">0,N</text>
</g>

<!-- Association EST_MEMBRE_DE -->
<g>
	<line x1="238" y1="62" x2="238" y2="193" stroke="#e08214" stroke-width="1"/>
	<line x1="238" y1="387" x2="238" y2="193" stroke="#e08214" stroke-width="1"/>
	<g>
		<path d="M280 167 a14 14 90 0 1 14 14 V193 h-112 V181 a14 14 90 0 1 14 -14" fill="#fdb863" stroke="#fdb863" stroke-width="0"/>
		<path d="M294 193 v12 a14 14 90 0 1 -14 14 H196 a14 14 90 0 1 -14 -14 V193 H112" fill="#fee0b6" stroke="#fee0b6" stroke-width="0"/>
		<rect x="182" y="167" width="112" height="52" fill="none" rx="14" stroke="#e08214" stroke-width="1.5"/>
		<line x1="182" y1="193" x2="294" y2="193" stroke="#e08214" stroke-width="1"/>
		<text x="189" y="185.6" fill="#000000" font-family="Trebuchet MS" font-size="14">est membre de</text>
		<text x="189" y="211.6" fill="#000000" font-family="Trebuchet MS" font-size="14">Niveau Accès</text>
	</g>
	<text x="243" y="132" fill="#542788" font-family="Verdana" font-size="12">0,N</text>
	<text x="243" y="326" fill="#542788" font-family="Verdana" font-size="12">1,N</text>
</g>

<!-- Association EMET -->
<g>
	<line x1="947" y1="387" x2="724" y2="193" stroke="#e08214" stroke-width="1"/>
	<line x1="509" y1="62" x2="724" y2="193" stroke="#e08214" stroke-width="1"/>
	<g>
		<path d="M734 167 a14 14 90 0 1 14 14 V193 h-48 V181 a14 14 90 0 1 14 -14" fill="#fdb863" stroke="#fdb863" stroke-width="0"/>
		<path d="M748 193 v12 a14 14 90 0 1 -14 14 H714 a14 14 90 0 1 -14 -14 V193 H48" fill="#fee0b6" stroke="#fee0b6" stroke-width="0"/>
		<rect x="700" y="167" width="48" height="52" fill="none" rx="14" stroke="#e08214" stroke-width="1.5"/>
		<line x1="700" y1="193" x2="748" y2="193" stroke="#e08214" stroke-width="1"/>
		<text x="707" y="185.6" fill="#000000" font-family="Trebuchet MS" font-size="14">émet</text>
	</g>
	<text x="843.32" y="290" fill="#542788" font-family="Verdana" font-size="12">0,1</text>
	<text x="582" y="100.14" fill="#542788" font-family="Verdana" font-size="12">0,N</text>
</g>

<!-- Association EMET1 -->
<g>
	<line x1="947" y1="62" x2="947" y2="193" stroke="#e08214" stroke-width="1"/>
	<line x1="947" y1="387" x2="947" y2="193" stroke="#e08214" stroke-width="1"/>
	<g>
		<path d="M957 167 a14 14 90 0 1 14 14 V193 h-48 V181 a14 14 90 0 1 14 -14" fill="#fdb863" stroke="#fdb863" stroke-width="0"/>
		<path d="M971 193 v12 a14 14 90 0 1 -14 14 H937 a14 14 90 0 1 -14 -14 V193 H48" fill="#fee0b6" stroke="#fee0b6" stroke-width="0"/>
		<rect x="923" y="167" width="48" height="52" fill="none" rx="14" stroke="#e08214" stroke-width="1.5"/>
		<line x1="923" y1="193" x2="971" y2="193" stroke="#e08214" stroke-width="1"/>
		<text x="930" y="185.6" fill="#000000" font-family="Trebuchet MS" font-size="14">émet</text>
	</g>
	<text x="952" y="114" fill="#542788" font-family="Verdana" font-size="12">0,N</text>
	<text x="952" y="290" fill="#542788" font-family="Verdana" font-size="12">0,1</text>
</g>

<!-- Association DEVISE1 -->
<g>
	<line x1="509" y1="193" x2="509" y2="387" stroke="#e08214" stroke-width="1"/>
	<line x1="238" y1="387" x2="509" y2="387" stroke="#e08214" stroke-width="1"/>
	<g>
		<path d="M523 361 a14 14 90 0 1 14 14 V387 h-56 V375 a14 14 90 0 1 14 -14" fill="#fdb863" stroke="#fdb863" stroke-width="0"/>
		<path d="M537 387 v12 a14 14 90 0 1 -14 14 H495 a14 14 90 0 1 -14 -14 V387 H56" fill="#fee0b6" stroke="#fee0b6" stroke-width="0"/>
		<rect x="481" y="361" width="56" height="52" fill="none" rx="14" stroke="#e08214" stroke-width="1.5"/>
		<line x1="481" y1="387" x2="537" y2="387" stroke="#e08214" stroke-width="1"/>
		<text x="488" y="379.6" fill="#000000" font-family="Trebuchet MS" font-size="14">devise</text>
	</g>
	<text x="482" y="254" fill="#542788" font-family="Verdana" font-size="12">0,N</text>
	<text x="334" y="404" fill="#542788" font-family="Verdana" font-size="12">1,1</text>
</g>

<!-- Association DEVISE2 -->
<g>
	<line x1="509" y1="193" x2="724" y2="387" stroke="#e08214" stroke-width="1"/>
	<line x1="947" y1="387" x2="724" y2="387" stroke="#e08214" stroke-width="1"/>
	<g>
		<path d="M738 361 a14 14 90 0 1 14 14 V387 h-56 V375 a14 14 90 0 1 14 -14" fill="#fdb863" stroke="#fdb863" stroke-width="0"/>
		<path d="M752 387 v12 a14 14 90 0 1 -14 14 H710 a14 14 90 0 1 -14 -14 V387 H56" fill="#fee0b6" stroke="#fee0b6" stroke-width="0"/>
		<rect x="696" y="361" width="56" height="52" fill="none" rx="14" stroke="#e08214" stroke-width="1.5"/>
		<line x1="696" y1="387" x2="752" y2="387" stroke="#e08214" stroke-width="1"/>
		<text x="703" y="379.6" fill="#000000" font-family="Trebuchet MS" font-size="14">devise</text>
	</g>
	<text x="537.32" y="254" fill="#542788" font-family="Verdana" font-size="12">0,N</text>
	<text x="758" y="404" fill="#542788" font-family="Verdana" font-size="12">1,1</text>
</g>

<!-- Association ECHANGE -->
<g>
	<line x1="947" y1="387" x2="1176" y2="387" stroke="#e08214" stroke-width="1"/>
	<line x1="1176" y1="193" x2="1176" y2="387" stroke="#e08214" stroke-width="1"/>
	<g>
		<path d="M1196 361 a14 14 90 0 1 14 14 V387 h-68 V375 a14 14 90 0 1 14 -14" fill="#fdb863" stroke="#fdb863" stroke-width="0"/>
		<path d="M1210 387 v12 a14 14 90 0 1 -14 14 H1156 a14 14 90 0 1 -14 -14 V387 H68" fill="#fee0b6" stroke="#fee0b6" stroke-width="0"/>
		<rect x="1142" y="361" width="68" height="52" fill="none" rx="14" stroke="#e08214" stroke-width="1.5"/>
		<line x1="1142" y1="387" x2="1210" y2="387" stroke="#e08214" stroke-width="1"/>
		<text x="1149" y="379.6" fill="#000000" font-family="Trebuchet MS" font-size="14">échange</text>
	</g>
	<text x="1115" y="404" fill="#542788" font-family="Verdana" font-size="12">0,1</text>
	<text x="1181" y="290" fill="#542788" font-family="Verdana" font-size="12">0,N</text>
</g>

<!-- Association HISTORIQUE_DE_TRANSACTIONS -->
<g>
	<line x1="238" y1="387" x2="238" y2="581" stroke="#e08214" stroke-width="1"/>
	<line x1="509" y1="581" x2="238" y2="581" stroke="#e08214" stroke-width="1"/>
	<g>
		<path d="M315 555 a14 14 90 0 1 14 14 V581 h-182 V569 a14 14 90 0 1 14 -14" fill="#fdb863" stroke="#fdb863" stroke-width="0"/>
		<path d="M329 581 v12 a14 14 90 0 1 -14 14 H161 a14 14 90 0 1 -14 -14 V581 H182" fill="#fee0b6" stroke="#fee0b6" stroke-width="0"/>
		<rect x="147" y="555" width="182" height="52" fill="none" rx="14" stroke="#e08214" stroke-width="1.5"/>
		<line x1="147" y1="581" x2="329" y2="581" stroke="#e08214" stroke-width="1"/>
		<text x="154" y="573.6" fill="#000000" font-family="Trebuchet MS" font-size="14">historique de transactions</text>
	</g>
	<text x="243" y="457" fill="#542788" font-family="Verdana" font-size="12">0,N</text>
	<text x="335" y="598" fill="#542788" font-family="Verdana" font-size="12">1,1</text>
</g>

<!-- Association CONTIENT -->
<g>
	<line x1="509" y1="581" x2="724" y2="581" stroke="#e08214" stroke-width="1"/>
	<line x1="947" y1="387" x2="724" y2="581" stroke="#e08214" stroke-width="1"/>
	<g>
		<path d="M745 555 a14 14 90 0 1 14 14 V581 h-70 V569 a14 14 90 0 1 14 -14" fill="#fdb863" stroke="#fdb863" stroke-width="0"/>
		<path d="M759 581 v12 a14 14 90 0 1 -14 14 H703 a14 14 90 0 1 -14 -14 V581 H70" fill="#fee0b6" stroke="#fee0b6" stroke-width="0"/>
		<rect x="689" y="555" width="70" height="52" fill="none" rx="14" stroke="#e08214" stroke-width="1.5"/>
		<line x1="689" y1="581" x2="759" y2="581" stroke="#e08214" stroke-width="1"/>
		<text x="697" y="573.6" fill="#000000" font-family="Trebuchet MS" font-size="14">contient</text>
	</g>
	<text x="662" y="598" fill="#542788" font-family="Verdana" font-size="12">1,1</text>
	<text x="843.32" y="493" fill="#542788" font-family="Verdana" font-size="12">0,N</text>
</g>

<!-- Association CONCERNE -->
<g>
	<line x1="947" y1="387" x2="947" y2="581" stroke="#e08214" stroke-width="1"/>
	<line x1="1176" y1="581" x2="947" y2="581" stroke="#e08214" stroke-width="1"/>
	<g>
		<path d="M970 555 a14 14 90 0 1 14 14 V581 h-74 V569 a14 14 90 0 1 14 -14" fill="#fdb863" stroke="#fdb863" stroke-width="0"/>
		<path d="M984 581 v12 a14 14 90 0 1 -14 14 H924 a14 14 90 0 1 -14 -14 V581 H74" fill="#fee0b6" stroke="#fee0b6" stroke-width="0"/>
		<rect x="910" y="555" width="74" height="52" fill="none" rx="14" stroke="#e08214" stroke-width="1.5"/>
		<line x1="910" y1="581" x2="984" y2="581" stroke="#e08214" stroke-width="1"/>
		<text x="917" y="573.6" fill="#000000" font-family="Trebuchet MS" font-size="14">concerne</text>
	</g>
	<text x="952" y="493" fill="#542788" font-family="Verdana" font-size="12">0,N</text>
	<text x="1087" y="598" fill="#542788" font-family="Verdana" font-size="12">1,1</text>
</g>

<!-- Entity UTILISATEUR -->
<g>
	<g>
		<rect x="141" y="9" width="194" height="26" fill="#b2abd2" stroke="none" stroke-width="0" opacity="1"/>
		<rect x="141" y="35" width="194" height="80" fill="#d8daeb" stroke="none" stroke-width="0" opacity="1"/>
		<rect x="141" y="9" width="194" height="106" fill="none" stroke="#8073ac" stroke-width="1.5" opacity="1"/>
		<line x1="141" y1="35" x2="335" y2="35" stroke="#8073ac" stroke-width="1"/>
	</g>
	<text x="204" y="27.6" fill="#000000" font-family="Trebuchet MS" font-size="14">Utilisateur</text>
	<text x="146" y="53.6" fill="#000000" font-family="Trebuchet MS" font-size="14">Adresse Mail</text>
	<line x1="146" y1="56" x2="227" y2="56" stroke="#000000" stroke-width="1"/>
	<text x="146" y="71.6" fill="#000000" font-family="Trebuchet MS" font-size="14">Nom</text>
	<text x="146" y="89.6" fill="#000000" font-family="Trebuchet MS" font-size="14">Mot De Passe</text>
	<text x="146" y="107.6" fill="#000000" font-family="Trebuchet MS" font-size="14">Date De Création Utilisateur</text>
</g>

<!-- Entity ENTREPRISE -->
<g>
	<g>
		<rect x="441" y="18" width="136" height="26" fill="#b2abd2" stroke="none" stroke-width="0" opacity="1"/>
		<rect x="441" y="44" width="136" height="62" fill="#d8daeb" stroke="none" stroke-width="0" opacity="1"/>
		<rect x="441" y="18" width="136" height="88" fill="none" stroke="#8073ac" stroke-width="1.5" opacity="1"/>
		<line x1="441" y1="44" x2="577" y2="44" stroke="#8073ac" stroke-width="1"/>
	</g>
	<text x="476" y="36.6" fill="#000000" font-family="Trebuchet MS" font-size="14">Entreprise</text>
	<text x="446" y="62.6" fill="#000000" font-family="Trebuchet MS" font-size="14">Numero_entreprise</text>
	<line x1="446" y1="65" x2="571" y2="65" stroke="#000000" stroke-width="1"/>
	<text x="446" y="80.6" fill="#000000" font-family="Trebuchet MS" font-size="14">Nom</text>
	<text x="446" y="98.6" fill="#000000" font-family="Trebuchet MS" font-size="14">Secteur d’activité</text>
</g>

<!-- Entity PAYS -->
<g>
	<g>
		<rect x="891" y="27" width="112" height="26" fill="#b2abd2" stroke="none" stroke-width="0" opacity="1"/>
		<rect x="891" y="53" width="112" height="44" fill="#d8daeb" stroke="none" stroke-width="0" opacity="1"/>
		<rect x="891" y="27" width="112" height="70" fill="none" stroke="#8073ac" stroke-width="1.5" opacity="1"/>
		<line x1="891" y1="53" x2="1003" y2="53" stroke="#8073ac" stroke-width="1"/>
	</g>
	<text x="933" y="45.6" fill="#000000" font-family="Trebuchet MS" font-size="14">Pays</text>
	<text x="896" y="71.6" fill="#000000" font-family="Trebuchet MS" font-size="14">Code ISO3166&#45;1</text>
	<line x1="896" y1="74" x2="997" y2="74" stroke="#000000" stroke-width="1"/>
	<text x="896" y="89.6" fill="#000000" font-family="Trebuchet MS" font-size="14">Nom</text>
</g>

<!-- Entity AUDIT -->
<g>
	<g>
		<rect x="9" y="140" width="140" height="26" fill="#b2abd2" stroke="none" stroke-width="0" opacity="1"/>
		<rect x="9" y="166" width="140" height="80" fill="#d8daeb" stroke="none" stroke-width="0" opacity="1"/>
		<rect x="9" y="140" width="140" height="106" fill="none" stroke="#8073ac" stroke-width="1.5" opacity="1"/>
		<line x1="9" y1="166" x2="149" y2="166" stroke="#8073ac" stroke-width="1"/>
	</g>
	<text x="62" y="158.6" fill="#000000" font-family="Trebuchet MS" font-size="14">Audit</text>
	<text x="14" y="184.6" fill="#000000" font-family="Trebuchet MS" font-size="14">Adresse Mail</text>
	<line x1="14" y1="187" x2="95" y2="187" stroke="#000000" stroke-width="1"/>
	<text x="14" y="202.6" fill="#000000" font-family="Trebuchet MS" font-size="14">Identifiant Portfolio</text>
	<line x1="14" y1="205" x2="143" y2="205" stroke="#000000" stroke-width="1"/>
	<text x="14" y="220.6" fill="#000000" font-family="Trebuchet MS" font-size="14">Date</text>
	<line x1="14" y1="223" x2="45" y2="223" stroke="#000000" stroke-width="1"/>
	<text x="14" y="238.6" fill="#000000" font-family="Trebuchet MS" font-size="14">Action</text>
</g>

<!-- Entity DEVISE -->
<g>
	<g>
		<rect x="460" y="149" width="98" height="26" fill="#b2abd2" stroke="none" stroke-width="0" opacity="1"/>
		<rect x="460" y="175" width="98" height="62" fill="#d8daeb" stroke="none" stroke-width="0" opacity="1"/>
		<rect x="460" y="149" width="98" height="88" fill="none" stroke="#8073ac" stroke-width="1.5" opacity="1"/>
		<line x1="460" y1="175" x2="558" y2="175" stroke="#8073ac" stroke-width="1"/>
	</g>
	<text x="488" y="167.6" fill="#000000" font-family="Trebuchet MS" font-size="14">Devise</text>
	<text x="465" y="193.6" fill="#000000" font-family="Trebuchet MS" font-size="14">Code ISO4217</text>
	<line x1="465" y1="196" x2="553" y2="196" stroke="#000000" stroke-width="1"/>
	<text x="465" y="211.6" fill="#000000" font-family="Trebuchet MS" font-size="14">Nom</text>
	<text x="465" y="229.6" fill="#000000" font-family="Trebuchet MS" font-size="14">Symbole</text>
</g>

<!-- Entity BOURSE -->
<g>
	<g>
		<rect x="1113" y="113" width="126" height="26" fill="#b2abd2" stroke="none" stroke-width="0" opacity="1"/>
		<rect x="1113" y="139" width="126" height="134" fill="#d8daeb" stroke="none" stroke-width="0" opacity="1"/>
		<rect x="1113" y="113" width="126" height="160" fill="none" stroke="#8073ac" stroke-width="1.5" opacity="1"/>
		<line x1="1113" y1="139" x2="1239" y2="139" stroke="#8073ac" stroke-width="1"/>
	</g>
	<text x="1154" y="131.6" fill="#000000" font-family="Trebuchet MS" font-size="14">Bourse</text>
	<text x="1118" y="157.6" fill="#000000" font-family="Trebuchet MS" font-size="14">Identifiant Bourse</text>
	<line x1="1118" y1="160" x2="1234" y2="160" stroke="#000000" stroke-width="1"/>
	<text x="1118" y="175.6" fill="#000000" font-family="Trebuchet MS" font-size="14">Nom</text>
	<text x="1118" y="193.6" fill="#000000" font-family="Trebuchet MS" font-size="14">Ville</text>
	<text x="1118" y="211.6" fill="#000000" font-family="Trebuchet MS" font-size="14">Fuseau Horaire</text>
	<text x="1118" y="229.6" fill="#000000" font-family="Trebuchet MS" font-size="14">Heure Ouveture</text>
	<text x="1118" y="247.6" fill="#000000" font-family="Trebuchet MS" font-size="14">Heure Fermeture</text>
</g>

<!-- Entity PORTFOLIO -->
<g>
	<g>
		<rect x="147" y="334" width="182" height="26" fill="#b2abd2" stroke="none" stroke-width="0" opacity="1"/>
		<rect x="147" y="360" width="182" height="80" fill="#d8daeb" stroke="none" stroke-width="0" opacity="1"/>
		<rect x="147" y="334" width="182" height="106" fill="none" stroke="#8073ac" stroke-width="1.5" opacity="1"/>
		<line x1="147" y1="360" x2="329" y2="360" stroke="#8073ac" stroke-width="1"/>
	</g>
	<text x="210" y="352.6" fill="#000000" font-family="Trebuchet MS" font-size="14">Portfolio</text>
	<text x="152" y="378.6" fill="#000000" font-family="Trebuchet MS" font-size="14">Identifiant Portfolio</text>
	<line x1="152" y1="381" x2="281" y2="381" stroke="#000000" stroke-width="1"/>
	<text x="152" y="396.6" fill="#000000" font-family="Trebuchet MS" font-size="14">Nom</text>
	<text x="152" y="414.6" fill="#000000" font-family="Trebuchet MS" font-size="14">Description</text>
	<text x="152" y="432.6" fill="#000000" font-family="Trebuchet MS" font-size="14">Date De Création Portfolio</text>
</g>

<!-- Entity INSTRUMENT_FINANCIER -->
<g>
	<g>
		<rect x="784" y="298" width="326" height="26" fill="#b2abd2" stroke="none" stroke-width="0" opacity="1"/>
		<rect x="784" y="324" width="326" height="152" fill="#d8daeb" stroke="none" stroke-width="0" opacity="1"/>
		<rect x="784" y="298" width="326" height="178" fill="none" stroke="#8073ac" stroke-width="1.5" opacity="1"/>
		<line x1="784" y1="324" x2="1110" y2="324" stroke="#8073ac" stroke-width="1"/>
	</g>
	<text x="880" y="316.6" fill="#000000" font-family="Trebuchet MS" font-size="14">Instrument Financier</text>
	<text x="789" y="342.6" fill="#000000" font-family="Trebuchet MS" font-size="14">ISIN</text>
	<line x1="789" y1="345" x2="814" y2="345" stroke="#000000" stroke-width="1"/>
	<text x="789" y="360.6" fill="#000000" font-family="Trebuchet MS" font-size="14">Nom</text>
	<text x="789" y="378.6" fill="#000000" font-family="Trebuchet MS" font-size="14">Type Instrument (Action/ETF/Obligation/Devise)</text>
	<text x="789" y="396.6" fill="#000000" font-family="Trebuchet MS" font-size="14">Symbole (Action/ETF)</text>
	<text x="789" y="414.6" fill="#000000" font-family="Trebuchet MS" font-size="14">Taux (Obligation)</text>
	<text x="789" y="432.6" fill="#000000" font-family="Trebuchet MS" font-size="14">Date Emission (Obligation)</text>
	<text x="789" y="450.6" fill="#000000" font-family="Trebuchet MS" font-size="14">Date Echeance (Obligation)</text>
	<text x="789" y="468.6" fill="#000000" font-family="Trebuchet MS" font-size="14">Couple Devise (Devise)</text>
</g>

<!-- Entity TRANSACTION -->
<g>
	<g>
		<rect x="361" y="483" width="296" height="26" fill="#b2abd2" stroke="none" stroke-width="0" opacity="1"/>
		<rect x="361" y="509" width="296" height="170" fill="#d8daeb" stroke="none" stroke-width="0" opacity="1"/>
		<rect x="361" y="483" width="296" height="196" fill="none" stroke="#8073ac" stroke-width="1.5" opacity="1"/>
		<line x1="361" y1="509" x2="657" y2="509" stroke="#8073ac" stroke-width="1"/>
	</g>
	<text x="471" y="501.6" fill="#000000" font-family="Trebuchet MS" font-size="14">Transaction</text>
	<text x="366" y="527.6" fill="#000000" font-family="Trebuchet MS" font-size="14">Identifiant Transaction</text>
	<line x1="366" y1="530" x2="515" y2="530" stroke="#000000" stroke-width="1"/>
	<text x="366" y="545.6" fill="#000000" font-family="Trebuchet MS" font-size="14">Type (Vente/Achat)</text>
	<text x="366" y="563.6" fill="#000000" font-family="Trebuchet MS" font-size="14">Date</text>
	<text x="366" y="581.6" fill="#000000" font-family="Trebuchet MS" font-size="14">Heure</text>
	<text x="366" y="599.6" fill="#000000" font-family="Trebuchet MS" font-size="14">Quantité</text>
	<text x="366" y="617.6" fill="#000000" font-family="Trebuchet MS" font-size="14">Prix dans la Devise du Portfolio</text>
	<text x="366" y="635.6" fill="#000000" font-family="Trebuchet MS" font-size="14">Prix dans la Devise de l’Instrument Financier</text>
	<text x="366" y="653.6" fill="#000000" font-family="Trebuchet MS" font-size="14">Frais</text>
	<text x="366" y="671.6" fill="#000000" font-family="Trebuchet MS" font-size="14">Taxes</text>
</g>

<!-- Entity COURS -->
<g>
	<g>
		<rect x="1113" y="501" width="126" height="26" fill="#b2abd2" stroke="none" stroke-width="0" opacity="1"/>
		<rect x="1113" y="527" width="126" height="134" fill="#d8daeb" stroke="none" stroke-width="0" opacity="1"/>
		<rect x="1113" y="501" width="126" height="160" fill="none" stroke="#8073ac" stroke-width="1.5" opacity="1"/>
		<line x1="1113" y1="527" x2="1239" y2="527" stroke="#8073ac" stroke-width="1"/>
	</g>
	<text x="1158" y="519.6" fill="#000000" font-family="Trebuchet MS" font-size="14">Cours</text>
	<text x="1118" y="545.6" fill="#000000" font-family="Trebuchet MS" font-size="14">Date</text>
	<line x1="1118" y1="548" x2="1149" y2="548" stroke="#000000" stroke-width="1"/>
	<text x="1118" y="563.6" fill="#000000" font-family="Trebuchet MS" font-size="14">Heure</text>
	<line x1="1118" y1="566" x2="1158" y2="566" stroke="#000000" stroke-width="1"/>
	<text x="1118" y="581.6" fill="#000000" font-family="Trebuchet MS" font-size="14">Valeur Ouverture</text>
	<text x="1118" y="599.6" fill="#000000" font-family="Trebuchet MS" font-size="14">Valeur Fermeture</text>
	<text x="1118" y="617.6" fill="#000000" font-family="Trebuchet MS" font-size="14">Valeur Maximale</text>
	<text x="1118" y="635.6" fill="#000000" font-family="Trebuchet MS" font-size="14">Valeur Minimale</text>
	<text x="1118" y="653.6" fill="#000000" font-family="Trebuchet MS" font-size="14">Volume</text>
</g>
</svg>