<?xml version="1.0" encoding="utf-8"?>
<!-- Generated by Mocodo 4.3.3 -->
<svg width="1598" height="797" viewBox="0 0 1598 797" xmlns="http://www.w3.org/2000/svg">
<rect x="0" y="0" width="1598" height="797" fill="#f7f7f7" stroke="none" stroke-width="0"/>

<!-- Association CONCERNE -->
<g>
	<line x1="714" y1="412" x2="1059" y2="219" stroke="#e08214" stroke-width="1"/>
	<line x1="714" y1="219" x2="1059" y2="219" stroke="#e08214" stroke-width="1"/>
	<g>
		<path d="M1086 193 a14 14 90 0 1 14 14 V219 h-82 V207 a14 14 90 0 1 14 -14" fill="#fdb863" stroke="#fdb863" stroke-width="0"/>
		<path d="M1100 219 v12 a14 14 90 0 1 -14 14 H1032 a14 14 90 0 1 -14 -14 V219 H82" fill="#fee0b6" stroke="#fee0b6" stroke-width="0"/>
		<rect x="1018" y="193" width="82" height="52" fill="none" rx="14" stroke="#e08214" stroke-width="1.5"/>
		<line x1="1018" y1="219" x2="1100" y2="219" stroke="#e08214" stroke-width="1"/>
		<text x="1025" y="211.6" fill="#000000" font-family="Courier New" font-size="14">concerne</text>
	</g>
	<text x="865.53" y="306" fill="#542788" font-family="Courier New" font-size="12">0,N</text>
	<text x="758" y="235" fill="#542788" font-family="Courier New" font-size="12">1,1</text>
</g>

<!-- Association ECHANGE -->
<g>
	<line x1="714" y1="412" x2="1314" y2="219" stroke="#e08214" stroke-width="1"/>
	<line x1="1474" y1="89" x2="1314" y2="219" stroke="#e08214" stroke-width="1"/>
	<g>
		<path d="M1337 193 a14 14 90 0 1 14 14 V219 h-74 V207 a14 14 90 0 1 14 -14" fill="#fdb863" stroke="#fdb863" stroke-width="0"/>
		<path d="M1351 219 v12 a14 14 90 0 1 -14 14 H1291 a14 14 90 0 1 -14 -14 V219 H74" fill="#fee0b6" stroke="#fee0b6" stroke-width="0"/>
		<rect x="1277" y="193" width="74" height="52" fill="none" rx="14" stroke="#e08214" stroke-width="1.5"/>
		<line x1="1277" y1="219" x2="1351" y2="219" stroke="#e08214" stroke-width="1"/>
		<text x="1284" y="211.6" fill="#000000" font-family="Courier New" font-size="14">échange</text>
	</g>
	<text x="918" y="361.48" fill="#542788" font-family="Courier New" font-size="12">0,1</text>
	<text x="1364" y="153.67" fill="#542788" font-family="Courier New" font-size="12">0,N</text>
</g>

<!-- Association EST_SITUEE1 -->
<g>
	<line x1="1474" y1="89" x2="1474" y2="219" stroke="#e08214" stroke-width="1"/>
	<line x1="1314" y1="412" x2="1474" y2="219" stroke="#e08214" stroke-width="1"/>
	<g>
		<path d="M1510 193 a14 14 90 0 1 14 14 V219 h-100 V207 a14 14 90 0 1 14 -14" fill="#fdb863" stroke="#fdb863" stroke-width="0"/>
		<path d="M1524 219 v12 a14 14 90 0 1 -14 14 H1438 a14 14 90 0 1 -14 -14 V219 H100" fill="#fee0b6" stroke="#fee0b6" stroke-width="0"/>
		<rect x="1424" y="193" width="100" height="52" fill="none" rx="14" stroke="#e08214" stroke-width="1.5"/>
		<line x1="1424" y1="219" x2="1524" y2="219" stroke="#e08214" stroke-width="1"/>
		<text x="1432" y="211.6" fill="#000000" font-family="Courier New" font-size="14">Est située</text>
	</g>
	<text x="1479" y="185" fill="#542788" font-family="Courier New" font-size="12">1,1</text>
	<text x="1328.62" y="360" fill="#542788" font-family="Courier New" font-size="12">0,N</text>
</g>

<!-- Association EMET1 -->
<g>
	<line x1="1314" y1="412" x2="1059" y2="412" stroke="#e08214" stroke-width="1"/>
	<line x1="714" y1="412" x2="1059" y2="412" stroke="#e08214" stroke-width="1"/>
	<g>
		<path d="M1070 386 a14 14 90 0 1 14 14 V412 h-50 V400 a14 14 90 0 1 14 -14" fill="#fdb863" stroke="#fdb863" stroke-width="0"/>
		<path d="M1084 412 v12 a14 14 90 0 1 -14 14 H1048 a14 14 90 0 1 -14 -14 V412 H50" fill="#fee0b6" stroke="#fee0b6" stroke-width="0"/>
		<rect x="1034" y="386" width="50" height="52" fill="none" rx="14" stroke="#e08214" stroke-width="1.5"/>
		<line x1="1034" y1="412" x2="1084" y2="412" stroke="#e08214" stroke-width="1"/>
		<text x="1042" y="404.6" fill="#000000" font-family="Courier New" font-size="14">émet</text>
	</g>
	<text x="1209" y="428" fill="#542788" font-family="Courier New" font-size="12">0,N</text>
	<text x="918" y="428" fill="#542788" font-family="Courier New" font-size="12">0,1</text>
</g>

<!-- Association EST_SITUEE -->
<g>
	<line x1="1474" y1="596" x2="1474" y2="412" stroke="#e08214" stroke-width="1"/>
	<line x1="1314" y1="412" x2="1474" y2="412" stroke="#e08214" stroke-width="1"/>
	<g>
		<path d="M1510 386 a14 14 90 0 1 14 14 V412 h-100 V400 a14 14 90 0 1 14 -14" fill="#fdb863" stroke="#fdb863" stroke-width="0"/>
		<path d="M1524 412 v12 a14 14 90 0 1 -14 14 H1438 a14 14 90 0 1 -14 -14 V412 H100" fill="#fee0b6" stroke="#fee0b6" stroke-width="0"/>
		<rect x="1424" y="386" width="100" height="52" fill="none" rx="14" stroke="#e08214" stroke-width="1.5"/>
		<line x1="1424" y1="412" x2="1524" y2="412" stroke="#e08214" stroke-width="1"/>
		<text x="1432" y="404.6" fill="#000000" font-family="Courier New" font-size="14">Est située</text>
	</g>
	<text x="1479" y="544" fill="#542788" font-family="Courier New" font-size="12">1,1</text>
	<text x="1396" y="428" fill="#542788" font-family="Courier New" font-size="12">0,N</text>
</g>

<!-- Association EST_MEMBRE_DE -->
<g>
	<line x1="263" y1="596" x2="482" y2="596" stroke="#e08214" stroke-width="1"/>
	<line x1="714" y1="596" x2="482" y2="596" stroke="#e08214" stroke-width="1"/>
	<g>
		<path d="M530 570 a14 14 90 0 1 14 14 V596 h-124 V584 a14 14 90 0 1 14 -14" fill="#fdb863" stroke="#fdb863" stroke-width="0"/>
		<path d="M544 596 v12 a14 14 90 0 1 -14 14 H434 a14 14 90 0 1 -14 -14 V596 H124" fill="#fee0b6" stroke="#fee0b6" stroke-width="0"/>
		<rect x="420" y="570" width="124" height="52" fill="none" rx="14" stroke="#e08214" stroke-width="1.5"/>
		<line x1="420" y1="596" x2="544" y2="596" stroke="#e08214" stroke-width="1"/>
		<text x="427" y="588.6" fill="#000000" font-family="Courier New" font-size="14">est membre de</text>
		<text x="427" y="614.6" fill="#000000" font-family="Courier New" font-size="14">Niveau Accès</text>
	</g>
	<text x="392" y="612" fill="#542788" font-family="Courier New" font-size="12">0,N</text>
	<text x="571" y="612" fill="#542788" font-family="Courier New" font-size="12">1,N</text>
</g>

<!-- Association CONTIENT -->
<g>
	<line x1="1059" y1="735" x2="1059" y2="596" stroke="#e08214" stroke-width="1"/>
	<line x1="714" y1="412" x2="1059" y2="596" stroke="#e08214" stroke-width="1"/>
	<g>
		<path d="M1242 534 a14 14 90 0 1 14 14 V560 h-394 V548 a14 14 90 0 1 14 -14" fill="#fdb863" stroke="#fdb863" stroke-width="0"/>
		<path d="M1256 560 v84 a14 14 90 0 1 -14 14 H876 a14 14 90 0 1 -14 -14 V560 H394" fill="#fee0b6" stroke="#fee0b6" stroke-width="0"/>
		<rect x="862" y="534" width="394" height="124" fill="none" rx="14" stroke="#e08214" stroke-width="1.5"/>
		<line x1="862" y1="560" x2="1256" y2="560" stroke="#e08214" stroke-width="1"/>
		<text x="1025" y="552.6" fill="#000000" font-family="Courier New" font-size="14">contient</text>
		<text x="869" y="578.6" fill="#000000" font-family="Courier New" font-size="14">Quantité</text>
		<text x="869" y="596.6" fill="#000000" font-family="Courier New" font-size="14">Prix dans la Devise du Portfolio</text>
		<text x="869" y="614.6" fill="#000000" font-family="Courier New" font-size="14">Prix dans la Devise de l’Instrument Financier</text>
		<text x="869" y="632.6" fill="#000000" font-family="Courier New" font-size="14">Frais Courtage</text>
		<text x="869" y="650.6" fill="#000000" font-family="Courier New" font-size="14">Taxes</text>
	</g>
	<text x="1064" y="674" fill="#542788" font-family="Courier New" font-size="12">1,1</text>
	<text x="873.91" y="526" fill="#542788" font-family="Courier New" font-size="12">0,N</text>
</g>

<!-- Association EMET -->
<g>
	<line x1="714" y1="412" x2="1314" y2="596" stroke="#e08214" stroke-width="1"/>
	<line x1="1474" y1="596" x2="1314" y2="596" stroke="#e08214" stroke-width="1"/>
	<g>
		<path d="M1325 570 a14 14 90 0 1 14 14 V596 h-50 V584 a14 14 90 0 1 14 -14" fill="#fdb863" stroke="#fdb863" stroke-width="0"/>
		<path d="M1339 596 v12 a14 14 90 0 1 -14 14 H1303 a14 14 90 0 1 -14 -14 V596 H50" fill="#fee0b6" stroke="#fee0b6" stroke-width="0"/>
		<rect x="1289" y="570" width="50" height="52" fill="none" rx="14" stroke="#e08214" stroke-width="1.5"/>
		<line x1="1289" y1="596" x2="1339" y2="596" stroke="#e08214" stroke-width="1"/>
		<text x="1297" y="588.6" fill="#000000" font-family="Courier New" font-size="14">émet</text>
	</g>
	<text x="918" y="467.41" fill="#542788" font-family="Courier New" font-size="12">0,1</text>
	<text x="1364" y="612" fill="#542788" font-family="Courier New" font-size="12">0,N</text>
</g>

<!-- Association GENERE -->
<g>
	<line x1="263" y1="596" x2="263" y2="735" stroke="#e08214" stroke-width="1"/>
	<line x1="103" y1="735" x2="263" y2="735" stroke="#e08214" stroke-width="1"/>
	<g>
		<path d="M282 709 a14 14 90 0 1 14 14 V735 h-66 V723 a14 14 90 0 1 14 -14" fill="#fdb863" stroke="#fdb863" stroke-width="0"/>
		<path d="M296 735 v12 a14 14 90 0 1 -14 14 H244 a14 14 90 0 1 -14 -14 V735 H66" fill="#fee0b6" stroke="#fee0b6" stroke-width="0"/>
		<rect x="230" y="709" width="66" height="52" fill="none" rx="14" stroke="#e08214" stroke-width="1.5"/>
		<line x1="230" y1="735" x2="296" y2="735" stroke="#e08214" stroke-width="1"/>
		<text x="237" y="727.6" fill="#000000" font-family="Courier New" font-size="14">génère</text>
	</g>
	<text x="268" y="665" fill="#542788" font-family="Courier New" font-size="12">0,N</text>
	<text x="202" y="751" fill="#542788" font-family="Courier New" font-size="12">1,1</text>
</g>

<!-- Association HISTORIQUE_DE_TRANSACTIONS -->
<g>
	<line x1="714" y1="596" x2="714" y2="735" stroke="#e08214" stroke-width="1"/>
	<line x1="1059" y1="735" x2="714" y2="735" stroke="#e08214" stroke-width="1"/>
	<g>
		<path d="M817 709 a14 14 90 0 1 14 14 V735 h-234 V723 a14 14 90 0 1 14 -14" fill="#fdb863" stroke="#fdb863" stroke-width="0"/>
		<path d="M831 735 v12 a14 14 90 0 1 -14 14 H611 a14 14 90 0 1 -14 -14 V735 H234" fill="#fee0b6" stroke="#fee0b6" stroke-width="0"/>
		<rect x="597" y="709" width="234" height="52" fill="none" rx="14" stroke="#e08214" stroke-width="1.5"/>
		<line x1="597" y1="735" x2="831" y2="735" stroke="#e08214" stroke-width="1"/>
		<text x="604" y="727.6" fill="#000000" font-family="Courier New" font-size="14">historique de transactions</text>
	</g>
	<text x="719" y="665" fill="#542788" font-family="Courier New" font-size="12">0,N</text>
	<text x="928" y="751" fill="#542788" font-family="Courier New" font-size="12">1,1</text>
</g>

<!-- Entity BOURSE -->
<g>
	<g>
		<rect x="1392" y="9" width="164" height="26" fill="#b2abd2" stroke="none" stroke-width="0" opacity="1"/>
		<rect x="1392" y="35" width="164" height="134" fill="#d8daeb" stroke="none" stroke-width="0" opacity="1"/>
		<rect x="1392" y="9" width="164" height="160" fill="none" stroke="#8073ac" stroke-width="1.5" opacity="1"/>
		<line x1="1392" y1="35" x2="1556" y2="35" stroke="#8073ac" stroke-width="1"/>
	</g>
	<text x="1448" y="27.6" fill="#000000" font-family="Courier New" font-size="14">Bourse</text>
	<text x="1397" y="53.6" fill="#000000" font-family="Courier New" font-size="14">Identifiant Bourse</text>
	<line x1="1397" y1="56" x2="1550" y2="56" stroke="#000000" stroke-width="1"/>
	<text x="1397" y="71.6" fill="#000000" font-family="Courier New" font-size="14">Nom</text>
	<text x="1397" y="89.6" fill="#000000" font-family="Courier New" font-size="14">Ville</text>
	<text x="1397" y="107.6" fill="#000000" font-family="Courier New" font-size="14">Fuseau Horaire</text>
	<text x="1397" y="125.6" fill="#000000" font-family="Courier New" font-size="14">Heure Ouveture</text>
	<text x="1397" y="143.6" fill="#000000" font-family="Courier New" font-size="14">Heure Fermeture</text>
</g>

<!-- Entity COURS -->
<g>
	<g>
		<rect x="675" y="148" width="78" height="26" fill="#b2abd2" stroke="none" stroke-width="0" opacity="1"/>
		<rect x="675" y="174" width="78" height="116" fill="#d8daeb" stroke="none" stroke-width="0" opacity="1"/>
		<rect x="675" y="148" width="78" height="142" fill="none" stroke="#8073ac" stroke-width="1.5" opacity="1"/>
		<line x1="675" y1="174" x2="753" y2="174" stroke="#8073ac" stroke-width="1"/>
	</g>
	<text x="693" y="166.6" fill="#000000" font-family="Courier New" font-size="14">Cours</text>
	<text x="680" y="192.6" fill="#000000" font-family="Courier New" font-size="14">DateTime</text>
	<line x1="680" y1="195" x2="748" y2="195" stroke="#000000" stroke-width="1"/>
	<text x="680" y="210.6" fill="#000000" font-family="Courier New" font-size="14">Open</text>
	<text x="680" y="228.6" fill="#000000" font-family="Courier New" font-size="14">Close</text>
	<text x="680" y="246.6" fill="#000000" font-family="Courier New" font-size="14">High</text>
	<text x="680" y="264.6" fill="#000000" font-family="Courier New" font-size="14">Low</text>
	<text x="680" y="282.6" fill="#000000" font-family="Courier New" font-size="14">Volume</text>
</g>

<!-- Entity INSTRUMENT_FINANCIER -->
<g>
	<g>
		<rect x="515" y="314" width="398" height="26" fill="#b2abd2" stroke="none" stroke-width="0" opacity="1"/>
		<rect x="515" y="340" width="398" height="170" fill="#d8daeb" stroke="none" stroke-width="0" opacity="1"/>
		<rect x="515" y="314" width="398" height="196" fill="none" stroke="#8073ac" stroke-width="1.5" opacity="1"/>
		<line x1="515" y1="340" x2="913" y2="340" stroke="#8073ac" stroke-width="1"/>
	</g>
	<text x="630" y="332.6" fill="#000000" font-family="Courier New" font-size="14">Instrument Financier</text>
	<text x="520" y="358.6" fill="#000000" font-family="Courier New" font-size="14">ISIN</text>
	<line x1="520" y1="361" x2="555" y2="361" stroke="#000000" stroke-width="1"/>
	<text x="520" y="376.6" fill="#000000" font-family="Courier New" font-size="14">Nom</text>
	<text x="520" y="394.6" fill="#000000" font-family="Courier New" font-size="14">Type Instrument (Action/ETF/Obligation/Devise)</text>
	<text x="520" y="412.6" fill="#000000" font-family="Courier New" font-size="14">Devise</text>
	<text x="520" y="430.6" fill="#000000" font-family="Courier New" font-size="14">Symbole (Action/ETF)</text>
	<text x="520" y="448.6" fill="#000000" font-family="Courier New" font-size="14">Taux (Obligation)</text>
	<text x="520" y="466.6" fill="#000000" font-family="Courier New" font-size="14">Date Emission (Obligation)</text>
	<text x="520" y="484.6" fill="#000000" font-family="Courier New" font-size="14">Date Echeance (Obligation)</text>
	<text x="520" y="502.6" fill="#000000" font-family="Courier New" font-size="14">Couple Devise (Devise)</text>
</g>

<!-- Entity PAYS -->
<g>
	<g>
		<rect x="1237" y="368" width="154" height="26" fill="#b2abd2" stroke="none" stroke-width="0" opacity="1"/>
		<rect x="1237" y="394" width="154" height="62" fill="#d8daeb" stroke="none" stroke-width="0" opacity="1"/>
		<rect x="1237" y="368" width="154" height="88" fill="none" stroke="#8073ac" stroke-width="1.5" opacity="1"/>
		<line x1="1237" y1="394" x2="1391" y2="394" stroke="#8073ac" stroke-width="1"/>
	</g>
	<text x="1297" y="386.6" fill="#000000" font-family="Courier New" font-size="14">Pays</text>
	<text x="1242" y="412.6" fill="#000000" font-family="Courier New" font-size="14">Code ISO3166&#45;1</text>
	<line x1="1242" y1="415" x2="1361" y2="415" stroke="#000000" stroke-width="1"/>
	<text x="1242" y="430.6" fill="#000000" font-family="Courier New" font-size="14">Nom</text>
	<text x="1242" y="448.6" fill="#000000" font-family="Courier New" font-size="14">Devise Principale</text>
</g>

<!-- Entity UTILISATEUR -->
<g>
	<g>
		<rect x="139" y="543" width="248" height="26" fill="#b2abd2" stroke="none" stroke-width="0" opacity="1"/>
		<rect x="139" y="569" width="248" height="80" fill="#d8daeb" stroke="none" stroke-width="0" opacity="1"/>
		<rect x="139" y="543" width="248" height="106" fill="none" stroke="#8073ac" stroke-width="1.5" opacity="1"/>
		<line x1="139" y1="569" x2="387" y2="569" stroke="#8073ac" stroke-width="1"/>
	</g>
	<text x="216" y="561.6" fill="#000000" font-family="Courier New" font-size="14">Utilisateur</text>
	<text x="144" y="587.6" fill="#000000" font-family="Courier New" font-size="14">Adresse Mail</text>
	<line x1="144" y1="590" x2="246" y2="590" stroke="#000000" stroke-width="1"/>
	<text x="144" y="605.6" fill="#000000" font-family="Courier New" font-size="14">Nom</text>
	<text x="144" y="623.6" fill="#000000" font-family="Courier New" font-size="14">Mot De Passe</text>
	<text x="144" y="641.6" fill="#000000" font-family="Courier New" font-size="14">Date De Création Utilisateur</text>
</g>

<!-- Entity PORTFOLIO -->
<g>
	<g>
		<rect x="599" y="543" width="230" height="26" fill="#b2abd2" stroke="none" stroke-width="0" opacity="1"/>
		<rect x="599" y="569" width="230" height="80" fill="#d8daeb" stroke="none" stroke-width="0" opacity="1"/>
		<rect x="599" y="543" width="230" height="106" fill="none" stroke="#8073ac" stroke-width="1.5" opacity="1"/>
		<line x1="599" y1="569" x2="829" y2="569" stroke="#8073ac" stroke-width="1"/>
	</g>
	<text x="676" y="561.6" fill="#000000" font-family="Courier New" font-size="14">Portfolio</text>
	<text x="604" y="587.6" fill="#000000" font-family="Courier New" font-size="14">Identifiant Portfolio</text>
	<line x1="604" y1="590" x2="782" y2="590" stroke="#000000" stroke-width="1"/>
	<text x="604" y="605.6" fill="#000000" font-family="Courier New" font-size="14">Nom</text>
	<text x="604" y="623.6" fill="#000000" font-family="Courier New" font-size="14">Description</text>
	<text x="604" y="641.6" fill="#000000" font-family="Courier New" font-size="14">Date De Création Portfolio</text>
</g>

<!-- Entity ENTREPRISE -->
<g>
	<g>
		<rect x="1392" y="552" width="164" height="26" fill="#b2abd2" stroke="none" stroke-width="0" opacity="1"/>
		<rect x="1392" y="578" width="164" height="62" fill="#d8daeb" stroke="none" stroke-width="0" opacity="1"/>
		<rect x="1392" y="552" width="164" height="88" fill="none" stroke="#8073ac" stroke-width="1.5" opacity="1"/>
		<line x1="1392" y1="578" x2="1556" y2="578" stroke="#8073ac" stroke-width="1"/>
	</g>
	<text x="1432" y="570.6" fill="#000000" font-family="Courier New" font-size="14">Entreprise</text>
	<text x="1397" y="596.6" fill="#000000" font-family="Courier New" font-size="14">Numero_entreprise</text>
	<line x1="1397" y1="599" x2="1541" y2="599" stroke="#000000" stroke-width="1"/>
	<text x="1397" y="614.6" fill="#000000" font-family="Courier New" font-size="14">Nom</text>
	<text x="1397" y="632.6" fill="#000000" font-family="Courier New" font-size="14">Secteur d’activité</text>
</g>

<!-- Entity AUDIT -->
<g>
	<g>
		<rect x="9" y="682" width="188" height="26" fill="#b2abd2" stroke="none" stroke-width="0" opacity="1"/>
		<rect x="9" y="708" width="188" height="80" fill="#d8daeb" stroke="none" stroke-width="0" opacity="1"/>
		<rect x="9" y="682" width="188" height="106" fill="none" stroke="#8073ac" stroke-width="1.5" opacity="1"/>
		<line x1="9" y1="708" x2="197" y2="708" stroke="#8073ac" stroke-width="1"/>
	</g>
	<text x="82" y="700.6" fill="#000000" font-family="Courier New" font-size="14">Audit</text>
	<text x="14" y="726.6" fill="#000000" font-family="Courier New" font-size="14">Adresse Mail</text>
	<line x1="14" y1="729" x2="116" y2="729" stroke="#000000" stroke-width="1"/>
	<text x="14" y="744.6" fill="#000000" font-family="Courier New" font-size="14">Identifiant Portfolio</text>
	<line x1="14" y1="747" x2="192" y2="747" stroke="#000000" stroke-width="1"/>
	<text x="14" y="762.6" fill="#000000" font-family="Courier New" font-size="14">Date</text>
	<line x1="14" y1="765" x2="49" y2="765" stroke="#000000" stroke-width="1"/>
	<text x="14" y="780.6" fill="#000000" font-family="Courier New" font-size="14">Action</text>
</g>

<!-- Entity TRANSACTION -->
<g>
	<g>
		<rect x="956" y="682" width="206" height="26" fill="#b2abd2" stroke="none" stroke-width="0" opacity="1"/>
		<rect x="956" y="708" width="206" height="80" fill="#d8daeb" stroke="none" stroke-width="0" opacity="1"/>
		<rect x="956" y="682" width="206" height="106" fill="none" stroke="#8073ac" stroke-width="1.5" opacity="1"/>
		<line x1="956" y1="708" x2="1162" y2="708" stroke="#8073ac" stroke-width="1"/>
	</g>
	<text x="1012" y="700.6" fill="#000000" font-family="Courier New" font-size="14">Transaction</text>
	<text x="961" y="726.6" fill="#000000" font-family="Courier New" font-size="14">Identifiant Transaction</text>
	<line x1="961" y1="729" x2="1156" y2="729" stroke="#000000" stroke-width="1"/>
	<text x="961" y="744.6" fill="#000000" font-family="Courier New" font-size="14">Type (Vente/Achat)</text>
	<text x="961" y="762.6" fill="#000000" font-family="Courier New" font-size="14">Date</text>
	<text x="961" y="780.6" fill="#000000" font-family="Courier New" font-size="14">Heure</text>
</g>
</svg>