<?xml version="1.0" encoding="utf-8"?>
<!-- Generated by Mocodo 4.3.2 -->
<svg width="1306" height="685" viewBox="0 0 1306 685" xmlns="http://www.w3.org/2000/svg">
<rect x="0" y="0" width="1306" height="685" fill="#f7f7f7" stroke="none" stroke-width="0"/>

<!-- Association EST_SITUEE -->
<g>
	<line x1="78" y1="224" x2="78" y2="90" stroke="#e08214" stroke-width="1"/>
	<line x1="296" y1="90" x2="78" y2="90" stroke="#e08214" stroke-width="1"/>
	<g>
		<path d="M118 61 a14 14 90 0 1 14 14 V89 h-108 V75 a14 14 90 0 1 14 -14" fill="#fdb863" stroke="#fdb863" stroke-width="0"/>
		<path d="M132 89 v16 a14 14 90 0 1 -14 14 H38 a14 14 90 0 1 -14 -14 V89 H108" fill="#fee0b6" stroke="#fee0b6" stroke-width="0"/>
		<rect x="24" y="61" width="108" height="58" fill="none" rx="14" stroke="#e08214" stroke-width="1.5"/>
		<line x1="24" y1="89" x2="132" y2="89" stroke="#e08214" stroke-width="1.5"/>
		<text x="31" y="82.3" fill="#000000" font-family="Copperplate" font-size="18">Est située</text>
	</g>
	<text x="83" y="169" fill="#542788" font-family="Futura" font-size="11">1,1</text>
	<text x="211" y="106" fill="#542788" font-family="Futura" font-size="11">0,N</text>
</g>

<!-- Association EST_SITUEE1 -->
<g>
	<line x1="754" y1="90" x2="532" y2="90" stroke="#e08214" stroke-width="1"/>
	<line x1="296" y1="90" x2="532" y2="90" stroke="#e08214" stroke-width="1"/>
	<g>
		<path d="M572 61 a14 14 90 0 1 14 14 V89 h-108 V75 a14 14 90 0 1 14 -14" fill="#fdb863" stroke="#fdb863" stroke-width="0"/>
		<path d="M586 89 v16 a14 14 90 0 1 -14 14 H492 a14 14 90 0 1 -14 -14 V89 H108" fill="#fee0b6" stroke="#fee0b6" stroke-width="0"/>
		<rect x="478" y="61" width="108" height="58" fill="none" rx="14" stroke="#e08214" stroke-width="1.5"/>
		<line x1="478" y1="89" x2="586" y2="89" stroke="#e08214" stroke-width="1.5"/>
		<text x="485" y="82.3" fill="#000000" font-family="Copperplate" font-size="18">Est située</text>
	</g>
	<text x="667" y="82" fill="#542788" font-family="Futura" font-size="11">1,1</text>
	<text x="362" y="106" fill="#542788" font-family="Futura" font-size="11">0,N</text>
</g>

<!-- Association EMET1 -->
<g>
	<line x1="296" y1="90" x2="296" y2="224" stroke="#e08214" stroke-width="1"/>
	<line x1="296" y1="401" x2="296" y2="224" stroke="#e08214" stroke-width="1"/>
	<g>
		<path d="M311 195 a14 14 90 0 1 14 14 V223 h-58 V209 a14 14 90 0 1 14 -14" fill="#fdb863" stroke="#fdb863" stroke-width="0"/>
		<path d="M325 223 v16 a14 14 90 0 1 -14 14 H281 a14 14 90 0 1 -14 -14 V223 H58" fill="#fee0b6" stroke="#fee0b6" stroke-width="0"/>
		<rect x="267" y="195" width="58" height="58" fill="none" rx="14" stroke="#e08214" stroke-width="1.5"/>
		<line x1="267" y1="223" x2="325" y2="223" stroke="#e08214" stroke-width="1.5"/>
		<text x="275" y="216.3" fill="#000000" font-family="Copperplate" font-size="18">émet</text>
	</g>
	<text x="301" y="144" fill="#542788" font-family="Futura" font-size="11">0,N</text>
	<text x="273" y="304" fill="#542788" font-family="Futura" font-size="11">0,1</text>
</g>

<!-- Association ECHANGE -->
<g>
	<line x1="296" y1="401" x2="532" y2="224" stroke="#e08214" stroke-width="1"/>
	<line x1="754" y1="90" x2="532" y2="224" stroke="#e08214" stroke-width="1"/>
	<g>
		<path d="M563 195 a14 14 90 0 1 14 14 V223 h-90 V209 a14 14 90 0 1 14 -14" fill="#fdb863" stroke="#fdb863" stroke-width="0"/>
		<path d="M577 223 v16 a14 14 90 0 1 -14 14 H501 a14 14 90 0 1 -14 -14 V223 H90" fill="#fee0b6" stroke="#fee0b6" stroke-width="0"/>
		<rect x="487" y="195" width="90" height="58" fill="none" rx="14" stroke="#e08214" stroke-width="1.5"/>
		<line x1="487" y1="223" x2="577" y2="223" stroke="#e08214" stroke-width="1.5"/>
		<text x="494" y="216.3" fill="#000000" font-family="Copperplate" font-size="18">échange</text>
	</g>
	<text x="397.32" y="304" fill="#542788" font-family="Futura" font-size="11">0,1</text>
	<text x="666" y="125.3" fill="#542788" font-family="Futura" font-size="11">0,N</text>
</g>

<!-- Association ENCODE -->
<g>
	<line x1="1024" y1="224" x2="754" y2="224" stroke="#e08214" stroke-width="1"/>
	<line x1="754" y1="401" x2="754" y2="224" stroke="#e08214" stroke-width="1"/>
	<line x1="1024" y1="401" x2="754" y2="224" stroke="#e08214" stroke-width="1"/>
	<g>
		<path d="M780 195 a14 14 90 0 1 14 14 V223 h-80 V209 a14 14 90 0 1 14 -14" fill="#fdb863" stroke="#fdb863" stroke-width="0"/>
		<path d="M794 223 v16 a14 14 90 0 1 -14 14 H728 a14 14 90 0 1 -14 -14 V223 H80" fill="#fee0b6" stroke="#fee0b6" stroke-width="0"/>
		<rect x="714" y="195" width="80" height="58" fill="none" rx="14" stroke="#e08214" stroke-width="1.5"/>
		<line x1="714" y1="223" x2="794" y2="223" stroke="#e08214" stroke-width="1.5"/>
		<text x="722" y="216.3" fill="#000000" font-family="Copperplate" font-size="18">encode</text>
	</g>
	<text x="900" y="240" fill="#542788" font-family="Futura" font-size="11">0,N</text>
	<text x="759" y="295" fill="#542788" font-family="Futura" font-size="11">1,1</text>
	<text x="940.07" y="338" fill="#542788" font-family="Futura" font-size="11">0,N</text>
</g>

<!-- Association EST_MEMBRE_DE -->
<g>
	<line x1="1024" y1="224" x2="1225" y2="224" stroke="#e08214" stroke-width="1"/>
	<line x1="1024" y1="401" x2="1225" y2="224" stroke="#e08214" stroke-width="1"/>
	<g>
		<path d="M1283 195 a14 14 90 0 1 14 14 V223 h-144 V209 a14 14 90 0 1 14 -14" fill="#fdb863" stroke="#fdb863" stroke-width="0"/>
		<path d="M1297 223 v16 a14 14 90 0 1 -14 14 H1167 a14 14 90 0 1 -14 -14 V223 H144" fill="#fee0b6" stroke="#fee0b6" stroke-width="0"/>
		<rect x="1153" y="195" width="144" height="58" fill="none" rx="14" stroke="#e08214" stroke-width="1.5"/>
		<line x1="1153" y1="223" x2="1297" y2="223" stroke="#e08214" stroke-width="1.5"/>
		<text x="1160" y="216.3" fill="#000000" font-family="Copperplate" font-size="18">est membre de</text>
		<text x="1160" y="241.1" fill="#000000" font-family="Gill Sans" font-size="15">Niveau Accès</text>
	</g>
	<text x="1129" y="240" fill="#542788" font-family="Futura" font-size="11">0,N</text>
	<text x="1068.89" y="338" fill="#542788" font-family="Futura" font-size="11">1,N</text>
</g>

<!-- Association EMET -->
<g>
	<line x1="296" y1="401" x2="78" y2="401" stroke="#e08214" stroke-width="1"/>
	<line x1="78" y1="224" x2="78" y2="401" stroke="#e08214" stroke-width="1"/>
	<g>
		<path d="M93 372 a14 14 90 0 1 14 14 V400 h-58 V386 a14 14 90 0 1 14 -14" fill="#fdb863" stroke="#fdb863" stroke-width="0"/>
		<path d="M107 400 v16 a14 14 90 0 1 -14 14 H63 a14 14 90 0 1 -14 -14 V400 H58" fill="#fee0b6" stroke="#fee0b6" stroke-width="0"/>
		<rect x="49" y="372" width="58" height="58" fill="none" rx="14" stroke="#e08214" stroke-width="1.5"/>
		<line x1="49" y1="400" x2="107" y2="400" stroke="#e08214" stroke-width="1.5"/>
		<text x="57" y="393.3" fill="#000000" font-family="Copperplate" font-size="18">émet</text>
	</g>
	<text x="113" y="417" fill="#542788" font-family="Futura" font-size="11">0,1</text>
	<text x="83" y="287" fill="#542788" font-family="Futura" font-size="11">0,N</text>
</g>

<!-- Association CONTIENT -->
<g>
	<line x1="754" y1="401" x2="532" y2="401" stroke="#e08214" stroke-width="1"/>
	<line x1="296" y1="401" x2="532" y2="401" stroke="#e08214" stroke-width="1"/>
	<g>
		<path d="M565 372 a14 14 90 0 1 14 14 V400 h-94 V386 a14 14 90 0 1 14 -14" fill="#fdb863" stroke="#fdb863" stroke-width="0"/>
		<path d="M579 400 v16 a14 14 90 0 1 -14 14 H499 a14 14 90 0 1 -14 -14 V400 H94" fill="#fee0b6" stroke="#fee0b6" stroke-width="0"/>
		<rect x="485" y="372" width="94" height="58" fill="none" rx="14" stroke="#e08214" stroke-width="1.5"/>
		<line x1="485" y1="400" x2="579" y2="400" stroke="#e08214" stroke-width="1.5"/>
		<text x="492" y="393.3" fill="#000000" font-family="Copperplate" font-size="18">contient</text>
	</g>
	<text x="585" y="417" fill="#542788" font-family="Futura" font-size="11">1,1</text>
	<text x="461" y="417" fill="#542788" font-family="Futura" font-size="11">0,N</text>
</g>

<!-- Association CONCERNE -->
<g>
	<line x1="296" y1="401" x2="296" y2="595" stroke="#e08214" stroke-width="1"/>
	<line x1="78" y1="595" x2="296" y2="595" stroke="#e08214" stroke-width="1"/>
	<g>
		<path d="M333 566 a14 14 90 0 1 14 14 V594 h-102 V580 a14 14 90 0 1 14 -14" fill="#fdb863" stroke="#fdb863" stroke-width="0"/>
		<path d="M347 594 v16 a14 14 90 0 1 -14 14 H259 a14 14 90 0 1 -14 -14 V594 H102" fill="#fee0b6" stroke="#fee0b6" stroke-width="0"/>
		<rect x="245" y="566" width="102" height="58" fill="none" rx="14" stroke="#e08214" stroke-width="1.5"/>
		<line x1="245" y1="594" x2="347" y2="594" stroke="#e08214" stroke-width="1.5"/>
		<text x="253" y="587.3" fill="#000000" font-family="Copperplate" font-size="18">concerne</text>
	</g>
	<text x="272" y="506" fill="#542788" font-family="Futura" font-size="11">0,N</text>
	<text x="147" y="611" fill="#542788" font-family="Futura" font-size="11">1,1</text>
</g>

<!-- Association DEVISE2 -->
<g>
	<line x1="754" y1="595" x2="532" y2="595" stroke="#e08214" stroke-width="1"/>
	<line x1="296" y1="401" x2="532" y2="595" stroke="#e08214" stroke-width="1"/>
	<g>
		<path d="M554 566 a14 14 90 0 1 14 14 V594 h-72 V580 a14 14 90 0 1 14 -14" fill="#fdb863" stroke="#fdb863" stroke-width="0"/>
		<path d="M568 594 v16 a14 14 90 0 1 -14 14 H510 a14 14 90 0 1 -14 -14 V594 H72" fill="#fee0b6" stroke="#fee0b6" stroke-width="0"/>
		<rect x="496" y="566" width="72" height="58" fill="none" rx="14" stroke="#e08214" stroke-width="1.5"/>
		<line x1="496" y1="594" x2="568" y2="594" stroke="#e08214" stroke-width="1.5"/>
		<text x="503" y="587.3" fill="#000000" font-family="Copperplate" font-size="18">devise</text>
	</g>
	<text x="675" y="611" fill="#542788" font-family="Futura" font-size="11">0,N</text>
	<text x="387.37" y="506" fill="#542788" font-family="Futura" font-size="11">1,1</text>
</g>

<!-- Association DEVISE1 -->
<g>
	<line x1="754" y1="595" x2="1024" y2="595" stroke="#e08214" stroke-width="1"/>
	<line x1="1024" y1="401" x2="1024" y2="595" stroke="#e08214" stroke-width="1"/>
	<g>
		<path d="M1046 566 a14 14 90 0 1 14 14 V594 h-72 V580 a14 14 90 0 1 14 -14" fill="#fdb863" stroke="#fdb863" stroke-width="0"/>
		<path d="M1060 594 v16 a14 14 90 0 1 -14 14 H1002 a14 14 90 0 1 -14 -14 V594 H72" fill="#fee0b6" stroke="#fee0b6" stroke-width="0"/>
		<rect x="988" y="566" width="72" height="58" fill="none" rx="14" stroke="#e08214" stroke-width="1.5"/>
		<line x1="988" y1="594" x2="1060" y2="594" stroke="#e08214" stroke-width="1.5"/>
		<text x="995" y="587.3" fill="#000000" font-family="Copperplate" font-size="18">devise</text>
	</g>
	<text x="814" y="611" fill="#542788" font-family="Futura" font-size="11">0,N</text>
	<text x="1029" y="472" fill="#542788" font-family="Futura" font-size="11">1,1</text>
</g>

<!-- Entity PAYS -->
<g>
	<g>
		<rect x="235" y="52" width="122" height="30" fill="#b2abd2" stroke="none" stroke-width="0" opacity="1"/>
		<rect x="235" y="82" width="122" height="46" fill="#d8daeb" stroke="none" stroke-width="0" opacity="1"/>
		<rect x="235" y="52" width="122" height="76" fill="none" stroke="#8073ac" stroke-width="1.5" opacity="1"/>
		<line x1="235" y1="82" x2="357" y2="82" stroke="#8073ac" stroke-width="1.5"/>
	</g>
	<text x="275" y="73.3" fill="#000000" font-family="Copperplate" font-size="18">Pays</text>
	<text x="243" y="99.1" fill="#000000" font-family="Gill Sans" font-size="15">Code ISO3166&#45;1</text>
	<line x1="243" y1="102" x2="349" y2="102" stroke="#000000" stroke-width="1"/>
	<text x="243" y="116.1" fill="#000000" font-family="Gill Sans" font-size="15">Nom</text>
</g>

<!-- Entity BOURSE -->
<g>
	<g>
		<rect x="690" y="9" width="128" height="30" fill="#b2abd2" stroke="none" stroke-width="0" opacity="1"/>
		<rect x="690" y="39" width="128" height="132" fill="#d8daeb" stroke="none" stroke-width="0" opacity="1"/>
		<rect x="690" y="9" width="128" height="162" fill="none" stroke="#8073ac" stroke-width="1.5" opacity="1"/>
		<line x1="690" y1="39" x2="818" y2="39" stroke="#8073ac" stroke-width="1.5"/>
	</g>
	<text x="720" y="30.3" fill="#000000" font-family="Copperplate" font-size="18">Bourse</text>
	<text x="698" y="56" fill="#000000" font-family="Gill Sans" font-size="15">Identifiant Bourse</text>
	<line x1="698" y1="59" x2="809" y2="59" stroke="#000000" stroke-width="1"/>
	<text x="698" y="73.1" fill="#000000" font-family="Gill Sans" font-size="15">Nom</text>
	<text x="698" y="90.1" fill="#000000" font-family="Gill Sans" font-size="15">Ville</text>
	<text x="698" y="107.1" fill="#000000" font-family="Gill Sans" font-size="15">Fuseau Horaire</text>
	<text x="698" y="124" fill="#000000" font-family="Gill Sans" font-size="15">Heure Ouveture</text>
	<text x="698" y="141" fill="#000000" font-family="Gill Sans" font-size="15">Heure Fermeture</text>
</g>

<!-- Entity ENTREPRISE -->
<g>
	<g>
		<rect x="9" y="177" width="138" height="30" fill="#b2abd2" stroke="none" stroke-width="0" opacity="1"/>
		<rect x="9" y="207" width="138" height="64" fill="#d8daeb" stroke="none" stroke-width="0" opacity="1"/>
		<rect x="9" y="177" width="138" height="94" fill="none" stroke="#8073ac" stroke-width="1.5" opacity="1"/>
		<line x1="9" y1="207" x2="147" y2="207" stroke="#8073ac" stroke-width="1.5"/>
	</g>
	<text x="27" y="198.3" fill="#000000" font-family="Copperplate" font-size="18">Entreprise</text>
	<text x="17" y="224.1" fill="#000000" font-family="Gill Sans" font-size="15">Numero entreprise</text>
	<line x1="17" y1="227" x2="139" y2="227" stroke="#000000" stroke-width="1"/>
	<text x="17" y="241.1" fill="#000000" font-family="Gill Sans" font-size="15">Nom</text>
	<text x="17" y="258" fill="#000000" font-family="Gill Sans" font-size="15">Secteur d’activité</text>
</g>

<!-- Entity UTILISATEUR -->
<g>
	<g>
		<rect x="924" y="169" width="200" height="30" fill="#b2abd2" stroke="none" stroke-width="0" opacity="1"/>
		<rect x="924" y="199" width="200" height="80" fill="#d8daeb" stroke="none" stroke-width="0" opacity="1"/>
		<rect x="924" y="169" width="200" height="110" fill="none" stroke="#8073ac" stroke-width="1.5" opacity="1"/>
		<line x1="924" y1="199" x2="1124" y2="199" stroke="#8073ac" stroke-width="1.5"/>
	</g>
	<text x="971" y="190.3" fill="#000000" font-family="Copperplate" font-size="18">Utilisateur</text>
	<text x="932" y="216.1" fill="#000000" font-family="Gill Sans" font-size="15">Adresse Mail</text>
	<line x1="932" y1="219" x2="1013" y2="219" stroke="#000000" stroke-width="1"/>
	<text x="932" y="233.1" fill="#000000" font-family="Gill Sans" font-size="15">Nom</text>
	<text x="932" y="250.1" fill="#000000" font-family="Gill Sans" font-size="15">Mot De Passe</text>
	<text x="932" y="267" fill="#000000" font-family="Gill Sans" font-size="15">Date De Création Utilisateur</text>
</g>

<!-- Entity INSTRUMENT_FINANCIER -->
<g>
	<g>
		<rect x="136" y="312" width="320" height="30" fill="#b2abd2" stroke="none" stroke-width="0" opacity="1"/>
		<rect x="136" y="342" width="320" height="148" fill="#d8daeb" stroke="none" stroke-width="0" opacity="1"/>
		<rect x="136" y="312" width="320" height="178" fill="none" stroke="#8073ac" stroke-width="1.5" opacity="1"/>
		<line x1="136" y1="342" x2="456" y2="342" stroke="#8073ac" stroke-width="1.5"/>
	</g>
	<text x="197" y="333.3" fill="#000000" font-family="Copperplate" font-size="18">Instrument Financier</text>
	<text x="144" y="359" fill="#000000" font-family="Gill Sans" font-size="15">ISIN</text>
	<line x1="144" y1="362" x2="172" y2="362" stroke="#000000" stroke-width="1"/>
	<text x="144" y="376.1" fill="#000000" font-family="Gill Sans" font-size="15">Nom</text>
	<text x="144" y="393.1" fill="#000000" font-family="Gill Sans" font-size="15">Type Instrument (Action/ETF/Obligation/Devise)</text>
	<text x="144" y="410.1" fill="#000000" font-family="Gill Sans" font-size="15">Symbole (Action/ETF)</text>
	<text x="144" y="427.1" fill="#000000" font-family="Gill Sans" font-size="15">Taux (Obligation)</text>
	<text x="144" y="444" fill="#000000" font-family="Gill Sans" font-size="15">Date Emission (Obligation)</text>
	<text x="144" y="461" fill="#000000" font-family="Gill Sans" font-size="15">Date Echeance (Obligation)</text>
	<text x="144" y="478" fill="#000000" font-family="Gill Sans" font-size="15">Couple Devise (Devise)</text>
</g>

<!-- Entity TRANSACTION -->
<g>
	<g>
		<rect x="608" y="303" width="292" height="30" fill="#b2abd2" stroke="none" stroke-width="0" opacity="1"/>
		<rect x="608" y="333" width="292" height="166" fill="#d8daeb" stroke="none" stroke-width="0" opacity="1"/>
		<rect x="608" y="303" width="292" height="196" fill="none" stroke="#8073ac" stroke-width="1.5" opacity="1"/>
		<line x1="608" y1="333" x2="900" y2="333" stroke="#8073ac" stroke-width="1.5"/>
	</g>
	<text x="698" y="324.3" fill="#000000" font-family="Copperplate" font-size="18">Transaction</text>
	<text x="616" y="350" fill="#000000" font-family="Gill Sans" font-size="15">Identifiant Transaction</text>
	<line x1="616" y1="353" x2="756" y2="353" stroke="#000000" stroke-width="1"/>
	<text x="616" y="367" fill="#000000" font-family="Gill Sans" font-size="15">Type (Vente/Achat)</text>
	<text x="616" y="384.1" fill="#000000" font-family="Gill Sans" font-size="15">Date</text>
	<text x="616" y="401.1" fill="#000000" font-family="Gill Sans" font-size="15">Heure</text>
	<text x="616" y="418.1" fill="#000000" font-family="Gill Sans" font-size="15">Quantité</text>
	<text x="616" y="435" fill="#000000" font-family="Gill Sans" font-size="15">Prix dans la Devise du Portfolio</text>
	<text x="616" y="452" fill="#000000" font-family="Gill Sans" font-size="15">Prix dans la Devise de l’Instrument Financier</text>
	<text x="616" y="469" fill="#000000" font-family="Gill Sans" font-size="15">Frais</text>
	<text x="616" y="486" fill="#000000" font-family="Gill Sans" font-size="15">Taxes</text>
</g>

<!-- Entity PORTFOLIO -->
<g>
	<g>
		<rect x="929" y="346" width="190" height="30" fill="#b2abd2" stroke="none" stroke-width="0" opacity="1"/>
		<rect x="929" y="376" width="190" height="80" fill="#d8daeb" stroke="none" stroke-width="0" opacity="1"/>
		<rect x="929" y="346" width="190" height="110" fill="none" stroke="#8073ac" stroke-width="1.5" opacity="1"/>
		<line x1="929" y1="376" x2="1119" y2="376" stroke="#8073ac" stroke-width="1.5"/>
	</g>
	<text x="978" y="367.3" fill="#000000" font-family="Copperplate" font-size="18">Portfolio</text>
	<text x="937" y="393.1" fill="#000000" font-family="Gill Sans" font-size="15">Identifiant Portfolio</text>
	<line x1="937" y1="396" x2="1058" y2="396" stroke="#000000" stroke-width="1"/>
	<text x="937" y="410.1" fill="#000000" font-family="Gill Sans" font-size="15">Nom</text>
	<text x="937" y="427.1" fill="#000000" font-family="Gill Sans" font-size="15">Description</text>
	<text x="937" y="444" fill="#000000" font-family="Gill Sans" font-size="15">Date De Création Portfolio</text>
</g>

<!-- Entity COURS -->
<g>
	<g>
		<rect x="14" y="514" width="128" height="30" fill="#b2abd2" stroke="none" stroke-width="0" opacity="1"/>
		<rect x="14" y="544" width="128" height="132" fill="#d8daeb" stroke="none" stroke-width="0" opacity="1"/>
		<rect x="14" y="514" width="128" height="162" fill="none" stroke="#8073ac" stroke-width="1.5" opacity="1"/>
		<line x1="14" y1="544" x2="142" y2="544" stroke="#8073ac" stroke-width="1.5"/>
	</g>
	<text x="49" y="535.3" fill="#000000" font-family="Copperplate" font-size="18">Cours</text>
	<text x="22" y="561" fill="#000000" font-family="Gill Sans" font-size="15">Date</text>
	<line x1="22" y1="564" x2="53" y2="564" stroke="#000000" stroke-width="1"/>
	<text x="22" y="578.1" fill="#000000" font-family="Gill Sans" font-size="15">Heure</text>
	<line x1="22" y1="581" x2="63" y2="581" stroke="#000000" stroke-width="1"/>
	<text x="22" y="595.1" fill="#000000" font-family="Gill Sans" font-size="15">Valeur Ouverture</text>
	<text x="22" y="612.1" fill="#000000" font-family="Gill Sans" font-size="15">Valeur Fermeture</text>
	<text x="22" y="629" fill="#000000" font-family="Gill Sans" font-size="15">Valeur Maximale</text>
	<text x="22" y="646" fill="#000000" font-family="Gill Sans" font-size="15">Valeur Minimale</text>
	<text x="22" y="663" fill="#000000" font-family="Gill Sans" font-size="15">Volume</text>
</g>

<!-- Entity DEVISE -->
<g>
	<g>
		<rect x="699" y="548" width="110" height="30" fill="#b2abd2" stroke="none" stroke-width="0" opacity="1"/>
		<rect x="699" y="578" width="110" height="64" fill="#d8daeb" stroke="none" stroke-width="0" opacity="1"/>
		<rect x="699" y="548" width="110" height="94" fill="none" stroke="#8073ac" stroke-width="1.5" opacity="1"/>
		<line x1="699" y1="578" x2="809" y2="578" stroke="#8073ac" stroke-width="1.5"/>
	</g>
	<text x="724" y="569.3" fill="#000000" font-family="Copperplate" font-size="18">Devise</text>
	<text x="707" y="595.1" fill="#000000" font-family="Gill Sans" font-size="15">Code ISO4217</text>
	<line x1="707" y1="598" x2="801" y2="598" stroke="#000000" stroke-width="1"/>
	<text x="707" y="612.1" fill="#000000" font-family="Gill Sans" font-size="15">Nom</text>
	<text x="707" y="629" fill="#000000" font-family="Gill Sans" font-size="15">Symbole</text>
</g>
</svg>