<?xml version="1.0" encoding="utf-8"?>
<!-- Generated by Mocodo 4.3.2 -->
<svg width="1422" height="585" viewBox="0 0 1422 585" xmlns="http://www.w3.org/2000/svg">
<rect x="0" y="0" width="1422" height="585" fill="#f7f7f7" stroke="none" stroke-width="0"/>

<!-- Association EST_SITUEE -->
<g>
	<line x1="222" y1="107" x2="70" y2="107" stroke="#e08214" stroke-width="1"/>
	<line x1="70" y1="301" x2="70" y2="107" stroke="#e08214" stroke-width="1"/>
	<g>
		<path d="M110 78 a14 14 90 0 1 14 14 V106 h-108 V92 a14 14 90 0 1 14 -14" fill="#fdb863" stroke="#fdb863" stroke-width="0"/>
		<path d="M124 106 v16 a14 14 90 0 1 -14 14 H30 a14 14 90 0 1 -14 -14 V106 H108" fill="#fee0b6" stroke="#fee0b6" stroke-width="0"/>
		<rect x="16" y="78" width="108" height="58" fill="none" rx="14" stroke="#e08214" stroke-width="1.5"/>
		<line x1="16" y1="106" x2="124" y2="106" stroke="#e08214" stroke-width="1.5"/>
		<text x="23" y="99.3" fill="#000000" font-family="Copperplate" font-size="18">Est située</text>
	</g>
	<text x="130" y="123" fill="#542788" font-family="Futura" font-size="11">1,1</text>
	<text x="75" y="255" fill="#542788" font-family="Futura" font-size="11">0,N</text>
</g>

<!-- Association EMET -->
<g>
	<line x1="440" y1="301" x2="440" y2="107" stroke="#e08214" stroke-width="1"/>
	<line x1="222" y1="107" x2="440" y2="107" stroke="#e08214" stroke-width="1"/>
	<g>
		<path d="M455 78 a14 14 90 0 1 14 14 V106 h-58 V92 a14 14 90 0 1 14 -14" fill="#fdb863" stroke="#fdb863" stroke-width="0"/>
		<path d="M469 106 v16 a14 14 90 0 1 -14 14 H425 a14 14 90 0 1 -14 -14 V106 H58" fill="#fee0b6" stroke="#fee0b6" stroke-width="0"/>
		<rect x="411" y="78" width="58" height="58" fill="none" rx="14" stroke="#e08214" stroke-width="1.5"/>
		<line x1="411" y1="106" x2="469" y2="106" stroke="#e08214" stroke-width="1.5"/>
		<text x="419" y="99.3" fill="#000000" font-family="Copperplate" font-size="18">émet</text>
	</g>
	<text x="417" y="204" fill="#542788" font-family="Futura" font-size="11">0,1</text>
	<text x="296" y="123" fill="#542788" font-family="Futura" font-size="11">0,N</text>
</g>

<!-- Association CONTIENT -->
<g>
	<line x1="902" y1="107" x2="680" y2="107" stroke="#e08214" stroke-width="1"/>
	<line x1="440" y1="301" x2="680" y2="107" stroke="#e08214" stroke-width="1"/>
	<g>
		<path d="M713 78 a14 14 90 0 1 14 14 V106 h-94 V92 a14 14 90 0 1 14 -14" fill="#fdb863" stroke="#fdb863" stroke-width="0"/>
		<path d="M727 106 v16 a14 14 90 0 1 -14 14 H647 a14 14 90 0 1 -14 -14 V106 H94" fill="#fee0b6" stroke="#fee0b6" stroke-width="0"/>
		<rect x="633" y="78" width="94" height="58" fill="none" rx="14" stroke="#e08214" stroke-width="1.5"/>
		<line x1="633" y1="106" x2="727" y2="106" stroke="#e08214" stroke-width="1.5"/>
		<text x="640" y="99.3" fill="#000000" font-family="Copperplate" font-size="18">contient</text>
	</g>
	<text x="733" y="123" fill="#542788" font-family="Futura" font-size="11">1,1</text>
	<text x="532.12" y="204" fill="#542788" font-family="Futura" font-size="11">0,N</text>
</g>

<!-- Association ENCODE -->
<g>
	<line x1="1313" y1="107" x2="1117" y2="107" stroke="#e08214" stroke-width="1"/>
	<line x1="902" y1="107" x2="1117" y2="107" stroke="#e08214" stroke-width="1"/>
	<line x1="1117" y1="301" x2="1117" y2="107" stroke="#e08214" stroke-width="1"/>
	<g>
		<path d="M1143 78 a14 14 90 0 1 14 14 V106 h-80 V92 a14 14 90 0 1 14 -14" fill="#fdb863" stroke="#fdb863" stroke-width="0"/>
		<path d="M1157 106 v16 a14 14 90 0 1 -14 14 H1091 a14 14 90 0 1 -14 -14 V106 H80" fill="#fee0b6" stroke="#fee0b6" stroke-width="0"/>
		<rect x="1077" y="78" width="80" height="58" fill="none" rx="14" stroke="#e08214" stroke-width="1.5"/>
		<line x1="1077" y1="106" x2="1157" y2="106" stroke="#e08214" stroke-width="1.5"/>
		<text x="1085" y="99.3" fill="#000000" font-family="Copperplate" font-size="18">encode</text>
	</g>
	<text x="1189" y="123" fill="#542788" font-family="Futura" font-size="11">0,N</text>
	<text x="1053" y="123" fill="#542788" font-family="Futura" font-size="11">1,1</text>
	<text x="1122" y="238" fill="#542788" font-family="Futura" font-size="11">0,N</text>
</g>

<!-- Association EMET1 -->
<g>
	<line x1="70" y1="301" x2="222" y2="301" stroke="#e08214" stroke-width="1"/>
	<line x1="440" y1="301" x2="222" y2="301" stroke="#e08214" stroke-width="1"/>
	<g>
		<path d="M237 272 a14 14 90 0 1 14 14 V300 h-58 V286 a14 14 90 0 1 14 -14" fill="#fdb863" stroke="#fdb863" stroke-width="0"/>
		<path d="M251 300 v16 a14 14 90 0 1 -14 14 H207 a14 14 90 0 1 -14 -14 V300 H58" fill="#fee0b6" stroke="#fee0b6" stroke-width="0"/>
		<rect x="193" y="272" width="58" height="58" fill="none" rx="14" stroke="#e08214" stroke-width="1.5"/>
		<line x1="193" y1="300" x2="251" y2="300" stroke="#e08214" stroke-width="1.5"/>
		<text x="201" y="293.3" fill="#000000" font-family="Copperplate" font-size="18">émet</text>
	</g>
	<text x="136" y="317" fill="#542788" font-family="Futura" font-size="11">0,N</text>
	<text x="257" y="317" fill="#542788" font-family="Futura" font-size="11">0,1</text>
</g>

<!-- Association CONCERNE -->
<g>
	<line x1="440" y1="301" x2="680" y2="301" stroke="#e08214" stroke-width="1"/>
	<line x1="902" y1="301" x2="680" y2="301" stroke="#e08214" stroke-width="1"/>
	<g>
		<path d="M717 272 a14 14 90 0 1 14 14 V300 h-102 V286 a14 14 90 0 1 14 -14" fill="#fdb863" stroke="#fdb863" stroke-width="0"/>
		<path d="M731 300 v16 a14 14 90 0 1 -14 14 H643 a14 14 90 0 1 -14 -14 V300 H102" fill="#fee0b6" stroke="#fee0b6" stroke-width="0"/>
		<rect x="629" y="272" width="102" height="58" fill="none" rx="14" stroke="#e08214" stroke-width="1.5"/>
		<line x1="629" y1="300" x2="731" y2="300" stroke="#e08214" stroke-width="1.5"/>
		<text x="637" y="293.3" fill="#000000" font-family="Copperplate" font-size="18">concerne</text>
	</g>
	<text x="605" y="317" fill="#542788" font-family="Futura" font-size="11">0,N</text>
	<text x="815" y="317" fill="#542788" font-family="Futura" font-size="11">1,1</text>
</g>

<!-- Association EST_MEMBRE_DE -->
<g>
	<line x1="1313" y1="107" x2="1313" y2="301" stroke="#e08214" stroke-width="1"/>
	<line x1="1117" y1="301" x2="1313" y2="301" stroke="#e08214" stroke-width="1"/>
	<g>
		<path d="M1371 272 a14 14 90 0 1 14 14 V300 h-144 V286 a14 14 90 0 1 14 -14" fill="#fdb863" stroke="#fdb863" stroke-width="0"/>
		<path d="M1385 300 v16 a14 14 90 0 1 -14 14 H1255 a14 14 90 0 1 -14 -14 V300 H144" fill="#fee0b6" stroke="#fee0b6" stroke-width="0"/>
		<rect x="1241" y="272" width="144" height="58" fill="none" rx="14" stroke="#e08214" stroke-width="1.5"/>
		<line x1="1241" y1="300" x2="1385" y2="300" stroke="#e08214" stroke-width="1.5"/>
		<text x="1248" y="293.3" fill="#000000" font-family="Copperplate" font-size="18">est membre de</text>
		<text x="1248" y="318.1" fill="#000000" font-family="Gill Sans" font-size="15">Niveau Accès</text>
	</g>
	<text x="1318" y="178" fill="#542788" font-family="Futura" font-size="11">0,N</text>
	<text x="1217" y="317" fill="#542788" font-family="Futura" font-size="11">1,N</text>
</g>

<!-- Association EST_SITUEE1 -->
<g>
	<line x1="222" y1="495" x2="70" y2="495" stroke="#e08214" stroke-width="1"/>
	<line x1="70" y1="301" x2="70" y2="495" stroke="#e08214" stroke-width="1"/>
	<g>
		<path d="M110 466 a14 14 90 0 1 14 14 V494 h-108 V480 a14 14 90 0 1 14 -14" fill="#fdb863" stroke="#fdb863" stroke-width="0"/>
		<path d="M124 494 v16 a14 14 90 0 1 -14 14 H30 a14 14 90 0 1 -14 -14 V494 H108" fill="#fee0b6" stroke="#fee0b6" stroke-width="0"/>
		<rect x="16" y="466" width="108" height="58" fill="none" rx="14" stroke="#e08214" stroke-width="1.5"/>
		<line x1="16" y1="494" x2="124" y2="494" stroke="#e08214" stroke-width="1.5"/>
		<text x="23" y="487.3" fill="#000000" font-family="Copperplate" font-size="18">Est située</text>
	</g>
	<text x="135" y="511" fill="#542788" font-family="Futura" font-size="11">1,1</text>
	<text x="75" y="355" fill="#542788" font-family="Futura" font-size="11">0,N</text>
</g>

<!-- Association ECHANGE -->
<g>
	<line x1="440" y1="301" x2="440" y2="495" stroke="#e08214" stroke-width="1"/>
	<line x1="222" y1="495" x2="440" y2="495" stroke="#e08214" stroke-width="1"/>
	<g>
		<path d="M471 466 a14 14 90 0 1 14 14 V494 h-90 V480 a14 14 90 0 1 14 -14" fill="#fdb863" stroke="#fdb863" stroke-width="0"/>
		<path d="M485 494 v16 a14 14 90 0 1 -14 14 H409 a14 14 90 0 1 -14 -14 V494 H90" fill="#fee0b6" stroke="#fee0b6" stroke-width="0"/>
		<rect x="395" y="466" width="90" height="58" fill="none" rx="14" stroke="#e08214" stroke-width="1.5"/>
		<line x1="395" y1="494" x2="485" y2="494" stroke="#e08214" stroke-width="1.5"/>
		<text x="402" y="487.3" fill="#000000" font-family="Copperplate" font-size="18">échange</text>
	</g>
	<text x="417" y="406" fill="#542788" font-family="Futura" font-size="11">0,1</text>
	<text x="291" y="511" fill="#542788" font-family="Futura" font-size="11">0,N</text>
</g>

<!-- Association DEVISE2 -->
<g>
	<line x1="902" y1="495" x2="680" y2="495" stroke="#e08214" stroke-width="1"/>
	<line x1="440" y1="301" x2="680" y2="495" stroke="#e08214" stroke-width="1"/>
	<g>
		<path d="M702 466 a14 14 90 0 1 14 14 V494 h-72 V480 a14 14 90 0 1 14 -14" fill="#fdb863" stroke="#fdb863" stroke-width="0"/>
		<path d="M716 494 v16 a14 14 90 0 1 -14 14 H658 a14 14 90 0 1 -14 -14 V494 H72" fill="#fee0b6" stroke="#fee0b6" stroke-width="0"/>
		<rect x="644" y="466" width="72" height="58" fill="none" rx="14" stroke="#e08214" stroke-width="1.5"/>
		<line x1="644" y1="494" x2="716" y2="494" stroke="#e08214" stroke-width="1.5"/>
		<text x="651" y="487.3" fill="#000000" font-family="Copperplate" font-size="18">devise</text>
	</g>
	<text x="823" y="511" fill="#542788" font-family="Futura" font-size="11">0,N</text>
	<text x="533.12" y="406" fill="#542788" font-family="Futura" font-size="11">1,1</text>
</g>

<!-- Association DEVISE1 -->
<g>
	<line x1="902" y1="495" x2="1117" y2="495" stroke="#e08214" stroke-width="1"/>
	<line x1="1117" y1="301" x2="1117" y2="495" stroke="#e08214" stroke-width="1"/>
	<g>
		<path d="M1139 466 a14 14 90 0 1 14 14 V494 h-72 V480 a14 14 90 0 1 14 -14" fill="#fdb863" stroke="#fdb863" stroke-width="0"/>
		<path d="M1153 494 v16 a14 14 90 0 1 -14 14 H1095 a14 14 90 0 1 -14 -14 V494 H72" fill="#fee0b6" stroke="#fee0b6" stroke-width="0"/>
		<rect x="1081" y="466" width="72" height="58" fill="none" rx="14" stroke="#e08214" stroke-width="1.5"/>
		<line x1="1081" y1="494" x2="1153" y2="494" stroke="#e08214" stroke-width="1.5"/>
		<text x="1088" y="487.3" fill="#000000" font-family="Copperplate" font-size="18">devise</text>
	</g>
	<text x="962" y="511" fill="#542788" font-family="Futura" font-size="11">0,N</text>
	<text x="1122" y="372" fill="#542788" font-family="Futura" font-size="11">1,1</text>
</g>

<!-- Entity ENTREPRISE -->
<g>
	<g>
		<rect x="153" y="60" width="138" height="30" fill="#b2abd2" stroke="none" stroke-width="0" opacity="1"/>
		<rect x="153" y="90" width="138" height="64" fill="#d8daeb" stroke="none" stroke-width="0" opacity="1"/>
		<rect x="153" y="60" width="138" height="94" fill="none" stroke="#8073ac" stroke-width="1.5" opacity="1"/>
		<line x1="153" y1="90" x2="291" y2="90" stroke="#8073ac" stroke-width="1.5"/>
	</g>
	<text x="171" y="81.3" fill="#000000" font-family="Copperplate" font-size="18">Entreprise</text>
	<text x="161" y="107.1" fill="#000000" font-family="Gill Sans" font-size="15">Numero entreprise</text>
	<line x1="161" y1="110" x2="283" y2="110" stroke="#000000" stroke-width="1"/>
	<text x="161" y="124.1" fill="#000000" font-family="Gill Sans" font-size="15">Nom</text>
	<text x="161" y="141" fill="#000000" font-family="Gill Sans" font-size="15">Secteur d’activité</text>
</g>

<!-- Entity TRANSACTION -->
<g>
	<g>
		<rect x="756" y="9" width="292" height="30" fill="#b2abd2" stroke="none" stroke-width="0" opacity="1"/>
		<rect x="756" y="39" width="292" height="166" fill="#d8daeb" stroke="none" stroke-width="0" opacity="1"/>
		<rect x="756" y="9" width="292" height="196" fill="none" stroke="#8073ac" stroke-width="1.5" opacity="1"/>
		<line x1="756" y1="39" x2="1048" y2="39" stroke="#8073ac" stroke-width="1.5"/>
	</g>
	<text x="846" y="30.3" fill="#000000" font-family="Copperplate" font-size="18">Transaction</text>
	<text x="764" y="56" fill="#000000" font-family="Gill Sans" font-size="15">Identifiant Transaction</text>
	<line x1="764" y1="59" x2="904" y2="59" stroke="#000000" stroke-width="1"/>
	<text x="764" y="73" fill="#000000" font-family="Gill Sans" font-size="15">Type (Vente/Achat)</text>
	<text x="764" y="90.1" fill="#000000" font-family="Gill Sans" font-size="15">Date</text>
	<text x="764" y="107.1" fill="#000000" font-family="Gill Sans" font-size="15">Heure</text>
	<text x="764" y="124.1" fill="#000000" font-family="Gill Sans" font-size="15">Quantité</text>
	<text x="764" y="141" fill="#000000" font-family="Gill Sans" font-size="15">Prix dans la Devise du Portfolio</text>
	<text x="764" y="158" fill="#000000" font-family="Gill Sans" font-size="15">Prix dans la Devise de l’Instrument Financier</text>
	<text x="764" y="175" fill="#000000" font-family="Gill Sans" font-size="15">Frais</text>
	<text x="764" y="192" fill="#000000" font-family="Gill Sans" font-size="15">Taxes</text>
</g>

<!-- Entity UTILISATEUR -->
<g>
	<g>
		<rect x="1213" y="52" width="200" height="30" fill="#b2abd2" stroke="none" stroke-width="0" opacity="1"/>
		<rect x="1213" y="82" width="200" height="80" fill="#d8daeb" stroke="none" stroke-width="0" opacity="1"/>
		<rect x="1213" y="52" width="200" height="110" fill="none" stroke="#8073ac" stroke-width="1.5" opacity="1"/>
		<line x1="1213" y1="82" x2="1413" y2="82" stroke="#8073ac" stroke-width="1.5"/>
	</g>
	<text x="1260" y="73.3" fill="#000000" font-family="Copperplate" font-size="18">Utilisateur</text>
	<text x="1221" y="99.1" fill="#000000" font-family="Gill Sans" font-size="15">Adresse Mail</text>
	<line x1="1221" y1="102" x2="1302" y2="102" stroke="#000000" stroke-width="1"/>
	<text x="1221" y="116.1" fill="#000000" font-family="Gill Sans" font-size="15">Nom</text>
	<text x="1221" y="133.1" fill="#000000" font-family="Gill Sans" font-size="15">Mot De Passe</text>
	<text x="1221" y="150" fill="#000000" font-family="Gill Sans" font-size="15">Date De Création Utilisateur</text>
</g>

<!-- Entity PAYS -->
<g>
	<g>
		<rect x="9" y="263" width="122" height="30" fill="#b2abd2" stroke="none" stroke-width="0" opacity="1"/>
		<rect x="9" y="293" width="122" height="46" fill="#d8daeb" stroke="none" stroke-width="0" opacity="1"/>
		<rect x="9" y="263" width="122" height="76" fill="none" stroke="#8073ac" stroke-width="1.5" opacity="1"/>
		<line x1="9" y1="293" x2="131" y2="293" stroke="#8073ac" stroke-width="1.5"/>
	</g>
	<text x="49" y="284.3" fill="#000000" font-family="Copperplate" font-size="18">Pays</text>
	<text x="17" y="310.1" fill="#000000" font-family="Gill Sans" font-size="15">Code ISO3166&#45;1</text>
	<line x1="17" y1="313" x2="123" y2="313" stroke="#000000" stroke-width="1"/>
	<text x="17" y="327.1" fill="#000000" font-family="Gill Sans" font-size="15">Nom</text>
</g>

<!-- Entity INSTRUMENT_FINANCIER -->
<g>
	<g>
		<rect x="280" y="212" width="320" height="30" fill="#b2abd2" stroke="none" stroke-width="0" opacity="1"/>
		<rect x="280" y="242" width="320" height="148" fill="#d8daeb" stroke="none" stroke-width="0" opacity="1"/>
		<rect x="280" y="212" width="320" height="178" fill="none" stroke="#8073ac" stroke-width="1.5" opacity="1"/>
		<line x1="280" y1="242" x2="600" y2="242" stroke="#8073ac" stroke-width="1.5"/>
	</g>
	<text x="341" y="233.3" fill="#000000" font-family="Copperplate" font-size="18">Instrument Financier</text>
	<text x="288" y="259" fill="#000000" font-family="Gill Sans" font-size="15">ISIN</text>
	<line x1="288" y1="262" x2="316" y2="262" stroke="#000000" stroke-width="1"/>
	<text x="288" y="276.1" fill="#000000" font-family="Gill Sans" font-size="15">Nom</text>
	<text x="288" y="293.1" fill="#000000" font-family="Gill Sans" font-size="15">Type Instrument (Action/ETF/Obligation/Devise)</text>
	<text x="288" y="310.1" fill="#000000" font-family="Gill Sans" font-size="15">Symbole (Action/ETF)</text>
	<text x="288" y="327.1" fill="#000000" font-family="Gill Sans" font-size="15">Taux (Obligation)</text>
	<text x="288" y="344" fill="#000000" font-family="Gill Sans" font-size="15">Date Emission (Obligation)</text>
	<text x="288" y="361" fill="#000000" font-family="Gill Sans" font-size="15">Date Echeance (Obligation)</text>
	<text x="288" y="378" fill="#000000" font-family="Gill Sans" font-size="15">Couple Devise (Devise)</text>
</g>

<!-- Entity COURS -->
<g>
	<g>
		<rect x="838" y="229" width="128" height="30" fill="#b2abd2" stroke="none" stroke-width="0" opacity="1"/>
		<rect x="838" y="259" width="128" height="114" fill="#d8daeb" stroke="none" stroke-width="0" opacity="1"/>
		<rect x="838" y="229" width="128" height="144" fill="none" stroke="#8073ac" stroke-width="1.5" opacity="1"/>
		<line x1="838" y1="259" x2="966" y2="259" stroke="#8073ac" stroke-width="1.5"/>
	</g>
	<text x="873" y="250.3" fill="#000000" font-family="Copperplate" font-size="18">Cours</text>
	<text x="846" y="276.1" fill="#000000" font-family="Gill Sans" font-size="15">Date</text>
	<line x1="846" y1="279" x2="877" y2="279" stroke="#000000" stroke-width="1"/>
	<text x="846" y="293.1" fill="#000000" font-family="Gill Sans" font-size="15">Valeur Ouverture</text>
	<text x="846" y="310.1" fill="#000000" font-family="Gill Sans" font-size="15">Valeur Fermeture</text>
	<text x="846" y="327.1" fill="#000000" font-family="Gill Sans" font-size="15">Valeur Maximale</text>
	<text x="846" y="344" fill="#000000" font-family="Gill Sans" font-size="15">Valeur Minimale</text>
	<text x="846" y="361" fill="#000000" font-family="Gill Sans" font-size="15">Volume</text>
</g>

<!-- Entity PORTFOLIO -->
<g>
	<g>
		<rect x="1022" y="246" width="190" height="30" fill="#b2abd2" stroke="none" stroke-width="0" opacity="1"/>
		<rect x="1022" y="276" width="190" height="80" fill="#d8daeb" stroke="none" stroke-width="0" opacity="1"/>
		<rect x="1022" y="246" width="190" height="110" fill="none" stroke="#8073ac" stroke-width="1.5" opacity="1"/>
		<line x1="1022" y1="276" x2="1212" y2="276" stroke="#8073ac" stroke-width="1.5"/>
	</g>
	<text x="1071" y="267.3" fill="#000000" font-family="Copperplate" font-size="18">Portfolio</text>
	<text x="1030" y="293.1" fill="#000000" font-family="Gill Sans" font-size="15">Identifiant Portfolio</text>
	<line x1="1030" y1="296" x2="1151" y2="296" stroke="#000000" stroke-width="1"/>
	<text x="1030" y="310.1" fill="#000000" font-family="Gill Sans" font-size="15">Nom</text>
	<text x="1030" y="327.1" fill="#000000" font-family="Gill Sans" font-size="15">Description</text>
	<text x="1030" y="344" fill="#000000" font-family="Gill Sans" font-size="15">Date De Création Portfolio</text>
</g>

<!-- Entity BOURSE -->
<g>
	<g>
		<rect x="158" y="414" width="128" height="30" fill="#b2abd2" stroke="none" stroke-width="0" opacity="1"/>
		<rect x="158" y="444" width="128" height="132" fill="#d8daeb" stroke="none" stroke-width="0" opacity="1"/>
		<rect x="158" y="414" width="128" height="162" fill="none" stroke="#8073ac" stroke-width="1.5" opacity="1"/>
		<line x1="158" y1="444" x2="286" y2="444" stroke="#8073ac" stroke-width="1.5"/>
	</g>
	<text x="188" y="435.3" fill="#000000" font-family="Copperplate" font-size="18">Bourse</text>
	<text x="166" y="461" fill="#000000" font-family="Gill Sans" font-size="15">Identifiant Bourse</text>
	<line x1="166" y1="464" x2="277" y2="464" stroke="#000000" stroke-width="1"/>
	<text x="166" y="478.1" fill="#000000" font-family="Gill Sans" font-size="15">Nom</text>
	<text x="166" y="495.1" fill="#000000" font-family="Gill Sans" font-size="15">Ville</text>
	<text x="166" y="512.1" fill="#000000" font-family="Gill Sans" font-size="15">Fuseau Horaire</text>
	<text x="166" y="529" fill="#000000" font-family="Gill Sans" font-size="15">Heure Ouveture</text>
	<text x="166" y="546" fill="#000000" font-family="Gill Sans" font-size="15">Heure Fermeture</text>
</g>

<!-- Entity DEVISE -->
<g>
	<g>
		<rect x="847" y="448" width="110" height="30" fill="#b2abd2" stroke="none" stroke-width="0" opacity="1"/>
		<rect x="847" y="478" width="110" height="64" fill="#d8daeb" stroke="none" stroke-width="0" opacity="1"/>
		<rect x="847" y="448" width="110" height="94" fill="none" stroke="#8073ac" stroke-width="1.5" opacity="1"/>
		<line x1="847" y1="478" x2="957" y2="478" stroke="#8073ac" stroke-width="1.5"/>
	</g>
	<text x="872" y="469.3" fill="#000000" font-family="Copperplate" font-size="18">Devise</text>
	<text x="855" y="495.1" fill="#000000" font-family="Gill Sans" font-size="15">Code ISO4217</text>
	<line x1="855" y1="498" x2="949" y2="498" stroke="#000000" stroke-width="1"/>
	<text x="855" y="512.1" fill="#000000" font-family="Gill Sans" font-size="15">Nom</text>
	<text x="855" y="529" fill="#000000" font-family="Gill Sans" font-size="15">Symbole</text>
</g>
</svg>