<?xml version="1.0" encoding="utf-8"?>
<!-- Generated by Mocodo 4.3.2 -->
<svg width="1222" height="602" viewBox="0 0 1222 602" xmlns="http://www.w3.org/2000/svg">
<rect x="0" y="0" width="1222" height="602" fill="#f7f7f7" stroke="none" stroke-width="0"/>

<!-- Entity BOURSE -->
<g>
	<g>
		<rect x="44" y="9" width="126" height="26" fill="#b2abd2" stroke="none" stroke-width="0" opacity="1"/>
		<rect x="44" y="35" width="126" height="134" fill="#d8daeb" stroke="none" stroke-width="0" opacity="1"/>
		<rect x="44" y="9" width="126" height="160" fill="none" stroke="#8073ac" stroke-width="1.5" opacity="1"/>
		<line x1="44" y1="35" x2="170" y2="35" stroke="#8073ac" stroke-width="1"/>
	</g>
	<text x="85" y="27.6" fill="#000000" font-family="Trebuchet MS" font-size="14">Bourse</text>
	<text x="49" y="53.6" fill="#000000" font-family="Trebuchet MS" font-size="14">Identifiant Bourse</text>
	<line x1="49" y1="56" x2="165" y2="56" stroke="#000000" stroke-width="1"/>
	<text x="49" y="71.6" fill="#000000" font-family="Trebuchet MS" font-size="14">Nom</text>
	<text x="49" y="89.6" fill="#000000" font-family="Trebuchet MS" font-size="14">Ville</text>
	<text x="49" y="107.6" fill="#000000" font-family="Trebuchet MS" font-size="14">Fuseau Horaire</text>
	<text x="49" y="125.6" fill="#000000" font-family="Trebuchet MS" font-size="14">Heure Ouveture</text>
	<text x="49" y="143.6" fill="#000000" font-family="Trebuchet MS" font-size="14">Heure Fermeture</text>
	<text x="49" y="161.6" fill="#000000" font-family="Trebuchet MS" font-size="14">#Code ISO3166&#45;1</text>
</g>

<!-- Entity COURS -->
<g>
	<g>
		<rect x="337" y="9" width="126" height="26" fill="#b2abd2" stroke="none" stroke-width="0" opacity="1"/>
		<rect x="337" y="35" width="126" height="134" fill="#d8daeb" stroke="none" stroke-width="0" opacity="1"/>
		<rect x="337" y="9" width="126" height="160" fill="none" stroke="#8073ac" stroke-width="1.5" opacity="1"/>
		<line x1="337" y1="35" x2="463" y2="35" stroke="#8073ac" stroke-width="1"/>
	</g>
	<text x="382" y="27.6" fill="#000000" font-family="Trebuchet MS" font-size="14">Cours</text>
	<text x="342" y="53.6" fill="#000000" font-family="Trebuchet MS" font-size="14">Date</text>
	<line x1="342" y1="56" x2="373" y2="56" stroke="#000000" stroke-width="1"/>
	<text x="342" y="71.6" fill="#000000" font-family="Trebuchet MS" font-size="14">Valeur Ouverture</text>
	<text x="342" y="89.6" fill="#000000" font-family="Trebuchet MS" font-size="14">Valeur Fermeture</text>
	<text x="342" y="107.6" fill="#000000" font-family="Trebuchet MS" font-size="14">Valeur Maximale</text>
	<text x="342" y="125.6" fill="#000000" font-family="Trebuchet MS" font-size="14">Valeur Minimale</text>
	<text x="342" y="143.6" fill="#000000" font-family="Trebuchet MS" font-size="14">Volume</text>
	<text x="342" y="161.6" fill="#000000" font-family="Trebuchet MS" font-size="14">#ISIN</text>
</g>

<!-- Entity PAYS -->
<g>
	<g>
		<rect x="51" y="284" width="112" height="26" fill="#b2abd2" stroke="none" stroke-width="0" opacity="1"/>
		<rect x="51" y="310" width="112" height="44" fill="#d8daeb" stroke="none" stroke-width="0" opacity="1"/>
		<rect x="51" y="284" width="112" height="70" fill="none" stroke="#8073ac" stroke-width="1.5" opacity="1"/>
		<line x1="51" y1="310" x2="163" y2="310" stroke="#8073ac" stroke-width="1"/>
	</g>
	<text x="93" y="302.6" fill="#000000" font-family="Trebuchet MS" font-size="14">Pays</text>
	<text x="56" y="328.6" fill="#000000" font-family="Trebuchet MS" font-size="14">Code ISO3166&#45;1</text>
	<line x1="56" y1="331" x2="157" y2="331" stroke="#000000" stroke-width="1"/>
	<text x="56" y="346.6" fill="#000000" font-family="Trebuchet MS" font-size="14">Nom</text>
</g>

<!-- Entity INSTRUMENT_FINANCIER -->
<g>
	<g>
		<rect x="237" y="194" width="326" height="26" fill="#b2abd2" stroke="none" stroke-width="0" opacity="1"/>
		<rect x="237" y="220" width="326" height="224" fill="#d8daeb" stroke="none" stroke-width="0" opacity="1"/>
		<rect x="237" y="194" width="326" height="250" fill="none" stroke="#8073ac" stroke-width="1.5" opacity="1"/>
		<line x1="237" y1="220" x2="563" y2="220" stroke="#8073ac" stroke-width="1"/>
	</g>
	<text x="333" y="212.6" fill="#000000" font-family="Trebuchet MS" font-size="14">Instrument Financier</text>
	<text x="242" y="238.6" fill="#000000" font-family="Trebuchet MS" font-size="14">ISIN</text>
	<line x1="242" y1="241" x2="267" y2="241" stroke="#000000" stroke-width="1"/>
	<text x="242" y="256.6" fill="#000000" font-family="Trebuchet MS" font-size="14">Nom</text>
	<text x="242" y="274.6" fill="#000000" font-family="Trebuchet MS" font-size="14">Type Instrument (Action/ETF/Obligation/Devise)</text>
	<text x="242" y="292.6" fill="#000000" font-family="Trebuchet MS" font-size="14">Symbole (Action/ETF)</text>
	<text x="242" y="310.6" fill="#000000" font-family="Trebuchet MS" font-size="14">Taux (Obligation)</text>
	<text x="242" y="328.6" fill="#000000" font-family="Trebuchet MS" font-size="14">Date Emission (Obligation)</text>
	<text x="242" y="346.6" fill="#000000" font-family="Trebuchet MS" font-size="14">Date Echeance (Obligation)</text>
	<text x="242" y="364.6" fill="#000000" font-family="Trebuchet MS" font-size="14">Couple Devise (Devise)</text>
	<text x="242" y="382.6" fill="#000000" font-family="Trebuchet MS" font-size="14">#Numero entreprise</text>
	<text x="242" y="400.6" fill="#000000" font-family="Trebuchet MS" font-size="14">#Code ISO3166&#45;1</text>
	<text x="242" y="418.6" fill="#000000" font-family="Trebuchet MS" font-size="14">#Identifiant Bourse</text>
	<text x="242" y="436.6" fill="#000000" font-family="Trebuchet MS" font-size="14">#Code ISO4217</text>
</g>

<!-- Entity TRANSACTION -->
<g>
	<g>
		<rect x="627" y="194" width="296" height="26" fill="#b2abd2" stroke="none" stroke-width="0" opacity="1"/>
		<rect x="627" y="220" width="296" height="224" fill="#d8daeb" stroke="none" stroke-width="0" opacity="1"/>
		<rect x="627" y="194" width="296" height="250" fill="none" stroke="#8073ac" stroke-width="1.5" opacity="1"/>
		<line x1="627" y1="220" x2="923" y2="220" stroke="#8073ac" stroke-width="1"/>
	</g>
	<text x="737" y="212.6" fill="#000000" font-family="Trebuchet MS" font-size="14">Transaction</text>
	<text x="632" y="238.6" fill="#000000" font-family="Trebuchet MS" font-size="14">Identifiant Transaction</text>
	<line x1="632" y1="241" x2="781" y2="241" stroke="#000000" stroke-width="1"/>
	<text x="632" y="256.6" fill="#000000" font-family="Trebuchet MS" font-size="14">Type (Vente/Achat)</text>
	<text x="632" y="274.6" fill="#000000" font-family="Trebuchet MS" font-size="14">Date</text>
	<text x="632" y="292.6" fill="#000000" font-family="Trebuchet MS" font-size="14">Heure</text>
	<text x="632" y="310.6" fill="#000000" font-family="Trebuchet MS" font-size="14">Quantité</text>
	<text x="632" y="328.6" fill="#000000" font-family="Trebuchet MS" font-size="14">Prix dans la Devise du Portfolio</text>
	<text x="632" y="346.6" fill="#000000" font-family="Trebuchet MS" font-size="14">Prix dans la Devise de l’Instrument Financier</text>
	<text x="632" y="364.6" fill="#000000" font-family="Trebuchet MS" font-size="14">Frais</text>
	<text x="632" y="382.6" fill="#000000" font-family="Trebuchet MS" font-size="14">Taxes</text>
	<text x="632" y="400.6" fill="#000000" font-family="Trebuchet MS" font-size="14">#ISIN</text>
	<text x="632" y="418.6" fill="#000000" font-family="Trebuchet MS" font-size="14">#Adresse Mail</text>
	<text x="632" y="436.6" fill="#000000" font-family="Trebuchet MS" font-size="14">#Identifiant Portfolio</text>
</g>

<!-- Entity UTILISATEUR -->
<g>
	<g>
		<rect x="987" y="266" width="194" height="26" fill="#b2abd2" stroke="none" stroke-width="0" opacity="1"/>
		<rect x="987" y="292" width="194" height="80" fill="#d8daeb" stroke="none" stroke-width="0" opacity="1"/>
		<rect x="987" y="266" width="194" height="106" fill="none" stroke="#8073ac" stroke-width="1.5" opacity="1"/>
		<line x1="987" y1="292" x2="1181" y2="292" stroke="#8073ac" stroke-width="1"/>
	</g>
	<text x="1050" y="284.6" fill="#000000" font-family="Trebuchet MS" font-size="14">Utilisateur</text>
	<text x="992" y="310.6" fill="#000000" font-family="Trebuchet MS" font-size="14">Adresse Mail</text>
	<line x1="992" y1="313" x2="1073" y2="313" stroke="#000000" stroke-width="1"/>
	<text x="992" y="328.6" fill="#000000" font-family="Trebuchet MS" font-size="14">Nom</text>
	<text x="992" y="346.6" fill="#000000" font-family="Trebuchet MS" font-size="14">Mot De Passe</text>
	<text x="992" y="364.6" fill="#000000" font-family="Trebuchet MS" font-size="14">Date De Création Utilisateur</text>
</g>

<!-- Entity ENTREPRISE -->
<g>
	<g>
		<rect x="41" y="478" width="132" height="26" fill="#b2abd2" stroke="none" stroke-width="0" opacity="1"/>
		<rect x="41" y="504" width="132" height="80" fill="#d8daeb" stroke="none" stroke-width="0" opacity="1"/>
		<rect x="41" y="478" width="132" height="106" fill="none" stroke="#8073ac" stroke-width="1.5" opacity="1"/>
		<line x1="41" y1="504" x2="173" y2="504" stroke="#8073ac" stroke-width="1"/>
	</g>
	<text x="74" y="496.6" fill="#000000" font-family="Trebuchet MS" font-size="14">Entreprise</text>
	<text x="46" y="522.6" fill="#000000" font-family="Trebuchet MS" font-size="14">Numero entreprise</text>
	<line x1="46" y1="525" x2="168" y2="525" stroke="#000000" stroke-width="1"/>
	<text x="46" y="540.6" fill="#000000" font-family="Trebuchet MS" font-size="14">Nom</text>
	<text x="46" y="558.6" fill="#000000" font-family="Trebuchet MS" font-size="14">Secteur d’activité</text>
	<text x="46" y="576.6" fill="#000000" font-family="Trebuchet MS" font-size="14">#Code ISO3166&#45;1</text>
</g>

<!-- Entity DEVISE -->
<g>
	<g>
		<rect x="351" y="487" width="98" height="26" fill="#b2abd2" stroke="none" stroke-width="0" opacity="1"/>
		<rect x="351" y="513" width="98" height="62" fill="#d8daeb" stroke="none" stroke-width="0" opacity="1"/>
		<rect x="351" y="487" width="98" height="88" fill="none" stroke="#8073ac" stroke-width="1.5" opacity="1"/>
		<line x1="351" y1="513" x2="449" y2="513" stroke="#8073ac" stroke-width="1"/>
	</g>
	<text x="379" y="505.6" fill="#000000" font-family="Trebuchet MS" font-size="14">Devise</text>
	<text x="356" y="531.6" fill="#000000" font-family="Trebuchet MS" font-size="14">Code ISO4217</text>
	<line x1="356" y1="534" x2="444" y2="534" stroke="#000000" stroke-width="1"/>
	<text x="356" y="549.6" fill="#000000" font-family="Trebuchet MS" font-size="14">Nom</text>
	<text x="356" y="567.6" fill="#000000" font-family="Trebuchet MS" font-size="14">Symbole</text>
</g>

<!-- Entity PORTFOLIO -->
<g>
	<g>
		<rect x="684" y="469" width="182" height="26" fill="#b2abd2" stroke="none" stroke-width="0" opacity="1"/>
		<rect x="684" y="495" width="182" height="98" fill="#d8daeb" stroke="none" stroke-width="0" opacity="1"/>
		<rect x="684" y="469" width="182" height="124" fill="none" stroke="#8073ac" stroke-width="1.5" opacity="1"/>
		<line x1="684" y1="495" x2="866" y2="495" stroke="#8073ac" stroke-width="1"/>
	</g>
	<text x="747" y="487.6" fill="#000000" font-family="Trebuchet MS" font-size="14">Portfolio</text>
	<text x="689" y="513.6" fill="#000000" font-family="Trebuchet MS" font-size="14">Identifiant Portfolio</text>
	<line x1="689" y1="516" x2="818" y2="516" stroke="#000000" stroke-width="1"/>
	<text x="689" y="531.6" fill="#000000" font-family="Trebuchet MS" font-size="14">Nom</text>
	<text x="689" y="549.6" fill="#000000" font-family="Trebuchet MS" font-size="14">Description</text>
	<text x="689" y="567.6" fill="#000000" font-family="Trebuchet MS" font-size="14">Date De Création Portfolio</text>
	<text x="689" y="585.6" fill="#000000" font-family="Trebuchet MS" font-size="14">#Code ISO4217</text>
</g>

<!-- Entity EST_MEMBRE_DE -->
<g>
	<g>
		<rect x="1010" y="487" width="148" height="26" fill="#b2abd2" stroke="none" stroke-width="0" opacity="1"/>
		<rect x="1010" y="513" width="148" height="62" fill="#d8daeb" stroke="none" stroke-width="0" opacity="1"/>
		<rect x="1010" y="487" width="148" height="88" fill="none" stroke="#8073ac" stroke-width="1.5" opacity="1"/>
		<line x1="1010" y1="513" x2="1158" y2="513" stroke="#8073ac" stroke-width="1"/>
	</g>
	<text x="1035" y="505.6" fill="#000000" font-family="Trebuchet MS" font-size="14">est membre de</text>
	<text x="1015" y="531.6" fill="#000000" font-family="Trebuchet MS" font-size="14">#Adresse Mail</text>
	<line x1="1015" y1="534" x2="1103" y2="534" stroke="#000000" stroke-width="1"/>
	<text x="1015" y="549.6" fill="#000000" font-family="Trebuchet MS" font-size="14">#Identifiant Portfolio</text>
	<line x1="1015" y1="552" x2="1152" y2="552" stroke="#000000" stroke-width="1"/>
	<text x="1015" y="567.6" fill="#000000" font-family="Trebuchet MS" font-size="14">Niveau Accès</text>
</g>

<!-- Link from &quot;Code ISO3166&#45;1&quot; (BOURSE) to &quot;Code ISO3166&#45;1&quot; (PAYS) -->
<path d="M170 157 C224 240.5 217 324 163 324" fill="none" stroke="#e08214" stroke-width="1"/>
<polygon points="163 324 175 318 171 324 175 330" fill="#e08214" stroke-width="0"/>
<circle cx="170" cy="157" r="1.5" stroke="#e08214" stroke-width="1.5" fill="#e08214"/>

<!-- Link from &quot;ISIN&quot; (COURS) to &quot;ISIN&quot; (INSTRUMENT_FINANCIER) -->
<path d="M463 157 C517 195.5 617 234 563 234" fill="none" stroke="#e08214" stroke-width="1"/>
<polygon points="563 234 575 228 571 234 575 240" fill="#e08214" stroke-width="0"/>
<circle cx="463" cy="157" r="1.5" stroke="#e08214" stroke-width="1.5" fill="#e08214"/>

<!-- Link from &quot;Numero entreprise&quot; (INSTRUMENT_FINANCIER) to &quot;Numero entreprise&quot; (ENTREPRISE) -->
<path d="M237 378 C205 448 215.67 518 173 518" fill="none" stroke="#e08214" stroke-width="1"/>
<polygon points="173 518 185 512 181 518 185 524" fill="#e08214" stroke-width="0"/>
<circle cx="237" cy="378" r="1.5" stroke="#e08214" stroke-width="1.5" fill="#e08214"/>

<!-- Link from &quot;Code ISO3166&#45;1&quot; (INSTRUMENT_FINANCIER) to &quot;Code ISO3166&#45;1&quot; (PAYS) -->
<path d="M237 396 C200 360 212.33 324 163 324" fill="none" stroke="#e08214" stroke-width="1"/>
<polygon points="163 324 175 318 171 324 175 330" fill="#e08214" stroke-width="0"/>
<circle cx="237" cy="396" r="1.5" stroke="#e08214" stroke-width="1.5" fill="#e08214"/>

<!-- Link from &quot;Identifiant Bourse&quot; (INSTRUMENT_FINANCIER) to &quot;Identifiant Bourse&quot; (BOURSE) -->
<path d="M237 414 C203.5 231.5 214.67 49 170 49" fill="none" stroke="#e08214" stroke-width="1"/>
<polygon points="170 49 182 43 178 49 182 55" fill="#e08214" stroke-width="0"/>
<circle cx="237" cy="414" r="1.5" stroke="#e08214" stroke-width="1.5" fill="#e08214"/>

<!-- Link from &quot;Code ISO4217&quot; (INSTRUMENT_FINANCIER) to &quot;Code ISO4217&quot; (DEVISE) -->
<path d="M237 432 C183 479.5 297 527 351 527" fill="none" stroke="#e08214" stroke-width="1"/>
<polygon points="351 527 339 533 343 527 339 521" fill="#e08214" stroke-width="0"/>
<circle cx="237" cy="432" r="1.5" stroke="#e08214" stroke-width="1.5" fill="#e08214"/>

<!-- Link from &quot;ISIN&quot; (TRANSACTION) to &quot;ISIN&quot; (INSTRUMENT_FINANCIER) -->
<path d="M627 396 C595 315 605.67 234 563 234" fill="none" stroke="#e08214" stroke-width="1"/>
<polygon points="563 234 575 228 571 234 575 240" fill="#e08214" stroke-width="0"/>
<circle cx="627" cy="396" r="1.5" stroke="#e08214" stroke-width="1.5" fill="#e08214"/>

<!-- Link from &quot;Adresse Mail&quot; (TRANSACTION) to &quot;Adresse Mail&quot; (UTILISATEUR) -->
<path d="M923 414 C955 360 944.33 306 987 306" fill="none" stroke="#e08214" stroke-width="1"/>
<polygon points="987 306 975 312 979 306 975 300" fill="#e08214" stroke-width="0"/>
<circle cx="923" cy="414" r="1.5" stroke="#e08214" stroke-width="1.5" fill="#e08214"/>

<!-- Link from &quot;Identifiant Portfolio&quot; (TRANSACTION) to &quot;Identifiant Portfolio&quot; (PORTFOLIO) -->
<path d="M627 432 C573 470.5 630 509 684 509" fill="none" stroke="#e08214" stroke-width="1"/>
<polygon points="684 509 672 515 676 509 672 503" fill="#e08214" stroke-width="0"/>
<circle cx="627" cy="432" r="1.5" stroke="#e08214" stroke-width="1.5" fill="#e08214"/>

<!-- Link from &quot;Code ISO3166&#45;1&quot; (ENTREPRISE) to &quot;Code ISO3166&#45;1&quot; (PAYS) -->
<path d="M41 572 C-13 448 -3 324 51 324" fill="none" stroke="#e08214" stroke-width="1"/>
<polygon points="51 324 39 330 43 324 39 318" fill="#e08214" stroke-width="0"/>
<circle cx="41" cy="572" r="1.5" stroke="#e08214" stroke-width="1.5" fill="#e08214"/>

<!-- Link from &quot;Code ISO4217&quot; (PORTFOLIO) to &quot;Code ISO4217&quot; (DEVISE) -->
<path d="M684 581 C566.5 554 605.67 527 449 527" fill="none" stroke="#e08214" stroke-width="1"/>
<polygon points="449 527 461 521 457 527 461 533" fill="#e08214" stroke-width="0"/>
<circle cx="684" cy="581" r="1.5" stroke="#e08214" stroke-width="1.5" fill="#e08214"/>

<!-- Link from &quot;Adresse Mail&quot; (EST_MEMBRE_DE) to &quot;Adresse Mail&quot; (UTILISATEUR) -->
<path d="M1158 527 C1212 416.5 1235 306 1181 306" fill="none" stroke="#e08214" stroke-width="1"/>
<polygon points="1181 306 1193 300 1189 306 1193 312" fill="#e08214" stroke-width="0"/>
<circle cx="1158" cy="527" r="1.5" stroke="#e08214" stroke-width="1.5" fill="#e08214"/>

<!-- Link from &quot;Identifiant Portfolio&quot; (EST_MEMBRE_DE) to &quot;Identifiant Portfolio&quot; (PORTFOLIO) -->
<path d="M1010 545 C938 527 962 509 866 509" fill="none" stroke="#e08214" stroke-width="1"/>
<polygon points="866 509 878 503 874 509 878 515" fill="#e08214" stroke-width="0"/>
<circle cx="1010" cy="545" r="1.5" stroke="#e08214" stroke-width="1.5" fill="#e08214"/>
</svg>