<?xml version="1.0" encoding="utf-8"?>
<!-- Generated by Mocodo 4.3.2 -->
<svg width="761" height="401" viewBox="0 0 761 401" xmlns="http://www.w3.org/2000/svg">
<rect x="0" y="0" width="761" height="401" fill="#f7f7f7" stroke="none" stroke-width="0"/>

<!-- Association HISTORIQUE_DE_TRANSACTIONS -->
<g>
	<line x1="142" y1="294" x2="142" y2="172" stroke="#e08214" stroke-width="1"/>
	<line x1="307" y1="64" x2="142" y2="172" stroke="#e08214" stroke-width="1"/>
	<g>
		<path d="M261 143 a14 14 90 0 1 14 14 V171 h-266 V157 a14 14 90 0 1 14 -14" fill="#fdb863" stroke="#fdb863" stroke-width="0"/>
		<path d="M275 171 v16 a14 14 90 0 1 -14 14 H23 a14 14 90 0 1 -14 -14 V171 H266" fill="#fee0b6" stroke="#fee0b6" stroke-width="0"/>
		<rect x="9" y="143" width="266" height="58" fill="none" rx="14" stroke="#e08214" stroke-width="1.5"/>
		<line x1="9" y1="171" x2="275" y2="171" stroke="#e08214" stroke-width="1.5"/>
		<text x="17" y="164.3" fill="#000000" font-family="Copperplate" font-size="18">historique de transactions</text>
	</g>
	<text x="147" y="231" fill="#542788" font-family="Futura" font-size="11">0,N</text>
	<text x="206" y="112.08" fill="#542788" font-family="Futura" font-size="11">1,1</text>
</g>

<!-- Association CONTIENT -->
<g>
	<line x1="142" y1="294" x2="307" y2="294" stroke="#e08214" stroke-width="1"/>
	<line x1="563" y1="294" x2="307" y2="294" stroke="#e08214" stroke-width="1"/>
	<g>
		<path d="M360 257 a14 14 90 0 1 14 14 V285 h-134 V271 a14 14 90 0 1 14 -14" fill="#fdb863" stroke="#fdb863" stroke-width="0"/>
		<path d="M374 285 v32 a14 14 90 0 1 -14 14 H254 a14 14 90 0 1 -14 -14 V285 H134" fill="#fee0b6" stroke="#fee0b6" stroke-width="0"/>
		<rect x="240" y="257" width="134" height="74" fill="none" rx="14" stroke="#e08214" stroke-width="1.5"/>
		<line x1="240" y1="285" x2="374" y2="285" stroke="#e08214" stroke-width="1.5"/>
		<text x="267" y="278.3" fill="#000000" font-family="Copperplate" font-size="18">contient</text>
		<text x="247" y="303.1" fill="#000000" font-family="Gill Sans" font-size="15">Quantité</text>
		<text x="247" y="320.1" fill="#000000" font-family="Gill Sans" font-size="15">Prix Moyen d’achat</text>
	</g>
	<text x="216" y="310" fill="#542788" font-family="Futura" font-size="11">0,N</text>
	<text x="380" y="310" fill="#542788" font-family="Futura" font-size="11">1,1</text>
</g>

<!-- Entity TRANSACTION -->
<g>
	<g>
		<rect x="229" y="9" width="156" height="30" fill="#b2abd2" stroke="none" stroke-width="0" opacity="1"/>
		<rect x="229" y="39" width="156" height="80" fill="#d8daeb" stroke="none" stroke-width="0" opacity="1"/>
		<rect x="229" y="9" width="156" height="110" fill="none" stroke="#8073ac" stroke-width="1.5" opacity="1"/>
		<line x1="229" y1="39" x2="385" y2="39" stroke="#8073ac" stroke-width="1.5"/>
	</g>
	<text x="251" y="30.3" fill="#000000" font-family="Copperplate" font-size="18">Transaction</text>
	<text x="237" y="56.1" fill="#000000" font-family="Gill Sans" font-size="15">Identifiant Transaction</text>
	<line x1="237" y1="59" x2="377" y2="59" stroke="#000000" stroke-width="1"/>
	<text x="237" y="73.1" fill="#000000" font-family="Gill Sans" font-size="15">Type (Vente/Achat)</text>
	<text x="237" y="90.1" fill="#000000" font-family="Gill Sans" font-size="15">Date</text>
	<text x="237" y="107" fill="#000000" font-family="Gill Sans" font-size="15">Heure</text>
</g>

<!-- Entity PORTFOLIO -->
<g>
	<g>
		<rect x="73" y="239" width="138" height="30" fill="#b2abd2" stroke="none" stroke-width="0" opacity="1"/>
		<rect x="73" y="269" width="138" height="80" fill="#d8daeb" stroke="none" stroke-width="0" opacity="1"/>
		<rect x="73" y="239" width="138" height="110" fill="none" stroke="#8073ac" stroke-width="1.5" opacity="1"/>
		<line x1="73" y1="269" x2="211" y2="269" stroke="#8073ac" stroke-width="1.5"/>
	</g>
	<text x="96" y="260.3" fill="#000000" font-family="Copperplate" font-size="18">Portfolio</text>
	<text x="81" y="286.1" fill="#000000" font-family="Gill Sans" font-size="15">Identifiant Portfolio</text>
	<line x1="81" y1="289" x2="202" y2="289" stroke="#000000" stroke-width="1"/>
	<text x="81" y="303.1" fill="#000000" font-family="Gill Sans" font-size="15">Nom</text>
	<text x="81" y="320.1" fill="#000000" font-family="Gill Sans" font-size="15">Description</text>
	<text x="81" y="337" fill="#000000" font-family="Gill Sans" font-size="15">Date Création</text>
</g>

<!-- Entity INSTRUMENT_FINANCIER -->
<g>
	<g>
		<rect x="403" y="196" width="320" height="30" fill="#b2abd2" stroke="none" stroke-width="0" opacity="1"/>
		<rect x="403" y="226" width="320" height="166" fill="#d8daeb" stroke="none" stroke-width="0" opacity="1"/>
		<rect x="403" y="196" width="320" height="196" fill="none" stroke="#8073ac" stroke-width="1.5" opacity="1"/>
		<line x1="403" y1="226" x2="723" y2="226" stroke="#8073ac" stroke-width="1.5"/>
	</g>
	<text x="464" y="217.3" fill="#000000" font-family="Copperplate" font-size="18">Instrument Financier</text>
	<text x="411" y="243" fill="#000000" font-family="Gill Sans" font-size="15">ISIN</text>
	<line x1="411" y1="246" x2="439" y2="246" stroke="#000000" stroke-width="1"/>
	<text x="411" y="260" fill="#000000" font-family="Gill Sans" font-size="15">Nom</text>
	<text x="411" y="277.1" fill="#000000" font-family="Gill Sans" font-size="15">Type Instrument (Action/ETF/Obligation/Devise)</text>
	<text x="411" y="294.1" fill="#000000" font-family="Gill Sans" font-size="15">Devise</text>
	<text x="411" y="311.1" fill="#000000" font-family="Gill Sans" font-size="15">Symbole (Action/ETF)</text>
	<text x="411" y="328" fill="#000000" font-family="Gill Sans" font-size="15">Taux (Obligation)</text>
	<text x="411" y="345" fill="#000000" font-family="Gill Sans" font-size="15">Date Emission (Obligation)</text>
	<text x="411" y="362" fill="#000000" font-family="Gill Sans" font-size="15">Date Echeance (Obligation)</text>
	<text x="411" y="379" fill="#000000" font-family="Gill Sans" font-size="15">Couple Devise (Devise)</text>
</g>
</svg>