<?xml version="1.0" encoding="utf-8"?>
<!-- Generated by Mocodo 4.3.3 -->
<svg width="894" height="394" viewBox="0 0 894 394" xmlns="http://www.w3.org/2000/svg">
<rect x="0" y="0" width="894" height="394" fill="#f7f7f7" stroke="none" stroke-width="0"/>

<!-- Association HISTORIQUE_DE_TRANSACTIONS -->
<g>
	<line x1="126" y1="287" x2="126" y2="165" stroke="#e08214" stroke-width="1"/>
	<line x1="337" y1="62" x2="126" y2="165" stroke="#e08214" stroke-width="1"/>
	<g>
		<path d="M229 139 a14 14 90 0 1 14 14 V165 h-234 V153 a14 14 90 0 1 14 -14" fill="#fdb863" stroke="#fdb863" stroke-width="0"/>
		<path d="M243 165 v12 a14 14 90 0 1 -14 14 H23 a14 14 90 0 1 -14 -14 V165 H234" fill="#fee0b6" stroke="#fee0b6" stroke-width="0"/>
		<rect x="9" y="139" width="234" height="52" fill="none" rx="14" stroke="#e08214" stroke-width="1.5"/>
		<line x1="9" y1="165" x2="243" y2="165" stroke="#e08214" stroke-width="1"/>
		<text x="16" y="157.6" fill="#000000" font-family="Courier New" font-size="14">historique de transactions</text>
	</g>
	<text x="131" y="226" fill="#542788" font-family="Courier New" font-size="12">0,N</text>
	<text x="206" y="108.1" fill="#542788" font-family="Courier New" font-size="12">1,1</text>
</g>

<!-- Association CONTIENT -->
<g>
	<line x1="126" y1="287" x2="337" y2="287" stroke="#e08214" stroke-width="1"/>
	<line x1="653" y1="287" x2="337" y2="287" stroke="#e08214" stroke-width="1"/>
	<g>
		<path d="M407 252 a14 14 90 0 1 14 14 V278 h-168 V266 a14 14 90 0 1 14 -14" fill="#fdb863" stroke="#fdb863" stroke-width="0"/>
		<path d="M421 278 v30 a14 14 90 0 1 -14 14 H267 a14 14 90 0 1 -14 -14 V278 H168" fill="#fee0b6" stroke="#fee0b6" stroke-width="0"/>
		<rect x="253" y="252" width="168" height="70" fill="none" rx="14" stroke="#e08214" stroke-width="1.5"/>
		<line x1="253" y1="278" x2="421" y2="278" stroke="#e08214" stroke-width="1"/>
		<text x="303" y="270.6" fill="#000000" font-family="Courier New" font-size="14">contient</text>
		<text x="260" y="296.6" fill="#000000" font-family="Courier New" font-size="14">Quantité</text>
		<text x="260" y="314.6" fill="#000000" font-family="Courier New" font-size="14">Prix Moyen d’achat</text>
	</g>
	<text x="225" y="303" fill="#542788" font-family="Courier New" font-size="12">0,N</text>
	<text x="426" y="303" fill="#542788" font-family="Courier New" font-size="12">1,1</text>
</g>

<!-- Entity TRANSACTION -->
<g>
	<g>
		<rect x="234" y="9" width="206" height="26" fill="#b2abd2" stroke="none" stroke-width="0" opacity="1"/>
		<rect x="234" y="35" width="206" height="80" fill="#d8daeb" stroke="none" stroke-width="0" opacity="1"/>
		<rect x="234" y="9" width="206" height="106" fill="none" stroke="#8073ac" stroke-width="1.5" opacity="1"/>
		<line x1="234" y1="35" x2="440" y2="35" stroke="#8073ac" stroke-width="1"/>
	</g>
	<text x="290" y="27.6" fill="#000000" font-family="Courier New" font-size="14">Transaction</text>
	<text x="239" y="53.6" fill="#000000" font-family="Courier New" font-size="14">Identifiant Transaction</text>
	<line x1="239" y1="56" x2="434" y2="56" stroke="#000000" stroke-width="1"/>
	<text x="239" y="71.6" fill="#000000" font-family="Courier New" font-size="14">Type (Vente/Achat)</text>
	<text x="239" y="89.6" fill="#000000" font-family="Courier New" font-size="14">Date</text>
	<text x="239" y="107.6" fill="#000000" font-family="Courier New" font-size="14">Heure</text>
</g>

<!-- Entity PORTFOLIO -->
<g>
	<g>
		<rect x="32" y="234" width="188" height="26" fill="#b2abd2" stroke="none" stroke-width="0" opacity="1"/>
		<rect x="32" y="260" width="188" height="80" fill="#d8daeb" stroke="none" stroke-width="0" opacity="1"/>
		<rect x="32" y="234" width="188" height="106" fill="none" stroke="#8073ac" stroke-width="1.5" opacity="1"/>
		<line x1="32" y1="260" x2="220" y2="260" stroke="#8073ac" stroke-width="1"/>
	</g>
	<text x="88" y="252.6" fill="#000000" font-family="Courier New" font-size="14">Portfolio</text>
	<text x="37" y="278.6" fill="#000000" font-family="Courier New" font-size="14">Identifiant Portfolio</text>
	<line x1="37" y1="281" x2="215" y2="281" stroke="#000000" stroke-width="1"/>
	<text x="37" y="296.6" fill="#000000" font-family="Courier New" font-size="14">Nom</text>
	<text x="37" y="314.6" fill="#000000" font-family="Courier New" font-size="14">Description</text>
	<text x="37" y="332.6" fill="#000000" font-family="Courier New" font-size="14">Date Création</text>
</g>

<!-- Entity INSTRUMENT_FINANCIER -->
<g>
	<g>
		<rect x="454" y="189" width="398" height="26" fill="#b2abd2" stroke="none" stroke-width="0" opacity="1"/>
		<rect x="454" y="215" width="398" height="170" fill="#d8daeb" stroke="none" stroke-width="0" opacity="1"/>
		<rect x="454" y="189" width="398" height="196" fill="none" stroke="#8073ac" stroke-width="1.5" opacity="1"/>
		<line x1="454" y1="215" x2="852" y2="215" stroke="#8073ac" stroke-width="1"/>
	</g>
	<text x="569" y="207.6" fill="#000000" font-family="Courier New" font-size="14">Instrument Financier</text>
	<text x="459" y="233.6" fill="#000000" font-family="Courier New" font-size="14">ISIN</text>
	<line x1="459" y1="236" x2="494" y2="236" stroke="#000000" stroke-width="1"/>
	<text x="459" y="251.6" fill="#000000" font-family="Courier New" font-size="14">Nom</text>
	<text x="459" y="269.6" fill="#000000" font-family="Courier New" font-size="14">Type Instrument (Action/ETF/Obligation/Devise)</text>
	<text x="459" y="287.6" fill="#000000" font-family="Courier New" font-size="14">Devise</text>
	<text x="459" y="305.6" fill="#000000" font-family="Courier New" font-size="14">Symbole (Action/ETF)</text>
	<text x="459" y="323.6" fill="#000000" font-family="Courier New" font-size="14">Taux (Obligation)</text>
	<text x="459" y="341.6" fill="#000000" font-family="Courier New" font-size="14">Date Emission (Obligation)</text>
	<text x="459" y="359.6" fill="#000000" font-family="Courier New" font-size="14">Date Echeance (Obligation)</text>
	<text x="459" y="377.6" fill="#000000" font-family="Courier New" font-size="14">Couple Devise (Devise)</text>
</g>
</svg>