<?xml version="1.0" encoding="utf-8"?>
<!-- Generated by Mocodo 4.3.2 -->
<svg width="737" height="396" viewBox="0 0 737 396" xmlns="http://www.w3.org/2000/svg">
<rect x="0" y="0" width="737" height="396" fill="#f7f7f7" stroke="none" stroke-width="0"/>

<!-- Association HISTORIQUE_DE_TRANSACTIONS -->
<g>
	<line x1="100" y1="289" x2="100" y2="166" stroke="#e08214" stroke-width="1"/>
	<line x1="270" y1="62" x2="100" y2="166" stroke="#e08214" stroke-width="1"/>
	<g>
		<path d="M177 140 a14 14 90 0 1 14 14 V166 h-182 V154 a14 14 90 0 1 14 -14" fill="#fdb863" stroke="#fdb863" stroke-width="0"/>
		<path d="M191 166 v12 a14 14 90 0 1 -14 14 H23 a14 14 90 0 1 -14 -14 V166 H182" fill="#fee0b6" stroke="#fee0b6" stroke-width="0"/>
		<rect x="9" y="140" width="182" height="52" fill="none" rx="14" stroke="#e08214" stroke-width="1.5"/>
		<line x1="9" y1="166" x2="191" y2="166" stroke="#e08214" stroke-width="1"/>
		<text x="16" y="158.6" fill="#000000" font-family="Trebuchet MS" font-size="14">historique de transactions</text>
	</g>
	<text x="105" y="228" fill="#542788" font-family="Verdana" font-size="12">0,N</text>
	<text x="164" y="107.67" fill="#542788" font-family="Verdana" font-size="12">1,1</text>
</g>

<!-- Association CONTIENT -->
<g>
	<line x1="100" y1="289" x2="270" y2="289" stroke="#e08214" stroke-width="1"/>
	<line x1="533" y1="289" x2="270" y2="289" stroke="#e08214" stroke-width="1"/>
	<g>
		<path d="M324 254 a14 14 90 0 1 14 14 V280 h-136 V268 a14 14 90 0 1 14 -14" fill="#fdb863" stroke="#fdb863" stroke-width="0"/>
		<path d="M338 280 v30 a14 14 90 0 1 -14 14 H216 a14 14 90 0 1 -14 -14 V280 H136" fill="#fee0b6" stroke="#fee0b6" stroke-width="0"/>
		<rect x="202" y="254" width="136" height="70" fill="none" rx="14" stroke="#e08214" stroke-width="1.5"/>
		<line x1="202" y1="280" x2="338" y2="280" stroke="#e08214" stroke-width="1"/>
		<text x="243" y="272.6" fill="#000000" font-family="Trebuchet MS" font-size="14">contient</text>
		<text x="209" y="298.6" fill="#000000" font-family="Trebuchet MS" font-size="14">Quantité</text>
		<text x="209" y="316.6" fill="#000000" font-family="Trebuchet MS" font-size="14">Prix Moyen d’achat</text>
	</g>
	<text x="175" y="306" fill="#542788" font-family="Verdana" font-size="12">0,N</text>
	<text x="344" y="306" fill="#542788" font-family="Verdana" font-size="12">1,1</text>
</g>

<!-- Entity TRANSACTION -->
<g>
	<g>
		<rect x="190" y="9" width="160" height="26" fill="#b2abd2" stroke="none" stroke-width="0" opacity="1"/>
		<rect x="190" y="35" width="160" height="80" fill="#d8daeb" stroke="none" stroke-width="0" opacity="1"/>
		<rect x="190" y="9" width="160" height="106" fill="none" stroke="#8073ac" stroke-width="1.5" opacity="1"/>
		<line x1="190" y1="35" x2="350" y2="35" stroke="#8073ac" stroke-width="1"/>
	</g>
	<text x="232" y="27.6" fill="#000000" font-family="Trebuchet MS" font-size="14">Transaction</text>
	<text x="195" y="53.6" fill="#000000" font-family="Trebuchet MS" font-size="14">Identifiant Transaction</text>
	<line x1="195" y1="56" x2="344" y2="56" stroke="#000000" stroke-width="1"/>
	<text x="195" y="71.6" fill="#000000" font-family="Trebuchet MS" font-size="14">Type (Vente/Achat)</text>
	<text x="195" y="89.6" fill="#000000" font-family="Trebuchet MS" font-size="14">Date</text>
	<text x="195" y="107.6" fill="#000000" font-family="Trebuchet MS" font-size="14">Heure</text>
</g>

<!-- Entity PORTFOLIO -->
<g>
	<g>
		<rect x="30" y="236" width="140" height="26" fill="#b2abd2" stroke="none" stroke-width="0" opacity="1"/>
		<rect x="30" y="262" width="140" height="80" fill="#d8daeb" stroke="none" stroke-width="0" opacity="1"/>
		<rect x="30" y="236" width="140" height="106" fill="none" stroke="#8073ac" stroke-width="1.5" opacity="1"/>
		<line x1="30" y1="262" x2="170" y2="262" stroke="#8073ac" stroke-width="1"/>
	</g>
	<text x="72" y="254.6" fill="#000000" font-family="Trebuchet MS" font-size="14">Portfolio</text>
	<text x="35" y="280.6" fill="#000000" font-family="Trebuchet MS" font-size="14">Identifiant Portfolio</text>
	<line x1="35" y1="283" x2="164" y2="283" stroke="#000000" stroke-width="1"/>
	<text x="35" y="298.6" fill="#000000" font-family="Trebuchet MS" font-size="14">Nom</text>
	<text x="35" y="316.6" fill="#000000" font-family="Trebuchet MS" font-size="14">Description</text>
	<text x="35" y="334.6" fill="#000000" font-family="Trebuchet MS" font-size="14">Date Création</text>
</g>

<!-- Entity INSTRUMENT_FINANCIER -->
<g>
	<g>
		<rect x="370" y="191" width="326" height="26" fill="#b2abd2" stroke="none" stroke-width="0" opacity="1"/>
		<rect x="370" y="217" width="326" height="170" fill="#d8daeb" stroke="none" stroke-width="0" opacity="1"/>
		<rect x="370" y="191" width="326" height="196" fill="none" stroke="#8073ac" stroke-width="1.5" opacity="1"/>
		<line x1="370" y1="217" x2="696" y2="217" stroke="#8073ac" stroke-width="1"/>
	</g>
	<text x="466" y="209.6" fill="#000000" font-family="Trebuchet MS" font-size="14">Instrument Financier</text>
	<text x="375" y="235.6" fill="#000000" font-family="Trebuchet MS" font-size="14">ISIN</text>
	<line x1="375" y1="238" x2="400" y2="238" stroke="#000000" stroke-width="1"/>
	<text x="375" y="253.6" fill="#000000" font-family="Trebuchet MS" font-size="14">Nom</text>
	<text x="375" y="271.6" fill="#000000" font-family="Trebuchet MS" font-size="14">Type Instrument (Action/ETF/Obligation/Devise)</text>
	<text x="375" y="289.6" fill="#000000" font-family="Trebuchet MS" font-size="14">Devise</text>
	<text x="375" y="307.6" fill="#000000" font-family="Trebuchet MS" font-size="14">Symbole (Action/ETF)</text>
	<text x="375" y="325.6" fill="#000000" font-family="Trebuchet MS" font-size="14">Taux (Obligation)</text>
	<text x="375" y="343.6" fill="#000000" font-family="Trebuchet MS" font-size="14">Date Emission (Obligation)</text>
	<text x="375" y="361.6" fill="#000000" font-family="Trebuchet MS" font-size="14">Date Echeance (Obligation)</text>
	<text x="375" y="379.6" fill="#000000" font-family="Trebuchet MS" font-size="14">Couple Devise (Devise)</text>
</g>
</svg>