<?xml version="1.0" encoding="utf-8"?>
<!-- Generated by Mocodo 4.3.2 -->
<svg width="1072" height="553" viewBox="0 0 1072 553" xmlns="http://www.w3.org/2000/svg">
<rect x="0" y="0" width="1072" height="553" fill="#f7f7f7" stroke="none" stroke-width="0"/>

<!-- Association ECHANGE -->
<g>
	<line x1="479" y1="256" x2="479" y2="107" stroke="#e08214" stroke-width="1"/>
	<line x1="147" y1="107" x2="479" y2="107" stroke="#e08214" stroke-width="1"/>
	<g>
		<path d="M499 81 a14 14 90 0 1 14 14 V107 h-68 V95 a14 14 90 0 1 14 -14" fill="#fdb863" stroke="#fdb863" stroke-width="0"/>
		<path d="M513 107 v12 a14 14 90 0 1 -14 14 H459 a14 14 90 0 1 -14 -14 V107 H68" fill="#fee0b6" stroke="#fee0b6" stroke-width="0"/>
		<rect x="445" y="81" width="68" height="52" fill="none" rx="14" stroke="#e08214" stroke-width="1.5"/>
		<line x1="445" y1="107" x2="513" y2="107" stroke="#e08214" stroke-width="1"/>
		<text x="452" y="99.6" fill="#000000" font-family="Trebuchet MS" font-size="14">échange</text>
	</g>
	<text x="453" y="150" fill="#542788" font-family="Verdana" font-size="12">0,1</text>
	<text x="215" y="124" fill="#542788" font-family="Verdana" font-size="12">0,N</text>
</g>

<!-- Association CONCERNE -->
<g>
	<line x1="915" y1="107" x2="698" y2="107" stroke="#e08214" stroke-width="1"/>
	<line x1="479" y1="256" x2="698" y2="107" stroke="#e08214" stroke-width="1"/>
	<g>
		<path d="M721 81 a14 14 90 0 1 14 14 V107 h-74 V95 a14 14 90 0 1 14 -14" fill="#fdb863" stroke="#fdb863" stroke-width="0"/>
		<path d="M735 107 v12 a14 14 90 0 1 -14 14 H675 a14 14 90 0 1 -14 -14 V107 H74" fill="#fee0b6" stroke="#fee0b6" stroke-width="0"/>
		<rect x="661" y="81" width="74" height="52" fill="none" rx="14" stroke="#e08214" stroke-width="1.5"/>
		<line x1="661" y1="107" x2="735" y2="107" stroke="#e08214" stroke-width="1"/>
		<text x="668" y="99.6" fill="#000000" font-family="Trebuchet MS" font-size="14">concerne</text>
	</g>
	<text x="741" y="124" fill="#542788" font-family="Verdana" font-size="12">1,1</text>
	<text x="601.24" y="150" fill="#542788" font-family="Verdana" font-size="12">0,N</text>
</g>

<!-- Association DEVISE2 -->
<g>
	<line x1="147" y1="256" x2="256" y2="256" stroke="#e08214" stroke-width="1"/>
	<line x1="479" y1="256" x2="256" y2="256" stroke="#e08214" stroke-width="1"/>
	<g>
		<path d="M270 230 a14 14 90 0 1 14 14 V256 h-56 V244 a14 14 90 0 1 14 -14" fill="#fdb863" stroke="#fdb863" stroke-width="0"/>
		<path d="M284 256 v12 a14 14 90 0 1 -14 14 H242 a14 14 90 0 1 -14 -14 V256 H56" fill="#fee0b6" stroke="#fee0b6" stroke-width="0"/>
		<rect x="228" y="230" width="56" height="52" fill="none" rx="14" stroke="#e08214" stroke-width="1.5"/>
		<line x1="228" y1="256" x2="284" y2="256" stroke="#e08214" stroke-width="1"/>
		<text x="235" y="248.6" fill="#000000" font-family="Trebuchet MS" font-size="14">devise</text>
	</g>
	<text x="201" y="273" fill="#542788" font-family="Verdana" font-size="12">0,N</text>
	<text x="290" y="248" fill="#542788" font-family="Verdana" font-size="12">1,1</text>
</g>

<!-- Association EMET -->
<g>
	<line x1="479" y1="256" x2="698" y2="256" stroke="#e08214" stroke-width="1"/>
	<line x1="698" y1="423" x2="698" y2="256" stroke="#e08214" stroke-width="1"/>
	<g>
		<path d="M708 230 a14 14 90 0 1 14 14 V256 h-48 V244 a14 14 90 0 1 14 -14" fill="#fdb863" stroke="#fdb863" stroke-width="0"/>
		<path d="M722 256 v12 a14 14 90 0 1 -14 14 H688 a14 14 90 0 1 -14 -14 V256 H48" fill="#fee0b6" stroke="#fee0b6" stroke-width="0"/>
		<rect x="674" y="230" width="48" height="52" fill="none" rx="14" stroke="#e08214" stroke-width="1.5"/>
		<line x1="674" y1="256" x2="722" y2="256" stroke="#e08214" stroke-width="1"/>
		<text x="681" y="248.6" fill="#000000" font-family="Trebuchet MS" font-size="14">émet</text>
	</g>
	<text x="647" y="273" fill="#542788" font-family="Verdana" font-size="12">0,1</text>
	<text x="703" y="371" fill="#542788" font-family="Verdana" font-size="12">0,N</text>
</g>

<!-- Association EST_SITUEE1 -->
<g>
	<line x1="147" y1="107" x2="48" y2="423" stroke="#e08214" stroke-width="1"/>
	<line x1="256" y1="509" x2="48" y2="423" stroke="#e08214" stroke-width="1"/>
	<g>
		<path d="M73 397 a14 14 90 0 1 14 14 V423 h-78 V411 a14 14 90 0 1 14 -14" fill="#fdb863" stroke="#fdb863" stroke-width="0"/>
		<path d="M87 423 v12 a14 14 90 0 1 -14 14 H23 a14 14 90 0 1 -14 -14 V423 H78" fill="#fee0b6" stroke="#fee0b6" stroke-width="0"/>
		<rect x="9" y="397" width="78" height="52" fill="none" rx="14" stroke="#e08214" stroke-width="1.5"/>
		<line x1="9" y1="423" x2="87" y2="423" stroke="#e08214" stroke-width="1"/>
		<text x="16" y="415.6" fill="#000000" font-family="Trebuchet MS" font-size="14">Est située</text>
	</g>
	<text x="124.5" y="204" fill="#542788" font-family="Verdana" font-size="12">1,1</text>
	<text x="173" y="499.61" fill="#542788" font-family="Verdana" font-size="12">0,N</text>
</g>

<!-- Association DEVISE3 -->
<g>
	<line x1="256" y1="509" x2="147" y2="423" stroke="#e08214" stroke-width="1"/>
	<line x1="147" y1="256" x2="147" y2="423" stroke="#e08214" stroke-width="1"/>
	<g>
		<path d="M161 397 a14 14 90 0 1 14 14 V423 h-56 V411 a14 14 90 0 1 14 -14" fill="#fdb863" stroke="#fdb863" stroke-width="0"/>
		<path d="M175 423 v12 a14 14 90 0 1 -14 14 H133 a14 14 90 0 1 -14 -14 V423 H56" fill="#fee0b6" stroke="#fee0b6" stroke-width="0"/>
		<rect x="119" y="397" width="56" height="52" fill="none" rx="14" stroke="#e08214" stroke-width="1.5"/>
		<line x1="119" y1="423" x2="175" y2="423" stroke="#e08214" stroke-width="1"/>
		<text x="126" y="415.6" fill="#000000" font-family="Trebuchet MS" font-size="14">devise</text>
	</g>
	<text x="210.74" y="466" fill="#542788" font-family="Verdana" font-size="12">1,1</text>
	<text x="152" y="317" fill="#542788" font-family="Verdana" font-size="12">0,N</text>
</g>

<!-- Association EMET1 -->
<g>
	<line x1="256" y1="509" x2="256" y2="423" stroke="#e08214" stroke-width="1"/>
	<line x1="479" y1="256" x2="256" y2="423" stroke="#e08214" stroke-width="1"/>
	<g>
		<path d="M266 397 a14 14 90 0 1 14 14 V423 h-48 V411 a14 14 90 0 1 14 -14" fill="#fdb863" stroke="#fdb863" stroke-width="0"/>
		<path d="M280 423 v12 a14 14 90 0 1 -14 14 H246 a14 14 90 0 1 -14 -14 V423 H48" fill="#fee0b6" stroke="#fee0b6" stroke-width="0"/>
		<rect x="232" y="397" width="48" height="52" fill="none" rx="14" stroke="#e08214" stroke-width="1.5"/>
		<line x1="232" y1="423" x2="280" y2="423" stroke="#e08214" stroke-width="1"/>
		<text x="239" y="415.6" fill="#000000" font-family="Trebuchet MS" font-size="14">émet</text>
	</g>
	<text x="261" y="466" fill="#542788" font-family="Verdana" font-size="12">0,N</text>
	<text x="347.49" y="371" fill="#542788" font-family="Verdana" font-size="12">0,1</text>
</g>

<!-- Association EST_SITUEE -->
<g>
	<line x1="698" y1="423" x2="479" y2="423" stroke="#e08214" stroke-width="1"/>
	<line x1="256" y1="509" x2="479" y2="423" stroke="#e08214" stroke-width="1"/>
	<g>
		<path d="M504 397 a14 14 90 0 1 14 14 V423 h-78 V411 a14 14 90 0 1 14 -14" fill="#fdb863" stroke="#fdb863" stroke-width="0"/>
		<path d="M518 423 v12 a14 14 90 0 1 -14 14 H454 a14 14 90 0 1 -14 -14 V423 H78" fill="#fee0b6" stroke="#fee0b6" stroke-width="0"/>
		<rect x="440" y="397" width="78" height="52" fill="none" rx="14" stroke="#e08214" stroke-width="1.5"/>
		<line x1="440" y1="423" x2="518" y2="423" stroke="#e08214" stroke-width="1"/>
		<text x="447" y="415.6" fill="#000000" font-family="Trebuchet MS" font-size="14">Est située</text>
	</g>
	<text x="604" y="440" fill="#542788" font-family="Verdana" font-size="12">1,1</text>
	<text x="317" y="501.39" fill="#542788" font-family="Verdana" font-size="12">0,N</text>
</g>

<!-- Entity BOURSE -->
<g>
	<g>
		<rect x="84" y="27" width="126" height="26" fill="#b2abd2" stroke="none" stroke-width="0" opacity="1"/>
		<rect x="84" y="53" width="126" height="134" fill="#d8daeb" stroke="none" stroke-width="0" opacity="1"/>
		<rect x="84" y="27" width="126" height="160" fill="none" stroke="#8073ac" stroke-width="1.5" opacity="1"/>
		<line x1="84" y1="53" x2="210" y2="53" stroke="#8073ac" stroke-width="1"/>
	</g>
	<text x="125" y="45.6" fill="#000000" font-family="Trebuchet MS" font-size="14">Bourse</text>
	<text x="89" y="71.6" fill="#000000" font-family="Trebuchet MS" font-size="14">Identifiant Bourse</text>
	<line x1="89" y1="74" x2="205" y2="74" stroke="#000000" stroke-width="1"/>
	<text x="89" y="89.6" fill="#000000" font-family="Trebuchet MS" font-size="14">Nom</text>
	<text x="89" y="107.6" fill="#000000" font-family="Trebuchet MS" font-size="14">Ville</text>
	<text x="89" y="125.6" fill="#000000" font-family="Trebuchet MS" font-size="14">Fuseau Horaire</text>
	<text x="89" y="143.6" fill="#000000" font-family="Trebuchet MS" font-size="14">Heure Ouveture</text>
	<text x="89" y="161.6" fill="#000000" font-family="Trebuchet MS" font-size="14">Heure Fermeture</text>
</g>

<!-- Entity TRANSACTION -->
<g>
	<g>
		<rect x="767" y="9" width="296" height="26" fill="#b2abd2" stroke="none" stroke-width="0" opacity="1"/>
		<rect x="767" y="35" width="296" height="170" fill="#d8daeb" stroke="none" stroke-width="0" opacity="1"/>
		<rect x="767" y="9" width="296" height="196" fill="none" stroke="#8073ac" stroke-width="1.5" opacity="1"/>
		<line x1="767" y1="35" x2="1063" y2="35" stroke="#8073ac" stroke-width="1"/>
	</g>
	<text x="877" y="27.6" fill="#000000" font-family="Trebuchet MS" font-size="14">Transaction</text>
	<text x="772" y="53.6" fill="#000000" font-family="Trebuchet MS" font-size="14">Identifiant Transaction</text>
	<line x1="772" y1="56" x2="921" y2="56" stroke="#000000" stroke-width="1"/>
	<text x="772" y="71.6" fill="#000000" font-family="Trebuchet MS" font-size="14">Type (Vente/Achat)</text>
	<text x="772" y="89.6" fill="#000000" font-family="Trebuchet MS" font-size="14">Date</text>
	<text x="772" y="107.6" fill="#000000" font-family="Trebuchet MS" font-size="14">Heure</text>
	<text x="772" y="125.6" fill="#000000" font-family="Trebuchet MS" font-size="14">Quantité</text>
	<text x="772" y="143.6" fill="#000000" font-family="Trebuchet MS" font-size="14">Prix dans la Devise du Portfolio</text>
	<text x="772" y="161.6" fill="#000000" font-family="Trebuchet MS" font-size="14">Prix dans la Devise de l’Instrument Financier</text>
	<text x="772" y="179.6" fill="#000000" font-family="Trebuchet MS" font-size="14">Frais</text>
	<text x="772" y="197.6" fill="#000000" font-family="Trebuchet MS" font-size="14">Taxes</text>
</g>

<!-- Entity DEVISE -->
<g>
	<g>
		<rect x="98" y="212" width="98" height="26" fill="#b2abd2" stroke="none" stroke-width="0" opacity="1"/>
		<rect x="98" y="238" width="98" height="62" fill="#d8daeb" stroke="none" stroke-width="0" opacity="1"/>
		<rect x="98" y="212" width="98" height="88" fill="none" stroke="#8073ac" stroke-width="1.5" opacity="1"/>
		<line x1="98" y1="238" x2="196" y2="238" stroke="#8073ac" stroke-width="1"/>
	</g>
	<text x="126" y="230.6" fill="#000000" font-family="Trebuchet MS" font-size="14">Devise</text>
	<text x="103" y="256.6" fill="#000000" font-family="Trebuchet MS" font-size="14">Code ISO4217</text>
	<line x1="103" y1="259" x2="191" y2="259" stroke="#000000" stroke-width="1"/>
	<text x="103" y="274.6" fill="#000000" font-family="Trebuchet MS" font-size="14">Nom</text>
	<text x="103" y="292.6" fill="#000000" font-family="Trebuchet MS" font-size="14">Symbole</text>
</g>

<!-- Entity INSTRUMENT_FINANCIER -->
<g>
	<g>
		<rect x="316" y="158" width="326" height="26" fill="#b2abd2" stroke="none" stroke-width="0" opacity="1"/>
		<rect x="316" y="184" width="326" height="170" fill="#d8daeb" stroke="none" stroke-width="0" opacity="1"/>
		<rect x="316" y="158" width="326" height="196" fill="none" stroke="#8073ac" stroke-width="1.5" opacity="1"/>
		<line x1="316" y1="184" x2="642" y2="184" stroke="#8073ac" stroke-width="1"/>
	</g>
	<text x="412" y="176.6" fill="#000000" font-family="Trebuchet MS" font-size="14">Instrument Financier</text>
	<text x="321" y="202.6" fill="#000000" font-family="Trebuchet MS" font-size="14">ISIN</text>
	<line x1="321" y1="205" x2="346" y2="205" stroke="#000000" stroke-width="1"/>
	<text x="321" y="220.6" fill="#000000" font-family="Trebuchet MS" font-size="14">Nom</text>
	<text x="321" y="238.6" fill="#000000" font-family="Trebuchet MS" font-size="14">Type Instrument (Action/ETF/Obligation/Devise)</text>
	<text x="321" y="256.6" fill="#000000" font-family="Trebuchet MS" font-size="14">Devise</text>
	<text x="321" y="274.6" fill="#000000" font-family="Trebuchet MS" font-size="14">Symbole (Action/ETF)</text>
	<text x="321" y="292.6" fill="#000000" font-family="Trebuchet MS" font-size="14">Taux (Obligation)</text>
	<text x="321" y="310.6" fill="#000000" font-family="Trebuchet MS" font-size="14">Date Emission (Obligation)</text>
	<text x="321" y="328.6" fill="#000000" font-family="Trebuchet MS" font-size="14">Date Echeance (Obligation)</text>
	<text x="321" y="346.6" fill="#000000" font-family="Trebuchet MS" font-size="14">Couple Devise (Devise)</text>
</g>

<!-- Entity ENTREPRISE -->
<g>
	<g>
		<rect x="630" y="379" width="136" height="26" fill="#b2abd2" stroke="none" stroke-width="0" opacity="1"/>
		<rect x="630" y="405" width="136" height="62" fill="#d8daeb" stroke="none" stroke-width="0" opacity="1"/>
		<rect x="630" y="379" width="136" height="88" fill="none" stroke="#8073ac" stroke-width="1.5" opacity="1"/>
		<line x1="630" y1="405" x2="766" y2="405" stroke="#8073ac" stroke-width="1"/>
	</g>
	<text x="665" y="397.6" fill="#000000" font-family="Trebuchet MS" font-size="14">Entreprise</text>
	<text x="635" y="423.6" fill="#000000" font-family="Trebuchet MS" font-size="14">Numero_entreprise</text>
	<line x1="635" y1="426" x2="760" y2="426" stroke="#000000" stroke-width="1"/>
	<text x="635" y="441.6" fill="#000000" font-family="Trebuchet MS" font-size="14">Nom</text>
	<text x="635" y="459.6" fill="#000000" font-family="Trebuchet MS" font-size="14">Secteur d’activité</text>
</g>

<!-- Entity PAYS -->
<g>
	<g>
		<rect x="200" y="474" width="112" height="26" fill="#b2abd2" stroke="none" stroke-width="0" opacity="1"/>
		<rect x="200" y="500" width="112" height="44" fill="#d8daeb" stroke="none" stroke-width="0" opacity="1"/>
		<rect x="200" y="474" width="112" height="70" fill="none" stroke="#8073ac" stroke-width="1.5" opacity="1"/>
		<line x1="200" y1="500" x2="312" y2="500" stroke="#8073ac" stroke-width="1"/>
	</g>
	<text x="242" y="492.6" fill="#000000" font-family="Trebuchet MS" font-size="14">Pays</text>
	<text x="205" y="518.6" fill="#000000" font-family="Trebuchet MS" font-size="14">Code ISO3166&#45;1</text>
	<line x1="205" y1="521" x2="306" y2="521" stroke="#000000" stroke-width="1"/>
	<text x="205" y="536.6" fill="#000000" font-family="Trebuchet MS" font-size="14">Nom</text>
</g>
</svg>