<?xml version="1.0" encoding="utf-8"?>
<!-- Generated by Mocodo 4.3.3 -->
<svg width="1254" height="510" viewBox="0 0 1254 510" xmlns="http://www.w3.org/2000/svg">
<rect x="0" y="0" width="1254" height="510" fill="#f7f7f7" stroke="none" stroke-width="0"/>

<!-- Association ECHANGE -->
<g>
	<line x1="746" y1="291" x2="746" y2="89" stroke="#e08214" stroke-width="1"/>
	<line x1="1003" y1="89" x2="746" y2="89" stroke="#e08214" stroke-width="1"/>
	<g>
		<path d="M769 63 a14 14 90 0 1 14 14 V89 h-74 V77 a14 14 90 0 1 14 -14" fill="#fdb863" stroke="#fdb863" stroke-width="0"/>
		<path d="M783 89 v12 a14 14 90 0 1 -14 14 H723 a14 14 90 0 1 -14 -14 V89 H74" fill="#fee0b6" stroke="#fee0b6" stroke-width="0"/>
		<rect x="709" y="63" width="74" height="52" fill="none" rx="14" stroke="#e08214" stroke-width="1.5"/>
		<line x1="709" y1="89" x2="783" y2="89" stroke="#e08214" stroke-width="1"/>
		<text x="716" y="81.6" fill="#000000" font-family="Courier New" font-size="14">échange</text>
	</g>
	<text x="751" y="185" fill="#542788" font-family="Courier New" font-size="12">0,1</text>
	<text x="893" y="105" fill="#542788" font-family="Courier New" font-size="12">0,N</text>
</g>

<!-- Association EST_SITUEE1 -->
<g>
	<line x1="1003" y1="89" x2="1168" y2="89" stroke="#e08214" stroke-width="1"/>
	<line x1="1168" y1="291" x2="1168" y2="89" stroke="#e08214" stroke-width="1"/>
	<g>
		<path d="M1204 63 a14 14 90 0 1 14 14 V89 h-100 V77 a14 14 90 0 1 14 -14" fill="#fdb863" stroke="#fdb863" stroke-width="0"/>
		<path d="M1218 89 v12 a14 14 90 0 1 -14 14 H1132 a14 14 90 0 1 -14 -14 V89 H100" fill="#fee0b6" stroke="#fee0b6" stroke-width="0"/>
		<rect x="1118" y="63" width="100" height="52" fill="none" rx="14" stroke="#e08214" stroke-width="1.5"/>
		<line x1="1118" y1="89" x2="1218" y2="89" stroke="#e08214" stroke-width="1"/>
		<text x="1126" y="81.6" fill="#000000" font-family="Courier New" font-size="14">Est située</text>
	</g>
	<text x="1090" y="105" fill="#542788" font-family="Courier New" font-size="12">1,1</text>
	<text x="1173" y="239" fill="#542788" font-family="Courier New" font-size="12">0,N</text>
</g>

<!-- Association CONCERNE -->
<g>
	<line x1="204" y1="291" x2="473" y2="291" stroke="#e08214" stroke-width="1"/>
	<line x1="746" y1="291" x2="473" y2="291" stroke="#e08214" stroke-width="1"/>
	<g>
		<path d="M500 265 a14 14 90 0 1 14 14 V291 h-82 V279 a14 14 90 0 1 14 -14" fill="#fdb863" stroke="#fdb863" stroke-width="0"/>
		<path d="M514 291 v12 a14 14 90 0 1 -14 14 H446 a14 14 90 0 1 -14 -14 V291 H82" fill="#fee0b6" stroke="#fee0b6" stroke-width="0"/>
		<rect x="432" y="265" width="82" height="52" fill="none" rx="14" stroke="#e08214" stroke-width="1.5"/>
		<line x1="432" y1="291" x2="514" y2="291" stroke="#e08214" stroke-width="1"/>
		<text x="439" y="283.6" fill="#000000" font-family="Courier New" font-size="14">concerne</text>
	</g>
	<text x="404" y="307" fill="#542788" font-family="Courier New" font-size="12">1,1</text>
	<text x="519" y="307" fill="#542788" font-family="Courier New" font-size="12">0,N</text>
</g>

<!-- Association EMET1 -->
<g>
	<line x1="1168" y1="291" x2="1003" y2="291" stroke="#e08214" stroke-width="1"/>
	<line x1="746" y1="291" x2="1003" y2="291" stroke="#e08214" stroke-width="1"/>
	<g>
		<path d="M1014 265 a14 14 90 0 1 14 14 V291 h-50 V279 a14 14 90 0 1 14 -14" fill="#fdb863" stroke="#fdb863" stroke-width="0"/>
		<path d="M1028 291 v12 a14 14 90 0 1 -14 14 H992 a14 14 90 0 1 -14 -14 V291 H50" fill="#fee0b6" stroke="#fee0b6" stroke-width="0"/>
		<rect x="978" y="265" width="50" height="52" fill="none" rx="14" stroke="#e08214" stroke-width="1.5"/>
		<line x1="978" y1="291" x2="1028" y2="291" stroke="#e08214" stroke-width="1"/>
		<text x="986" y="283.6" fill="#000000" font-family="Courier New" font-size="14">émet</text>
	</g>
	<text x="1063" y="307" fill="#542788" font-family="Courier New" font-size="12">0,N</text>
	<text x="950" y="307" fill="#542788" font-family="Courier New" font-size="12">0,1</text>
</g>

<!-- Association EMET -->
<g>
	<line x1="746" y1="291" x2="746" y2="457" stroke="#e08214" stroke-width="1"/>
	<line x1="1003" y1="457" x2="746" y2="457" stroke="#e08214" stroke-width="1"/>
	<g>
		<path d="M757 431 a14 14 90 0 1 14 14 V457 h-50 V445 a14 14 90 0 1 14 -14" fill="#fdb863" stroke="#fdb863" stroke-width="0"/>
		<path d="M771 457 v12 a14 14 90 0 1 -14 14 H735 a14 14 90 0 1 -14 -14 V457 H50" fill="#fee0b6" stroke="#fee0b6" stroke-width="0"/>
		<rect x="721" y="431" width="50" height="52" fill="none" rx="14" stroke="#e08214" stroke-width="1.5"/>
		<line x1="721" y1="457" x2="771" y2="457" stroke="#e08214" stroke-width="1"/>
		<text x="729" y="449.6" fill="#000000" font-family="Courier New" font-size="14">émet</text>
	</g>
	<text x="751" y="405" fill="#542788" font-family="Courier New" font-size="12">0,1</text>
	<text x="893" y="473" fill="#542788" font-family="Courier New" font-size="12">0,N</text>
</g>

<!-- Association EST_SITUEE -->
<g>
	<line x1="1003" y1="457" x2="1168" y2="457" stroke="#e08214" stroke-width="1"/>
	<line x1="1168" y1="291" x2="1168" y2="457" stroke="#e08214" stroke-width="1"/>
	<g>
		<path d="M1204 431 a14 14 90 0 1 14 14 V457 h-100 V445 a14 14 90 0 1 14 -14" fill="#fdb863" stroke="#fdb863" stroke-width="0"/>
		<path d="M1218 457 v12 a14 14 90 0 1 -14 14 H1132 a14 14 90 0 1 -14 -14 V457 H100" fill="#fee0b6" stroke="#fee0b6" stroke-width="0"/>
		<rect x="1118" y="431" width="100" height="52" fill="none" rx="14" stroke="#e08214" stroke-width="1.5"/>
		<line x1="1118" y1="457" x2="1218" y2="457" stroke="#e08214" stroke-width="1"/>
		<text x="1126" y="449.6" fill="#000000" font-family="Courier New" font-size="14">Est située</text>
	</g>
	<text x="1090" y="473" fill="#542788" font-family="Courier New" font-size="12">1,1</text>
	<text x="1173" y="351" fill="#542788" font-family="Courier New" font-size="12">0,N</text>
</g>

<!-- Entity BOURSE -->
<g>
	<g>
		<rect x="921" y="9" width="164" height="26" fill="#b2abd2" stroke="none" stroke-width="0" opacity="1"/>
		<rect x="921" y="35" width="164" height="134" fill="#d8daeb" stroke="none" stroke-width="0" opacity="1"/>
		<rect x="921" y="9" width="164" height="160" fill="none" stroke="#8073ac" stroke-width="1.5" opacity="1"/>
		<line x1="921" y1="35" x2="1085" y2="35" stroke="#8073ac" stroke-width="1"/>
	</g>
	<text x="977" y="27.6" fill="#000000" font-family="Courier New" font-size="14">Bourse</text>
	<text x="926" y="53.6" fill="#000000" font-family="Courier New" font-size="14">Identifiant Bourse</text>
	<line x1="926" y1="56" x2="1079" y2="56" stroke="#000000" stroke-width="1"/>
	<text x="926" y="71.6" fill="#000000" font-family="Courier New" font-size="14">Nom</text>
	<text x="926" y="89.6" fill="#000000" font-family="Courier New" font-size="14">Ville</text>
	<text x="926" y="107.6" fill="#000000" font-family="Courier New" font-size="14">Fuseau Horaire</text>
	<text x="926" y="125.6" fill="#000000" font-family="Courier New" font-size="14">Heure Ouveture</text>
	<text x="926" y="143.6" fill="#000000" font-family="Courier New" font-size="14">Heure Fermeture</text>
</g>

<!-- Entity TRANSACTION -->
<g>
	<g>
		<rect x="9" y="193" width="390" height="26" fill="#b2abd2" stroke="none" stroke-width="0" opacity="1"/>
		<rect x="9" y="219" width="390" height="170" fill="#d8daeb" stroke="none" stroke-width="0" opacity="1"/>
		<rect x="9" y="193" width="390" height="196" fill="none" stroke="#8073ac" stroke-width="1.5" opacity="1"/>
		<line x1="9" y1="219" x2="399" y2="219" stroke="#8073ac" stroke-width="1"/>
	</g>
	<text x="157" y="211.6" fill="#000000" font-family="Courier New" font-size="14">Transaction</text>
	<text x="14" y="237.6" fill="#000000" font-family="Courier New" font-size="14">Identifiant Transaction</text>
	<line x1="14" y1="240" x2="209" y2="240" stroke="#000000" stroke-width="1"/>
	<text x="14" y="255.6" fill="#000000" font-family="Courier New" font-size="14">Type (Vente/Achat)</text>
	<text x="14" y="273.6" fill="#000000" font-family="Courier New" font-size="14">Date</text>
	<text x="14" y="291.6" fill="#000000" font-family="Courier New" font-size="14">Heure</text>
	<text x="14" y="309.6" fill="#000000" font-family="Courier New" font-size="14">Quantité</text>
	<text x="14" y="327.6" fill="#000000" font-family="Courier New" font-size="14">Prix dans la Devise du Portfolio</text>
	<text x="14" y="345.6" fill="#000000" font-family="Courier New" font-size="14">Prix dans la Devise de l’Instrument Financier</text>
	<text x="14" y="363.6" fill="#000000" font-family="Courier New" font-size="14">Frais</text>
	<text x="14" y="381.6" fill="#000000" font-family="Courier New" font-size="14">Taxes</text>
</g>

<!-- Entity INSTRUMENT_FINANCIER -->
<g>
	<g>
		<rect x="547" y="193" width="398" height="26" fill="#b2abd2" stroke="none" stroke-width="0" opacity="1"/>
		<rect x="547" y="219" width="398" height="170" fill="#d8daeb" stroke="none" stroke-width="0" opacity="1"/>
		<rect x="547" y="193" width="398" height="196" fill="none" stroke="#8073ac" stroke-width="1.5" opacity="1"/>
		<line x1="547" y1="219" x2="945" y2="219" stroke="#8073ac" stroke-width="1"/>
	</g>
	<text x="662" y="211.6" fill="#000000" font-family="Courier New" font-size="14">Instrument Financier</text>
	<text x="552" y="237.6" fill="#000000" font-family="Courier New" font-size="14">ISIN</text>
	<line x1="552" y1="240" x2="587" y2="240" stroke="#000000" stroke-width="1"/>
	<text x="552" y="255.6" fill="#000000" font-family="Courier New" font-size="14">Nom</text>
	<text x="552" y="273.6" fill="#000000" font-family="Courier New" font-size="14">Type Instrument (Action/ETF/Obligation/Devise)</text>
	<text x="552" y="291.6" fill="#000000" font-family="Courier New" font-size="14">Devise</text>
	<text x="552" y="309.6" fill="#000000" font-family="Courier New" font-size="14">Symbole (Action/ETF)</text>
	<text x="552" y="327.6" fill="#000000" font-family="Courier New" font-size="14">Taux (Obligation)</text>
	<text x="552" y="345.6" fill="#000000" font-family="Courier New" font-size="14">Date Emission (Obligation)</text>
	<text x="552" y="363.6" fill="#000000" font-family="Courier New" font-size="14">Date Echeance (Obligation)</text>
	<text x="552" y="381.6" fill="#000000" font-family="Courier New" font-size="14">Couple Devise (Devise)</text>
</g>

<!-- Entity PAYS -->
<g>
	<g>
		<rect x="1091" y="247" width="154" height="26" fill="#b2abd2" stroke="none" stroke-width="0" opacity="1"/>
		<rect x="1091" y="273" width="154" height="62" fill="#d8daeb" stroke="none" stroke-width="0" opacity="1"/>
		<rect x="1091" y="247" width="154" height="88" fill="none" stroke="#8073ac" stroke-width="1.5" opacity="1"/>
		<line x1="1091" y1="273" x2="1245" y2="273" stroke="#8073ac" stroke-width="1"/>
	</g>
	<text x="1151" y="265.6" fill="#000000" font-family="Courier New" font-size="14">Pays</text>
	<text x="1096" y="291.6" fill="#000000" font-family="Courier New" font-size="14">Code ISO3166&#45;1</text>
	<line x1="1096" y1="294" x2="1215" y2="294" stroke="#000000" stroke-width="1"/>
	<text x="1096" y="309.6" fill="#000000" font-family="Courier New" font-size="14">Nom</text>
	<text x="1096" y="327.6" fill="#000000" font-family="Courier New" font-size="14">Devise Principale</text>
</g>

<!-- Entity ENTREPRISE -->
<g>
	<g>
		<rect x="921" y="413" width="164" height="26" fill="#b2abd2" stroke="none" stroke-width="0" opacity="1"/>
		<rect x="921" y="439" width="164" height="62" fill="#d8daeb" stroke="none" stroke-width="0" opacity="1"/>
		<rect x="921" y="413" width="164" height="88" fill="none" stroke="#8073ac" stroke-width="1.5" opacity="1"/>
		<line x1="921" y1="439" x2="1085" y2="439" stroke="#8073ac" stroke-width="1"/>
	</g>
	<text x="961" y="431.6" fill="#000000" font-family="Courier New" font-size="14">Entreprise</text>
	<text x="926" y="457.6" fill="#000000" font-family="Courier New" font-size="14">Numero_entreprise</text>
	<line x1="926" y1="460" x2="1070" y2="460" stroke="#000000" stroke-width="1"/>
	<text x="926" y="475.6" fill="#000000" font-family="Courier New" font-size="14">Nom</text>
	<text x="926" y="493.6" fill="#000000" font-family="Courier New" font-size="14">Secteur d’activité</text>
</g>
</svg>