<?xml version="1.0" encoding="utf-8"?>
<!-- Generated by Mocodo 4.3.2 -->
<svg width="1126" height="557" viewBox="0 0 1126 557" xmlns="http://www.w3.org/2000/svg">
<rect x="0" y="0" width="1126" height="557" fill="#f7f7f7" stroke="none" stroke-width="0"/>

<!-- Association ECHANGE -->
<g>
	<line x1="527" y1="259" x2="527" y2="107" stroke="#e08214" stroke-width="1"/>
	<line x1="182" y1="107" x2="527" y2="107" stroke="#e08214" stroke-width="1"/>
	<g>
		<path d="M558 78 a14 14 90 0 1 14 14 V106 h-90 V92 a14 14 90 0 1 14 -14" fill="#fdb863" stroke="#fdb863" stroke-width="0"/>
		<path d="M572 106 v16 a14 14 90 0 1 -14 14 H496 a14 14 90 0 1 -14 -14 V106 H90" fill="#fee0b6" stroke="#fee0b6" stroke-width="0"/>
		<rect x="482" y="78" width="90" height="58" fill="none" rx="14" stroke="#e08214" stroke-width="1.5"/>
		<line x1="482" y1="106" x2="572" y2="106" stroke="#e08214" stroke-width="1.5"/>
		<text x="489" y="99.3" fill="#000000" font-family="Copperplate" font-size="18">échange</text>
	</g>
	<text x="504" y="162" fill="#542788" font-family="Futura" font-size="11">0,1</text>
	<text x="251" y="123" fill="#542788" font-family="Futura" font-size="11">0,N</text>
</g>

<!-- Association CONCERNE -->
<g>
	<line x1="971" y1="107" x2="745" y2="107" stroke="#e08214" stroke-width="1"/>
	<line x1="527" y1="259" x2="745" y2="107" stroke="#e08214" stroke-width="1"/>
	<g>
		<path d="M782 78 a14 14 90 0 1 14 14 V106 h-102 V92 a14 14 90 0 1 14 -14" fill="#fdb863" stroke="#fdb863" stroke-width="0"/>
		<path d="M796 106 v16 a14 14 90 0 1 -14 14 H708 a14 14 90 0 1 -14 -14 V106 H102" fill="#fee0b6" stroke="#fee0b6" stroke-width="0"/>
		<rect x="694" y="78" width="102" height="58" fill="none" rx="14" stroke="#e08214" stroke-width="1.5"/>
		<line x1="694" y1="106" x2="796" y2="106" stroke="#e08214" stroke-width="1.5"/>
		<text x="702" y="99.3" fill="#000000" font-family="Copperplate" font-size="18">concerne</text>
	</g>
	<text x="802" y="123" fill="#542788" font-family="Futura" font-size="11">1,1</text>
	<text x="635.96" y="162" fill="#542788" font-family="Futura" font-size="11">0,N</text>
</g>

<!-- Association DEVISE2 -->
<g>
	<line x1="182" y1="259" x2="302" y2="259" stroke="#e08214" stroke-width="1"/>
	<line x1="527" y1="259" x2="302" y2="259" stroke="#e08214" stroke-width="1"/>
	<g>
		<path d="M324 230 a14 14 90 0 1 14 14 V258 h-72 V244 a14 14 90 0 1 14 -14" fill="#fdb863" stroke="#fdb863" stroke-width="0"/>
		<path d="M338 258 v16 a14 14 90 0 1 -14 14 H280 a14 14 90 0 1 -14 -14 V258 H72" fill="#fee0b6" stroke="#fee0b6" stroke-width="0"/>
		<rect x="266" y="230" width="72" height="58" fill="none" rx="14" stroke="#e08214" stroke-width="1.5"/>
		<line x1="266" y1="258" x2="338" y2="258" stroke="#e08214" stroke-width="1.5"/>
		<text x="273" y="251.3" fill="#000000" font-family="Copperplate" font-size="18">devise</text>
	</g>
	<text x="242" y="275" fill="#542788" font-family="Futura" font-size="11">0,N</text>
	<text x="344" y="251" fill="#542788" font-family="Futura" font-size="11">1,1</text>
</g>

<!-- Association EMET -->
<g>
	<line x1="527" y1="259" x2="745" y2="259" stroke="#e08214" stroke-width="1"/>
	<line x1="745" y1="419" x2="745" y2="259" stroke="#e08214" stroke-width="1"/>
	<g>
		<path d="M760 230 a14 14 90 0 1 14 14 V258 h-58 V244 a14 14 90 0 1 14 -14" fill="#fdb863" stroke="#fdb863" stroke-width="0"/>
		<path d="M774 258 v16 a14 14 90 0 1 -14 14 H730 a14 14 90 0 1 -14 -14 V258 H58" fill="#fee0b6" stroke="#fee0b6" stroke-width="0"/>
		<rect x="716" y="230" width="58" height="58" fill="none" rx="14" stroke="#e08214" stroke-width="1.5"/>
		<line x1="716" y1="258" x2="774" y2="258" stroke="#e08214" stroke-width="1.5"/>
		<text x="724" y="251.3" fill="#000000" font-family="Copperplate" font-size="18">émet</text>
	</g>
	<text x="692" y="275" fill="#542788" font-family="Futura" font-size="11">0,1</text>
	<text x="750" y="364" fill="#542788" font-family="Futura" font-size="11">0,N</text>
</g>

<!-- Association EST_SITUEE1 -->
<g>
	<line x1="182" y1="107" x2="63" y2="419" stroke="#e08214" stroke-width="1"/>
	<line x1="302" y1="510" x2="63" y2="419" stroke="#e08214" stroke-width="1"/>
	<g>
		<path d="M103 390 a14 14 90 0 1 14 14 V418 h-108 V404 a14 14 90 0 1 14 -14" fill="#fdb863" stroke="#fdb863" stroke-width="0"/>
		<path d="M117 418 v16 a14 14 90 0 1 -14 14 H23 a14 14 90 0 1 -14 -14 V418 H108" fill="#fee0b6" stroke="#fee0b6" stroke-width="0"/>
		<rect x="9" y="390" width="108" height="58" fill="none" rx="14" stroke="#e08214" stroke-width="1.5"/>
		<line x1="9" y1="418" x2="117" y2="418" stroke="#e08214" stroke-width="1.5"/>
		<text x="16" y="411.3" fill="#000000" font-family="Copperplate" font-size="18">Est située</text>
	</g>
	<text x="153.12" y="204" fill="#542788" font-family="Futura" font-size="11">1,1</text>
	<text x="217" y="499.8" fill="#542788" font-family="Futura" font-size="11">0,N</text>
</g>

<!-- Association DEVISE3 -->
<g>
	<line x1="302" y1="510" x2="182" y2="419" stroke="#e08214" stroke-width="1"/>
	<line x1="182" y1="259" x2="182" y2="419" stroke="#e08214" stroke-width="1"/>
	<g>
		<path d="M204 390 a14 14 90 0 1 14 14 V418 h-72 V404 a14 14 90 0 1 14 -14" fill="#fdb863" stroke="#fdb863" stroke-width="0"/>
		<path d="M218 418 v16 a14 14 90 0 1 -14 14 H160 a14 14 90 0 1 -14 -14 V418 H72" fill="#fee0b6" stroke="#fee0b6" stroke-width="0"/>
		<rect x="146" y="390" width="72" height="58" fill="none" rx="14" stroke="#e08214" stroke-width="1.5"/>
		<line x1="146" y1="418" x2="218" y2="418" stroke="#e08214" stroke-width="1.5"/>
		<text x="153" y="411.3" fill="#000000" font-family="Copperplate" font-size="18">devise</text>
	</g>
	<text x="251.18" y="464" fill="#542788" font-family="Futura" font-size="11">1,1</text>
	<text x="187" y="322" fill="#542788" font-family="Futura" font-size="11">0,N</text>
</g>

<!-- Association EMET1 -->
<g>
	<line x1="302" y1="510" x2="302" y2="419" stroke="#e08214" stroke-width="1"/>
	<line x1="527" y1="259" x2="302" y2="419" stroke="#e08214" stroke-width="1"/>
	<g>
		<path d="M317 390 a14 14 90 0 1 14 14 V418 h-58 V404 a14 14 90 0 1 14 -14" fill="#fdb863" stroke="#fdb863" stroke-width="0"/>
		<path d="M331 418 v16 a14 14 90 0 1 -14 14 H287 a14 14 90 0 1 -14 -14 V418 H58" fill="#fee0b6" stroke="#fee0b6" stroke-width="0"/>
		<rect x="273" y="390" width="58" height="58" fill="none" rx="14" stroke="#e08214" stroke-width="1.5"/>
		<line x1="273" y1="418" x2="331" y2="418" stroke="#e08214" stroke-width="1.5"/>
		<text x="281" y="411.3" fill="#000000" font-family="Copperplate" font-size="18">émet</text>
	</g>
	<text x="307" y="464" fill="#542788" font-family="Futura" font-size="11">0,N</text>
	<text x="401.44" y="364" fill="#542788" font-family="Futura" font-size="11">0,1</text>
</g>

<!-- Association EST_SITUEE -->
<g>
	<line x1="745" y1="419" x2="527" y2="419" stroke="#e08214" stroke-width="1"/>
	<line x1="302" y1="510" x2="527" y2="419" stroke="#e08214" stroke-width="1"/>
	<g>
		<path d="M567 390 a14 14 90 0 1 14 14 V418 h-108 V404 a14 14 90 0 1 14 -14" fill="#fdb863" stroke="#fdb863" stroke-width="0"/>
		<path d="M581 418 v16 a14 14 90 0 1 -14 14 H487 a14 14 90 0 1 -14 -14 V418 H108" fill="#fee0b6" stroke="#fee0b6" stroke-width="0"/>
		<rect x="473" y="390" width="108" height="58" fill="none" rx="14" stroke="#e08214" stroke-width="1.5"/>
		<line x1="473" y1="418" x2="581" y2="418" stroke="#e08214" stroke-width="1.5"/>
		<text x="480" y="411.3" fill="#000000" font-family="Copperplate" font-size="18">Est située</text>
	</g>
	<text x="651" y="435" fill="#542788" font-family="Futura" font-size="11">1,1</text>
	<text x="368" y="498.16" fill="#542788" font-family="Futura" font-size="11">0,N</text>
</g>

<!-- Entity BOURSE -->
<g>
	<g>
		<rect x="118" y="26" width="128" height="30" fill="#b2abd2" stroke="none" stroke-width="0" opacity="1"/>
		<rect x="118" y="56" width="128" height="132" fill="#d8daeb" stroke="none" stroke-width="0" opacity="1"/>
		<rect x="118" y="26" width="128" height="162" fill="none" stroke="#8073ac" stroke-width="1.5" opacity="1"/>
		<line x1="118" y1="56" x2="246" y2="56" stroke="#8073ac" stroke-width="1.5"/>
	</g>
	<text x="148" y="47.3" fill="#000000" font-family="Copperplate" font-size="18">Bourse</text>
	<text x="126" y="73" fill="#000000" font-family="Gill Sans" font-size="15">Identifiant Bourse</text>
	<line x1="126" y1="76" x2="237" y2="76" stroke="#000000" stroke-width="1"/>
	<text x="126" y="90.1" fill="#000000" font-family="Gill Sans" font-size="15">Nom</text>
	<text x="126" y="107.1" fill="#000000" font-family="Gill Sans" font-size="15">Ville</text>
	<text x="126" y="124.1" fill="#000000" font-family="Gill Sans" font-size="15">Fuseau Horaire</text>
	<text x="126" y="141" fill="#000000" font-family="Gill Sans" font-size="15">Heure Ouveture</text>
	<text x="126" y="158" fill="#000000" font-family="Gill Sans" font-size="15">Heure Fermeture</text>
</g>

<!-- Entity TRANSACTION -->
<g>
	<g>
		<rect x="825" y="9" width="292" height="30" fill="#b2abd2" stroke="none" stroke-width="0" opacity="1"/>
		<rect x="825" y="39" width="292" height="166" fill="#d8daeb" stroke="none" stroke-width="0" opacity="1"/>
		<rect x="825" y="9" width="292" height="196" fill="none" stroke="#8073ac" stroke-width="1.5" opacity="1"/>
		<line x1="825" y1="39" x2="1117" y2="39" stroke="#8073ac" stroke-width="1.5"/>
	</g>
	<text x="915" y="30.3" fill="#000000" font-family="Copperplate" font-size="18">Transaction</text>
	<text x="833" y="56" fill="#000000" font-family="Gill Sans" font-size="15">Identifiant Transaction</text>
	<line x1="833" y1="59" x2="973" y2="59" stroke="#000000" stroke-width="1"/>
	<text x="833" y="73" fill="#000000" font-family="Gill Sans" font-size="15">Type (Vente/Achat)</text>
	<text x="833" y="90.1" fill="#000000" font-family="Gill Sans" font-size="15">Date</text>
	<text x="833" y="107.1" fill="#000000" font-family="Gill Sans" font-size="15">Heure</text>
	<text x="833" y="124.1" fill="#000000" font-family="Gill Sans" font-size="15">Quantité</text>
	<text x="833" y="141" fill="#000000" font-family="Gill Sans" font-size="15">Prix dans la Devise du Portfolio</text>
	<text x="833" y="158" fill="#000000" font-family="Gill Sans" font-size="15">Prix dans la Devise de l’Instrument Financier</text>
	<text x="833" y="175" fill="#000000" font-family="Gill Sans" font-size="15">Frais</text>
	<text x="833" y="192" fill="#000000" font-family="Gill Sans" font-size="15">Taxes</text>
</g>

<!-- Entity DEVISE -->
<g>
	<g>
		<rect x="127" y="212" width="110" height="30" fill="#b2abd2" stroke="none" stroke-width="0" opacity="1"/>
		<rect x="127" y="242" width="110" height="64" fill="#d8daeb" stroke="none" stroke-width="0" opacity="1"/>
		<rect x="127" y="212" width="110" height="94" fill="none" stroke="#8073ac" stroke-width="1.5" opacity="1"/>
		<line x1="127" y1="242" x2="237" y2="242" stroke="#8073ac" stroke-width="1.5"/>
	</g>
	<text x="152" y="233.3" fill="#000000" font-family="Copperplate" font-size="18">Devise</text>
	<text x="135" y="259.1" fill="#000000" font-family="Gill Sans" font-size="15">Code ISO4217</text>
	<line x1="135" y1="262" x2="229" y2="262" stroke="#000000" stroke-width="1"/>
	<text x="135" y="276.1" fill="#000000" font-family="Gill Sans" font-size="15">Nom</text>
	<text x="135" y="293" fill="#000000" font-family="Gill Sans" font-size="15">Symbole</text>
</g>

<!-- Entity INSTRUMENT_FINANCIER -->
<g>
	<g>
		<rect x="367" y="170" width="320" height="30" fill="#b2abd2" stroke="none" stroke-width="0" opacity="1"/>
		<rect x="367" y="200" width="320" height="148" fill="#d8daeb" stroke="none" stroke-width="0" opacity="1"/>
		<rect x="367" y="170" width="320" height="178" fill="none" stroke="#8073ac" stroke-width="1.5" opacity="1"/>
		<line x1="367" y1="200" x2="687" y2="200" stroke="#8073ac" stroke-width="1.5"/>
	</g>
	<text x="428" y="191.3" fill="#000000" font-family="Copperplate" font-size="18">Instrument Financier</text>
	<text x="375" y="217" fill="#000000" font-family="Gill Sans" font-size="15">ISIN</text>
	<line x1="375" y1="220" x2="403" y2="220" stroke="#000000" stroke-width="1"/>
	<text x="375" y="234.1" fill="#000000" font-family="Gill Sans" font-size="15">Nom</text>
	<text x="375" y="251.1" fill="#000000" font-family="Gill Sans" font-size="15">Type Instrument (Action/ETF/Obligation/Devise)</text>
	<text x="375" y="268.1" fill="#000000" font-family="Gill Sans" font-size="15">Symbole (Action/ETF)</text>
	<text x="375" y="285.1" fill="#000000" font-family="Gill Sans" font-size="15">Taux (Obligation)</text>
	<text x="375" y="302" fill="#000000" font-family="Gill Sans" font-size="15">Date Emission (Obligation)</text>
	<text x="375" y="319" fill="#000000" font-family="Gill Sans" font-size="15">Date Echeance (Obligation)</text>
	<text x="375" y="336" fill="#000000" font-family="Gill Sans" font-size="15">Couple Devise (Devise)</text>
</g>

<!-- Entity ENTREPRISE -->
<g>
	<g>
		<rect x="674" y="372" width="142" height="30" fill="#b2abd2" stroke="none" stroke-width="0" opacity="1"/>
		<rect x="674" y="402" width="142" height="64" fill="#d8daeb" stroke="none" stroke-width="0" opacity="1"/>
		<rect x="674" y="372" width="142" height="94" fill="none" stroke="#8073ac" stroke-width="1.5" opacity="1"/>
		<line x1="674" y1="402" x2="816" y2="402" stroke="#8073ac" stroke-width="1.5"/>
	</g>
	<text x="694" y="393.3" fill="#000000" font-family="Copperplate" font-size="18">Entreprise</text>
	<text x="682" y="419.1" fill="#000000" font-family="Gill Sans" font-size="15">Numero_entreprise</text>
	<line x1="682" y1="422" x2="808" y2="422" stroke="#000000" stroke-width="1"/>
	<text x="682" y="436.1" fill="#000000" font-family="Gill Sans" font-size="15">Nom</text>
	<text x="682" y="453" fill="#000000" font-family="Gill Sans" font-size="15">Secteur d’activité</text>
</g>

<!-- Entity PAYS -->
<g>
	<g>
		<rect x="241" y="472" width="122" height="30" fill="#b2abd2" stroke="none" stroke-width="0" opacity="1"/>
		<rect x="241" y="502" width="122" height="46" fill="#d8daeb" stroke="none" stroke-width="0" opacity="1"/>
		<rect x="241" y="472" width="122" height="76" fill="none" stroke="#8073ac" stroke-width="1.5" opacity="1"/>
		<line x1="241" y1="502" x2="363" y2="502" stroke="#8073ac" stroke-width="1.5"/>
	</g>
	<text x="281" y="493.3" fill="#000000" font-family="Copperplate" font-size="18">Pays</text>
	<text x="249" y="519.1" fill="#000000" font-family="Gill Sans" font-size="15">Code ISO3166&#45;1</text>
	<line x1="249" y1="522" x2="355" y2="522" stroke="#000000" stroke-width="1"/>
	<text x="249" y="536.1" fill="#000000" font-family="Gill Sans" font-size="15">Nom</text>
</g>
</svg>