<?xml version="1.0" encoding="utf-8"?>
<!-- Generated by Mocodo 4.3.2 -->
<svg width="1116" height="518" viewBox="0 0 1116 518" xmlns="http://www.w3.org/2000/svg">
<rect x="0" y="0" width="1116" height="518" fill="#f7f7f7" stroke="none" stroke-width="0"/>

<!-- Association ECHANGE -->
<g>
	<line x1="673" y1="293" x2="673" y2="90" stroke="#e08214" stroke-width="1"/>
	<line x1="891" y1="90" x2="673" y2="90" stroke="#e08214" stroke-width="1"/>
	<g>
		<path d="M704 61 a14 14 90 0 1 14 14 V89 h-90 V75 a14 14 90 0 1 14 -14" fill="#fdb863" stroke="#fdb863" stroke-width="0"/>
		<path d="M718 89 v16 a14 14 90 0 1 -14 14 H642 a14 14 90 0 1 -14 -14 V89 H90" fill="#fee0b6" stroke="#fee0b6" stroke-width="0"/>
		<rect x="628" y="61" width="90" height="58" fill="none" rx="14" stroke="#e08214" stroke-width="1.5"/>
		<line x1="628" y1="89" x2="718" y2="89" stroke="#e08214" stroke-width="1.5"/>
		<text x="635" y="82.3" fill="#000000" font-family="Copperplate" font-size="18">échange</text>
	</g>
	<text x="678" y="187" fill="#542788" font-family="Futura" font-size="11">0,1</text>
	<text x="803" y="106" fill="#542788" font-family="Futura" font-size="11">0,N</text>
</g>

<!-- Association EST_SITUEE1 -->
<g>
	<line x1="891" y1="90" x2="1045" y2="90" stroke="#e08214" stroke-width="1"/>
	<line x1="1045" y1="293" x2="1045" y2="90" stroke="#e08214" stroke-width="1"/>
	<g>
		<path d="M1085 61 a14 14 90 0 1 14 14 V89 h-108 V75 a14 14 90 0 1 14 -14" fill="#fdb863" stroke="#fdb863" stroke-width="0"/>
		<path d="M1099 89 v16 a14 14 90 0 1 -14 14 H1005 a14 14 90 0 1 -14 -14 V89 H108" fill="#fee0b6" stroke="#fee0b6" stroke-width="0"/>
		<rect x="991" y="61" width="108" height="58" fill="none" rx="14" stroke="#e08214" stroke-width="1.5"/>
		<line x1="991" y1="89" x2="1099" y2="89" stroke="#e08214" stroke-width="1.5"/>
		<text x="998" y="82.3" fill="#000000" font-family="Copperplate" font-size="18">Est située</text>
	</g>
	<text x="960" y="106" fill="#542788" font-family="Futura" font-size="11">1,1</text>
	<text x="1050" y="238" fill="#542788" font-family="Futura" font-size="11">0,N</text>
</g>

<!-- Association CONTIENT -->
<g>
	<line x1="87" y1="293" x2="339" y2="293" stroke="#e08214" stroke-width="1"/>
	<line x1="673" y1="293" x2="339" y2="293" stroke="#e08214" stroke-width="1"/>
	<g>
		<path d="M470 230 a14 14 90 0 1 14 14 V258 h-290 V244 a14 14 90 0 1 14 -14" fill="#fdb863" stroke="#fdb863" stroke-width="0"/>
		<path d="M484 258 v84 a14 14 90 0 1 -14 14 H208 a14 14 90 0 1 -14 -14 V258 H290" fill="#fee0b6" stroke="#fee0b6" stroke-width="0"/>
		<rect x="194" y="230" width="290" height="126" fill="none" rx="14" stroke="#e08214" stroke-width="1.5"/>
		<line x1="194" y1="258" x2="484" y2="258" stroke="#e08214" stroke-width="1.5"/>
		<text x="299" y="251.3" fill="#000000" font-family="Copperplate" font-size="18">contient</text>
		<text x="201" y="276.1" fill="#000000" font-family="Gill Sans" font-size="15">Quantité</text>
		<text x="201" y="293.1" fill="#000000" font-family="Gill Sans" font-size="15">Prix dans la Devise du Portfolio</text>
		<text x="201" y="310.1" fill="#000000" font-family="Gill Sans" font-size="15">Prix dans la Devise de l’Instrument Financier</text>
		<text x="201" y="327" fill="#000000" font-family="Gill Sans" font-size="15">Frais Courtage</text>
		<text x="201" y="344" fill="#000000" font-family="Gill Sans" font-size="15">Taxes</text>
	</g>
	<text x="170" y="309" fill="#542788" font-family="Futura" font-size="11">1,1</text>
	<text x="489" y="309" fill="#542788" font-family="Futura" font-size="11">0,N</text>
</g>

<!-- Association EMET1 -->
<g>
	<line x1="1045" y1="293" x2="891" y2="293" stroke="#e08214" stroke-width="1"/>
	<line x1="673" y1="293" x2="891" y2="293" stroke="#e08214" stroke-width="1"/>
	<g>
		<path d="M906 264 a14 14 90 0 1 14 14 V292 h-58 V278 a14 14 90 0 1 14 -14" fill="#fdb863" stroke="#fdb863" stroke-width="0"/>
		<path d="M920 292 v16 a14 14 90 0 1 -14 14 H876 a14 14 90 0 1 -14 -14 V292 H58" fill="#fee0b6" stroke="#fee0b6" stroke-width="0"/>
		<rect x="862" y="264" width="58" height="58" fill="none" rx="14" stroke="#e08214" stroke-width="1.5"/>
		<line x1="862" y1="292" x2="920" y2="292" stroke="#e08214" stroke-width="1.5"/>
		<text x="870" y="285.3" fill="#000000" font-family="Copperplate" font-size="18">émet</text>
	</g>
	<text x="959" y="309" fill="#542788" font-family="Futura" font-size="11">0,N</text>
	<text x="838" y="309" fill="#542788" font-family="Futura" font-size="11">0,1</text>
</g>

<!-- Association EMET -->
<g>
	<line x1="673" y1="293" x2="673" y2="462" stroke="#e08214" stroke-width="1"/>
	<line x1="891" y1="462" x2="673" y2="462" stroke="#e08214" stroke-width="1"/>
	<g>
		<path d="M688 433 a14 14 90 0 1 14 14 V461 h-58 V447 a14 14 90 0 1 14 -14" fill="#fdb863" stroke="#fdb863" stroke-width="0"/>
		<path d="M702 461 v16 a14 14 90 0 1 -14 14 H658 a14 14 90 0 1 -14 -14 V461 H58" fill="#fee0b6" stroke="#fee0b6" stroke-width="0"/>
		<rect x="644" y="433" width="58" height="58" fill="none" rx="14" stroke="#e08214" stroke-width="1.5"/>
		<line x1="644" y1="461" x2="702" y2="461" stroke="#e08214" stroke-width="1.5"/>
		<text x="652" y="454.3" fill="#000000" font-family="Copperplate" font-size="18">émet</text>
	</g>
	<text x="678" y="407" fill="#542788" font-family="Futura" font-size="11">0,1</text>
	<text x="796" y="478" fill="#542788" font-family="Futura" font-size="11">0,N</text>
</g>

<!-- Association EST_SITUEE -->
<g>
	<line x1="891" y1="462" x2="1045" y2="462" stroke="#e08214" stroke-width="1"/>
	<line x1="1045" y1="293" x2="1045" y2="462" stroke="#e08214" stroke-width="1"/>
	<g>
		<path d="M1085 433 a14 14 90 0 1 14 14 V461 h-108 V447 a14 14 90 0 1 14 -14" fill="#fdb863" stroke="#fdb863" stroke-width="0"/>
		<path d="M1099 461 v16 a14 14 90 0 1 -14 14 H1005 a14 14 90 0 1 -14 -14 V461 H108" fill="#fee0b6" stroke="#fee0b6" stroke-width="0"/>
		<rect x="991" y="433" width="108" height="58" fill="none" rx="14" stroke="#e08214" stroke-width="1.5"/>
		<line x1="991" y1="461" x2="1099" y2="461" stroke="#e08214" stroke-width="1.5"/>
		<text x="998" y="454.3" fill="#000000" font-family="Copperplate" font-size="18">Est située</text>
	</g>
	<text x="967" y="478" fill="#542788" font-family="Futura" font-size="11">1,1</text>
	<text x="1050" y="356" fill="#542788" font-family="Futura" font-size="11">0,N</text>
</g>

<!-- Entity BOURSE -->
<g>
	<g>
		<rect x="827" y="9" width="128" height="30" fill="#b2abd2" stroke="none" stroke-width="0" opacity="1"/>
		<rect x="827" y="39" width="128" height="132" fill="#d8daeb" stroke="none" stroke-width="0" opacity="1"/>
		<rect x="827" y="9" width="128" height="162" fill="none" stroke="#8073ac" stroke-width="1.5" opacity="1"/>
		<line x1="827" y1="39" x2="955" y2="39" stroke="#8073ac" stroke-width="1.5"/>
	</g>
	<text x="857" y="30.3" fill="#000000" font-family="Copperplate" font-size="18">Bourse</text>
	<text x="835" y="56" fill="#000000" font-family="Gill Sans" font-size="15">Identifiant Bourse</text>
	<line x1="835" y1="59" x2="946" y2="59" stroke="#000000" stroke-width="1"/>
	<text x="835" y="73.1" fill="#000000" font-family="Gill Sans" font-size="15">Nom</text>
	<text x="835" y="90.1" fill="#000000" font-family="Gill Sans" font-size="15">Ville</text>
	<text x="835" y="107.1" fill="#000000" font-family="Gill Sans" font-size="15">Fuseau Horaire</text>
	<text x="835" y="124" fill="#000000" font-family="Gill Sans" font-size="15">Heure Ouveture</text>
	<text x="835" y="141" fill="#000000" font-family="Gill Sans" font-size="15">Heure Fermeture</text>
</g>

<!-- Entity TRANSACTION -->
<g>
	<g>
		<rect x="9" y="238" width="156" height="30" fill="#b2abd2" stroke="none" stroke-width="0" opacity="1"/>
		<rect x="9" y="268" width="156" height="80" fill="#d8daeb" stroke="none" stroke-width="0" opacity="1"/>
		<rect x="9" y="238" width="156" height="110" fill="none" stroke="#8073ac" stroke-width="1.5" opacity="1"/>
		<line x1="9" y1="268" x2="165" y2="268" stroke="#8073ac" stroke-width="1.5"/>
	</g>
	<text x="31" y="259.3" fill="#000000" font-family="Copperplate" font-size="18">Transaction</text>
	<text x="17" y="285.1" fill="#000000" font-family="Gill Sans" font-size="15">Identifiant Transaction</text>
	<line x1="17" y1="288" x2="157" y2="288" stroke="#000000" stroke-width="1"/>
	<text x="17" y="302.1" fill="#000000" font-family="Gill Sans" font-size="15">Type (Vente/Achat)</text>
	<text x="17" y="319.1" fill="#000000" font-family="Gill Sans" font-size="15">Date</text>
	<text x="17" y="336" fill="#000000" font-family="Gill Sans" font-size="15">Heure</text>
</g>

<!-- Entity INSTRUMENT_FINANCIER -->
<g>
	<g>
		<rect x="513" y="195" width="320" height="30" fill="#b2abd2" stroke="none" stroke-width="0" opacity="1"/>
		<rect x="513" y="225" width="320" height="166" fill="#d8daeb" stroke="none" stroke-width="0" opacity="1"/>
		<rect x="513" y="195" width="320" height="196" fill="none" stroke="#8073ac" stroke-width="1.5" opacity="1"/>
		<line x1="513" y1="225" x2="833" y2="225" stroke="#8073ac" stroke-width="1.5"/>
	</g>
	<text x="574" y="216.3" fill="#000000" font-family="Copperplate" font-size="18">Instrument Financier</text>
	<text x="521" y="242" fill="#000000" font-family="Gill Sans" font-size="15">ISIN</text>
	<line x1="521" y1="245" x2="549" y2="245" stroke="#000000" stroke-width="1"/>
	<text x="521" y="259" fill="#000000" font-family="Gill Sans" font-size="15">Nom</text>
	<text x="521" y="276.1" fill="#000000" font-family="Gill Sans" font-size="15">Type Instrument (Action/ETF/Obligation/Devise)</text>
	<text x="521" y="293.1" fill="#000000" font-family="Gill Sans" font-size="15">Devise</text>
	<text x="521" y="310.1" fill="#000000" font-family="Gill Sans" font-size="15">Symbole (Action/ETF)</text>
	<text x="521" y="327" fill="#000000" font-family="Gill Sans" font-size="15">Taux (Obligation)</text>
	<text x="521" y="344" fill="#000000" font-family="Gill Sans" font-size="15">Date Emission (Obligation)</text>
	<text x="521" y="361" fill="#000000" font-family="Gill Sans" font-size="15">Date Echeance (Obligation)</text>
	<text x="521" y="378" fill="#000000" font-family="Gill Sans" font-size="15">Couple Devise (Devise)</text>
</g>

<!-- Entity PAYS -->
<g>
	<g>
		<rect x="983" y="246" width="124" height="30" fill="#b2abd2" stroke="none" stroke-width="0" opacity="1"/>
		<rect x="983" y="276" width="124" height="64" fill="#d8daeb" stroke="none" stroke-width="0" opacity="1"/>
		<rect x="983" y="246" width="124" height="94" fill="none" stroke="#8073ac" stroke-width="1.5" opacity="1"/>
		<line x1="983" y1="276" x2="1107" y2="276" stroke="#8073ac" stroke-width="1.5"/>
	</g>
	<text x="1024" y="267.3" fill="#000000" font-family="Copperplate" font-size="18">Pays</text>
	<text x="991" y="293.1" fill="#000000" font-family="Gill Sans" font-size="15">Code ISO3166&#45;1</text>
	<line x1="991" y1="296" x2="1097" y2="296" stroke="#000000" stroke-width="1"/>
	<text x="991" y="310.1" fill="#000000" font-family="Gill Sans" font-size="15">Nom</text>
	<text x="991" y="327" fill="#000000" font-family="Gill Sans" font-size="15">Devise Principale</text>
</g>

<!-- Entity ENTREPRISE -->
<g>
	<g>
		<rect x="820" y="415" width="142" height="30" fill="#b2abd2" stroke="none" stroke-width="0" opacity="1"/>
		<rect x="820" y="445" width="142" height="64" fill="#d8daeb" stroke="none" stroke-width="0" opacity="1"/>
		<rect x="820" y="415" width="142" height="94" fill="none" stroke="#8073ac" stroke-width="1.5" opacity="1"/>
		<line x1="820" y1="445" x2="962" y2="445" stroke="#8073ac" stroke-width="1.5"/>
	</g>
	<text x="840" y="436.3" fill="#000000" font-family="Copperplate" font-size="18">Entreprise</text>
	<text x="828" y="462.1" fill="#000000" font-family="Gill Sans" font-size="15">Numero_entreprise</text>
	<line x1="828" y1="465" x2="954" y2="465" stroke="#000000" stroke-width="1"/>
	<text x="828" y="479.1" fill="#000000" font-family="Gill Sans" font-size="15">Nom</text>
	<text x="828" y="496" fill="#000000" font-family="Gill Sans" font-size="15">Secteur d’activité</text>
</g>
</svg>