<?xml version="1.0" encoding="utf-8"?>
<!-- Generated by Mocodo 4.3.2 -->
<svg width="558" height="128" viewBox="0 0 558 128" xmlns="http://www.w3.org/2000/svg">
<rect x="0" y="0" width="558" height="128" fill="#f7f7f7" stroke="none" stroke-width="0"/>

<!-- Association EST_MEMBRE_DE -->
<g>
	<line x1="109" y1="64" x2="310" y2="64" stroke="#e08214" stroke-width="1"/>
	<line x1="480" y1="64" x2="310" y2="64" stroke="#e08214" stroke-width="1"/>
	<g>
		<path d="M368 35 a14 14 90 0 1 14 14 V63 h-144 V49 a14 14 90 0 1 14 -14" fill="#fdb863" stroke="#fdb863" stroke-width="0"/>
		<path d="M382 63 v16 a14 14 90 0 1 -14 14 H252 a14 14 90 0 1 -14 -14 V63 H144" fill="#fee0b6" stroke="#fee0b6" stroke-width="0"/>
		<rect x="238" y="35" width="144" height="58" fill="none" rx="14" stroke="#e08214" stroke-width="1.5"/>
		<line x1="238" y1="63" x2="382" y2="63" stroke="#e08214" stroke-width="1.5"/>
		<text x="245" y="56.3" fill="#000000" font-family="Copperplate" font-size="18">est membre de</text>
		<text x="245" y="81.1" fill="#000000" font-family="Gill Sans" font-size="15">Niveau Accès</text>
	</g>
	<text x="214" y="80" fill="#542788" font-family="Futura" font-size="11">0,N</text>
	<text x="387" y="80" fill="#542788" font-family="Futura" font-size="11">1,N</text>
</g>

<!-- Entity UTILISATEUR -->
<g>
	<g>
		<rect x="9" y="9" width="200" height="30" fill="#b2abd2" stroke="none" stroke-width="0" opacity="1"/>
		<rect x="9" y="39" width="200" height="80" fill="#d8daeb" stroke="none" stroke-width="0" opacity="1"/>
		<rect x="9" y="9" width="200" height="110" fill="none" stroke="#8073ac" stroke-width="1.5" opacity="1"/>
		<line x1="9" y1="39" x2="209" y2="39" stroke="#8073ac" stroke-width="1.5"/>
	</g>
	<text x="56" y="30.3" fill="#000000" font-family="Copperplate" font-size="18">Utilisateur</text>
	<text x="17" y="56.1" fill="#000000" font-family="Gill Sans" font-size="15">Adresse Mail</text>
	<line x1="17" y1="59" x2="98" y2="59" stroke="#000000" stroke-width="1"/>
	<text x="17" y="73.1" fill="#000000" font-family="Gill Sans" font-size="15">Nom</text>
	<text x="17" y="90.1" fill="#000000" font-family="Gill Sans" font-size="15">Mot De Passe</text>
	<text x="17" y="107" fill="#000000" font-family="Gill Sans" font-size="15">Date De Création Utilisateur</text>
</g>

<!-- Entity PORTFOLIO -->
<g>
	<g>
		<rect x="411" y="9" width="138" height="30" fill="#b2abd2" stroke="none" stroke-width="0" opacity="1"/>
		<rect x="411" y="39" width="138" height="80" fill="#d8daeb" stroke="none" stroke-width="0" opacity="1"/>
		<rect x="411" y="9" width="138" height="110" fill="none" stroke="#8073ac" stroke-width="1.5" opacity="1"/>
		<line x1="411" y1="39" x2="549" y2="39" stroke="#8073ac" stroke-width="1.5"/>
	</g>
	<text x="434" y="30.3" fill="#000000" font-family="Copperplate" font-size="18">Portfolio</text>
	<text x="419" y="56.1" fill="#000000" font-family="Gill Sans" font-size="15">Identifiant Portfolio</text>
	<line x1="419" y1="59" x2="540" y2="59" stroke="#000000" stroke-width="1"/>
	<text x="419" y="73.1" fill="#000000" font-family="Gill Sans" font-size="15">Nom</text>
	<text x="419" y="90.1" fill="#000000" font-family="Gill Sans" font-size="15">Description</text>
	<text x="419" y="107" fill="#000000" font-family="Gill Sans" font-size="15">Date Création</text>
</g>
</svg>