<?xml version="1.0" encoding="utf-8"?>
<!-- Generated by Mocodo 4.3.3 -->
<svg width="644" height="124" viewBox="0 0 644 124" xmlns="http://www.w3.org/2000/svg">
<rect x="0" y="0" width="644" height="124" fill="#f7f7f7" stroke="none" stroke-width="0"/>

<!-- Association EST_MEMBRE_DE -->
<g>
	<line x1="133" y1="62" x2="352" y2="62" stroke="#e08214" stroke-width="1"/>
	<line x1="541" y1="62" x2="352" y2="62" stroke="#e08214" stroke-width="1"/>
	<g>
		<path d="M400 36 a14 14 90 0 1 14 14 V62 h-124 V50 a14 14 90 0 1 14 -14" fill="#fdb863" stroke="#fdb863" stroke-width="0"/>
		<path d="M414 62 v12 a14 14 90 0 1 -14 14 H304 a14 14 90 0 1 -14 -14 V62 H124" fill="#fee0b6" stroke="#fee0b6" stroke-width="0"/>
		<rect x="290" y="36" width="124" height="52" fill="none" rx="14" stroke="#e08214" stroke-width="1.5"/>
		<line x1="290" y1="62" x2="414" y2="62" stroke="#e08214" stroke-width="1"/>
		<text x="297" y="54.6" fill="#000000" font-family="Courier New" font-size="14">est membre de</text>
		<text x="297" y="80.6" fill="#000000" font-family="Courier New" font-size="14">Niveau Accès</text>
	</g>
	<text x="262" y="78" fill="#542788" font-family="Courier New" font-size="12">0,N</text>
	<text x="419" y="78" fill="#542788" font-family="Courier New" font-size="12">1,N</text>
</g>

<!-- Entity UTILISATEUR -->
<g>
	<g>
		<rect x="9" y="9" width="248" height="26" fill="#b2abd2" stroke="none" stroke-width="0" opacity="1"/>
		<rect x="9" y="35" width="248" height="80" fill="#d8daeb" stroke="none" stroke-width="0" opacity="1"/>
		<rect x="9" y="9" width="248" height="106" fill="none" stroke="#8073ac" stroke-width="1.5" opacity="1"/>
		<line x1="9" y1="35" x2="257" y2="35" stroke="#8073ac" stroke-width="1"/>
	</g>
	<text x="86" y="27.6" fill="#000000" font-family="Courier New" font-size="14">Utilisateur</text>
	<text x="14" y="53.6" fill="#000000" font-family="Courier New" font-size="14">Adresse Mail</text>
	<line x1="14" y1="56" x2="116" y2="56" stroke="#000000" stroke-width="1"/>
	<text x="14" y="71.6" fill="#000000" font-family="Courier New" font-size="14">Nom</text>
	<text x="14" y="89.6" fill="#000000" font-family="Courier New" font-size="14">Mot De Passe</text>
	<text x="14" y="107.6" fill="#000000" font-family="Courier New" font-size="14">Date De Création Utilisateur</text>
</g>

<!-- Entity PORTFOLIO -->
<g>
	<g>
		<rect x="447" y="9" width="188" height="26" fill="#b2abd2" stroke="none" stroke-width="0" opacity="1"/>
		<rect x="447" y="35" width="188" height="80" fill="#d8daeb" stroke="none" stroke-width="0" opacity="1"/>
		<rect x="447" y="9" width="188" height="106" fill="none" stroke="#8073ac" stroke-width="1.5" opacity="1"/>
		<line x1="447" y1="35" x2="635" y2="35" stroke="#8073ac" stroke-width="1"/>
	</g>
	<text x="503" y="27.6" fill="#000000" font-family="Courier New" font-size="14">Portfolio</text>
	<text x="452" y="53.6" fill="#000000" font-family="Courier New" font-size="14">Identifiant Portfolio</text>
	<line x1="452" y1="56" x2="630" y2="56" stroke="#000000" stroke-width="1"/>
	<text x="452" y="71.6" fill="#000000" font-family="Courier New" font-size="14">Nom</text>
	<text x="452" y="89.6" fill="#000000" font-family="Courier New" font-size="14">Description</text>
	<text x="452" y="107.6" fill="#000000" font-family="Courier New" font-size="14">Date Création</text>
</g>
</svg>