<?xml version="1.0" encoding="utf-8"?>
<!-- Generated by Mocodo 4.3.2 -->
<svg width="1200" height="602" viewBox="0 0 1200 602" xmlns="http://www.w3.org/2000/svg">
<rect x="0" y="0" width="1200" height="602" fill="#f7f7f7" stroke="none" stroke-width="0"/>

<!-- Entity BOURSE -->
<g>
	<g>
		<rect x="41" y="9" width="132" height="30" fill="#b2abd2" stroke="none" stroke-width="0" opacity="1"/>
		<rect x="41" y="39" width="132" height="132" fill="#d8daeb" stroke="none" stroke-width="0" opacity="1"/>
		<rect x="41" y="9" width="132" height="162" fill="none" stroke="#8073ac" stroke-width="1.5" opacity="1"/>
		<line x1="41" y1="39" x2="173" y2="39" stroke="#8073ac" stroke-width="1.5"/>
	</g>
	<text x="73" y="30.3" fill="#000000" font-family="Copperplate" font-size="18">Bourse</text>
	<text x="49" y="56" fill="#000000" font-family="Gill Sans" font-size="15">Identifiant Bourse</text>
	<line x1="49" y1="59" x2="160" y2="59" stroke="#000000" stroke-width="1"/>
	<text x="49" y="73.1" fill="#000000" font-family="Gill Sans" font-size="15">Nom</text>
	<text x="49" y="90.1" fill="#000000" font-family="Gill Sans" font-size="15">Ville</text>
	<text x="49" y="107.1" fill="#000000" font-family="Gill Sans" font-size="15">Fuseau Horaire</text>
	<text x="49" y="124" fill="#000000" font-family="Gill Sans" font-size="15">Heure Ouveture</text>
	<text x="49" y="141" fill="#000000" font-family="Gill Sans" font-size="15">Heure Fermeture</text>
	<text x="49" y="158" fill="#000000" font-family="Gill Sans" font-size="15">#Code ISO3166&#45;1</text>
</g>

<!-- Entity COURS -->
<g>
	<g>
		<rect x="330" y="9" width="128" height="30" fill="#b2abd2" stroke="none" stroke-width="0" opacity="1"/>
		<rect x="330" y="39" width="128" height="132" fill="#d8daeb" stroke="none" stroke-width="0" opacity="1"/>
		<rect x="330" y="9" width="128" height="162" fill="none" stroke="#8073ac" stroke-width="1.5" opacity="1"/>
		<line x1="330" y1="39" x2="458" y2="39" stroke="#8073ac" stroke-width="1.5"/>
	</g>
	<text x="365" y="30.3" fill="#000000" font-family="Copperplate" font-size="18">Cours</text>
	<text x="338" y="56" fill="#000000" font-family="Gill Sans" font-size="15">Date</text>
	<line x1="338" y1="59" x2="369" y2="59" stroke="#000000" stroke-width="1"/>
	<text x="338" y="73.1" fill="#000000" font-family="Gill Sans" font-size="15">#ISIN</text>
	<line x1="338" y1="76" x2="375" y2="76" stroke="#000000" stroke-width="1"/>
	<text x="338" y="90.1" fill="#000000" font-family="Gill Sans" font-size="15">Valeur Ouverture</text>
	<text x="338" y="107.1" fill="#000000" font-family="Gill Sans" font-size="15">Valeur Fermeture</text>
	<text x="338" y="124" fill="#000000" font-family="Gill Sans" font-size="15">Valeur Maximale</text>
	<text x="338" y="141" fill="#000000" font-family="Gill Sans" font-size="15">Valeur Minimale</text>
	<text x="338" y="158" fill="#000000" font-family="Gill Sans" font-size="15">Volume</text>
</g>

<!-- Entity PAYS -->
<g>
	<g>
		<rect x="46" y="280" width="122" height="30" fill="#b2abd2" stroke="none" stroke-width="0" opacity="1"/>
		<rect x="46" y="310" width="122" height="46" fill="#d8daeb" stroke="none" stroke-width="0" opacity="1"/>
		<rect x="46" y="280" width="122" height="76" fill="none" stroke="#8073ac" stroke-width="1.5" opacity="1"/>
		<line x1="46" y1="310" x2="168" y2="310" stroke="#8073ac" stroke-width="1.5"/>
	</g>
	<text x="86" y="301.3" fill="#000000" font-family="Copperplate" font-size="18">Pays</text>
	<text x="54" y="327.1" fill="#000000" font-family="Gill Sans" font-size="15">Code ISO3166&#45;1</text>
	<line x1="54" y1="330" x2="160" y2="330" stroke="#000000" stroke-width="1"/>
	<text x="54" y="344.1" fill="#000000" font-family="Gill Sans" font-size="15">Nom</text>
</g>

<!-- Entity INSTRUMENT_FINANCIER -->
<g>
	<g>
		<rect x="234" y="195" width="320" height="30" fill="#b2abd2" stroke="none" stroke-width="0" opacity="1"/>
		<rect x="234" y="225" width="320" height="216" fill="#d8daeb" stroke="none" stroke-width="0" opacity="1"/>
		<rect x="234" y="195" width="320" height="246" fill="none" stroke="#8073ac" stroke-width="1.5" opacity="1"/>
		<line x1="234" y1="225" x2="554" y2="225" stroke="#8073ac" stroke-width="1.5"/>
	</g>
	<text x="295" y="216.3" fill="#000000" font-family="Copperplate" font-size="18">Instrument Financier</text>
	<text x="242" y="242" fill="#000000" font-family="Gill Sans" font-size="15">ISIN</text>
	<line x1="242" y1="245" x2="270" y2="245" stroke="#000000" stroke-width="1"/>
	<text x="242" y="259" fill="#000000" font-family="Gill Sans" font-size="15">Nom</text>
	<text x="242" y="276" fill="#000000" font-family="Gill Sans" font-size="15">Type Instrument (Action/ETF/Obligation/Devise)</text>
	<text x="242" y="293.1" fill="#000000" font-family="Gill Sans" font-size="15">Symbole (Action/ETF)</text>
	<text x="242" y="310.1" fill="#000000" font-family="Gill Sans" font-size="15">Taux (Obligation)</text>
	<text x="242" y="327.1" fill="#000000" font-family="Gill Sans" font-size="15">Date Emission (Obligation)</text>
	<text x="242" y="344.1" fill="#000000" font-family="Gill Sans" font-size="15">Date Echeance (Obligation)</text>
	<text x="242" y="361" fill="#000000" font-family="Gill Sans" font-size="15">Couple Devise (Devise)</text>
	<text x="242" y="378" fill="#000000" font-family="Gill Sans" font-size="15">#Numero entreprise</text>
	<text x="242" y="395" fill="#000000" font-family="Gill Sans" font-size="15">#Code ISO3166&#45;1</text>
	<text x="242" y="412" fill="#000000" font-family="Gill Sans" font-size="15">#Identifiant Bourse</text>
	<text x="242" y="429" fill="#000000" font-family="Gill Sans" font-size="15">#Code ISO4217</text>
</g>

<!-- Entity TRANSACTION -->
<g>
	<g>
		<rect x="612" y="195" width="292" height="30" fill="#b2abd2" stroke="none" stroke-width="0" opacity="1"/>
		<rect x="612" y="225" width="292" height="216" fill="#d8daeb" stroke="none" stroke-width="0" opacity="1"/>
		<rect x="612" y="195" width="292" height="246" fill="none" stroke="#8073ac" stroke-width="1.5" opacity="1"/>
		<line x1="612" y1="225" x2="904" y2="225" stroke="#8073ac" stroke-width="1.5"/>
	</g>
	<text x="702" y="216.3" fill="#000000" font-family="Copperplate" font-size="18">Transaction</text>
	<text x="620" y="242" fill="#000000" font-family="Gill Sans" font-size="15">Identifiant Transaction</text>
	<line x1="620" y1="245" x2="760" y2="245" stroke="#000000" stroke-width="1"/>
	<text x="620" y="259" fill="#000000" font-family="Gill Sans" font-size="15">Type (Vente/Achat)</text>
	<text x="620" y="276" fill="#000000" font-family="Gill Sans" font-size="15">Date</text>
	<text x="620" y="293.1" fill="#000000" font-family="Gill Sans" font-size="15">Heure</text>
	<text x="620" y="310.1" fill="#000000" font-family="Gill Sans" font-size="15">Quantité</text>
	<text x="620" y="327.1" fill="#000000" font-family="Gill Sans" font-size="15">Prix dans la Devise du Portfolio</text>
	<text x="620" y="344.1" fill="#000000" font-family="Gill Sans" font-size="15">Prix dans la Devise de l’Instrument Financier</text>
	<text x="620" y="361" fill="#000000" font-family="Gill Sans" font-size="15">Frais</text>
	<text x="620" y="378" fill="#000000" font-family="Gill Sans" font-size="15">Taxes</text>
	<text x="620" y="395" fill="#000000" font-family="Gill Sans" font-size="15">#ISIN</text>
	<text x="620" y="412" fill="#000000" font-family="Gill Sans" font-size="15">#Adresse Mail</text>
	<text x="620" y="429" fill="#000000" font-family="Gill Sans" font-size="15">#Identifiant Portfolio</text>
</g>

<!-- Entity UTILISATEUR -->
<g>
	<g>
		<rect x="962" y="263" width="200" height="30" fill="#b2abd2" stroke="none" stroke-width="0" opacity="1"/>
		<rect x="962" y="293" width="200" height="80" fill="#d8daeb" stroke="none" stroke-width="0" opacity="1"/>
		<rect x="962" y="263" width="200" height="110" fill="none" stroke="#8073ac" stroke-width="1.5" opacity="1"/>
		<line x1="962" y1="293" x2="1162" y2="293" stroke="#8073ac" stroke-width="1.5"/>
	</g>
	<text x="1009" y="284.3" fill="#000000" font-family="Copperplate" font-size="18">Utilisateur</text>
	<text x="970" y="310.1" fill="#000000" font-family="Gill Sans" font-size="15">Adresse Mail</text>
	<line x1="970" y1="313" x2="1051" y2="313" stroke="#000000" stroke-width="1"/>
	<text x="970" y="327.1" fill="#000000" font-family="Gill Sans" font-size="15">Nom</text>
	<text x="970" y="344.1" fill="#000000" font-family="Gill Sans" font-size="15">Mot De Passe</text>
	<text x="970" y="361" fill="#000000" font-family="Gill Sans" font-size="15">Date De Création Utilisateur</text>
</g>

<!-- Entity ENTREPRISE -->
<g>
	<g>
		<rect x="38" y="474" width="138" height="30" fill="#b2abd2" stroke="none" stroke-width="0" opacity="1"/>
		<rect x="38" y="504" width="138" height="80" fill="#d8daeb" stroke="none" stroke-width="0" opacity="1"/>
		<rect x="38" y="474" width="138" height="110" fill="none" stroke="#8073ac" stroke-width="1.5" opacity="1"/>
		<line x1="38" y1="504" x2="176" y2="504" stroke="#8073ac" stroke-width="1.5"/>
	</g>
	<text x="56" y="495.3" fill="#000000" font-family="Copperplate" font-size="18">Entreprise</text>
	<text x="46" y="521.1" fill="#000000" font-family="Gill Sans" font-size="15">Numero entreprise</text>
	<line x1="46" y1="524" x2="168" y2="524" stroke="#000000" stroke-width="1"/>
	<text x="46" y="538.1" fill="#000000" font-family="Gill Sans" font-size="15">#Code ISO3166&#45;1</text>
	<line x1="46" y1="541" x2="161" y2="541" stroke="#000000" stroke-width="1"/>
	<text x="46" y="555.1" fill="#000000" font-family="Gill Sans" font-size="15">Nom</text>
	<text x="46" y="572" fill="#000000" font-family="Gill Sans" font-size="15">Secteur d’activité</text>
</g>

<!-- Entity DEVISE -->
<g>
	<g>
		<rect x="339" y="482" width="110" height="30" fill="#b2abd2" stroke="none" stroke-width="0" opacity="1"/>
		<rect x="339" y="512" width="110" height="64" fill="#d8daeb" stroke="none" stroke-width="0" opacity="1"/>
		<rect x="339" y="482" width="110" height="94" fill="none" stroke="#8073ac" stroke-width="1.5" opacity="1"/>
		<line x1="339" y1="512" x2="449" y2="512" stroke="#8073ac" stroke-width="1.5"/>
	</g>
	<text x="364" y="503.3" fill="#000000" font-family="Copperplate" font-size="18">Devise</text>
	<text x="347" y="529.1" fill="#000000" font-family="Gill Sans" font-size="15">Code ISO4217</text>
	<line x1="347" y1="532" x2="441" y2="532" stroke="#000000" stroke-width="1"/>
	<text x="347" y="546.1" fill="#000000" font-family="Gill Sans" font-size="15">Nom</text>
	<text x="347" y="563" fill="#000000" font-family="Gill Sans" font-size="15">Symbole</text>
</g>

<!-- Entity PORTFOLIO -->
<g>
	<g>
		<rect x="663" y="465" width="190" height="30" fill="#b2abd2" stroke="none" stroke-width="0" opacity="1"/>
		<rect x="663" y="495" width="190" height="98" fill="#d8daeb" stroke="none" stroke-width="0" opacity="1"/>
		<rect x="663" y="465" width="190" height="128" fill="none" stroke="#8073ac" stroke-width="1.5" opacity="1"/>
		<line x1="663" y1="495" x2="853" y2="495" stroke="#8073ac" stroke-width="1.5"/>
	</g>
	<text x="712" y="486.3" fill="#000000" font-family="Copperplate" font-size="18">Portfolio</text>
	<text x="671" y="512.1" fill="#000000" font-family="Gill Sans" font-size="15">Identifiant Portfolio</text>
	<line x1="671" y1="515" x2="792" y2="515" stroke="#000000" stroke-width="1"/>
	<text x="671" y="529.1" fill="#000000" font-family="Gill Sans" font-size="15">Nom</text>
	<text x="671" y="546.1" fill="#000000" font-family="Gill Sans" font-size="15">Description</text>
	<text x="671" y="563" fill="#000000" font-family="Gill Sans" font-size="15">Date De Création Portfolio</text>
	<text x="671" y="580" fill="#000000" font-family="Gill Sans" font-size="15">#Code ISO4217</text>
</g>

<!-- Entity EST_MEMBRE_DE -->
<g>
	<g>
		<rect x="989" y="482" width="146" height="30" fill="#b2abd2" stroke="none" stroke-width="0" opacity="1"/>
		<rect x="989" y="512" width="146" height="64" fill="#d8daeb" stroke="none" stroke-width="0" opacity="1"/>
		<rect x="989" y="482" width="146" height="94" fill="none" stroke="#8073ac" stroke-width="1.5" opacity="1"/>
		<line x1="989" y1="512" x2="1135" y2="512" stroke="#8073ac" stroke-width="1.5"/>
	</g>
	<text x="997" y="503.3" fill="#000000" font-family="Copperplate" font-size="18">est membre de</text>
	<text x="997" y="529.1" fill="#000000" font-family="Gill Sans" font-size="15">#Adresse Mail</text>
	<line x1="997" y1="532" x2="1087" y2="532" stroke="#000000" stroke-width="1"/>
	<text x="997" y="546.1" fill="#000000" font-family="Gill Sans" font-size="15">#Identifiant Portfolio</text>
	<line x1="997" y1="549" x2="1127" y2="549" stroke="#000000" stroke-width="1"/>
	<text x="997" y="563" fill="#000000" font-family="Gill Sans" font-size="15">Niveau Accès</text>
</g>

<!-- Link from &quot;Code ISO3166&#45;1&quot; (BOURSE) to &quot;Code ISO3166&#45;1&quot; (PAYS) -->
<path d="M173 155.5 C221 240 216 324.5 168 324.5" fill="none" stroke="#e08214" stroke-width="1"/>
<polygon points="168 324.5 180 318.5 176 324.5 180 330.5" fill="#e08214" stroke-width="0"/>
<circle cx="173" cy="155.5" r="1.5" stroke="#e08214" stroke-width="1.5" fill="#e08214"/>

<!-- Link from &quot;ISIN&quot; (COURS) to &quot;ISIN&quot; (INSTRUMENT_FINANCIER) -->
<path d="M330 70.5 C282 155 186 239.5 234 239.5" fill="none" stroke="#e08214" stroke-width="1"/>
<polygon points="234 239.5 222 245.5 226 239.5 222 233.5" fill="#e08214" stroke-width="0"/>
<circle cx="330" cy="70.5" r="1.5" stroke="#e08214" stroke-width="1.5" fill="#e08214"/>

<!-- Link from &quot;Numero entreprise&quot; (INSTRUMENT_FINANCIER) to &quot;Numero entreprise&quot; (ENTREPRISE) -->
<path d="M234 375.5 C205 447 214.67 518.5 176 518.5" fill="none" stroke="#e08214" stroke-width="1"/>
<polygon points="176 518.5 188 512.5 184 518.5 188 524.5" fill="#e08214" stroke-width="0"/>
<circle cx="234" cy="375.5" r="1.5" stroke="#e08214" stroke-width="1.5" fill="#e08214"/>

<!-- Link from &quot;Code ISO3166&#45;1&quot; (INSTRUMENT_FINANCIER) to &quot;Code ISO3166&#45;1&quot; (PAYS) -->
<path d="M234 392.5 C201 358.5 212 324.5 168 324.5" fill="none" stroke="#e08214" stroke-width="1"/>
<polygon points="168 324.5 180 318.5 176 324.5 180 330.5" fill="#e08214" stroke-width="0"/>
<circle cx="234" cy="392.5" r="1.5" stroke="#e08214" stroke-width="1.5" fill="#e08214"/>

<!-- Link from &quot;Identifiant Bourse&quot; (INSTRUMENT_FINANCIER) to &quot;Identifiant Bourse&quot; (BOURSE) -->
<path d="M234 409.5 C203.5 231.5 213.67 53.5 173 53.5" fill="none" stroke="#e08214" stroke-width="1"/>
<polygon points="173 53.5 185 47.5 181 53.5 185 59.5" fill="#e08214" stroke-width="0"/>
<circle cx="234" cy="409.5" r="1.5" stroke="#e08214" stroke-width="1.5" fill="#e08214"/>

<!-- Link from &quot;Code ISO4217&quot; (INSTRUMENT_FINANCIER) to &quot;Code ISO4217&quot; (DEVISE) -->
<path d="M234 426.5 C186 476.5 291 526.5 339 526.5" fill="none" stroke="#e08214" stroke-width="1"/>
<polygon points="339 526.5 327 532.5 331 526.5 327 520.5" fill="#e08214" stroke-width="0"/>
<circle cx="234" cy="426.5" r="1.5" stroke="#e08214" stroke-width="1.5" fill="#e08214"/>

<!-- Link from &quot;ISIN&quot; (TRANSACTION) to &quot;ISIN&quot; (INSTRUMENT_FINANCIER) -->
<path d="M612 392.5 C583 316 592.67 239.5 554 239.5" fill="none" stroke="#e08214" stroke-width="1"/>
<polygon points="554 239.5 566 233.5 562 239.5 566 245.5" fill="#e08214" stroke-width="0"/>
<circle cx="612" cy="392.5" r="1.5" stroke="#e08214" stroke-width="1.5" fill="#e08214"/>

<!-- Link from &quot;Adresse Mail&quot; (TRANSACTION) to &quot;Adresse Mail&quot; (UTILISATEUR) -->
<path d="M904 409.5 C933 358.5 923.33 307.5 962 307.5" fill="none" stroke="#e08214" stroke-width="1"/>
<polygon points="962 307.5 950 313.5 954 307.5 950 301.5" fill="#e08214" stroke-width="0"/>
<circle cx="904" cy="409.5" r="1.5" stroke="#e08214" stroke-width="1.5" fill="#e08214"/>

<!-- Link from &quot;Identifiant Portfolio&quot; (TRANSACTION) to &quot;Identifiant Portfolio&quot; (PORTFOLIO) -->
<path d="M612 426.5 C564 468 615 509.5 663 509.5" fill="none" stroke="#e08214" stroke-width="1"/>
<polygon points="663 509.5 651 515.5 655 509.5 651 503.5" fill="#e08214" stroke-width="0"/>
<circle cx="612" cy="426.5" r="1.5" stroke="#e08214" stroke-width="1.5" fill="#e08214"/>

<!-- Link from &quot;Code ISO3166&#45;1&quot; (ENTREPRISE) to &quot;Code ISO3166&#45;1&quot; (PAYS) -->
<path d="M38 535.5 C-10 430 -2 324.5 46 324.5" fill="none" stroke="#e08214" stroke-width="1"/>
<polygon points="46 324.5 34 330.5 38 324.5 34 318.5" fill="#e08214" stroke-width="0"/>
<circle cx="38" cy="535.5" r="1.5" stroke="#e08214" stroke-width="1.5" fill="#e08214"/>

<!-- Link from &quot;Code ISO4217&quot; (PORTFOLIO) to &quot;Code ISO4217&quot; (DEVISE) -->
<path d="M663 577.5 C556 552 591.67 526.5 449 526.5" fill="none" stroke="#e08214" stroke-width="1"/>
<polygon points="449 526.5 461 520.5 457 526.5 461 532.5" fill="#e08214" stroke-width="0"/>
<circle cx="663" cy="577.5" r="1.5" stroke="#e08214" stroke-width="1.5" fill="#e08214"/>

<!-- Link from &quot;Adresse Mail&quot; (EST_MEMBRE_DE) to &quot;Adresse Mail&quot; (UTILISATEUR) -->
<path d="M1135 526.5 C1183 417 1210 307.5 1162 307.5" fill="none" stroke="#e08214" stroke-width="1"/>
<polygon points="1162 307.5 1174 301.5 1170 307.5 1174 313.5" fill="#e08214" stroke-width="0"/>
<circle cx="1135" cy="526.5" r="1.5" stroke="#e08214" stroke-width="1.5" fill="#e08214"/>

<!-- Link from &quot;Identifiant Portfolio&quot; (EST_MEMBRE_DE) to &quot;Identifiant Portfolio&quot; (PORTFOLIO) -->
<path d="M989 543.5 C921 526.5 943.67 509.5 853 509.5" fill="none" stroke="#e08214" stroke-width="1"/>
<polygon points="853 509.5 865 503.5 861 509.5 865 515.5" fill="#e08214" stroke-width="0"/>
<circle cx="989" cy="543.5" r="1.5" stroke="#e08214" stroke-width="1.5" fill="#e08214"/>
</svg>